<svg width="178" height="124" viewBox="0 0 178 124" fill="none" xmlns="http://www.w3.org/2000/svg">
<path d="M163.043 82.2691C163.142 82.2691 163.341 82.2691 163.64 82.3687C164.238 82.4683 164.437 82.5679 164.437 84.5599C164.537 88.0458 164.437 92.1293 164.437 95.1173C164.437 95.8145 164.537 96.0137 164.636 96.0137C164.736 96.0137 164.935 95.9141 165.333 95.5157C166.13 94.7189 173.6 85.3567 174.596 84.1615C174.596 87.249 174.596 90.237 174.496 93.2249C174.496 94.6193 174.397 95.3165 173.899 95.4161C173.7 95.4161 173.5 95.5157 173.401 95.5157C173.202 95.5157 173.102 95.6153 173.102 95.6153C173.102 95.7149 173.202 95.7149 173.401 95.7149C174.098 95.7149 174.596 95.6153 174.994 95.6153C175.293 95.6153 176.887 95.7149 177.484 95.7149C177.684 95.7149 177.783 95.7149 177.783 95.6153C177.783 95.5157 177.684 95.5157 177.484 95.5157C177.186 95.5157 176.887 95.4161 176.787 95.4161C176.19 95.3165 176.09 94.8185 176.09 93.5237C175.99 90.1374 175.99 86.9502 175.99 83.5639C175.99 81.9703 175.891 81.8707 175.692 81.8707C175.492 81.8707 175.194 82.1695 174.496 82.9663C172.704 85.1575 168.022 90.9342 165.831 93.6233V84.2611C165.831 82.7671 166.031 82.5679 166.529 82.3687C166.728 82.3687 166.827 82.3687 167.027 82.2691C167.226 82.2691 167.226 82.1695 167.226 82.1695C167.226 82.0699 167.126 82.0699 166.927 82.0699C166.429 82.0699 165.732 82.1695 165.134 82.1695C164.835 82.1695 163.74 82.0699 163.142 82.0699C162.943 82.0699 162.744 82.0699 162.744 82.1695C162.843 82.1695 162.843 82.1695 163.043 82.2691ZM167.823 79.9783C168.52 80.4763 169.317 80.6755 170.114 80.6755C171.708 80.6755 173.102 79.8787 173.998 78.6836C174.098 78.584 174.098 78.3848 173.998 78.3848C173.899 78.3848 173.899 78.3848 173.799 78.584C173.002 79.4804 172.206 79.8787 170.911 79.8787C169.218 79.8787 168.321 79.082 168.222 78.4844C168.222 78.3848 168.122 78.3848 168.122 78.3848C168.022 78.3848 167.724 78.6836 167.525 78.8828C167.425 78.9824 167.425 79.082 167.425 79.1816C167.226 79.3808 167.425 79.6796 167.823 79.9783ZM141.828 82.2691C141.928 82.2691 142.326 82.2691 142.525 82.3687C142.924 82.4683 143.123 82.7671 143.123 83.3647C143.123 83.9623 143.123 84.4603 143.123 87.249V90.4362C143.123 92.1294 143.123 93.6233 143.023 94.3205C142.924 94.8185 142.824 95.2169 142.525 95.3165C142.326 95.3165 142.127 95.4161 142.027 95.4161C141.828 95.4161 141.828 95.5157 141.828 95.5157C141.828 95.6153 141.928 95.6153 142.127 95.6153C142.625 95.6153 143.72 95.5157 143.82 95.5157C143.92 95.5157 145.015 95.6153 146.011 95.6153C146.21 95.6153 146.31 95.6153 146.31 95.5157C146.31 95.4161 146.21 95.4161 146.111 95.4161C146.011 95.4161 145.613 95.4161 145.414 95.3165C144.916 95.2169 144.716 94.8185 144.716 94.3205C144.617 93.5237 144.617 92.1294 144.617 90.4362V88.5438C146.21 90.4362 149.497 93.9221 150.593 94.8185C151.489 95.5157 151.888 95.7149 153.382 95.7149H154.676C154.876 95.7149 154.975 95.7149 154.975 95.6153C154.975 95.5157 154.876 95.5157 154.676 95.5157C154.477 95.5157 154.278 95.5157 154.178 95.4161C153.282 95.2169 152.684 94.8185 151.19 93.4241C150.294 92.6273 147.007 89.241 145.912 88.0458C146.41 87.5478 148.402 85.4563 149.995 83.9623C151.091 82.8667 151.39 82.6675 151.888 82.4683C152.186 82.3687 152.485 82.2691 152.784 82.2691C152.983 82.2691 152.983 82.1695 152.983 82.1695C152.983 82.0699 152.884 82.0699 152.684 82.0699C152.386 82.0699 151.29 82.1695 150.792 82.1695C150.194 82.1695 150.194 82.0699 149.696 82.0699C149.497 82.0699 149.398 82.0699 149.398 82.1695C149.398 82.2691 149.398 82.2691 149.597 82.3687C149.696 82.4683 149.796 82.5679 149.796 82.6675C149.796 82.8667 149.696 83.0659 148.601 84.1615C147.505 85.2571 145.015 87.8466 144.517 88.4442V87.249C144.517 84.4603 144.517 83.9623 144.517 83.3647C144.517 82.7671 144.716 82.3687 145.214 82.2691C145.414 82.2691 145.414 82.2691 145.613 82.2691C145.812 82.2691 145.812 82.1695 145.812 82.1695C145.812 82.0699 145.712 82.0699 145.513 82.0699C145.015 82.0699 143.82 82.1695 143.72 82.1695C143.621 82.1695 142.426 82.0699 141.828 82.0699C141.629 82.0699 141.529 82.0699 141.529 82.1695C141.629 82.1695 141.629 82.2691 141.828 82.2691ZM155.871 82.2691C155.971 82.2691 156.27 82.2691 156.469 82.3687C156.867 82.4683 157.067 82.7671 157.067 83.3647C157.067 83.9623 157.067 84.4603 157.067 87.249V90.4362C157.067 92.1294 157.067 93.6233 156.967 94.3205C156.867 94.8185 156.768 95.2169 156.469 95.3165C156.27 95.3165 156.071 95.4161 155.971 95.4161C155.772 95.4161 155.772 95.5157 155.772 95.5157C155.772 95.6153 155.871 95.6153 156.071 95.6153C156.569 95.6153 157.764 95.5157 157.863 95.5157C157.963 95.5157 159.158 95.6153 160.055 95.6153C160.254 95.6153 160.353 95.5157 160.353 95.5157C160.353 95.4161 160.254 95.4161 160.154 95.4161C160.055 95.4161 159.656 95.4161 159.457 95.3165C158.959 95.2169 158.76 94.8185 158.76 94.3205C158.66 93.5237 158.66 92.1294 158.66 90.4362V87.249C158.66 84.4603 158.66 83.9623 158.66 83.3647C158.66 82.7671 158.859 82.4683 159.357 82.3687C159.557 82.3687 159.656 82.2691 159.855 82.2691C159.955 82.2691 159.955 82.2691 159.955 82.1695C159.955 82.0699 159.855 82.0699 159.656 82.0699C159.158 82.0699 157.963 82.1695 157.863 82.1695C157.764 82.1695 156.668 82.0699 156.071 82.0699C155.871 82.0699 155.772 82.0699 155.772 82.1695C155.672 82.1695 155.772 82.2691 155.871 82.2691ZM126.888 88.5438C126.888 90.237 127.287 92.3285 129.08 93.9221C130.474 95.2169 132.366 95.9141 135.055 95.9141C136.251 95.9141 137.545 95.8145 138.342 95.5157C138.641 95.4161 138.741 95.3165 138.84 95.0177C139.039 94.4201 139.239 92.8265 139.239 92.7269C139.239 92.6273 139.239 92.4281 139.139 92.4281C139.039 92.4281 139.039 92.5277 138.94 92.7269C138.84 93.0257 138.641 93.8225 138.243 94.2209C137.545 94.9181 136.45 95.1173 135.055 95.1173C131.171 95.1173 128.482 91.9302 128.482 88.5438C128.482 86.6514 128.781 85.0579 130.076 83.8627C130.673 83.2651 131.868 82.5679 134.259 82.5679C135.852 82.5679 137.247 83.0659 137.844 83.5639C138.342 83.9623 138.641 84.6595 138.641 85.4563C138.641 85.7551 138.641 85.8546 138.741 85.8546C138.84 85.8546 138.84 85.7551 138.94 85.4563C138.94 85.1575 138.94 84.1615 139.039 83.5639C139.039 82.8667 139.139 82.6675 139.139 82.5679C139.139 82.4683 139.139 82.3687 138.94 82.3687C138.243 82.2691 137.745 82.2691 137.047 82.0699C136.151 81.8707 135.155 81.8707 134.458 81.8707C131.669 81.8707 130.076 82.7671 128.98 83.7631C127.287 85.2571 126.888 87.3486 126.888 88.5438ZM84.0611 95.3165C83.9614 95.3165 83.9614 95.4161 83.9614 95.4161C83.9614 95.5157 84.1606 95.5157 84.4594 95.5157C85.7542 95.5157 87.049 95.5157 87.2482 95.5157C87.4474 95.5157 87.6466 95.5157 87.6466 95.4161C87.6466 95.3165 87.547 95.3165 87.4474 95.3165C87.3478 95.3165 87.049 95.3165 86.7502 95.2169C86.3518 95.1173 85.8538 94.8185 85.1566 93.2249C84.061 90.4362 81.1727 82.9663 80.9735 82.3687C80.7743 81.7711 80.6747 81.6715 80.5751 81.6715C80.4755 81.6715 80.3759 81.7711 80.1767 82.3687L76.0932 93.6233C75.7944 94.5197 75.396 95.2169 74.5992 95.3165C74.4996 95.3165 74.3004 95.3165 74.2008 95.3165C74.0016 95.3165 73.902 95.3165 73.902 95.4161C73.902 95.5157 74.0016 95.5157 74.2008 95.5157C75.0972 95.5157 76.0932 95.4161 76.2924 95.4161C76.4916 95.4161 77.1888 95.5157 77.6868 95.5157C77.8859 95.5157 77.9855 95.5157 77.9855 95.4161C77.9855 95.3165 77.8859 95.3165 77.7863 95.3165H77.5872C77.2884 95.3165 76.89 95.1173 76.89 94.8185C76.89 94.5197 76.9896 94.0217 77.1888 93.6233L78.2843 90.4362C78.2843 90.3366 78.3839 90.3366 78.4835 90.3366H82.3679C82.4675 90.3366 82.4675 90.3366 82.5671 90.4362L84.2602 94.9181C84.2602 95.1173 84.1606 95.3165 84.0611 95.3165ZM82.0691 89.6394H78.6827C78.5831 89.6394 78.5831 89.6394 78.5831 89.5398L80.1767 84.6595C80.2763 84.3607 80.3759 84.3607 80.4755 84.6595L82.1687 89.5398C82.1687 89.6394 82.1687 89.6394 82.0691 89.6394ZM94.9173 122.806C94.8177 122.806 94.5189 122.806 94.3197 122.706C93.9213 122.606 93.8217 122.407 93.8217 122.009C93.7221 121.511 93.7221 120.415 93.7221 119.22V116.929C93.7221 114.937 93.7221 114.539 93.7221 114.141C93.7221 113.742 93.8217 113.443 94.2201 113.443C94.3197 113.443 94.4193 113.443 94.5189 113.443C94.6185 113.443 94.7181 113.443 94.7181 113.344C94.7181 113.244 94.6185 113.244 94.5189 113.244C94.1205 113.244 93.2241 113.244 93.1245 113.244C93.1245 113.244 92.2281 113.244 91.7301 113.244C91.5309 113.244 91.5309 113.244 91.5309 113.344C91.5309 113.443 91.6305 113.443 91.7301 113.443C91.8297 113.443 91.9293 113.443 92.0289 113.443C92.3277 113.543 92.4273 113.742 92.4273 114.141C92.4273 114.539 92.4273 114.937 92.4273 116.929V119.22C92.4273 120.316 92.4273 121.411 92.3277 122.009C92.3277 122.407 92.2281 122.706 92.0289 122.706C91.9293 122.706 91.7301 122.706 91.6305 122.706C91.5309 122.706 91.4313 122.706 91.4313 122.806C91.4313 122.905 91.5309 122.905 91.6305 122.905C92.0289 122.905 92.9253 122.905 93.0249 122.905C93.1245 122.905 94.0209 122.905 94.7181 122.905C94.9173 122.905 94.9173 122.905 94.9173 122.806C95.1165 122.905 95.0169 122.905 94.9173 122.806ZM107.965 122.806C107.765 122.806 107.467 122.806 107.367 122.706C106.969 122.606 106.869 122.407 106.769 121.312C106.769 118.921 106.769 116.631 106.67 114.24C106.67 113.145 106.57 113.045 106.471 113.045C106.271 113.045 106.072 113.244 105.574 113.842C104.379 115.137 101.092 119.121 99.2996 121.312V114.838C99.2996 113.742 99.3992 113.643 99.7976 113.543C99.8972 113.543 99.9968 113.543 100.096 113.543C100.296 113.543 100.296 113.443 100.296 113.443C100.296 113.344 100.196 113.344 100.096 113.344C99.698 113.344 99.2 113.344 98.702 113.344C98.5028 113.344 97.6064 113.344 97.208 113.344C97.0088 113.344 96.9092 113.344 96.9092 113.443C96.9092 113.443 96.9092 113.543 97.0088 113.543C97.1084 113.543 97.3076 113.543 97.4072 113.543C97.8056 113.543 98.0048 113.643 98.0048 115.037C98.0048 117.527 98.0048 120.515 98.0048 122.507C98.0048 123.005 98.0048 123.104 98.204 123.104C98.3036 123.104 98.4032 123.104 98.702 122.806C99.2 122.308 104.778 115.635 105.475 114.838C105.475 116.929 105.475 119.021 105.375 121.112C105.375 122.108 105.276 122.606 104.877 122.706C104.778 122.706 104.578 122.706 104.479 122.806C104.28 122.806 104.28 122.806 104.28 122.905C104.28 123.005 104.28 123.005 104.479 123.005C104.977 123.005 105.375 123.005 105.674 123.005C105.873 123.005 107.168 123.005 107.666 123.005C107.865 123.005 107.865 123.005 107.865 122.905C108.164 122.905 108.164 122.905 107.965 122.806ZM88.9414 117.925C88.3438 117.627 87.7462 117.427 86.1526 117.427H85.8538C85.8538 117.427 85.7542 117.427 85.7542 117.328V117.029C85.7542 115.037 85.7542 114.639 85.7542 114.24C85.7542 113.842 85.8538 113.543 86.2522 113.543C86.3518 113.543 86.551 113.543 86.551 113.543C86.6506 113.543 86.7502 113.543 86.7502 113.443C86.7502 113.344 86.6506 113.344 86.551 113.344C86.1526 113.344 85.2562 113.344 85.1566 113.344C85.057 113.344 84.2602 113.344 83.8618 113.344C83.6626 113.344 83.6627 113.344 83.6627 113.443C83.6627 113.543 83.7622 113.543 83.8618 113.543C83.9614 113.543 84.0611 113.543 84.1606 113.543C84.4594 113.643 84.559 113.842 84.559 114.24C84.559 114.639 84.559 115.037 84.559 117.029V119.32C84.559 120.415 84.559 121.511 84.4594 122.108C84.4594 122.507 84.3598 122.806 84.0611 122.806C83.9614 122.806 83.7623 122.806 83.7623 122.806C83.6627 122.806 83.5631 122.806 83.5631 122.905C83.5631 123.005 83.6627 123.005 83.7623 123.005C84.1606 123.005 85.057 123.005 85.057 123.005C85.4554 123.005 86.4514 123.104 87.049 123.104C89.3398 123.104 90.3357 121.511 90.3357 120.316C90.4353 119.121 89.8378 118.423 88.9414 117.925ZM87.3478 122.706C86.8498 122.706 86.551 122.606 86.1526 122.507C85.9534 122.407 85.7542 122.208 85.7542 121.81C85.7542 121.212 85.7542 120.117 85.7542 118.822V117.925C85.7542 117.925 85.7542 117.826 85.8538 117.826C86.8498 117.826 87.7462 117.925 88.2442 118.324C88.9414 118.921 89.1406 119.619 89.1406 120.515C89.1406 122.009 88.3438 122.706 87.3478 122.706ZM69.2209 113.244C69.2209 113.244 69.1213 113.244 68.9221 113.344C68.7229 113.344 68.2249 113.443 67.8265 113.443H62.8466C62.8466 113.443 62.4482 113.443 61.8506 113.344C61.5518 113.344 61.253 113.145 61.1534 113.145C61.1534 113.145 61.0538 113.244 61.0538 113.344C60.9542 113.742 60.755 114.738 60.755 114.838C60.755 114.937 60.755 114.937 60.8546 114.937C60.9542 114.937 60.9542 114.937 60.9542 114.838C60.9542 114.738 61.0538 114.539 61.1534 114.34C61.3526 114.041 61.5518 113.842 62.5478 113.842C63.1454 113.842 63.9422 113.842 64.4402 113.842V119.22C64.4402 120.316 64.4402 121.411 64.3406 122.009C64.241 122.507 64.241 122.706 63.9422 122.706C63.8426 122.706 63.743 122.706 63.6434 122.706C63.5438 122.706 63.4442 122.806 63.4442 122.806C63.4442 122.905 63.5438 122.905 63.6434 122.905C64.0418 122.905 64.9382 122.905 65.0378 122.905C65.1374 122.905 66.0337 122.905 66.7309 122.905C66.9301 122.905 66.9301 122.905 66.9301 122.806C66.9301 122.806 66.8305 122.706 66.7309 122.706C66.6313 122.706 66.3325 122.706 66.1333 122.606C65.7349 122.507 65.7349 122.308 65.6353 121.909C65.5357 121.312 65.5357 120.316 65.5357 119.121V113.742C65.9341 113.742 66.4321 113.742 67.0297 113.742C68.5237 113.742 68.7229 113.941 68.8225 114.539C68.8225 114.738 68.8225 114.738 68.8225 114.738C68.8225 114.838 68.8225 114.937 68.9221 114.937C68.9221 114.937 69.0217 114.937 69.0217 114.738C69.0217 114.639 69.0217 113.643 69.0217 113.244C69.3205 113.344 69.3205 113.244 69.2209 113.244ZM59.6594 121.212C59.5598 121.212 59.5598 121.312 59.5598 121.411C59.4602 122.009 59.3606 122.308 58.8626 122.407C58.4643 122.507 57.9663 122.507 57.6675 122.507C57.1695 122.507 56.7711 122.507 56.5719 122.407C56.2731 122.308 56.1735 122.009 56.1735 121.411C56.1735 121.112 56.1735 119.818 56.1735 119.32V118.224C56.1735 118.125 56.1735 118.125 56.2731 118.125C56.4723 118.125 57.7671 118.125 58.0659 118.224C58.6635 118.224 58.7631 118.523 58.7631 118.722C58.7631 118.822 58.7631 119.021 58.7631 119.121C58.7631 119.22 58.7631 119.32 58.8626 119.32C58.9622 119.32 58.9623 119.32 58.9623 119.121C58.9623 118.921 58.9622 118.623 59.0618 118.224C59.0618 117.826 59.1614 117.527 59.1614 117.427C59.1614 117.328 59.1614 117.328 59.0618 117.328C58.9622 117.328 58.9622 117.328 58.8626 117.427C58.7631 117.627 58.5639 117.627 58.1655 117.627C57.8667 117.627 56.2731 117.627 56.0739 117.627C55.9743 117.627 55.9743 117.527 55.9743 117.427V114.041C55.9743 113.941 55.9743 113.941 56.0739 113.941C56.0739 113.941 57.5679 113.941 57.7671 113.941C58.5639 113.941 58.6635 114.141 58.7631 114.439C58.7631 114.539 58.8626 114.738 58.8626 114.937C58.8626 115.037 58.8627 115.137 58.9623 115.137C59.0619 115.137 59.0618 115.037 59.0618 114.937C59.0618 114.639 59.0618 114.439 59.0618 114.141C59.0618 113.742 59.1614 113.543 59.1614 113.443C59.1614 113.344 59.1614 113.344 59.0618 113.344C58.9622 113.344 58.9622 113.344 58.8626 113.344C58.7631 113.344 58.5639 113.443 58.2651 113.443C57.9663 113.443 55.2771 113.443 55.1775 113.443C54.2811 113.443 53.8827 113.443 53.5839 113.443C53.3847 113.443 53.3847 113.443 53.3847 113.543C53.3847 113.543 53.4843 113.643 53.5839 113.643C53.6835 113.643 53.8827 113.643 53.9823 113.643C54.3807 113.742 54.4803 113.941 54.5799 114.34C54.5799 114.738 54.5799 115.137 54.5799 117.129V119.419C54.5799 120.614 54.5799 121.212 54.5799 121.71C54.5799 122.606 54.3807 122.806 54.0819 122.905C53.9823 122.905 53.8827 122.905 53.7831 122.905C53.6835 122.905 53.6835 122.905 53.6835 123.005C53.6835 123.104 53.7831 123.104 53.8827 123.104C54.2811 123.104 54.5799 123.104 54.8787 123.104C55.4763 123.104 56.1735 123.104 56.6715 123.104C57.1695 123.104 57.6675 123.104 58.6635 123.104C59.1614 123.104 59.261 123.104 59.3606 122.806C59.3606 122.507 59.5598 121.61 59.5598 121.511C59.759 121.312 59.759 121.212 59.6594 121.212ZM99.4988 111.551C99.9968 111.949 100.594 112.049 101.092 112.049C102.188 112.049 103.184 111.551 103.881 110.655C103.981 110.555 103.981 110.455 103.881 110.455C103.782 110.455 103.782 110.455 103.682 110.555C103.184 111.153 102.487 111.451 101.59 111.451C100.296 111.451 99.698 110.953 99.5984 110.555C99.5984 110.555 99.5984 110.455 99.4988 110.455C99.3992 110.455 99.2 110.655 99.1004 110.854C99.1004 110.953 99.0008 110.953 99.0008 111.053C99.1004 111.153 99.2996 111.352 99.4988 111.551ZM81.1727 122.806C81.0731 122.806 80.8739 122.806 80.6747 122.806C80.2763 122.806 80.1767 122.507 80.1767 122.108C80.0771 121.61 80.0771 120.614 80.0771 119.32V117.029C80.0771 115.037 80.0771 114.639 80.0771 114.24C80.0771 113.842 80.1767 113.543 80.5751 113.543C80.6747 113.543 80.7743 113.543 80.8739 113.543C80.9735 113.543 81.0731 113.443 81.0731 113.443C81.0731 113.344 80.9735 113.344 80.8739 113.344C80.3759 113.344 79.5791 113.344 79.4795 113.344C79.3799 113.344 78.4835 113.344 77.8859 113.344C77.7863 113.344 77.6868 113.344 77.6868 113.443C77.6868 113.543 77.7863 113.543 77.8859 113.543C77.9855 113.543 78.1847 113.543 78.2843 113.543C78.7823 113.643 78.8819 113.842 78.8819 114.24C78.8819 114.639 78.8819 115.037 78.8819 117.029V117.328C78.8819 117.427 78.8819 117.427 78.7823 117.427H73.3044C73.3044 117.427 73.2048 117.427 73.2048 117.328V117.029C73.2048 115.037 73.2048 114.738 73.2048 114.34C73.2048 113.941 73.3044 113.643 73.7028 113.643C73.902 113.643 73.902 113.643 74.0016 113.643C74.1012 113.643 74.2008 113.643 74.2008 113.543C74.2008 113.443 74.1012 113.443 74.0016 113.443C73.6032 113.443 72.7068 113.443 72.6072 113.443C72.408 113.443 71.7108 113.443 71.0137 113.443C70.8145 113.443 70.8145 113.443 70.8145 113.543C70.8145 113.543 70.9141 113.643 71.0137 113.643C71.1133 113.643 71.3124 113.643 71.412 113.643C71.8104 113.643 71.91 113.941 72.0096 114.34C72.0096 114.738 72.0096 115.137 72.0096 117.129V119.32C72.0096 120.515 72.0096 121.61 71.91 122.108C71.91 122.407 71.8104 122.706 71.5117 122.806C71.412 122.806 71.3125 122.806 71.1133 122.806C71.0137 122.806 70.9141 122.905 70.9141 122.905C70.9141 123.005 71.0137 123.005 71.1133 123.005C71.5117 123.005 72.408 123.005 72.5076 123.005C72.6072 123.005 73.5036 123.005 74.2008 123.005C74.3004 123.005 74.4 123.005 74.4 122.905C74.4 122.806 74.3004 122.806 74.2008 122.806C74.1012 122.806 73.902 122.806 73.7028 122.806C73.3044 122.806 73.2048 122.507 73.2048 122.108C73.1052 121.61 73.1052 120.614 73.1052 119.32V117.925C73.1052 117.826 73.1052 117.826 73.2048 117.826H78.6827C78.6827 117.826 78.7823 117.826 78.7823 117.925V119.32C78.7823 120.515 78.7823 121.511 78.6827 122.009C78.6827 122.308 78.5831 122.706 78.2843 122.706C78.1847 122.706 78.0851 122.706 77.9855 122.706C77.8859 122.706 77.7863 122.706 77.7863 122.806C77.7863 122.905 77.8859 122.905 77.9855 122.905C78.3839 122.905 79.2803 122.905 79.3799 122.905C79.4795 122.905 80.3759 122.905 81.0731 122.905C81.2723 122.905 81.2723 122.905 81.2723 122.806C81.3719 122.905 81.2723 122.806 81.1727 122.806ZM122.406 122.308C122.307 122.308 122.207 122.308 122.207 122.108C121.112 119.419 119.02 114.141 118.721 113.443C118.622 113.145 118.522 113.045 118.423 113.045C118.323 113.045 118.223 113.145 118.024 113.643L114.837 122.108C114.737 122.208 114.737 122.308 114.638 122.308C114.14 122.308 113.642 122.308 113.443 122.208C113.343 122.208 113.343 122.208 113.343 122.308C113.343 122.507 113.443 123.005 113.443 123.802C113.443 124.001 113.443 124.001 113.542 124.001C113.642 124.001 113.642 123.901 113.642 123.802C113.642 123.204 113.941 123.005 114.638 122.905C114.937 122.905 115.335 122.905 116.331 122.905H120.813C121.41 122.905 122.108 122.905 122.506 122.905C123.104 122.905 123.402 123.204 123.402 123.802C123.402 123.901 123.402 124.001 123.502 124.001C123.502 124.001 123.602 123.901 123.602 123.802C123.602 123.204 123.701 122.507 123.801 122.208C123.801 122.108 123.801 122.108 123.701 122.108C123.502 122.308 122.705 122.308 122.406 122.308ZM120.713 122.407C120.614 122.407 120.315 122.407 119.219 122.407H117.128C116.331 122.407 115.933 122.407 115.733 122.407C115.733 122.407 115.634 122.407 115.634 122.308C115.634 122.208 115.733 121.909 115.933 121.61L118.124 115.336C118.124 115.336 118.124 115.336 118.223 115.336C119.219 117.726 120.116 120.415 120.813 122.308C120.813 122.308 120.813 122.407 120.713 122.407ZM149.497 113.344C148.9 113.344 148.103 113.344 147.804 113.344C147.704 113.344 146.908 113.344 146.21 113.344C146.111 113.344 146.011 113.344 146.011 113.443L146.111 113.543C146.21 113.543 146.509 113.543 146.609 113.543C147.007 113.643 147.107 113.842 147.206 114.24C147.206 114.639 147.206 114.937 147.206 117.029V119.32C147.206 120.415 147.206 121.511 147.107 122.108C147.107 122.507 147.007 122.806 146.708 122.806C146.609 122.806 146.41 122.905 146.31 122.905C146.21 122.905 146.21 122.905 146.21 123.005C146.21 123.104 146.31 123.104 146.41 123.104C146.808 123.104 147.704 123.104 147.704 123.104C147.804 123.104 148.601 123.104 149.398 123.104C149.597 123.104 149.597 123.104 149.597 123.005C149.597 123.005 149.597 122.905 149.497 122.905C149.398 122.905 149.099 122.905 148.9 122.806C148.501 122.806 148.402 122.507 148.402 122.108C148.302 121.61 148.302 120.515 148.302 119.32V114.041C148.302 113.941 148.302 113.842 148.402 113.842C148.501 113.842 148.7 113.742 148.9 113.742C149.198 113.742 149.995 113.643 150.792 114.439C151.489 115.137 151.489 116.033 151.489 116.232C151.489 117.527 150.493 118.423 149.298 118.423C148.999 118.423 148.9 118.423 148.9 118.523C148.9 118.623 148.999 118.623 148.999 118.623C149.099 118.623 149.198 118.623 149.298 118.623C151.19 118.623 152.585 117.427 152.585 115.734C152.585 114.838 152.186 114.34 151.888 114.041C151.788 113.842 151.19 113.344 149.497 113.344ZM161.748 117.925C161.15 117.627 160.553 117.427 158.959 117.427H158.66C158.66 117.427 158.561 117.427 158.561 117.328V117.029C158.561 115.037 158.561 114.639 158.561 114.24C158.561 113.842 158.76 113.543 159.059 113.543C159.258 113.543 159.258 113.543 159.357 113.543C159.357 113.543 159.457 113.543 159.457 113.443C159.457 113.344 159.357 113.344 159.258 113.344C158.859 113.344 157.963 113.344 157.863 113.344H156.369C155.772 113.344 155.075 113.244 154.876 113.145C154.776 113.145 154.776 113.045 154.676 113.045C154.676 113.045 154.577 113.145 154.477 113.344C154.477 113.643 154.178 114.639 154.178 114.738C154.178 114.838 154.178 114.937 154.278 114.937C154.378 114.937 154.378 114.937 154.477 114.838C154.577 114.738 154.577 114.639 154.676 114.439C154.876 114.141 155.274 113.941 156.071 113.941H157.365C157.365 114.34 157.365 115.037 157.365 117.029V119.32C157.365 120.415 157.365 121.61 157.266 122.108C157.266 122.507 157.166 122.706 156.867 122.806C156.768 122.806 156.569 122.806 156.569 122.806C156.469 122.806 156.369 122.806 156.369 122.905C156.369 123.005 156.469 123.005 156.569 123.005C156.967 123.005 157.863 123.005 157.863 123.005C158.262 123.005 159.258 123.104 159.855 123.104C162.146 123.104 163.142 121.511 163.142 120.316C163.142 119.121 162.644 118.423 161.748 117.925ZM160.055 122.606C159.557 122.606 159.258 122.606 158.859 122.407C158.66 122.308 158.461 122.108 158.461 121.71C158.461 121.112 158.461 120.017 158.461 118.822V117.925C158.461 117.925 158.461 117.826 158.561 117.826C159.557 117.826 160.453 117.925 160.951 118.324C161.648 118.921 161.847 119.619 161.847 120.415C161.947 122.009 161.15 122.606 160.055 122.606ZM129.279 117.527C129.876 117.029 130.574 116.332 130.574 115.236C130.574 114.539 130.076 113.344 127.884 113.344C127.287 113.344 126.789 113.344 126.39 113.344C126.39 113.344 125.494 113.344 124.797 113.344C124.697 113.344 124.598 113.344 124.598 113.443C124.598 113.543 124.697 113.543 124.797 113.543C124.797 113.543 124.996 113.543 125.195 113.543C125.693 113.643 125.793 113.842 125.793 114.24C125.793 114.639 125.793 115.037 125.793 117.029V119.32C125.793 120.515 125.793 121.511 125.693 122.108C125.693 122.507 125.594 122.806 125.295 122.806C125.195 122.806 125.096 122.806 124.996 122.806C124.797 122.806 124.797 122.905 124.797 122.905C124.797 123.005 124.896 123.005 124.996 123.005C125.494 123.005 125.892 123.005 126.39 123.005C126.49 123.005 126.789 123.005 127.187 123.005C127.586 123.005 127.884 123.005 128.084 123.005C130.374 123.005 131.47 121.61 131.47 120.216C131.669 118.822 130.374 117.925 129.279 117.527ZM126.988 113.941C126.988 113.842 126.988 113.842 127.187 113.842C127.287 113.842 127.685 113.742 127.785 113.742C129.08 113.742 129.578 114.937 129.578 115.933C129.578 116.431 129.378 116.83 129.179 117.129C128.88 117.427 128.681 117.527 127.884 117.527C127.386 117.527 127.187 117.527 127.088 117.527C127.088 117.527 126.988 117.527 126.988 117.328V113.941ZM128.582 122.606C128.382 122.606 127.785 122.606 127.486 122.407C126.988 122.208 127.088 122.009 126.988 121.312C126.988 121.212 126.988 119.519 126.988 118.623V118.025C126.988 117.925 126.988 117.925 127.088 117.925C127.287 117.925 127.785 117.925 128.084 117.925C128.382 117.925 128.681 118.025 129.08 118.224C130.076 118.921 130.374 120.116 130.374 120.814C130.374 122.308 129.279 122.606 128.582 122.606ZM138.84 113.145C135.055 113.145 133.561 116.133 133.561 118.125C133.561 120.415 135.055 123.204 138.741 123.204C141.928 123.204 144.119 120.814 144.119 117.925C144.119 114.937 141.828 113.145 138.84 113.145ZM139.139 122.706C136.549 122.706 134.956 120.714 134.956 117.726C134.956 114.838 136.649 113.543 138.741 113.543C140.832 113.543 142.725 115.236 142.725 118.324C142.725 122.208 140.135 122.706 139.139 122.706ZM37.2498 82.2691C37.449 82.2691 37.6482 82.2691 37.8474 82.3687C38.3454 82.4683 38.5446 82.6675 38.6442 83.3647C38.6442 83.9623 38.6442 84.4603 38.6442 87.249V90.4362C38.6442 92.1294 38.6442 93.4241 38.5446 94.1213C38.5446 94.9181 38.3454 95.2169 37.947 95.3165C37.7478 95.3165 37.7478 95.3165 37.5486 95.4161C37.3494 95.4161 37.3494 95.5157 37.3494 95.5157C37.3494 95.6153 37.449 95.6153 37.6482 95.6153C38.1462 95.6153 39.1422 95.5157 39.3414 95.5157C39.441 95.5157 40.8353 95.6153 41.6321 95.6153C41.9309 95.6153 41.9309 95.5157 41.9309 95.5157C41.9309 95.4161 41.8313 95.4161 41.6321 95.4161C41.4329 95.4161 41.1341 95.4161 40.9349 95.3165C40.4369 95.2169 40.2378 94.8185 40.2378 94.2209C40.1382 93.4241 40.1382 92.2289 40.1382 90.4362V83.1655C40.1382 82.8667 40.2378 82.8667 40.4369 82.8667C40.7357 82.8667 41.1341 82.8667 43.8233 82.8667C46.612 82.8667 47.5084 82.8667 47.7076 82.8667C47.8072 82.8667 47.8072 82.9663 47.8072 82.9663V90.3366C47.8072 92.0297 47.8072 93.6233 47.7076 94.3205C47.608 95.1173 47.4088 95.3165 47.11 95.3165C46.9108 95.3165 46.9108 95.3165 46.7117 95.4161C46.4129 95.4161 46.4128 95.5157 46.4128 95.5157C46.4128 95.6153 46.4129 95.6153 46.7117 95.6153C47.3092 95.6153 48.3052 95.5157 48.5044 95.5157C48.604 95.5157 49.9984 95.6153 50.7952 95.6153C50.9944 95.6153 50.9944 95.5157 50.9944 95.5157C50.9944 95.4161 50.9944 95.4161 50.7952 95.4161C50.596 95.4161 50.2972 95.4161 50.098 95.3165C49.6 95.2169 49.4008 94.9181 49.4008 94.2209C49.3012 93.4241 49.3012 92.1293 49.3012 90.3366V87.1494C49.3012 84.3607 49.3012 83.7631 49.3012 83.2651C49.3012 82.4683 49.5004 82.3687 49.9984 82.2691C50.098 82.2691 50.1976 82.2691 50.2972 82.1695C50.4964 82.1695 50.4964 82.0699 50.4964 82.0699C50.4964 81.9703 50.4964 81.9703 50.1976 81.9703C49.7992 81.9703 48.4048 82.0699 48.3052 82.0699H39.1422C38.8434 82.0699 37.8474 81.9703 37.1502 81.9703C36.951 81.9703 36.8514 81.9703 36.8514 82.0699C37.0506 82.1695 37.1502 82.1695 37.2498 82.2691ZM17.8281 95.6153C18.3261 95.6153 19.2225 95.5157 19.3221 95.5157C19.4217 95.5157 20.4177 95.6153 21.0153 95.6153C21.2145 95.6153 21.3141 95.6153 21.3141 95.4161C21.3141 95.3165 21.2145 95.3165 21.1149 95.3165C21.0153 95.3165 20.8161 95.3165 20.4177 95.2169C20.1189 95.1173 19.9197 95.0177 19.9197 94.5197C19.9197 94.2209 19.9197 93.9221 19.9197 93.6233L20.6169 85.1575C20.8161 85.6555 22.9076 90.1374 23.0072 90.4362C23.1068 90.6354 24.7004 93.7229 25.0988 94.6193C25.3976 95.3165 25.4972 95.4161 25.6964 95.4161C25.8956 95.4161 25.8956 95.2169 26.294 94.4201L30.7759 84.9583L31.8715 94.6193C31.8715 94.9181 31.9711 95.2169 31.7719 95.3165C31.6723 95.3165 31.6723 95.4161 31.6723 95.4161C31.6723 95.5157 31.7719 95.5157 32.1703 95.6153C32.8675 95.6153 34.8594 95.6153 35.2578 95.6153C35.457 95.6153 35.5566 95.6153 35.5566 95.5157C35.5566 95.4161 35.457 95.4161 35.3574 95.4161C35.1582 95.4161 34.7598 95.4161 34.2618 95.2169C33.4651 94.9181 33.3655 93.9221 33.2659 93.3245L32.0707 82.2691C32.0707 81.9703 31.9711 81.7711 31.8715 81.7711C31.7719 81.7711 31.6723 81.8707 31.5727 82.0699L26.294 93.4241L20.7165 82.0699C20.6169 81.8707 20.5173 81.7711 20.4177 81.7711C20.3181 81.7711 20.2185 81.9703 20.2185 82.1695L18.9237 93.8225C18.8241 94.5197 18.8241 95.2169 18.2265 95.3165C17.9277 95.4161 17.8281 95.4161 17.7285 95.4161C17.6289 95.4161 17.5293 95.4161 17.5293 95.5157C17.5293 95.6153 17.6289 95.6153 17.8281 95.6153ZM68.8225 89.1414C68.4241 89.1414 68.3245 89.1414 68.3245 89.3406C68.3245 89.4402 68.4241 89.4402 68.5237 89.4402C68.6233 89.4402 68.8225 89.4402 68.9221 89.4402C71.5116 89.4402 73.404 87.747 73.404 85.3567C73.404 84.1615 72.906 83.3647 72.5076 82.9663C72.2088 82.6675 71.412 81.9703 69.1213 81.9703C68.3245 81.9703 67.2289 82.0699 66.8305 82.0699C66.7309 82.0699 65.6353 81.9703 64.739 81.9703C64.5398 81.9703 64.4402 81.9703 64.4402 82.0699C64.4402 82.1695 64.5398 82.1695 64.5398 82.1695C64.739 82.1695 65.0378 82.1695 65.1374 82.2691C65.7349 82.3687 65.8345 82.6675 65.9341 83.2651C65.9341 83.8627 65.9341 84.3607 65.9341 87.1494V90.3366C65.9341 92.0297 65.9341 93.5237 65.8345 94.2209C65.7349 94.7189 65.6353 95.1173 65.3365 95.2169C65.1373 95.2169 64.9381 95.3165 64.8386 95.3165C64.739 95.3165 64.739 95.4161 64.739 95.4161C64.739 95.5157 64.8386 95.5157 65.0378 95.5157C65.5357 95.5157 66.7309 95.4161 66.7309 95.4161C66.8305 95.4161 67.9261 95.5157 68.9221 95.5157C69.1213 95.5157 69.2209 95.4161 69.2209 95.4161C69.2209 95.3165 69.2209 95.3165 69.1213 95.3165C68.9221 95.3165 68.5237 95.3165 68.3245 95.2169C67.8265 95.1173 67.6273 94.7189 67.6273 94.2209C67.5277 93.4241 67.5277 92.0297 67.5277 90.3366V82.8667C67.5277 82.6675 67.5277 82.5679 67.6273 82.5679C67.8265 82.4683 68.1253 82.4683 68.4241 82.4683C68.8225 82.4683 69.9181 82.3687 70.9141 83.3647C71.91 84.3607 71.91 85.5559 71.91 85.9542C71.91 87.9462 70.5157 89.1414 68.8225 89.1414ZM55.5759 93.6233C55.5759 95.0177 55.2771 95.2169 54.8787 95.3165C54.7791 95.3165 54.6795 95.3165 54.4803 95.4161C54.3807 95.4161 54.2811 95.5157 54.2811 95.5157C54.2811 95.6153 54.3807 95.6153 54.5799 95.6153C55.0779 95.6153 55.4763 95.5157 55.8747 95.5157C56.5719 95.5157 57.3687 95.5157 58.1655 95.6153C58.8627 95.6153 59.4602 95.7149 60.755 95.7149C61.4522 95.7149 61.6514 95.7149 61.751 95.2169C61.8506 94.8185 61.9502 93.6233 61.9502 93.4241C61.9502 93.3245 61.9502 93.1253 61.8506 93.1253C61.751 93.1253 61.751 93.2249 61.6514 93.4241C61.5518 94.2209 61.3526 94.6193 60.755 94.7189C60.257 94.8185 59.6594 94.9181 59.1614 94.9181C58.4643 94.9181 57.9663 94.9181 57.6675 94.7189C57.1695 94.5197 57.0699 94.1213 57.0699 93.4241C57.0699 93.0257 57.0699 90.9342 57.0699 90.3366V88.743C57.0699 88.6434 57.0699 88.6434 57.1695 88.6434C57.4683 88.6434 59.261 88.6434 59.759 88.743C60.4562 88.8426 60.6554 89.0418 60.6554 89.3406C60.755 89.5398 60.755 89.6394 60.755 89.8386C60.755 89.9382 60.755 90.1374 60.8546 90.1374C60.9542 90.1374 60.9542 90.0378 60.9542 89.8386C60.9542 89.5398 60.9542 89.1414 61.0538 88.6434C61.1534 88.0458 61.1534 87.747 61.1534 87.6474C61.1534 87.5478 61.1534 87.5478 61.0538 87.5478C60.9542 87.5478 60.9542 87.6474 60.8546 87.747C60.6554 87.9462 60.4562 88.0458 59.9582 88.0458C59.5598 88.0458 57.3687 88.0458 57.0699 88.0458C56.9703 88.0458 56.9703 87.9462 56.9703 87.8466V82.8667C56.9703 82.7671 56.9703 82.6675 57.0699 82.6675C57.2691 82.6675 59.261 82.6675 59.5598 82.7671C60.3566 82.8667 60.755 83.0659 60.8546 83.4643C60.9542 83.5639 60.9542 83.8627 60.9542 84.0619C60.9542 84.1615 60.9542 84.2611 61.0538 84.2611C61.1534 84.2611 61.1534 84.1615 61.1534 83.9623C61.1534 83.4643 61.253 83.1655 61.253 82.8667C61.253 82.3687 61.3526 82.1695 61.3526 81.9703C61.3526 81.8707 61.3526 81.7711 61.253 81.7711C61.1534 81.7711 61.1534 81.7711 61.0538 81.8707C60.9542 81.9703 60.6554 81.9703 60.257 81.9703C59.8586 81.9703 56.2731 81.9703 56.0739 81.9703C54.9783 81.8707 54.4803 81.8707 53.9823 81.8707C53.7831 81.8707 53.6835 81.8707 53.6835 81.9703C53.6835 82.0699 53.7831 82.0699 53.8827 82.0699C54.0819 82.0699 54.2811 82.0699 54.3807 82.1695C54.9783 82.2691 55.0779 82.5679 55.1775 83.1655C55.1775 83.7631 55.1775 84.2611 55.1775 87.0498V90.237C55.5759 92.0297 55.5759 92.9261 55.5759 93.6233ZM95.0169 82.7671C96.71 82.7671 97.208 83.2651 97.208 83.7631C97.208 83.8627 97.208 83.8627 97.208 83.9623C97.208 84.2611 97.3076 84.2611 97.3076 84.2611C97.4072 84.2611 97.4072 84.1615 97.4072 84.0619C97.4072 83.8627 97.5068 82.5679 97.5068 82.0699C97.5068 81.9703 97.5068 81.8707 97.4072 81.8707C97.3076 81.8707 97.208 81.9703 96.9092 81.9703C96.6104 82.0699 96.2121 82.0699 95.6145 82.0699H88.8418C88.6426 82.0699 87.9454 82.0699 87.4474 81.9703C86.9494 81.9703 86.7502 81.7711 86.6506 81.7711C86.551 81.7711 86.551 81.9703 86.4514 82.0699C86.4514 82.1695 86.053 83.7631 86.053 83.9623C86.053 84.0619 86.053 84.1615 86.1526 84.1615C86.2522 84.1615 86.2522 84.1615 86.3518 83.9623C86.4514 83.8627 86.4514 83.6635 86.6506 83.3647C86.9494 82.9663 87.3478 82.7671 88.543 82.7671C89.4394 82.7671 90.3357 82.7671 91.2321 82.7671V90.4362C91.2321 92.1294 91.2321 93.6233 91.1325 94.3205C91.0329 94.8185 90.9333 95.2169 90.6345 95.3165C90.4353 95.3165 90.2361 95.4161 90.1366 95.4161C90.0369 95.4161 90.0369 95.5157 90.0369 95.5157C90.0369 95.6153 90.1366 95.6153 90.3357 95.6153C90.8337 95.6153 92.0289 95.5157 92.1285 95.5157C92.2281 95.5157 93.3237 95.6153 94.3197 95.6153C94.5189 95.6153 94.6185 95.5157 94.6185 95.5157C94.6185 95.4161 94.6185 95.4161 94.5189 95.4161C94.3197 95.4161 93.9213 95.4161 93.7221 95.3165C93.2241 95.2169 93.0249 94.8185 93.0249 94.3205C92.9253 93.5237 92.9253 92.1294 92.9253 90.4362V82.7671C93.5229 82.7671 94.3197 82.7671 95.0169 82.7671ZM120.116 89.1414C119.717 89.1414 119.618 89.1414 119.618 89.3406C119.618 89.4402 119.717 89.4402 119.817 89.4402C119.916 89.4402 120.116 89.4402 120.215 89.4402C122.805 89.4402 124.697 87.747 124.697 85.3567C124.697 84.1615 124.199 83.3647 123.801 82.9663C123.502 82.6675 122.705 81.9703 120.414 81.9703C119.618 81.9703 118.522 82.0699 118.124 82.0699C118.024 82.0699 116.929 81.9703 116.032 81.9703C115.833 81.9703 115.733 81.9703 115.733 82.0699C115.733 82.1695 115.833 82.1695 115.833 82.1695C116.032 82.1695 116.331 82.1695 116.431 82.2691C117.028 82.3687 117.128 82.6675 117.227 83.2651C117.227 83.8627 117.227 84.3607 117.227 87.1494V90.3366C117.227 92.0297 117.227 93.5237 117.128 94.2209C117.028 94.7189 116.929 95.1173 116.63 95.2169C116.431 95.2169 116.231 95.3165 116.132 95.3165C116.032 95.3165 116.032 95.4161 116.032 95.4161C116.032 95.5157 116.132 95.5157 116.331 95.5157C116.829 95.5157 118.024 95.4161 118.024 95.4161C118.124 95.4161 119.219 95.5157 120.215 95.5157C120.414 95.5157 120.514 95.4161 120.514 95.4161C120.514 95.3165 120.514 95.3165 120.414 95.3165C120.215 95.3165 119.817 95.3165 119.618 95.2169C119.12 95.1173 118.92 94.7189 118.92 94.2209C118.821 93.4241 118.821 92.0297 118.821 90.3366V82.8667C118.821 82.6675 118.821 82.5679 118.92 82.5679C119.12 82.4683 119.418 82.4683 119.717 82.4683C120.116 82.4683 121.211 82.3687 122.207 83.3647C123.203 84.3607 123.203 85.5559 123.203 85.9542C123.203 87.9462 121.809 89.1414 120.116 89.1414ZM51.4924 122.806C51.3928 122.806 51.1936 122.806 50.9944 122.806C50.596 122.806 50.4964 122.507 50.4964 122.108C50.3968 121.61 50.3968 120.614 50.3968 119.32V117.029C50.3968 115.037 50.3968 114.639 50.3968 114.24C50.3968 113.842 50.4964 113.543 50.8948 113.543C50.9944 113.543 51.094 113.543 51.1936 113.543C51.2932 113.543 51.3928 113.443 51.3928 113.443C51.3928 113.344 51.2932 113.344 51.1936 113.344C50.6956 113.344 49.8988 113.344 49.7992 113.344C49.6996 113.344 48.8032 113.344 48.2056 113.344C48.106 113.344 48.0064 113.344 48.0064 113.443C48.0064 113.543 48.106 113.543 48.2056 113.543C48.3052 113.543 48.5044 113.543 48.604 113.543C49.102 113.643 49.2016 113.842 49.2016 114.24C49.2016 114.639 49.2016 115.037 49.2016 117.029V117.328C49.2016 117.427 49.2016 117.427 49.102 117.427H43.6241C43.6241 117.427 43.5245 117.427 43.5245 117.328V117.029C43.5245 115.037 43.5245 114.738 43.5245 114.34C43.5245 113.941 43.6241 113.643 44.0225 113.643C44.2217 113.643 44.2217 113.643 44.3213 113.643C44.4209 113.643 44.5205 113.643 44.5205 113.543C44.5205 113.443 44.4209 113.443 44.3213 113.443C43.9229 113.443 43.0265 113.443 42.9269 113.443C42.7277 113.443 42.0305 113.443 41.3333 113.443C41.1341 113.443 41.1341 113.443 41.1341 113.543C41.1341 113.543 41.2337 113.643 41.3333 113.643C41.4329 113.643 41.6321 113.643 41.7317 113.643C42.1301 113.643 42.2297 113.941 42.3293 114.34C42.3293 114.738 42.3293 115.137 42.3293 117.129V119.32C42.3293 120.515 42.3293 121.61 42.2297 122.108C42.2297 122.407 42.1301 122.706 41.8313 122.806C41.7317 122.806 41.6321 122.806 41.4329 122.806C41.3333 122.806 41.2337 122.905 41.2337 122.905C41.2337 123.005 41.3333 123.005 41.4329 123.005C41.8313 123.005 42.7277 123.005 42.8273 123.005C42.9269 123.005 43.8233 123.005 44.5205 123.005C44.6201 123.005 44.7197 123.005 44.7197 122.905C44.7197 122.806 44.6201 122.806 44.5205 122.806C44.4209 122.806 44.2217 122.806 44.0225 122.806C43.6241 122.806 43.5245 122.507 43.5245 122.108C43.4249 121.61 43.4249 120.614 43.4249 119.32V117.925C43.4249 117.826 43.4249 117.826 43.5245 117.826H49.0024C49.0024 117.826 49.102 117.826 49.102 117.925V119.32C49.102 120.515 49.102 121.511 49.0024 122.009C49.0024 122.308 48.9028 122.706 48.604 122.706C48.5044 122.706 48.4048 122.706 48.3052 122.706C48.2056 122.706 48.106 122.706 48.106 122.806C48.106 122.905 48.2056 122.905 48.3052 122.905C48.7036 122.905 49.6 122.905 49.6996 122.905C49.7992 122.905 50.6956 122.905 51.3928 122.905C51.592 122.905 51.592 122.905 51.592 122.806C51.6916 122.905 51.592 122.806 51.4924 122.806ZM99.0008 88.743C99.0008 92.0297 101.092 95.8145 105.973 95.8145C110.355 95.8145 113.144 92.4281 113.144 88.4442C113.144 84.2611 110.156 81.6715 106.072 81.6715C101.092 81.6715 99.0008 85.8546 99.0008 88.743ZM111.451 89.0418C111.451 94.3205 108.064 95.2169 106.471 95.2169C103.184 95.2169 100.694 92.5277 100.694 88.3446C100.694 84.3607 102.985 82.3687 105.973 82.3687C108.861 82.3687 111.451 84.6595 111.451 89.0418ZM83.3639 104.28L84.2602 103.384L1.99197 103.882L1.19518 103.085L0 104.28L1.19518 105.476L1.99197 104.679L84.2602 105.177L83.3639 104.28ZM27.5888 122.806C27.3896 122.806 27.0908 122.806 26.792 122.706C26.1944 122.606 26.0948 121.71 26.0948 121.312L25.0988 113.443C25.0988 113.244 24.9992 113.045 24.8996 113.045C24.8 113.045 24.7004 113.145 24.7004 113.344L20.8161 121.212L16.7325 113.344C16.6329 113.145 16.5333 113.145 16.5333 113.145C16.4337 113.145 16.4337 113.244 16.3341 113.543L15.3382 121.81C15.2386 122.407 15.139 122.806 14.7406 122.806C14.5414 122.806 14.5414 122.806 14.4418 122.806C14.3422 122.806 14.2426 122.905 14.2426 122.905C14.2426 123.005 14.3422 123.005 14.4418 123.005C14.8402 123.005 15.4378 123.005 15.6369 123.005C15.7365 123.005 16.4337 123.005 16.9317 123.005C17.1309 123.005 17.2305 123.005 17.2305 122.905C17.2305 122.905 17.2305 122.806 17.0313 122.806C16.8321 122.806 16.7325 122.806 16.6329 122.806C16.3341 122.706 16.2345 122.507 16.2345 122.308C16.2345 122.108 16.2345 121.909 16.2345 121.71L16.8321 115.933C16.9317 116.232 18.4257 119.22 18.5253 119.32C18.6249 119.419 19.8201 121.909 20.0193 122.308C20.3181 122.806 20.4177 123.005 20.5173 123.005C20.6169 123.005 20.7165 122.905 21.0153 122.308L24.2024 115.834L24.8996 122.308C24.8996 122.507 24.8996 122.706 24.8 122.706C24.7004 122.706 24.7004 122.806 24.7004 122.806C24.7004 122.905 24.8 122.905 25.1984 122.905C25.6964 122.905 27.29 123.005 27.5888 123.005C27.788 123.005 27.788 123.005 27.788 122.905L27.5888 122.806ZM33.9631 113.145C30.1783 113.145 28.6843 116.133 28.6843 118.125C28.6843 120.415 30.1783 123.204 33.8635 123.204C37.0506 123.204 39.2418 120.814 39.2418 117.925C39.2418 114.937 36.951 113.145 33.9631 113.145ZM34.2618 122.706C31.6723 122.706 30.0787 120.714 30.0787 117.726C30.0787 114.838 31.7719 113.543 33.8635 113.543C35.955 113.543 37.8474 115.236 37.8474 118.324C37.8474 122.208 35.2578 122.706 34.2618 122.706ZM0.896386 82.2691C0.995984 82.2691 1.19518 82.2691 1.49398 82.3687C2.09157 82.4683 2.29076 82.5679 2.29076 84.5599C2.39036 88.0458 2.29076 92.1293 2.29076 95.1173C2.29076 95.8145 2.39036 96.0137 2.48996 96.0137C2.58956 96.0137 2.78876 95.9141 3.18715 95.5157C3.98394 94.7189 11.4538 85.3567 12.4498 84.1615C12.4498 87.249 12.4498 90.237 12.3502 93.2249C12.3502 94.6193 12.2506 95.3165 11.7526 95.4161C11.5534 95.4161 11.3542 95.5157 11.2546 95.5157C11.0554 95.5157 10.9558 95.6153 10.9558 95.6153C10.9558 95.6153 10.9558 95.6153 11.2546 95.6153C11.9518 95.6153 12.4498 95.5157 12.8482 95.5157C13.147 95.5157 14.7406 95.6153 15.3382 95.6153C15.5373 95.6153 15.6369 95.6153 15.6369 95.5157C15.6369 95.4161 15.5373 95.4161 15.3382 95.4161C15.0394 95.4161 14.7406 95.3165 14.641 95.3165C14.0434 95.2169 13.9438 94.7189 13.9438 93.4241C13.8442 90.0378 13.8442 86.8506 13.8442 83.4643C13.8442 81.8707 13.7446 81.7711 13.5454 81.7711C13.3462 81.7711 13.0474 82.0699 12.3502 82.8667C10.5574 85.0579 5.87631 90.8346 3.68514 93.5237V84.1615C3.68514 82.6675 3.88434 82.4683 4.38233 82.2691C4.58153 82.2691 4.68112 82.2691 4.88032 82.1695C5.07952 82.1695 5.07952 82.0699 5.07952 82.0699C5.07952 81.9703 4.97992 81.9703 4.78072 81.9703C4.28273 81.9703 3.58554 82.0699 2.98795 82.0699C2.68916 82.0699 1.59357 81.9703 0.995984 81.9703C0.796787 81.9703 0.59759 81.9703 0.59759 82.0699C0.697189 82.1695 0.796787 82.1695 0.896386 82.2691ZM176.488 103.085L175.692 103.882L92.1285 103.384L93.0249 104.28L92.1285 105.177L175.692 104.679L176.488 105.476L177.684 104.28L176.488 103.085ZM85.4554 104.28L88.2442 107.069L91.0329 104.28L88.2442 101.492L85.4554 104.28Z" fill="url(#paint0_radial_1652_39288)"/>
<path d="M116.032 28.8835C111.251 22.9076 102.686 22.5092 102.586 22.5092H101.69V22.4096C100.395 22.808 99.2995 26.792 98.5027 30.5767C97.9051 30.4771 97.2079 30.3775 96.5107 30.3775C96.4111 28.5847 96.3115 26.792 96.0127 25.0988C95.7139 23.5052 93.722 22.4096 91.73 21.812C93.4232 20.7165 95.3156 18.7245 95.3156 15.5373C95.3156 11.653 92.8256 9.86024 90.1364 9.26265V7.96787L89.24 6.57349L89.738 6.0755L91.1324 6.97189H93.4232V5.07952V3.38635H91.1324L89.738 4.28273L89.24 3.78474L90.1364 2.39036V0H88.3437H86.6505V2.29076L87.5469 3.68514L87.0489 4.18313L85.6545 3.38635H83.3637V5.17912V6.97189H85.6545L87.0489 6.0755L87.5469 6.57349L86.6505 7.96787V9.36225C83.9613 9.86024 81.4714 11.7526 81.4714 15.6369C81.4714 18.1269 82.7662 20.3181 85.0569 21.9116C83.065 22.5092 81.073 23.6048 80.7742 25.1984C80.4754 26.8916 80.2762 28.5847 80.2762 30.4771C79.579 30.5767 78.8818 30.5767 78.2842 30.6763C77.4874 26.8916 76.3919 22.9076 75.0971 22.5092H74.3003C74.2007 22.5092 65.6352 22.9076 60.8545 28.8835C57.767 32.6683 56.9702 37.6482 58.4641 43.8233C59.8585 49.8988 64.8384 58.0659 66.1332 60.257C65.3364 61.6514 65.5356 63.0458 65.934 64.0418C66.0336 64.9382 66.6312 66.6313 67.926 67.9261C70.6151 70.4161 76.3919 72.5076 88.5429 72.5076C101.391 72.5076 107.168 69.7189 109.558 67.1293C110.554 66.0337 110.953 64.739 111.052 64.0418C111.351 63.0458 111.55 61.6514 110.853 60.257C112.148 58.0659 117.128 49.8988 118.522 43.8233C119.916 37.6482 119.12 32.6683 116.032 28.8835ZM59.6593 37.1502C60.3565 35.955 63.1453 31.6723 70.2168 29.4811C70.3164 30.5767 70.5156 31.6723 70.7147 32.9671C64.1413 35.1582 61.0537 38.3454 59.7589 40.8353C59.6593 39.5406 59.6593 38.3454 59.6593 37.1502ZM91.3316 67.7269C91.5308 67.3285 91.6304 66.8305 91.6304 66.3325C91.6304 65.7349 91.4312 65.1373 91.232 64.739C92.9252 64.6394 94.6184 64.5398 96.1123 64.4402C96.2119 65.1373 96.2119 66.2329 95.6143 67.4281C94.1204 67.5277 92.726 67.6273 91.3316 67.7269ZM73.6031 63.1454C73.8023 63.1454 74.0015 63.245 74.3003 63.245C75.5951 63.5438 77.1886 63.8426 78.8818 64.0418C78.7822 64.739 78.7822 65.8345 79.081 67.0297C77.4874 66.8305 75.8939 66.5317 74.4995 66.2329C73.7027 65.0378 73.5035 63.9422 73.6031 63.1454ZM100.495 36.1542C99.2995 42.8273 97.0087 50.6956 92.4272 58.0659C94.0208 52.4883 96.1123 43.7237 96.6103 35.457C97.4071 35.5566 98.9011 35.7558 100.495 36.1542ZM81.1726 67.3285C80.575 66.1333 80.575 65.0378 80.6746 64.3406C82.1686 64.5398 83.7621 64.6394 85.3557 64.6394C85.0569 65.1374 84.8577 65.6353 84.8577 66.2329C84.8577 66.7309 84.9573 67.2289 85.1565 67.6273C84.0609 67.6273 82.6666 67.5277 81.1726 67.3285ZM102.885 43.4249C103.283 42.3293 103.682 41.2337 103.981 40.1381C107.965 41.3333 110.455 43.2257 112.048 45.0185C111.749 46.0145 111.351 47.11 110.853 48.3052C108.961 46.5124 106.371 44.5205 102.885 43.4249ZM112.546 42.7277C110.753 41.0345 108.164 39.3414 104.479 38.2458C104.777 37.0506 105.076 35.8554 105.275 34.7598C108.562 35.8554 110.953 37.1502 112.546 38.5446C112.745 39.7398 112.745 41.1341 112.546 42.7277ZM105.973 31.2739C107.467 31.7719 110.056 32.8675 111.55 35.5566C109.957 34.6602 108.064 33.7639 105.674 32.9671C105.773 32.3695 105.873 31.7719 105.973 31.2739ZM92.3276 44.1221C93.1244 46.1141 92.726 48.4048 92.3276 49.6996C91.5308 49.102 90.236 48.0064 89.4393 46.1141C88.5429 43.9229 88.8417 41.6321 89.1405 40.3373C90.0368 40.9349 91.4312 42.0305 92.3276 44.1221ZM88.3437 67.7269C87.5469 67.7269 86.9493 67.1293 86.9493 66.3325C86.9493 65.5357 87.5469 64.9381 88.3437 64.9381C89.1404 64.9381 89.738 65.5357 89.738 66.3325C89.738 67.1293 89.1404 67.7269 88.3437 67.7269ZM93.3236 60.3566C97.5067 55.5759 100.295 50.2972 102.287 45.2177C103.383 45.5165 104.379 46.0145 105.275 46.5124C104.279 49.102 101.291 55.8747 95.1164 62.5478C94.0208 62.6474 92.8256 62.747 91.6304 62.747C92.228 61.9502 92.726 61.1534 93.3236 60.3566ZM106.869 47.5084C108.164 48.4048 109.16 49.3012 110.056 50.1976C108.562 53.3847 106.271 57.0699 103.084 61.3526C101.59 61.6514 99.8971 62.0498 97.9051 62.249C103.084 55.9743 105.773 50.098 106.869 47.5084ZM105.475 62.6474C105.574 63.3446 105.475 64.5398 104.777 65.8345C104.279 65.9341 103.781 66.0337 103.184 66.1333C103.582 64.9381 103.582 63.8426 103.483 63.1454C104.18 62.9462 104.877 62.8466 105.475 62.6474ZM88.4433 48.7036C88.8417 49.5004 89.3397 50.8948 89.0409 52.8867C88.7421 54.6795 87.4473 56.1735 86.5509 56.9703C86.2521 56.1735 85.8537 54.7791 86.0529 53.0859C86.4513 51.094 87.6465 49.5004 88.4433 48.7036ZM84.9573 62.249C85.0569 62.4482 85.1565 62.5478 85.2561 62.747C84.0609 62.6474 82.8658 62.6474 81.6706 62.5478C75.5951 56.3727 72.5075 49.0024 71.5115 46.4128C72.3083 46.0145 73.2047 45.6161 74.2007 45.3173C76.4915 50.9944 79.8778 57.0699 84.9573 62.249ZM69.918 47.3092C70.9139 49.9984 73.6031 56.2731 78.8818 62.1494C77.4874 61.9502 76.2923 61.751 75.1967 61.5518C72.0095 57.8667 68.6232 51.1936 67.7268 49.102C68.3244 48.5044 69.0216 47.9068 69.918 47.3092ZM98.0047 64.1414C99.2995 63.9422 100.495 63.743 101.59 63.5438C101.69 64.241 101.59 65.3365 100.893 66.6313C99.8971 66.8305 98.8015 66.9301 97.7059 67.1293C98.1043 65.9341 98.1043 64.8386 98.0047 64.1414ZM91.4312 28.4851C93.5228 31.0747 93.8216 34.7598 93.722 36.5526C92.4272 36.2538 90.0368 35.2578 87.8457 32.7679C85.5549 30.0787 85.1565 26.3936 85.0569 24.7004C86.5509 24.8996 89.1405 25.6964 91.4312 28.4851ZM86.9493 35.0586C87.3477 36.0546 87.7461 37.7478 87.1485 39.939C86.5509 42.0305 84.7581 43.6241 83.6625 44.3213C83.3637 43.3253 83.065 41.7317 83.6625 39.6402C84.1605 37.449 85.8537 35.8554 86.9493 35.0586ZM86.9493 44.0225C87.0489 44.9189 87.2481 45.9149 87.6465 46.8112C86.9493 47.5084 85.5549 48.9028 84.7581 50.8948C84.4593 49.5004 84.1605 48.0064 83.8617 46.5124C84.2601 46.3133 85.6545 45.4169 86.9493 44.0225ZM84.4593 58.1655C79.8778 50.7952 77.4874 42.8273 76.2923 36.1542C77.9854 35.6562 79.3798 35.5566 80.2762 35.457C80.7742 43.8233 82.8658 52.588 84.4593 58.1655ZM60.5557 44.3213C60.5557 44.0225 61.0537 38.2458 71.2127 34.8594C71.4119 35.955 71.7107 37.1502 72.0095 38.3454C65.436 40.4369 62.5477 44.3213 61.3525 46.7116C61.0537 45.9149 60.7549 45.1181 60.5557 44.3213ZM62.4481 49.2016C62.4481 49.102 63.9421 43.1261 72.6071 40.2378C72.9059 41.3333 73.3043 42.4289 73.7027 43.5245C67.926 45.4169 64.8384 49.102 63.4441 51.2932C63.0457 50.596 62.6473 49.8988 62.4481 49.2016ZM66.2328 50.4964C67.3284 52.6875 69.6192 57.2691 72.2087 60.8546C69.918 60.257 68.424 59.6594 67.926 59.4602C67.428 58.6635 65.934 56.2731 64.3405 53.2851C64.5396 52.7871 65.1372 51.6916 66.2328 50.4964ZM67.6272 61.4522C68.424 61.751 69.8184 62.249 71.7107 62.747C71.6111 63.5438 71.6111 64.6394 72.1091 65.8345C70.0176 65.3365 68.5236 64.8385 68.1252 64.3406V64.241C68.0256 64.241 67.1292 62.8466 67.6272 61.4522ZM83.4633 15.5373C83.4633 12.7486 85.2561 11.653 86.7501 11.2546C90.6344 11.2546 91.0328 18.5253 87.6465 20.9157C87.5469 20.9157 87.5469 20.9157 87.4473 20.8161C85.9533 20.2185 83.4633 18.6249 83.4633 15.5373ZM82.7662 25.4972C82.7662 25.298 82.9654 25.0988 83.2641 24.8C83.3637 26.6924 83.7621 30.2779 85.9533 33.2659C84.9573 33.9631 83.4633 35.3574 82.4674 37.2498C82.069 33.1663 82.069 29.0827 82.7662 25.4972ZM62.2489 30.1783C64.3405 27.5888 67.428 26.0948 69.918 25.298C69.918 25.8956 70.0176 26.6924 70.1172 27.6884C65.5356 28.9831 62.5477 31.1743 60.6553 33.0667C61.0537 31.9711 61.5517 30.9751 62.2489 30.1783Z" fill="url(#paint1_radial_1652_39288)"/>
<defs>
<radialGradient id="paint0_radial_1652_39288" cx="0" cy="0" r="1" gradientUnits="userSpaceOnUse" gradientTransform="translate(94.6787 64.4719) rotate(98.5165) scale(36.5769 37.5697)">
<stop stop-color="#F9E6AD"/>
<stop offset="1" stop-color="#B59858"/>
</radialGradient>
<radialGradient id="paint1_radial_1652_39288" cx="0" cy="0" r="1" gradientUnits="userSpaceOnUse" gradientTransform="translate(88.5434 36.2914) scale(33.5503 33.6429)">
<stop stop-color="#F9E6AD"/>
<stop offset="1" stop-color="#B59858"/>
</radialGradient>
</defs>
</svg>
