<svg width="194" height="53" viewBox="0 0 194 53" fill="none" xmlns="http://www.w3.org/2000/svg">
<path d="M182.317 19.0666C182.429 19.0666 182.586 19.0666 182.772 19.1118C183.219 19.1946 183.368 19.2926 183.383 20.8522C183.428 23.5722 183.383 26.7668 183.383 29.1026C183.383 29.6752 183.428 29.7882 183.569 29.7882C183.711 29.7882 183.793 29.7128 184.084 29.3889C184.68 28.7409 190.538 21.3947 191.269 20.468C191.269 22.8941 191.269 25.2599 191.217 27.5881C191.217 28.6505 191.142 29.2457 190.74 29.3361L190.33 29.3889C190.151 29.3889 190.121 29.4341 190.121 29.5019C190.121 29.5697 190.158 29.5848 190.33 29.5848C190.836 29.5848 191.284 29.5848 191.589 29.5848C191.895 29.5848 193.08 29.5848 193.557 29.5848C193.713 29.5848 193.766 29.5848 193.766 29.4868C193.766 29.3889 193.721 29.4039 193.557 29.3889C193.393 29.3738 193.08 29.3889 193.013 29.3361C192.558 29.2608 192.446 28.8765 192.431 27.8292C192.394 25.1771 192.394 22.653 192.394 20.0008C192.394 18.7652 192.32 18.6522 192.178 18.6522C192.036 18.6522 191.79 18.8782 191.269 19.5186C189.897 21.2214 186.275 25.7572 184.561 27.897V20.5433C184.561 19.3378 184.687 19.1796 185.082 19.0967C185.203 19.0715 185.325 19.0564 185.448 19.0515C185.604 19.0515 185.626 18.9912 185.626 18.9385C185.626 18.8857 185.559 18.8556 185.388 18.8556C185 18.8556 184.434 18.8933 183.987 18.8933C183.763 18.8933 182.884 18.8556 182.444 18.8556C182.295 18.8556 182.168 18.8556 182.168 18.9535C182.168 19.0515 182.205 19.0515 182.317 19.0666ZM186.044 17.2959C186.561 17.6448 187.174 17.8213 187.795 17.8008C188.382 17.8028 188.959 17.6606 189.479 17.3862C189.998 17.1118 190.444 16.7136 190.777 16.226C190.866 16.113 190.851 16.0151 190.777 16.0151C190.702 16.0151 190.71 16.0151 190.598 16.1432C190.336 16.4871 189.996 16.7619 189.607 16.9443C189.218 17.1266 188.791 17.2111 188.362 17.1905C187.013 17.1905 186.342 16.5726 186.238 16.0904C186.238 16.0151 186.2 16 186.156 16C185.971 16.098 185.812 16.2403 185.694 16.4144C185.655 16.4726 185.631 16.5402 185.626 16.6103C185.642 16.7476 185.687 16.8799 185.758 16.9982C185.828 17.1165 185.923 17.218 186.036 17.2959H186.044ZM165.845 19.0666C166.013 19.0681 166.18 19.0858 166.345 19.1193C166.658 19.1946 166.799 19.4357 166.822 19.918C166.844 20.4002 166.822 20.7694 166.822 22.977V25.4784C166.822 26.8347 166.822 27.9573 166.754 28.5525C166.695 28.9669 166.613 29.306 166.33 29.3512C166.208 29.3601 166.086 29.3601 165.964 29.3512C165.838 29.3512 165.815 29.4115 165.815 29.4491C165.815 29.4868 165.882 29.5471 166.039 29.5471C166.456 29.5471 167.284 29.5471 167.358 29.5471C167.433 29.5471 168.312 29.5471 169.08 29.5471C169.236 29.5471 169.289 29.5471 169.289 29.4491C169.289 29.3512 169.251 29.3512 169.125 29.3512C168.998 29.3512 168.759 29.3512 168.558 29.2985C168.141 29.2382 168.059 28.9293 168.014 28.545C167.947 27.9498 167.947 26.8271 167.947 25.4709V24.0167C169.376 25.7431 170.912 27.3763 172.546 28.9067C172.842 29.1733 173.192 29.372 173.572 29.4891C173.951 29.6061 174.351 29.6388 174.745 29.5848H175.788C175.937 29.5848 175.997 29.5848 175.997 29.4868C175.997 29.3889 175.915 29.3889 175.803 29.3889C175.667 29.4007 175.529 29.4007 175.393 29.3889C174.722 29.2608 174.23 28.9443 173.082 27.882C172.419 27.2566 169.87 24.6346 168.983 23.6551C169.348 23.2482 170.943 21.6434 172.181 20.4378C172.593 19.9568 173.101 19.5691 173.671 19.3001C173.91 19.209 174.162 19.1531 174.417 19.1344C174.543 19.1344 174.566 19.0892 174.566 19.0364C174.566 18.9837 174.528 18.9385 174.335 18.9385C174.141 18.9385 173.276 18.9761 172.844 18.9761C172.412 18.9761 172.412 18.9385 172.002 18.9385C171.875 18.9385 171.793 18.9385 171.793 19.0213C171.793 19.1042 171.793 19.1042 171.92 19.1494C171.951 19.1708 171.978 19.1986 171.999 19.231C172.019 19.2634 172.033 19.2998 172.039 19.3378C172.039 19.5036 171.987 19.6467 171.145 20.5283C170.302 21.4098 168.379 23.4441 167.947 23.8736V22.977C167.947 20.7694 167.947 20.37 167.947 19.918C167.947 19.4659 168.089 19.1645 168.469 19.0967H168.774C168.901 19.0967 168.931 19.0515 168.931 18.9987C168.931 18.946 168.864 18.9008 168.707 18.9008C168.29 18.9008 167.403 18.9385 167.336 18.9385C167.269 18.9385 166.322 18.9008 165.845 18.9008C165.689 18.9008 165.622 18.9008 165.622 19.0138C165.622 19.1268 165.726 19.0666 165.838 19.0666H165.845ZM176.757 19.0666C176.902 19.0685 177.047 19.0862 177.189 19.1193C177.502 19.1946 177.644 19.4357 177.666 19.918C177.689 20.4002 177.666 20.7694 177.666 22.977V25.4784C177.666 26.8347 177.666 27.9573 177.599 28.5525C177.54 28.9669 177.458 29.306 177.174 29.3512C177.053 29.3605 176.931 29.3605 176.809 29.3512C176.682 29.3512 176.66 29.3964 176.66 29.4341C176.66 29.4717 176.727 29.5471 176.884 29.5471C177.301 29.5471 178.188 29.5471 178.255 29.5471C178.322 29.5471 179.224 29.5471 179.992 29.5471C180.148 29.5471 180.208 29.5471 180.208 29.4341C180.208 29.3211 180.163 29.3512 180.036 29.3512C179.91 29.3512 179.656 29.3512 179.463 29.2985C179.045 29.2382 178.956 28.9293 178.918 28.545C178.844 27.9498 178.844 26.8271 178.844 25.4709V22.977C178.844 20.7694 178.844 20.37 178.844 19.918C178.844 19.4659 178.986 19.1645 179.366 19.1118C179.481 19.0855 179.598 19.0703 179.716 19.0666C179.768 19.0666 179.828 19.0666 179.828 18.9837C179.828 18.9008 179.753 18.8707 179.604 18.8707C179.179 18.8707 178.3 18.9083 178.225 18.9083C178.151 18.9083 177.271 18.8707 176.809 18.8707C176.653 18.8707 176.586 18.8707 176.586 18.9837C176.586 19.0967 176.69 19.0666 176.749 19.0666H176.757ZM154.255 24.0544C154.222 24.8369 154.356 25.6174 154.648 26.3429C154.94 27.0683 155.383 27.7218 155.947 28.2587C157.241 29.3487 158.903 29.8888 160.583 29.7656C161.434 29.7918 162.285 29.6824 163.102 29.4416C163.356 29.3286 163.386 29.2985 163.467 29.0272C163.609 28.4291 163.714 27.8227 163.781 27.2114C163.781 27.0984 163.781 27.0004 163.684 27.0004C163.587 27.0004 163.564 27.0532 163.542 27.2114C163.468 27.6456 163.289 28.0545 163.02 28.4018C162.683 28.6805 162.292 28.887 161.874 29.0087C161.455 29.1305 161.016 29.165 160.583 29.1101C159.912 29.1101 159.247 28.9754 158.628 28.7137C158.009 28.452 157.447 28.0685 156.975 27.5856C156.504 27.1026 156.132 26.5298 155.881 25.9003C155.63 25.2708 155.506 24.5973 155.515 23.9188C155.453 23.2465 155.533 22.5685 155.752 21.9304C155.971 21.2923 156.322 20.7089 156.782 20.2193C157.266 19.7371 158.138 19.1871 160.002 19.1871C160.999 19.1476 161.983 19.4299 162.812 19.9933C163.003 20.1806 163.154 20.4057 163.255 20.6546C163.356 20.9035 163.406 21.1708 163.4 21.4399C163.4 21.6358 163.4 21.7413 163.512 21.7413C163.624 21.7413 163.624 21.6509 163.639 21.4399C163.654 21.229 163.639 20.4454 163.684 19.9782C163.728 19.5111 163.751 19.3001 163.751 19.2248C163.751 19.1494 163.751 19.0816 163.624 19.0666C163.102 18.9987 162.67 18.9535 162.133 18.8556C161.461 18.7398 160.78 18.6819 160.099 18.6823C157.937 18.6823 156.655 19.3529 155.82 20.1892C154.825 21.2258 154.262 22.6097 154.248 24.0544H154.255ZM121.028 29.3286C120.976 29.3286 120.931 29.3738 120.931 29.4341C120.931 29.4943 121.087 29.517 121.356 29.532C122.317 29.532 123.346 29.532 123.592 29.532C123.838 29.532 123.875 29.532 123.875 29.419C123.875 29.306 123.8 29.3361 123.718 29.3361C123.534 29.3351 123.351 29.3072 123.174 29.2532C122.876 29.1704 122.474 28.9368 121.967 27.6785C121.11 25.5236 118.904 19.6618 118.695 19.1268C118.486 18.5919 118.471 18.6145 118.389 18.6145C118.307 18.6145 118.248 18.6974 118.076 19.172L114.849 28.0251C114.595 28.7786 114.32 29.2758 113.671 29.3587C113.56 29.3655 113.448 29.3655 113.336 29.3587C113.209 29.3587 113.142 29.3587 113.142 29.4416C113.142 29.5245 113.224 29.5546 113.403 29.5546C114.066 29.5546 114.834 29.5546 114.99 29.5546C115.147 29.5546 115.736 29.5546 116.041 29.5546C116.168 29.5546 116.295 29.5546 116.295 29.4416C116.295 29.3286 116.25 29.3587 116.116 29.3587H115.989C115.751 29.3587 115.482 29.2306 115.482 28.9519C115.495 28.6244 115.561 28.3012 115.676 27.995L116.518 25.486C116.528 25.4547 116.546 25.427 116.572 25.4068C116.597 25.3865 116.628 25.3747 116.66 25.373H119.641C119.669 25.3717 119.697 25.3799 119.72 25.3963C119.743 25.4126 119.76 25.4362 119.768 25.4634L121.072 28.9519C121.192 29.208 121.11 29.3361 121.02 29.3587L121.028 29.3286ZM119.537 24.8681H116.817C116.772 24.8681 116.742 24.8681 116.772 24.7627L118.009 20.9351C118.076 20.7242 118.143 20.7242 118.218 20.9351L119.552 24.7627C119.567 24.8531 119.567 24.8983 119.492 24.8983L119.537 24.8681ZM129.458 50.9828C129.307 50.982 129.158 50.9669 129.01 50.9376C128.705 50.8698 128.66 50.7342 128.608 50.3951C128.556 50.0561 128.563 49.1369 128.563 48.2177V46.4395C128.563 44.8723 128.563 44.6011 128.563 44.2771C128.563 43.9531 128.615 43.7572 128.958 43.712H129.174C129.264 43.712 129.301 43.712 129.301 43.6291C129.301 43.5462 129.241 43.5462 129.122 43.5462C128.794 43.5462 128.116 43.5462 128.064 43.5462C128.012 43.5462 127.363 43.5462 126.998 43.5462C126.871 43.5462 126.826 43.5462 126.826 43.6291C126.826 43.712 126.871 43.6969 126.953 43.712C127.043 43.7074 127.132 43.7074 127.222 43.712C127.467 43.7648 127.542 43.938 127.564 44.262C127.587 44.586 127.564 44.8648 127.564 46.432V48.2101C127.582 48.9315 127.562 49.6533 127.505 50.3725C127.505 50.6589 127.438 50.8924 127.236 50.9452C127.142 50.9542 127.047 50.9542 126.953 50.9452C126.849 50.9452 126.804 50.9452 126.804 51.028C126.804 51.1109 126.886 51.1109 126.99 51.1109C127.318 51.1109 128.012 51.1109 128.041 51.1109C128.071 51.1109 128.787 51.1109 129.383 51.1109C129.502 51.1109 129.547 51.1109 129.547 51.028C129.547 50.9452 129.554 50.9828 129.458 50.9828ZM139.587 50.9828C139.439 50.9775 139.292 50.9624 139.147 50.9376C138.812 50.8924 138.73 50.6739 138.715 49.8677C138.715 47.9841 138.677 46.1909 138.67 44.2922C138.67 43.4634 138.618 43.3654 138.506 43.3654C138.394 43.3654 138.2 43.5462 137.813 44.0059C136.918 45.0306 134.325 48.1574 132.916 49.8451V44.7292C132.916 43.8853 133.02 43.7572 133.296 43.712H133.564C133.676 43.712 133.706 43.6593 133.706 43.6141C133.706 43.5689 133.646 43.5462 133.512 43.5462C133.222 43.5462 132.819 43.5462 132.446 43.5462C132.282 43.5462 131.574 43.5462 131.261 43.5462C131.135 43.5462 131.038 43.5462 131.038 43.6291C131.038 43.712 131.038 43.6969 131.142 43.712H131.485C131.828 43.712 131.94 43.8175 131.954 44.9175C131.954 46.869 131.954 49.1821 131.954 50.8171C131.954 51.2089 131.954 51.2842 132.096 51.2842C132.238 51.2842 132.26 51.2842 132.491 51.0205C132.856 50.6438 137.187 45.4299 137.708 44.7668C137.708 46.4395 137.708 48.0745 137.656 49.6794C137.656 50.4328 137.612 50.8773 137.291 50.9527C137.209 50.9527 137.097 50.9527 137.015 50.9979C136.933 51.0431 136.851 51.0356 136.851 51.0808C136.851 51.126 136.851 51.1486 137.015 51.1486C137.373 51.1486 137.716 51.1486 137.977 51.1486H139.505C139.617 51.1486 139.669 51.1486 139.669 51.0808C139.669 51.013 139.713 50.9828 139.587 50.9828ZM124.807 47.1176C124.121 46.8115 123.37 46.6845 122.623 46.7484H122.377C122.34 46.7484 122.332 46.7484 122.332 46.7032V46.4395C122.332 44.8723 122.332 44.6011 122.332 44.2771C122.332 43.9531 122.414 43.7723 122.682 43.712C122.769 43.7026 122.857 43.7026 122.943 43.712C123.003 43.712 123.055 43.712 123.055 43.6367C123.055 43.5613 123.01 43.5462 122.906 43.5462C122.578 43.5462 121.87 43.5462 121.84 43.5462C121.81 43.5462 121.154 43.5462 120.804 43.5462C120.677 43.5462 120.625 43.5462 120.625 43.6291C120.625 43.712 120.677 43.712 120.759 43.712C120.849 43.7028 120.939 43.7028 121.028 43.712C121.251 43.7648 121.341 43.938 121.371 44.262C121.4 44.586 121.371 44.8648 121.371 46.432V48.2101C121.392 48.9365 121.372 49.6635 121.311 50.3876C121.311 50.6664 121.229 50.9301 121.028 50.9678C120.939 50.9775 120.849 50.9775 120.759 50.9678C120.677 50.9678 120.625 50.9678 120.625 51.0356C120.625 51.1034 120.685 51.1185 120.797 51.1185C121.125 51.1185 121.788 51.1185 121.825 51.1185C122.123 51.1185 122.921 51.1787 123.316 51.1787C123.628 51.2097 123.943 51.1769 124.243 51.0823C124.542 50.9876 124.82 50.8331 125.059 50.6279C125.298 50.4226 125.494 50.1709 125.635 49.8875C125.776 49.6042 125.859 49.2951 125.88 48.9786C125.905 48.5906 125.817 48.2037 125.626 47.8661C125.435 47.5285 125.15 47.2551 124.807 47.0799V47.1176ZM123.54 50.8321C123.233 50.8412 122.928 50.7847 122.645 50.6664C122.552 50.616 122.475 50.5394 122.423 50.4459C122.372 50.3524 122.348 50.2458 122.354 50.139C122.354 49.6794 122.354 48.7903 122.354 47.8183V47.1402C122.354 47.1282 122.359 47.1167 122.368 47.1083C122.376 47.0998 122.387 47.095 122.399 47.095C123.05 47.0183 123.707 47.1671 124.263 47.517C124.513 47.7195 124.711 47.9799 124.841 48.2763C124.971 48.5727 125.028 48.8963 125.008 49.2198C125.032 49.4247 125.012 49.6326 124.948 49.8287C124.884 50.0248 124.778 50.2043 124.638 50.3545C124.498 50.5048 124.327 50.622 124.137 50.698C123.947 50.7741 123.743 50.807 123.54 50.7945V50.8321ZM109.512 43.4483C109.512 43.4483 109.445 43.4483 109.289 43.4935C109.01 43.5386 108.728 43.5588 108.446 43.5538H104.593C104.593 43.5538 104.25 43.5538 103.848 43.4935C103.639 43.4935 103.415 43.3654 103.333 43.3654C103.251 43.3654 103.266 43.4106 103.229 43.5538C103.154 43.8778 102.983 44.6614 102.99 44.7292C102.998 44.797 102.99 44.8347 103.05 44.8347C103.11 44.8347 103.125 44.8347 103.154 44.7442C103.201 44.615 103.261 44.4912 103.333 44.3751C103.497 44.1264 103.661 44.0059 104.414 43.9908H105.905V48.2252C105.905 49.1143 105.905 49.9732 105.86 50.4027C105.815 50.8321 105.778 50.9452 105.554 50.9828H105.294C105.204 50.9828 105.167 51.0356 105.167 51.0657C105.167 51.0959 105.212 51.1486 105.346 51.1486C105.651 51.1486 106.345 51.1486 106.389 51.1486C106.434 51.1486 107.135 51.1486 107.731 51.1486C107.843 51.1486 107.88 51.1486 107.88 51.0582C107.88 50.9678 107.835 50.9828 107.738 50.9828C107.586 50.984 107.433 50.9689 107.284 50.9376C106.986 50.8698 106.963 50.7041 106.926 50.4177C106.881 49.9732 106.874 49.1369 106.874 48.2177V43.9833H108.022C109.207 43.9833 109.363 44.1189 109.408 44.5935C109.408 44.7141 109.408 44.7216 109.408 44.7593C109.408 44.797 109.408 44.9025 109.49 44.9025C109.572 44.9025 109.572 44.9025 109.572 44.7593C109.572 44.6162 109.572 43.8778 109.572 43.5462C109.587 43.4483 109.557 43.4483 109.512 43.4483ZM102.059 49.702C102.007 49.702 101.977 49.7547 101.954 49.8677C101.858 50.3123 101.776 50.5458 101.425 50.6212C101.131 50.6844 100.831 50.7097 100.531 50.6965C100.24 50.7209 99.9482 50.6823 99.6737 50.5835C99.4277 50.478 99.3681 50.252 99.3458 49.8301C99.3458 49.6266 99.3458 48.5869 99.3458 48.2177V47.3512C99.3458 47.306 99.3458 47.2683 99.4277 47.2683C99.5097 47.2683 100.568 47.2683 100.836 47.3135C101.284 47.3512 101.351 47.5169 101.395 47.6676C101.408 47.7626 101.408 47.8589 101.395 47.954C101.395 48.0368 101.395 48.1122 101.47 48.1122C101.545 48.1122 101.537 48.1122 101.552 47.9766C101.567 47.8409 101.552 47.5848 101.597 47.2231C101.641 46.8614 101.679 46.658 101.679 46.5977C101.679 46.5375 101.679 46.5224 101.634 46.5224C101.589 46.5224 101.552 46.5224 101.5 46.6203C101.448 46.7183 101.231 46.7861 100.963 46.8012C100.695 46.8162 99.5172 46.8012 99.3756 46.8012C99.2339 46.8012 99.3085 46.756 99.3085 46.6882V43.9908C99.3085 43.9154 99.3085 43.8928 99.3681 43.8928H100.702C101.291 43.8928 101.395 44.0134 101.448 44.2545C101.492 44.3757 101.519 44.5025 101.53 44.6312C101.53 44.7141 101.53 44.7668 101.612 44.7668C101.694 44.7668 101.694 44.6915 101.694 44.586C101.694 44.36 101.694 44.1716 101.694 43.9682C101.694 43.7648 101.79 43.5086 101.79 43.4332C101.79 43.3579 101.79 43.3504 101.746 43.3504C101.701 43.3504 101.686 43.3504 101.612 43.3504C101.464 43.3918 101.311 43.4121 101.157 43.4106H98.7718C98.1159 43.4106 97.7954 43.4106 97.5644 43.4106C97.4451 43.4106 97.3855 43.4106 97.3855 43.501C97.3855 43.5915 97.46 43.5764 97.542 43.5764C97.6363 43.5683 97.731 43.5683 97.8253 43.5764C98.1607 43.6442 98.2426 43.81 98.265 44.1415C98.2874 44.473 98.265 44.7518 98.265 46.3039V48.082C98.265 48.9862 98.265 49.4759 98.265 49.8753C98.265 50.6287 98.101 50.7643 97.8923 50.8171C97.8156 50.8272 97.738 50.8272 97.6613 50.8171C97.6017 50.8171 97.5495 50.8171 97.5495 50.9C97.5495 50.9828 97.6091 50.9828 97.7135 50.9828C97.9967 50.9828 98.2203 50.9828 98.4588 50.9828C98.8985 50.9828 99.4352 50.9828 99.8451 50.9828C100.255 50.9828 100.59 50.9828 101.336 50.9828C101.723 50.9828 101.813 50.9828 101.858 50.7191C101.902 50.4554 101.984 49.7698 101.984 49.6869C101.984 49.604 102.141 49.6643 102.074 49.6643L102.059 49.702ZM133.02 42.1072C133.392 42.359 133.833 42.4832 134.28 42.4613C134.694 42.4681 135.104 42.3753 135.476 42.1906C135.848 42.0059 136.171 41.7346 136.419 41.3989C136.471 41.3085 136.464 41.2558 136.419 41.2558C136.374 41.2558 136.367 41.2558 136.292 41.3311C136.095 41.5683 135.845 41.7549 135.562 41.8754C135.28 41.9959 134.973 42.0469 134.667 42.0243C133.699 42.0243 133.222 41.6174 133.177 41.2708C133.173 41.2562 133.164 41.2434 133.152 41.235C133.14 41.2267 133.124 41.2233 133.11 41.2256C132.975 41.2861 132.859 41.3824 132.774 41.5044C132.751 41.5434 132.735 41.5871 132.73 41.6325C132.748 41.7228 132.784 41.8083 132.837 41.8835C132.889 41.9588 132.957 42.0221 133.035 42.0695L133.02 42.1072ZM118.777 50.9828C118.64 50.9927 118.503 50.9927 118.367 50.9828C118.061 50.9828 118.002 50.7041 117.964 50.4253C117.92 49.9958 117.92 49.2198 117.92 48.2478V46.4697C117.92 44.9025 117.92 44.6312 117.92 44.3072C117.92 43.9833 117.994 43.7874 118.307 43.7421C118.387 43.7347 118.466 43.7347 118.546 43.7421C118.635 43.7421 118.672 43.6894 118.672 43.6593C118.672 43.6291 118.605 43.5764 118.486 43.5764C118.136 43.5764 117.472 43.5764 117.428 43.5764C117.383 43.5764 116.682 43.5764 116.198 43.5764C116.094 43.5764 116.034 43.5764 116.034 43.6593C116.034 43.7421 116.094 43.7421 116.176 43.7421C116.272 43.7344 116.37 43.7344 116.466 43.7421C116.854 43.81 116.899 43.9757 116.921 44.2997C116.943 44.6237 116.921 44.8949 116.921 46.4546V46.6731C116.921 46.7334 116.921 46.7334 116.854 46.7334H112.635C112.635 46.7334 112.561 46.7334 112.561 46.6731V46.4546C112.561 44.8949 112.561 44.6312 112.561 44.3072C112.561 43.9833 112.658 43.7723 112.948 43.7271C113.025 43.7185 113.103 43.7185 113.179 43.7271C113.254 43.7271 113.299 43.7271 113.299 43.6593C113.299 43.5915 113.239 43.5764 113.127 43.5764C112.792 43.5764 112.113 43.5764 112.069 43.5764C111.912 43.5764 111.323 43.5764 110.846 43.5764C110.727 43.5764 110.667 43.5764 110.667 43.6593C110.667 43.7421 110.72 43.7271 110.802 43.7271H111.115C111.458 43.7271 111.54 43.9908 111.562 44.2997C111.584 44.6086 111.562 44.9251 111.562 46.4923V48.2478C111.588 48.9817 111.568 49.7165 111.502 50.4479C111.502 50.7041 111.42 50.9301 111.212 50.9828C111.118 50.9939 111.022 50.9939 110.928 50.9828C110.824 50.9828 110.802 51.0356 110.802 51.0657C110.802 51.0959 110.869 51.1486 110.988 51.1486C111.294 51.1486 112.009 51.1486 112.046 51.1486C112.084 51.1486 112.792 51.1486 113.395 51.1486C113.5 51.1486 113.545 51.1486 113.545 51.0657C113.545 50.9828 113.492 50.9828 113.41 50.9828C113.269 50.9923 113.127 50.9923 112.986 50.9828C112.68 50.9828 112.62 50.7041 112.583 50.4479C112.525 49.7287 112.505 49.0068 112.523 48.2855V47.2306C112.523 47.1704 112.523 47.1553 112.583 47.1553H116.884C116.893 47.1552 116.902 47.1572 116.911 47.1611C116.92 47.1649 116.928 47.1706 116.934 47.1777C116.94 47.1849 116.945 47.1933 116.948 47.2024C116.951 47.2115 116.952 47.2211 116.951 47.2306V48.2855C116.951 49.2499 116.951 49.9958 116.899 50.4253C116.899 50.6965 116.802 50.9527 116.6 50.9904C116.511 51.0019 116.421 51.0019 116.332 50.9904C116.235 50.9904 116.205 50.9904 116.205 51.0657C116.205 51.1411 116.265 51.1561 116.377 51.1561C116.697 51.1561 117.376 51.1561 117.428 51.1561C117.48 51.1561 118.173 51.1561 118.747 51.1561C118.866 51.1561 118.926 51.1561 118.926 51.0732C118.926 50.9904 118.866 50.9828 118.777 50.9828ZM150.782 50.591C150.744 50.5965 150.705 50.5881 150.672 50.5675C150.639 50.5468 150.615 50.5151 150.603 50.478C149.738 48.3834 148.106 44.2093 147.89 43.6969C147.786 43.4634 147.741 43.3805 147.681 43.3805C147.622 43.3805 147.54 43.4634 147.398 43.8175L144.908 50.463C144.841 50.5684 144.826 50.591 144.745 50.591C144.436 50.5992 144.127 50.5841 143.82 50.5458C143.776 50.5458 143.746 50.5458 143.761 50.6438C143.776 50.7417 143.805 51.1486 143.82 51.8041C143.82 51.9548 143.82 51.9925 143.902 51.9925C143.984 51.9925 143.984 51.9096 143.992 51.8267C143.992 51.352 144.208 51.1787 144.737 51.1486C145.005 51.1486 145.296 51.1486 146.064 51.1486H149.574C150.007 51.1486 150.603 51.1486 150.908 51.1486C151.002 51.1421 151.096 51.1557 151.183 51.1884C151.271 51.2211 151.351 51.2722 151.418 51.3384C151.485 51.4046 151.537 51.4843 151.571 51.5724C151.606 51.6604 151.621 51.7548 151.617 51.8493C151.617 51.9397 151.617 52 151.713 52C151.81 52 151.795 51.9548 151.795 51.8493C151.806 51.4379 151.844 51.0277 151.907 50.6212C151.907 50.5383 151.907 50.5308 151.848 50.5383C151.493 50.5615 151.137 50.5665 150.782 50.5534V50.591ZM149.492 50.591C149.094 50.6296 148.693 50.6422 148.292 50.6287H146.697C146.329 50.6405 145.961 50.6279 145.594 50.591C145.594 50.591 145.535 50.591 145.535 50.5383C145.584 50.3465 145.652 50.1598 145.736 49.9807L147.458 45.0381C147.458 45.0381 147.458 45.0381 147.517 45.0381C148.263 46.9368 149.008 49.0239 149.552 50.4856C149.559 50.5458 149.537 50.5684 149.492 50.576V50.591ZM171.853 43.501C171.376 43.501 170.772 43.501 170.526 43.501C170.459 43.501 169.781 43.501 169.304 43.501C169.199 43.501 169.14 43.501 169.14 43.5915C169.14 43.6819 169.192 43.6517 169.214 43.6517H169.579C169.907 43.7271 169.997 43.9154 170.027 44.2244C170.056 44.5333 170.027 44.7593 170.027 46.3943V48.1725C170.044 48.8988 170.024 49.6256 169.967 50.3499C169.93 50.6287 169.87 50.8698 169.661 50.9075C169.561 50.9325 169.459 50.9477 169.356 50.9527C169.296 50.9527 169.274 50.9527 169.274 51.013C169.274 51.0732 169.333 51.1034 169.438 51.1034C169.766 51.1034 170.459 51.1034 170.474 51.1034C170.489 51.1034 171.219 51.1034 171.8 51.1034C171.912 51.1034 171.964 51.1034 171.964 51.013C171.964 50.9226 171.964 50.9527 171.89 50.9527C171.733 50.9464 171.576 50.9313 171.42 50.9075C171.107 50.9075 171.048 50.6287 171.01 50.3499C170.966 49.9205 170.966 49.0615 170.966 48.1498V44.0511C170.966 43.9682 170.966 43.8853 171.033 43.8627C171.162 43.8179 171.299 43.7975 171.435 43.8024C171.703 43.7788 171.973 43.8167 172.225 43.9133C172.477 44.0098 172.703 44.1625 172.889 44.36C173.063 44.5538 173.198 44.7809 173.285 45.028C173.372 45.2751 173.41 45.5372 173.395 45.7991C173.401 46.0251 173.36 46.2498 173.276 46.4591C173.191 46.6684 173.065 46.8579 172.905 47.0156C172.744 47.1733 172.554 47.2959 172.344 47.3757C172.135 47.4555 171.912 47.4907 171.689 47.4793C171.465 47.4793 171.398 47.4793 171.398 47.5772C171.398 47.6752 171.458 47.645 171.502 47.645C171.577 47.652 171.652 47.652 171.726 47.645C172.042 47.6739 172.36 47.6376 172.662 47.5382C172.963 47.4389 173.241 47.2787 173.48 47.0673C173.718 46.856 173.912 46.5978 174.048 46.3085C174.185 46.0193 174.262 45.705 174.275 45.3847C174.284 45.1387 174.242 44.8936 174.154 44.6642C174.065 44.4349 173.932 44.2263 173.761 44.0511C173.214 43.6107 172.517 43.4075 171.823 43.486L171.853 43.501ZM181.341 47.095C180.655 46.7888 179.904 46.6619 179.157 46.7258H178.911C178.874 46.7258 178.859 46.7258 178.859 46.6806V46.4169C178.859 44.8497 178.859 44.5785 178.859 44.2545C178.859 43.9305 178.971 43.7346 179.246 43.6743H179.5C179.537 43.6743 179.582 43.6743 179.582 43.6141C179.582 43.5538 179.515 43.5236 179.41 43.5236C179.082 43.5236 178.397 43.5236 178.359 43.5236H177.145C176.749 43.532 176.353 43.4916 175.967 43.4031C175.885 43.4031 175.863 43.3353 175.781 43.3353C175.699 43.3353 175.684 43.4182 175.661 43.5387C175.639 43.6593 175.438 44.5257 175.43 44.6162C175.423 44.7066 175.43 44.7367 175.475 44.7367C175.52 44.7367 175.557 44.7367 175.594 44.6312C175.641 44.5182 175.699 44.4097 175.766 44.3072C175.93 44.0586 176.213 43.9531 176.861 43.9531H177.89C177.89 44.2696 177.89 44.8422 177.89 46.4094V48.1875C177.916 48.9238 177.899 49.661 177.838 50.3951C177.838 50.6815 177.748 50.8924 177.547 50.9301C177.458 50.9399 177.368 50.9399 177.279 50.9301C177.197 50.9301 177.145 50.9301 177.145 51.013C177.145 51.0958 177.204 51.0958 177.308 51.0958C177.644 51.0958 178.307 51.0958 178.345 51.0958C178.635 51.0958 179.433 51.1561 179.835 51.1561C180.147 51.1871 180.463 51.1543 180.762 51.0597C181.062 50.965 181.339 50.8105 181.578 50.6053C181.818 50.4 182.013 50.1483 182.154 49.8649C182.295 49.5816 182.379 49.2725 182.399 48.956C182.418 48.5701 182.326 48.1869 182.132 47.8536C181.939 47.5203 181.654 47.2514 181.311 47.0799L181.341 47.095ZM180.074 50.7869C179.767 50.8072 179.459 50.7502 179.179 50.6212C179.086 50.5708 179.009 50.4942 178.957 50.4007C178.906 50.3072 178.882 50.2006 178.889 50.0938C178.889 49.6342 178.889 48.7903 178.889 47.8334V47.1553C178.889 47.1553 178.889 47.1101 178.941 47.1101C179.589 47.0381 180.242 47.1866 180.797 47.532C181.046 47.7306 181.243 47.9871 181.373 48.2797C181.503 48.5722 181.561 48.8922 181.542 49.2122C181.46 50.2746 180.864 50.7719 180.044 50.7719L180.074 50.7869ZM156.186 46.8238C156.481 46.6129 156.722 46.3328 156.886 46.0073C157.051 45.6819 157.136 45.3208 157.132 44.9552C157.132 44.4429 156.782 43.4483 155.023 43.4483C154.561 43.4483 154.173 43.4483 153.897 43.4483C153.897 43.4483 153.152 43.4483 152.675 43.4483C152.571 43.4483 152.496 43.4483 152.496 43.5312C152.496 43.6141 152.541 43.6141 152.653 43.6141C152.744 43.6092 152.837 43.6092 152.928 43.6141C153.286 43.6819 153.368 43.8476 153.39 44.1716C153.413 44.4956 153.39 44.7894 153.39 46.3416V48.1197C153.408 48.8461 153.388 49.5729 153.331 50.2972C153.294 50.576 153.227 50.8246 153.025 50.8623C152.956 50.873 152.886 50.873 152.817 50.8623C152.66 50.8623 152.653 50.9226 152.653 50.9602C152.653 50.9979 152.712 51.028 152.817 51.028C153.204 51.028 153.51 51.028 153.875 51.028C153.92 51.028 154.203 51.028 154.531 51.028C154.859 51.028 155.067 51.028 155.276 51.028C157.065 51.028 157.945 49.9205 157.945 48.8204C157.886 48.3405 157.682 47.8903 157.363 47.5306C157.043 47.171 156.622 46.919 156.156 46.8087L156.186 46.8238ZM154.367 43.9833C154.367 43.923 154.404 43.9004 154.508 43.8778C154.655 43.8397 154.805 43.8195 154.956 43.8175C155.954 43.8175 156.312 44.7292 156.312 45.5504C156.326 45.8936 156.217 46.2303 156.007 46.4998C155.79 46.7484 155.612 46.7861 155.008 46.7861C154.815 46.807 154.62 46.807 154.426 46.7861C154.389 46.7861 154.367 46.7861 154.367 46.6655V43.9833ZM155.619 50.7643C155.324 50.7676 155.03 50.7139 154.754 50.6061C154.404 50.4554 154.412 50.2972 154.374 49.7773C154.374 49.6794 154.374 48.3759 154.374 47.63V47.1628C154.374 47.1101 154.374 47.095 154.434 47.095C154.682 47.074 154.931 47.074 155.179 47.095C155.464 47.109 155.739 47.2001 155.977 47.3587C156.298 47.5941 156.558 47.9051 156.733 48.2649C156.908 48.6247 156.994 49.0223 156.983 49.4232C156.991 49.6077 156.96 49.7918 156.892 49.9633C156.824 50.1347 156.721 50.2894 156.589 50.4172C156.457 50.5449 156.299 50.6426 156.127 50.7038C155.955 50.7649 155.771 50.7882 155.589 50.7719L155.619 50.7643ZM163.579 43.3353C163.052 43.3151 162.526 43.4017 162.033 43.59C161.539 43.7782 161.088 44.0643 160.705 44.4315C160.323 44.7986 160.016 45.2394 159.805 45.7278C159.593 46.2163 159.48 46.7426 159.472 47.2758C159.457 47.8115 159.552 48.3446 159.752 48.841C159.951 49.3375 160.251 49.7865 160.632 50.1593C161.013 50.5322 161.466 50.8208 161.963 51.0067C162.46 51.1926 162.991 51.2717 163.52 51.239C164.065 51.2618 164.609 51.1714 165.118 50.9734C165.628 50.7754 166.092 50.4741 166.481 50.0879C166.871 49.7017 167.178 49.2389 167.384 48.7281C167.59 48.2172 167.69 47.6691 167.679 47.1176C167.649 44.7367 165.875 43.3428 163.549 43.3428L163.579 43.3353ZM163.818 50.8698C161.843 50.8698 160.561 49.3629 160.561 47.0046C160.561 44.6463 161.88 43.7346 163.542 43.7346C165.204 43.7346 166.605 45.0682 166.605 47.4491C166.546 50.4403 164.586 50.8397 163.788 50.8397L163.818 50.8698ZM84.6998 19.0666C84.8265 19.0666 84.983 19.0666 85.1321 19.1118C85.5271 19.1946 85.6985 19.3755 85.7284 19.918C85.7582 20.4604 85.7284 20.7392 85.7284 22.9318V25.4558C85.7284 26.8121 85.7284 27.7765 85.6762 28.3717C85.624 28.9669 85.5197 29.2683 85.1992 29.3286H84.8861C84.7371 29.3286 84.7221 29.4039 84.7221 29.4416C84.7221 29.4793 84.819 29.5245 84.9756 29.5245C85.393 29.5245 86.1681 29.5245 86.2799 29.5245C86.3917 29.5245 87.4576 29.5245 88.0464 29.5245C88.2402 29.5245 88.2998 29.5245 88.2998 29.4416C88.2998 29.3587 88.2551 29.3437 88.0836 29.3286L87.5097 29.2758C87.0923 29.2005 86.9954 28.8916 86.9656 28.4094C86.9209 27.8141 86.906 26.8196 86.906 25.4558V19.7748C86.906 19.5488 86.9805 19.5186 87.1445 19.5036C87.3085 19.4885 87.6961 19.5036 89.7532 19.5036C91.8103 19.5036 92.593 19.5036 92.8017 19.5036C92.8134 19.5045 92.8249 19.5078 92.8354 19.5132C92.8459 19.5187 92.8552 19.5262 92.8628 19.5353C92.8704 19.5444 92.8762 19.5549 92.8798 19.5663C92.8833 19.5777 92.8847 19.5896 92.8836 19.6015V25.3654C92.8836 26.7292 92.8836 27.9347 92.8315 28.5299C92.7793 29.1252 92.578 29.2834 92.3544 29.3437H92.0712C91.8774 29.3437 91.8625 29.4039 91.8625 29.4416C91.8625 29.4793 91.8625 29.5396 92.0861 29.5396C92.5184 29.5396 93.3234 29.5396 93.4426 29.5396C93.5619 29.5396 94.583 29.5396 95.2389 29.5396C95.3656 29.5396 95.4253 29.5396 95.4253 29.4416C95.4253 29.3437 95.4253 29.3587 95.2389 29.3437C95.0568 29.3359 94.8751 29.3183 94.6948 29.2909C94.2849 29.2156 94.1582 28.9895 94.1209 28.4546C94.0836 27.9196 94.0613 26.7894 94.0613 25.4408V22.977C94.0613 20.7694 94.0613 20.355 94.0613 19.9029C94.0613 19.2775 94.2476 19.1946 94.5979 19.1494C94.684 19.1295 94.7711 19.1144 94.8588 19.1042C95.0004 19.1042 95.0451 19.044 95.0451 18.9912C95.0451 18.9385 95.0451 18.9083 94.8364 18.9083C94.5234 18.9083 93.4576 18.946 93.3905 18.946H86.3246C86.1085 18.946 85.311 18.9083 84.834 18.9083C84.6774 18.9083 84.5954 18.9083 84.5954 18.9912C84.5954 19.0741 84.5731 19.0515 84.6998 19.0666ZM69.6066 29.6149C69.9867 29.6149 70.6576 29.6149 70.7843 29.6149C70.911 29.6149 71.6116 29.6149 72.1333 29.6149C72.2675 29.6149 72.342 29.6149 72.342 29.4944C72.342 29.3738 72.2824 29.419 72.2004 29.419C72.03 29.4206 71.86 29.4029 71.6936 29.3663C71.6349 29.3589 71.5782 29.3397 71.5271 29.3097C71.4759 29.2797 71.4312 29.2396 71.3957 29.1918C71.3602 29.144 71.3347 29.0894 71.3205 29.0313C71.3064 28.9733 71.304 28.9129 71.3135 28.8539C71.3135 28.6128 71.3135 28.4094 71.3135 28.1833L71.8874 21.5077C72.0439 21.892 73.6538 25.3956 73.7805 25.6442C73.9072 25.8928 75.0625 28.2436 75.4277 28.9368C75.6886 29.4491 75.7631 29.5923 75.86 29.5923C75.9569 29.5923 76.0315 29.4642 76.3221 28.8388L79.8029 21.3797L80.4737 28.7786C80.4737 29.0347 80.5184 29.2532 80.4215 29.2909C80.3246 29.3286 80.3246 29.3361 80.3246 29.3889C80.3246 29.4416 80.3917 29.5019 80.7122 29.532C81.2339 29.5772 82.829 29.6149 83.142 29.6149C83.306 29.6149 83.3507 29.6149 83.3507 29.5019C83.3507 29.3889 83.2687 29.419 83.1942 29.419C82.9011 29.4225 82.6093 29.3793 82.3296 29.2909C81.7259 29.095 81.629 28.2964 81.5843 27.784L80.66 19.0515C80.66 18.7802 80.5855 18.6672 80.4886 18.6672C80.3917 18.6672 80.3395 18.7652 80.2799 18.8933L76.1582 27.7991L71.865 18.8782C71.7905 18.7275 71.7383 18.6672 71.6563 18.6672C71.5743 18.6672 71.5147 18.7953 71.4998 18.9535L70.4861 28.1683C70.419 28.7484 70.3892 29.2608 69.9271 29.3512C69.7884 29.3659 69.6485 29.3659 69.5097 29.3512C69.4352 29.3512 69.3681 29.3512 69.3681 29.4341C69.3681 29.517 69.465 29.5848 69.6066 29.5848V29.6149ZM109.154 24.5291C108.856 24.5291 108.774 24.5291 108.774 24.6572C108.774 24.7853 108.856 24.7551 108.931 24.7551C109.028 24.7626 109.125 24.7626 109.222 24.7551C109.66 24.787 110.1 24.728 110.514 24.5816C110.929 24.4352 111.31 24.2046 111.633 23.9039C111.956 23.6033 112.215 23.2389 112.394 22.8333C112.573 22.4277 112.667 21.9894 112.672 21.5454C112.684 21.2048 112.628 20.8654 112.507 20.5471C112.387 20.2288 112.205 19.938 111.972 19.6919C111.748 19.481 111.115 18.8857 109.363 18.8857C108.722 18.8857 107.872 18.9234 107.597 18.9234C107.485 18.9234 106.643 18.8857 106.009 18.8857C105.86 18.8857 105.786 18.8857 105.786 18.9987C105.786 19.1118 105.845 19.0816 105.897 19.0816C106.057 19.081 106.217 19.0962 106.374 19.1268C106.836 19.2248 106.948 19.4508 106.978 19.933C107.008 20.4152 106.978 20.7844 106.978 22.992V25.4935C106.978 26.8497 106.978 27.9724 106.911 28.5676C106.851 28.982 106.784 29.3211 106.501 29.3211C106.363 29.3493 106.224 29.3669 106.084 29.3738C105.994 29.3738 105.964 29.419 105.964 29.4567C105.964 29.4943 106.039 29.5697 106.195 29.5697C106.613 29.5697 107.5 29.5697 107.537 29.5697C107.574 29.5697 108.491 29.5697 109.266 29.5697C109.423 29.5697 109.49 29.5697 109.49 29.4567C109.49 29.3437 109.49 29.3738 109.378 29.3738C109.266 29.3738 108.938 29.3738 108.745 29.3211C108.327 29.2608 108.238 28.9519 108.2 28.5676C108.126 27.9724 108.126 26.8497 108.126 25.4935V19.6467C108.126 19.5036 108.126 19.4056 108.238 19.3755C108.433 19.314 108.637 19.286 108.841 19.2926C109.194 19.2616 109.548 19.309 109.881 19.4313C110.213 19.5537 110.514 19.7481 110.764 20.0008C111.286 20.5605 111.569 21.3043 111.554 22.0728C111.567 22.3948 111.514 22.716 111.397 23.0161C111.281 23.3162 111.105 23.5888 110.88 23.8167C110.654 24.0445 110.384 24.2228 110.088 24.3402C109.791 24.4576 109.473 24.5117 109.154 24.499V24.5291ZM98.8836 28.0176C98.8836 29.0799 98.6749 29.2758 98.3768 29.3512C98.2701 29.3575 98.1631 29.3575 98.0563 29.3512C97.9743 29.3512 97.8998 29.3964 97.8998 29.4341C97.8998 29.4717 97.9743 29.5471 98.1308 29.5471C98.4886 29.5471 98.8315 29.5471 99.1669 29.5471C99.711 29.5471 100.359 29.5471 100.918 29.5471C101.477 29.5471 101.932 29.5923 102.968 29.5923C103.512 29.5923 103.624 29.5923 103.713 29.2231C103.803 28.8539 103.892 27.9648 103.892 27.8518C103.892 27.7388 103.892 27.6333 103.81 27.6333C103.728 27.6333 103.713 27.6936 103.684 27.8518C103.572 28.4621 103.415 28.756 102.938 28.8991C102.524 28.9999 102.097 29.043 101.671 29.0272C101.279 29.0523 100.886 29.009 100.508 28.8991C100.158 28.756 100.076 28.447 100.046 27.8594C100.046 27.5655 100.046 25.923 100.046 25.4408V24.2277C100.045 24.2146 100.047 24.2013 100.051 24.1889C100.056 24.1765 100.063 24.1652 100.072 24.1559C100.081 24.1466 100.093 24.1394 100.105 24.1349C100.117 24.1304 100.13 24.1286 100.143 24.1298C100.382 24.1298 101.776 24.1298 102.148 24.1976C102.655 24.2578 102.826 24.4537 102.894 24.6647C102.935 24.7936 102.955 24.9285 102.953 25.064C102.953 25.1771 102.953 25.2901 103.05 25.2901C103.147 25.2901 103.132 25.2223 103.147 25.0791C103.162 24.936 103.147 24.5517 103.207 24.1147C103.266 23.6777 103.318 23.4064 103.318 23.3612C103.318 23.316 103.318 23.2482 103.244 23.2482C103.169 23.2482 103.147 23.301 103.08 23.3838C103.013 23.4667 102.752 23.6023 102.379 23.6249C102.007 23.6476 100.33 23.6249 100.143 23.6249C100.076 23.6249 100.061 23.5797 100.061 23.4818V19.5638C100.061 19.4659 100.061 19.4207 100.143 19.4207C100.225 19.4207 101.828 19.4207 102.066 19.4659C102.685 19.5186 102.976 19.6618 103.08 19.9858C103.125 20.1372 103.148 20.2947 103.147 20.4529C103.147 20.5659 103.147 20.6413 103.259 20.6413C103.371 20.6413 103.356 20.5433 103.371 20.4002C103.371 20.031 103.415 19.7597 103.43 19.5488C103.43 19.1494 103.542 18.9837 103.542 18.8782C103.542 18.7727 103.542 18.7501 103.482 18.7501C103.429 18.7574 103.377 18.7781 103.333 18.8104C103.122 18.8681 102.904 18.8959 102.685 18.8933C102.364 18.8933 99.5694 18.8933 99.4725 18.8933C98.5855 18.8556 98.2128 18.8556 97.8849 18.8556C97.7358 18.8556 97.6613 18.8556 97.6613 18.9686C97.6613 19.0816 97.7433 19.0364 97.8476 19.0515C97.9826 19.0573 98.1171 19.0724 98.2501 19.0967C98.7122 19.1946 98.824 19.4207 98.8538 19.9029C98.8836 20.3851 98.8538 20.7543 98.8538 22.9619V25.4634C98.9135 26.7367 98.8985 27.46 98.8836 28.0176ZM129.554 19.5036C130.904 19.5036 131.239 19.8577 131.276 20.257C131.276 20.3098 131.276 20.355 131.276 20.4077C131.276 20.6111 131.321 20.6488 131.388 20.6488C131.455 20.6488 131.492 20.5961 131.492 20.468C131.492 20.3399 131.53 19.3303 131.53 18.9083C131.53 18.8255 131.53 18.735 131.463 18.735C131.395 18.735 131.276 18.7802 131.067 18.8104C130.737 18.8603 130.403 18.883 130.069 18.8782H124.851C124.68 18.8782 124.151 18.8782 123.741 18.8104C123.528 18.7784 123.321 18.7202 123.122 18.6371C123.07 18.6371 123.01 18.8255 122.981 18.9083C122.951 18.9912 122.675 20.2419 122.675 20.4152C122.675 20.5885 122.675 20.5433 122.742 20.5433C122.809 20.5433 122.846 20.5433 122.884 20.4002C122.948 20.2444 123.028 20.0955 123.122 19.9556C123.346 19.6166 123.681 19.5186 124.553 19.5036H126.633V25.5312C126.633 26.8874 126.633 28.01 126.558 28.6053C126.506 29.0197 126.431 29.3587 126.156 29.3587C126.016 29.3874 125.874 29.405 125.731 29.4115C125.649 29.4115 125.619 29.4567 125.619 29.4944C125.619 29.532 125.694 29.6074 125.843 29.6074C126.267 29.6074 127.147 29.6074 127.222 29.6074C127.296 29.6074 128.176 29.6074 128.943 29.6074C129.1 29.6074 129.167 29.6074 129.167 29.4944C129.167 29.3813 129.167 29.4115 129.055 29.4115C128.943 29.4115 128.623 29.4115 128.429 29.3587C128.004 29.2985 127.922 28.9895 127.877 28.6053C127.81 28.01 127.81 26.8874 127.81 25.5312V19.5036H129.554ZM149 24.499C148.702 24.499 148.62 24.499 148.62 24.627C148.62 24.7551 148.702 24.725 148.777 24.725C148.874 24.7325 148.971 24.7325 149.067 24.725C149.505 24.7558 149.945 24.6959 150.359 24.5491C150.773 24.4023 151.154 24.1717 151.477 23.8712C151.8 23.5708 152.059 23.2069 152.238 22.8018C152.417 22.3967 152.512 21.959 152.518 21.5153C152.53 21.1747 152.474 20.8353 152.353 20.5169C152.233 20.1986 152.051 19.9079 151.818 19.6618C151.594 19.4508 150.961 18.8556 149.209 18.8556C148.568 18.8556 147.718 18.8933 147.443 18.8933C147.331 18.8933 146.489 18.8556 145.855 18.8556C145.699 18.8556 145.631 18.8556 145.631 18.9686C145.631 19.0816 145.691 19.0515 145.743 19.0515C145.903 19.0509 146.063 19.066 146.22 19.0967C146.682 19.1946 146.794 19.4207 146.824 19.9029C146.854 20.3851 146.824 20.7543 146.824 22.9619V25.4634C146.824 26.8196 146.824 27.9422 146.749 28.5375C146.697 28.9519 146.63 29.2909 146.347 29.2909C146.207 29.3196 146.065 29.3372 145.922 29.3437C145.84 29.3437 145.81 29.3889 145.81 29.4265C145.81 29.4642 145.885 29.5396 146.034 29.5396C146.459 29.5396 147.346 29.5396 147.383 29.5396C147.42 29.5396 148.337 29.5396 149.112 29.5396C149.261 29.5396 149.336 29.5019 149.336 29.4265C149.336 29.4265 149.336 29.3437 149.224 29.3437C149.112 29.3437 148.784 29.3437 148.59 29.2909C148.173 29.2306 148.084 28.9217 148.046 28.5375C147.972 27.9422 147.972 26.8196 147.972 25.4634V19.6467C147.972 19.5036 147.972 19.4056 148.084 19.3755C148.279 19.314 148.483 19.286 148.687 19.2926C149.04 19.2621 149.394 19.3097 149.726 19.4321C150.058 19.5544 150.36 19.7485 150.61 20.0008C151.117 20.5663 151.385 21.3102 151.356 22.0728C151.368 22.3922 151.315 22.7108 151.201 23.0088C151.087 23.3068 150.913 23.5779 150.691 23.8053C150.469 24.0327 150.203 24.2116 149.909 24.331C149.616 24.4503 149.302 24.5074 148.986 24.499H149ZM95.7607 50.9828C95.6217 50.9925 95.4822 50.9925 95.3433 50.9828C95.0451 50.9828 94.9855 50.7041 94.9482 50.4253C94.9035 49.9958 94.9035 49.2198 94.9035 48.2478V46.4697C94.9035 44.9025 94.9035 44.6312 94.9035 44.3072C94.9035 43.9833 94.9781 43.7874 95.2911 43.7421C95.3704 43.7347 95.4503 43.7347 95.5296 43.7421C95.619 43.7421 95.6563 43.6894 95.6563 43.6593C95.6563 43.6291 95.5892 43.5764 95.47 43.5764C95.1197 43.5764 94.4563 43.5764 94.4116 43.5764C94.3669 43.5764 93.6662 43.5764 93.1818 43.5764C93.07 43.5764 93.0178 43.5764 93.0178 43.6593C93.0178 43.7421 93.07 43.7421 93.1594 43.7421C93.2562 43.7344 93.3534 43.7344 93.4501 43.7421C93.8377 43.81 93.8824 43.9757 93.9048 44.2997C93.9271 44.6237 93.9048 44.8949 93.9048 46.4546V46.6731C93.9048 46.7334 93.9048 46.7334 93.8377 46.7334H89.5892C89.552 46.7334 89.5147 46.7334 89.5147 46.6731V46.4546C89.5147 44.8949 89.5147 44.6312 89.5147 44.3072C89.5147 43.9833 89.6116 43.7723 89.9023 43.7271C89.9791 43.7185 90.0565 43.7185 90.1333 43.7271C90.2079 43.7271 90.2526 43.7271 90.2526 43.6593C90.2526 43.5915 90.193 43.5764 90.0737 43.5764C89.7458 43.5764 89.0675 43.5764 89.0228 43.5764C88.9781 43.5764 88.2774 43.5764 87.8004 43.5764C87.6812 43.5764 87.6215 43.5764 87.6215 43.6593C87.6215 43.7421 87.6737 43.7271 87.7557 43.7271H88.0687C88.4116 43.7271 88.4936 43.9908 88.5159 44.2997C88.5383 44.6086 88.5159 44.9251 88.5159 46.4923V48.2478C88.5741 48.957 88.5891 49.6691 88.5607 50.3801C88.5607 50.6362 88.4787 50.8623 88.27 50.915C88.1759 50.9261 88.0808 50.9261 87.9867 50.915C87.8824 50.915 87.86 50.9678 87.86 50.9979C87.86 51.028 87.9271 51.0808 88.0464 51.0808C88.352 51.0808 89.0675 51.0808 89.1048 51.0808C89.142 51.0808 89.8501 51.0808 90.4538 51.0808C90.5582 51.0808 90.6029 51.0808 90.6029 50.9979C90.6029 50.915 90.5433 50.915 90.4613 50.915C90.3223 50.9242 90.1829 50.9242 90.0439 50.915C89.7383 50.915 89.6787 50.6362 89.6414 50.3801C89.5831 49.6609 89.5632 48.939 89.5818 48.2177V47.1628C89.5818 47.1026 89.5818 47.0875 89.6414 47.0875H93.9048C93.9142 47.0874 93.9236 47.0894 93.9323 47.0933C93.9409 47.0971 93.9487 47.1028 93.955 47.1099C93.9614 47.117 93.9661 47.1254 93.969 47.1346C93.9719 47.1437 93.9729 47.1533 93.9718 47.1628V48.2177C93.9718 49.1821 93.9718 49.928 93.9197 50.3575C93.9197 50.6287 93.8228 50.8849 93.6215 50.9226C93.5325 50.9341 93.4423 50.9341 93.3532 50.9226C93.2563 50.9226 93.2265 50.9226 93.2265 50.9979C93.2265 51.0733 93.2861 51.0883 93.3979 51.0883C93.7184 51.0883 94.3967 51.0883 94.4414 51.0883C94.4861 51.0883 95.1867 51.0883 95.7681 51.0883C95.8874 51.0883 95.947 51.0883 95.947 51.0054C95.947 50.9226 95.8501 50.9828 95.7607 50.9828ZM132.61 24.2126C132.61 26.7668 134.213 29.7882 138.059 29.7882C138.809 29.8012 139.555 29.6589 140.249 29.3701C140.943 29.0813 141.572 28.652 142.096 28.1087C142.62 27.5654 143.029 26.9194 143.298 26.2106C143.566 25.5017 143.688 24.7449 143.656 23.9866C143.656 20.6789 141.294 18.6672 138.141 18.6672C137.415 18.6541 136.693 18.7882 136.02 19.0617C135.346 19.3352 134.733 19.7424 134.217 20.2594C133.702 20.7763 133.294 21.3925 133.018 22.0715C132.742 22.7505 132.603 23.4786 132.61 24.2126ZM142.3 24.3859C142.3 28.5073 139.691 29.2457 138.424 29.2457C135.905 29.2457 133.952 27.121 133.952 23.8133C133.952 20.7091 135.704 19.1494 138.051 19.1494C140.258 19.1494 142.307 20.9803 142.307 24.3859H142.3ZM120.446 36.3734L121.125 35.6877L57.2563 36.0569L56.6526 35.4466L55.7656 36.3734L56.6824 37.3001L57.2936 36.6823L121.125 37.059L120.446 36.3734ZM77.1569 50.9828C76.9535 50.975 76.7513 50.9473 76.5532 50.9C76.0985 50.7945 76.024 50.1465 75.9942 49.8451L75.2489 43.6743C75.2489 43.486 75.1967 43.3805 75.1296 43.3805C75.0625 43.3805 75.0103 43.4483 74.9507 43.5764L71.9694 49.7246L68.824 43.5689C68.742 43.4106 68.7122 43.3805 68.6526 43.3805C68.593 43.3805 68.5408 43.4709 68.5184 43.6743L67.7358 50.1917C67.6762 50.6664 67.5718 50.9452 67.2886 50.9452H67.065C66.9607 50.9452 66.9159 50.9979 66.9159 51.0205C66.9159 51.0431 66.983 51.1109 67.0874 51.1109C67.378 51.1109 67.8774 51.1109 67.9892 51.1109C68.101 51.1109 68.593 51.1109 68.9656 51.1109C69.0998 51.1109 69.1669 51.1109 69.1669 51.0205C69.1669 50.9301 69.1669 50.9602 69.0476 50.9452C68.9384 50.9523 68.8289 50.9523 68.7197 50.9452C68.6354 50.9322 68.559 50.888 68.5052 50.8211C68.4515 50.7542 68.4243 50.6695 68.429 50.5835C68.429 50.4102 68.429 50.3047 68.429 50.1314L68.8687 45.5655C68.9582 45.8141 70.1135 48.1197 70.1805 48.2629C70.2476 48.406 71.1867 50.2294 71.4178 50.576C71.6489 50.9226 71.701 51.0883 71.7681 51.0883C71.8352 51.0883 71.9097 50.9828 72.1333 50.5232L74.6228 45.4148L75.1371 50.4931C75.1371 50.6664 75.1371 50.802 75.07 50.8321C75.0029 50.8623 74.9582 50.9 74.9582 50.9376C74.9582 50.9753 75.0551 51.0205 75.3159 51.0431C75.5768 51.0657 76.9557 51.1109 77.1718 51.1109C77.388 51.1109 77.3433 51.1109 77.3433 51.0205C77.3433 50.9301 77.2017 50.9828 77.1569 50.9828ZM82.1284 43.3805C81.6012 43.3604 81.0754 43.4469 80.5818 43.6352C80.0882 43.8235 79.6368 44.1096 79.2542 44.4767C78.8716 44.8438 78.5654 45.2846 78.3537 45.773C78.142 46.2615 78.0291 46.7878 78.0215 47.3211C78.006 47.8567 78.1011 48.3898 78.3007 48.8862C78.5004 49.3827 78.8001 49.8317 79.1809 50.2045C79.5616 50.5774 80.0151 50.866 80.5123 51.0519C81.0095 51.2378 81.5396 51.3169 82.0687 51.2842C82.614 51.307 83.158 51.2166 83.6674 51.0186C84.1768 50.8206 84.6406 50.5193 85.0303 50.1331C85.42 49.7469 85.7273 49.2841 85.9332 48.7733C86.1392 48.2624 86.2394 47.7143 86.2277 47.1628C86.2277 44.7367 84.4538 43.3428 82.1284 43.3428V43.3805ZM82.3669 50.915C80.3917 50.915 79.1097 49.4081 79.1097 47.0498C79.1097 44.6915 80.429 43.7798 82.0911 43.7798C83.7532 43.7798 85.1544 45.1134 85.1544 47.4943C85.1246 50.4403 83.1495 50.8397 82.3669 50.8397V50.915ZM56.4588 19.0666C56.5706 19.0666 56.7271 19.0666 56.906 19.1118C57.3607 19.1946 57.5097 19.2926 57.5246 20.8522C57.5694 23.5722 57.5246 26.7668 57.5246 29.1026C57.5246 29.6752 57.5694 29.7882 57.711 29.7882C57.8526 29.7882 57.9346 29.7128 58.2253 29.3889C58.8141 28.7409 64.6799 21.3947 65.4103 20.468C65.4103 22.8941 65.4103 25.2599 65.3507 27.5881C65.3507 28.6505 65.2836 29.2457 64.8737 29.3361L64.4712 29.3889C64.2849 29.3889 64.2625 29.4341 64.2625 29.5019C64.2625 29.5697 64.2625 29.5848 64.4712 29.5848C64.978 29.5848 65.4253 29.5848 65.7308 29.5848C66.0364 29.5848 67.2215 29.5848 67.6985 29.5848C67.8476 29.5848 67.9072 29.5848 67.9072 29.4868C67.9072 29.3889 67.8625 29.4039 67.6985 29.3889C67.5346 29.3738 67.2215 29.3889 67.147 29.3361C66.6998 29.2608 66.588 28.8765 66.5731 27.8292C66.5284 25.1771 66.5284 22.653 66.5284 20.0008C66.5284 18.7652 66.4613 18.6522 66.3197 18.6522C66.178 18.6522 65.9321 18.8782 65.4103 19.5186C64.0315 21.2214 60.4166 25.7572 58.7023 27.897V20.5433C58.7023 19.3378 58.829 19.1796 59.224 19.0967C59.3443 19.0715 59.4665 19.0564 59.5892 19.0515C59.7383 19.0515 59.7681 18.9912 59.7681 18.9385C59.7681 18.8857 59.701 18.8556 59.5296 18.8556C59.142 18.8556 58.5756 18.8933 58.1284 18.8933C57.9048 18.8933 57.0178 18.8556 56.5855 18.8556C56.429 18.8556 56.3023 18.8556 56.3023 18.9535C56.3023 19.0515 56.347 19.0515 56.4588 19.0666ZM192.789 35.4466L192.193 36.0494L127.318 35.6877L127.997 36.3734L127.318 37.059L192.163 36.6672L192.767 37.2851L193.684 36.3583L192.789 35.4466ZM122.101 36.3734L124.233 38.5283L126.372 36.3734L124.233 34.2185L122.101 36.3734Z" fill="url(#paint0_radial_2346_7276)"/>
<path d="M42.6259 21.0911C39.1152 16.741 32.8803 16.4112 32.796 16.4112H32.1782C31.1952 16.727 30.4439 19.6387 29.833 22.3751C29.4047 22.305 28.9203 22.2418 28.4288 22.1997C28.3882 20.9147 28.2544 19.6344 28.0286 18.3688C27.8109 17.19 26.3856 16.3902 24.897 15.9411C25.6883 15.468 26.3455 14.8007 26.8063 14.0025C27.2671 13.2044 27.5162 12.3018 27.53 11.3805C27.59 10.2856 27.2366 9.20797 26.5397 8.36088C25.8429 7.51379 24.8532 6.95886 23.7666 6.80585V5.80252L23.1417 4.80619L23.5349 4.40626L24.4687 5.03072H26.1539V2.4487H24.4687L23.4717 3.07316L23.0785 2.68024L23.7034 1.68392V0H21.1336V1.68392L21.7655 2.68024L21.3653 3.07316L20.3683 2.4487H18.6902V5.03072H20.3683L21.3653 4.40626L21.7655 4.80619L21.1336 5.80252V6.81287C20.0477 6.96741 19.059 7.52275 18.3624 8.36948C17.6658 9.21622 17.3118 10.2929 17.3702 11.3875C17.3825 12.3074 17.6303 13.2088 18.09 14.0059C18.5496 14.803 19.2059 15.4692 19.9962 15.9411C18.5147 16.3972 17.0893 17.1971 16.8717 18.3758C16.6458 19.6414 16.512 20.9218 16.4714 22.2067C15.9448 22.2488 15.4674 22.312 15.0672 22.3821C14.4563 19.6458 13.6629 16.7691 12.715 16.4182H12.0972C12.0129 16.4182 5.77796 16.748 2.26729 21.0981C0.0345062 23.8556 -0.541245 27.5391 0.504934 32.0366C1.55111 36.5341 5.14604 42.4419 6.122 44.0205C5.89843 44.4413 5.76714 44.9049 5.73687 45.3803C5.7066 45.8558 5.77806 46.3322 5.94647 46.778C6.12841 47.8428 6.63905 48.8241 7.4069 49.5845C9.35883 51.4158 13.6208 52.9383 22.4536 52.9383C31.8411 52.9383 36.075 50.9036 37.8444 48.9951C38.4054 48.3654 38.7884 47.5977 38.9538 46.7709C39.1281 46.318 39.2027 45.8329 39.1724 45.3485C39.1421 44.8642 39.0077 44.3921 38.7782 43.9644C39.7612 42.3857 43.3631 36.3938 44.3953 31.9805C45.4274 27.5672 44.8306 23.8556 42.6259 21.0911ZM1.41771 27.1603C1.9092 26.2622 3.94539 23.1329 9.14117 21.5472C9.23947 22.326 9.36586 23.182 9.52735 24.1152C4.71071 25.7149 2.50601 28.0513 1.48792 29.8335C1.37885 28.9467 1.35534 28.0515 1.41771 27.1603ZM24.5881 49.5143C24.7438 49.1877 24.8253 48.8307 24.8268 48.4689C24.8255 48.0499 24.7142 47.6386 24.5039 47.2761C25.7677 47.227 26.9543 47.1428 28.0145 47.0305C28.1165 47.7872 27.9816 48.5567 27.6283 49.2337C26.5751 49.353 25.543 49.4512 24.5741 49.5143H24.5881ZM11.5776 46.1816L12.062 46.2868C13.045 46.4973 14.1684 46.6938 15.3831 46.8551C15.2852 47.5812 15.3402 48.3197 15.5446 49.0232C14.3721 48.8618 13.2206 48.6724 12.1674 48.4689C11.7484 47.7817 11.5431 46.9856 11.5776 46.1816ZM31.2373 26.4446C30.2845 32.1168 28.2693 37.5585 25.2973 42.484C26.8817 37.0962 27.9029 31.5587 28.3445 25.9605C29.3311 26.0102 30.3088 26.1726 31.2584 26.4446H31.2373ZM17.1525 49.2267C16.8095 48.5414 16.6846 47.7677 16.7944 47.0095C17.8687 47.1218 19.0202 47.1989 20.2489 47.2481C20.0362 47.6124 19.9224 48.026 19.9189 48.4478C19.9213 48.8073 20.0028 49.1618 20.1576 49.4863C19.2098 49.4442 18.1917 49.3459 17.1525 49.2267ZM33.0137 31.7419C33.3016 30.921 33.5614 30.1141 33.7931 29.3283C36.0431 29.9539 38.0782 31.1843 39.677 32.8856C39.442 33.7017 39.1583 34.503 38.8274 35.2852C37.1927 33.667 35.2017 32.4535 33.0137 31.7419ZM40.035 31.2438C38.3596 29.7094 36.3501 28.5852 34.1652 27.9601C34.3969 27.0831 34.6005 26.2271 34.762 25.4132C36.6898 25.991 38.4924 26.9238 40.0772 28.1636C40.2328 29.1854 40.221 30.2258 40.0421 31.2438H40.035ZM35.2254 22.8242C36.9361 23.3143 38.3967 24.4353 39.3118 25.9605C37.9652 25.1664 36.5301 24.533 35.0359 24.0731C35.1131 23.617 35.1763 23.2171 35.2324 22.8312L35.2254 22.8242ZM25.2622 32.2752C25.7127 33.6087 25.7127 35.0532 25.2622 36.3868C24.3208 35.722 23.5898 34.8016 23.1558 33.7346C22.649 32.3869 22.5802 30.9138 22.9592 29.5248C24.011 30.1608 24.8212 31.1284 25.2622 32.2752ZM22.3623 49.5073C22.1565 49.5087 21.9549 49.449 21.7831 49.3357C21.6113 49.2225 21.477 49.0608 21.3973 48.8712C21.3176 48.6815 21.296 48.4725 21.3353 48.2706C21.3746 48.0688 21.473 47.8831 21.618 47.7371C21.7631 47.5912 21.9482 47.4916 22.15 47.451C22.3518 47.4103 22.5611 47.4305 22.7514 47.5089C22.9416 47.5873 23.1044 47.7203 23.2188 47.8913C23.3333 48.0622 23.3945 48.2632 23.3945 48.4689C23.3945 48.7431 23.286 49.0062 23.0926 49.2007C22.8992 49.3952 22.6367 49.5055 22.3623 49.5073ZM25.9713 44.0767C28.7702 40.7951 30.988 37.0603 32.5292 33.0329C33.2839 33.2713 34.0149 33.579 34.7129 33.9521C32.964 38.2676 30.4605 42.2376 27.3194 45.6764C26.5049 45.7536 25.6413 45.8097 24.7426 45.8518C25.1709 45.2694 25.5922 44.6731 25.9783 44.0767H25.9713ZM35.9135 34.6818C36.7465 35.2561 37.5182 35.9144 38.2165 36.6464C36.781 39.5098 35.069 42.2263 33.105 44.7573C32.0307 45.0028 30.7739 45.2414 29.3486 45.4589C32.0891 42.2329 34.3046 38.5961 35.9135 34.6818ZM34.8954 45.7816C34.9758 46.5914 34.7937 47.4056 34.3758 48.104L33.2384 48.3566C33.475 47.643 33.5517 46.8861 33.4631 46.1395C33.9826 46.0225 34.4601 45.9033 34.8954 45.7816ZM22.4677 35.5869C22.9239 36.5177 23.0739 37.5688 22.896 38.5899C22.6313 39.7636 21.9963 40.8212 21.0845 41.6069C20.7178 40.7 20.6038 39.7107 20.7545 38.7442C20.9894 37.5417 21.5873 36.4398 22.4677 35.5869ZM19.8768 45.515L20.1225 45.8518C19.2168 45.8097 18.3391 45.7536 17.5176 45.6764C14.2812 42.2803 11.7599 38.2696 10.1031 33.8819C10.7344 33.5671 11.3894 33.302 12.062 33.0891C13.8164 37.708 16.4729 41.932 19.8768 45.515ZM8.8884 34.5695C10.4131 38.5414 12.6232 42.2151 15.4182 45.4238C14.4353 45.2905 13.5295 45.1291 12.715 44.9677C10.3559 42.2735 7.94053 37.369 7.22435 35.8465C7.74134 35.3739 8.29808 34.9467 8.8884 34.5695ZM29.4398 46.8622C30.3947 46.7359 31.2724 46.5885 32.0799 46.4271C32.1331 47.2087 31.9574 47.9889 31.5743 48.6724C30.823 48.7987 30.0437 48.9179 29.2503 49.0302C29.4623 48.3283 29.5269 47.5902 29.4398 46.8622ZM24.6443 20.8175C26.203 22.7119 26.3645 25.3921 26.3364 26.6902C24.6622 26.2116 23.1749 25.2322 22.0745 23.8836C20.7847 22.1905 20.08 20.1247 20.0664 17.9969C21.8812 18.3587 23.5057 19.3596 24.6443 20.8175ZM21.3302 25.5886C21.7732 26.7334 21.8177 27.9938 21.4566 29.1669C20.9881 30.495 20.0948 31.6318 18.9149 32.4015C18.5936 31.2946 18.5936 30.1194 18.9149 29.0126C19.3453 27.6486 20.1893 26.4521 21.3302 25.5886ZM21.3302 32.191C21.396 32.8899 21.564 33.5755 21.8287 34.2257C20.9088 35.055 20.1886 36.0817 19.7223 37.2287C19.4906 36.2113 19.2589 35.1238 19.0202 34.0363C19.873 33.5385 20.6468 32.9166 21.3162 32.191H21.3302ZM19.5538 42.484C16.5785 37.5557 14.5652 32.1083 13.6208 26.4306C14.567 26.1529 15.5427 25.988 16.5276 25.9394C16.9609 31.544 17.9751 37.0886 19.5538 42.484ZM2.05665 32.4225C2.05665 32.2261 2.4358 28.0163 9.82927 25.5044C9.99778 26.3113 10.2014 27.1673 10.4331 28.0443C5.62349 29.609 3.50304 32.4085 2.61836 34.1345C2.4007 33.5522 2.2041 32.9768 2.04261 32.4225H2.05665ZM3.41177 35.9307C3.41177 35.8816 4.49305 31.4964 10.8123 29.4055C11.0369 30.1843 11.2967 30.9842 11.5846 31.7981C8.50827 32.7539 5.86312 34.7544 4.10688 37.4532C3.86113 36.9481 3.62241 36.4359 3.40474 35.9237L3.41177 35.9307ZM6.2203 36.8989C7.46854 39.5357 8.93156 42.0654 10.5946 44.4626C9.51978 44.1945 8.4642 43.8546 7.43499 43.4452C7.08392 42.8909 5.9886 41.0947 4.8371 38.8986C5.21807 38.184 5.67981 37.5154 6.21328 36.906L6.2203 36.8989ZM7.23839 44.9046C8.20508 45.2718 9.19202 45.5834 10.1944 45.8378C10.1036 46.5987 10.1827 47.3703 10.4261 48.097C8.88138 47.7322 7.77904 47.3393 7.54733 46.9955V46.9393C7.35742 46.6401 7.23187 46.3047 7.17868 45.9544C7.1255 45.6041 7.14583 45.2466 7.23839 44.9046ZM18.8025 11.3875C18.7493 10.6664 18.9621 9.95081 19.4005 9.37564C19.839 8.80047 20.4729 8.40551 21.1828 8.26525C24.0404 8.26525 24.3143 13.6117 21.8849 15.2816L21.7585 15.2325C20.6421 14.7764 18.8025 13.6257 18.8025 11.3875ZM18.2829 18.6354C18.343 18.4433 18.4669 18.2775 18.634 18.1653C18.6769 20.3714 19.3625 22.5171 20.607 24.3397C19.5535 25.1169 18.6835 26.1157 18.0583 27.2655C17.7512 24.3915 17.8267 21.4895 18.2829 18.6354ZM3.27836 22.0524C4.75529 20.3261 6.7093 19.074 8.89543 18.453C8.89543 18.895 8.95862 19.4704 9.02181 20.165C6.41676 20.8612 4.03189 22.2085 2.09176 24.0801C2.38995 23.3518 2.78941 22.6692 3.27836 22.0524Z" fill="url(#paint1_linear_2346_7276)"/>
<defs>
<radialGradient id="paint0_radial_2346_7276" cx="0" cy="0" r="1" gradientUnits="userSpaceOnUse" gradientTransform="translate(162.471 23.1485) rotate(18.1519) scale(58.7258 59.2416)">
<stop stop-color="#E2C15B"/>
<stop offset="0.0001" stop-color="#E9D28F"/>
<stop offset="0.760417" stop-color="#9E8650"/>
<stop offset="1" stop-color="#847553"/>
</radialGradient>
<linearGradient id="paint1_linear_2346_7276" x1="3.9411" y1="53.2408" x2="94.1438" y2="19.4796" gradientUnits="userSpaceOnUse">
<stop stop-color="#897446"/>
<stop offset="0.078125" stop-color="#99824E"/>
<stop offset="0.210892" stop-color="#9E8650"/>
<stop offset="0.409886" stop-color="#E1C987"/>
<stop offset="0.634689" stop-color="#9E8650"/>
<stop offset="0.875" stop-color="#9B844E"/>
<stop offset="1" stop-color="#8C7644"/>
</linearGradient>
</defs>
</svg>
