<svg width="141" height="36" viewBox="0 0 141 36" fill="none" xmlns="http://www.w3.org/2000/svg">
<g clip-path="url(#clip0_2346_5020)">
<path d="M132.121 10.3759C132.208 10.3759 132.328 10.3759 132.472 10.4103C132.817 10.4735 132.932 10.5482 132.943 11.7367C132.978 13.8094 132.943 16.2438 132.943 18.0237C132.943 18.4601 132.978 18.5462 133.087 18.5462C133.196 18.5462 133.259 18.4888 133.484 18.2419C133.943 17.7481 138.461 12.1501 139.025 11.4438C139.025 13.2926 139.025 15.0955 138.984 16.8697C138.984 17.6792 138.927 18.1328 138.617 18.2017L138.3 18.2419C138.162 18.2419 138.139 18.2764 138.139 18.328C138.139 18.3797 138.168 18.3912 138.3 18.3912C138.691 18.3912 139.036 18.3912 139.272 18.3912C139.507 18.3912 140.421 18.3912 140.789 18.3912C140.91 18.3912 140.95 18.3912 140.95 18.3166C140.95 18.2419 140.916 18.2534 140.789 18.2419C140.663 18.2304 140.421 18.2419 140.37 18.2017C140.019 18.1443 139.933 17.8515 139.921 17.0534C139.893 15.0323 139.893 13.1089 139.893 11.0879C139.893 10.1462 139.835 10.0601 139.726 10.0601C139.617 10.0601 139.427 10.2324 139.025 10.7204C137.967 12.018 135.174 15.4745 133.852 17.1051V11.5013C133.852 10.5826 133.949 10.462 134.254 10.3989C134.347 10.3797 134.441 10.3682 134.536 10.3644C134.656 10.3644 134.673 10.3185 134.673 10.2783C134.673 10.2381 134.622 10.2151 134.49 10.2151C134.191 10.2151 133.754 10.2438 133.409 10.2438C133.236 10.2438 132.558 10.2151 132.219 10.2151C132.104 10.2151 132.006 10.2151 132.006 10.2898C132.006 10.3644 132.035 10.3644 132.121 10.3759ZM134.995 9.02662C135.394 9.29246 135.867 9.42696 136.346 9.41131C136.798 9.41291 137.244 9.30447 137.644 9.09538C138.045 8.88629 138.388 8.58286 138.645 8.21131C138.714 8.12519 138.703 8.05054 138.645 8.05054C138.588 8.05054 138.594 8.05055 138.507 8.14815C138.306 8.41021 138.043 8.61966 137.743 8.75863C137.443 8.89759 137.113 8.96196 136.783 8.94624C135.743 8.94624 135.225 8.47543 135.145 8.10796C135.145 8.05055 135.116 8.03906 135.082 8.03906C134.939 8.11374 134.816 8.22215 134.725 8.35485C134.695 8.3992 134.677 8.45069 134.673 8.50413C134.686 8.60877 134.72 8.70957 134.775 8.79972C134.829 8.88987 134.902 8.96725 134.99 9.02662H134.995ZM119.418 10.3759C119.548 10.3771 119.677 10.3905 119.804 10.4161C120.045 10.4735 120.154 10.6572 120.171 11.0247C120.189 11.3922 120.171 11.6735 120.171 13.3558V15.262C120.171 16.2955 120.171 17.151 120.12 17.6046C120.074 17.9204 120.01 18.1788 119.792 18.2132C119.698 18.22 119.604 18.22 119.51 18.2132C119.413 18.2132 119.395 18.2591 119.395 18.2878C119.395 18.3166 119.447 18.3625 119.568 18.3625C119.89 18.3625 120.528 18.3625 120.585 18.3625C120.643 18.3625 121.321 18.3625 121.913 18.3625C122.034 18.3625 122.074 18.3625 122.074 18.2878C122.074 18.2132 122.045 18.2132 121.948 18.2132C121.85 18.2132 121.666 18.2132 121.511 18.173C121.189 18.1271 121.126 17.8917 121.091 17.5989C121.039 17.1453 121.039 16.2898 121.039 15.2563V14.1481C122.142 15.4637 123.326 16.7083 124.586 17.8744C124.814 18.0777 125.084 18.2291 125.377 18.3183C125.67 18.4075 125.978 18.4323 126.281 18.3912H127.086C127.201 18.3912 127.247 18.3912 127.247 18.3166C127.247 18.2419 127.184 18.2419 127.098 18.2419C126.993 18.2509 126.887 18.2509 126.782 18.2419C126.264 18.1443 125.885 17.9032 125 17.0936C124.488 16.617 122.522 14.619 121.838 13.8725C122.12 13.5625 123.35 12.3395 124.304 11.4209C124.622 11.0543 125.014 10.7588 125.454 10.5539C125.638 10.4844 125.832 10.4419 126.029 10.4276C126.126 10.4276 126.144 10.3931 126.144 10.3529C126.144 10.3127 126.115 10.2783 125.965 10.2783C125.816 10.2783 125.149 10.307 124.816 10.307C124.482 10.307 124.482 10.2783 124.166 10.2783C124.069 10.2783 124.005 10.2783 124.005 10.3415C124.005 10.4046 124.005 10.4046 124.103 10.4391C124.127 10.4553 124.148 10.4765 124.164 10.5012C124.18 10.5259 124.19 10.5536 124.195 10.5826C124.195 10.7089 124.155 10.818 123.505 11.4898C122.856 12.1615 121.373 13.7118 121.039 14.0391V13.3558C121.039 11.6735 121.039 11.3692 121.039 11.0247C121.039 10.6802 121.149 10.4505 121.442 10.3989H121.677C121.775 10.3989 121.798 10.3644 121.798 10.3242C121.798 10.284 121.746 10.2496 121.626 10.2496C121.304 10.2496 120.62 10.2783 120.568 10.2783C120.516 10.2783 119.786 10.2496 119.418 10.2496C119.298 10.2496 119.246 10.2496 119.246 10.3357C119.246 10.4218 119.326 10.3759 119.413 10.3759H119.418ZM127.833 10.3759C127.946 10.3774 128.057 10.3909 128.167 10.4161C128.408 10.4735 128.517 10.6572 128.535 11.0247C128.552 11.3922 128.535 11.6735 128.535 13.3558V15.262C128.535 16.2955 128.535 17.151 128.483 17.6046C128.437 17.9204 128.374 18.1788 128.155 18.2132C128.062 18.2203 127.967 18.2203 127.874 18.2132C127.776 18.2132 127.759 18.2477 127.759 18.2764C127.759 18.3051 127.81 18.3625 127.931 18.3625C128.253 18.3625 128.937 18.3625 128.989 18.3625C129.04 18.3625 129.736 18.3625 130.328 18.3625C130.449 18.3625 130.495 18.3625 130.495 18.2764C130.495 18.1902 130.46 18.2132 130.363 18.2132C130.265 18.2132 130.069 18.2132 129.92 18.173C129.598 18.1271 129.529 17.8917 129.5 17.5989C129.443 17.1453 129.443 16.2898 129.443 15.2563V13.3558C129.443 11.6735 129.443 11.3692 129.443 11.0247C129.443 10.6802 129.552 10.4505 129.845 10.4103C129.934 10.3903 130.024 10.3788 130.115 10.3759C130.156 10.3759 130.202 10.3759 130.202 10.3127C130.202 10.2496 130.144 10.2266 130.029 10.2266C129.701 10.2266 129.023 10.2553 128.966 10.2553C128.908 10.2553 128.23 10.2266 127.874 10.2266C127.753 10.2266 127.701 10.2266 127.701 10.3127C127.701 10.3989 127.782 10.3759 127.828 10.3759H127.833ZM110.48 14.1769C110.455 14.7731 110.558 15.3679 110.783 15.9208C111.009 16.4736 111.35 16.9715 111.785 17.3807C112.783 18.2113 114.065 18.6229 115.36 18.529C116.017 18.5489 116.673 18.4656 117.303 18.2821C117.499 18.196 117.522 18.173 117.585 17.9663C117.694 17.5106 117.775 17.0484 117.826 16.5826C117.826 16.4965 117.826 16.4218 117.752 16.4218C117.677 16.4218 117.66 16.462 117.642 16.5826C117.585 16.9135 117.447 17.2251 117.24 17.4898C116.98 17.7021 116.679 17.8595 116.356 17.9522C116.033 18.045 115.694 18.0713 115.36 18.0295C114.843 18.0295 114.33 17.9268 113.853 17.7274C113.375 17.528 112.942 17.2358 112.578 16.8677C112.215 16.4997 111.928 16.0632 111.734 15.5835C111.541 15.1038 111.445 14.5906 111.452 14.0735C111.404 13.5612 111.466 13.0445 111.635 12.5583C111.803 12.072 112.074 11.6274 112.429 11.2544C112.803 10.8869 113.475 10.4678 114.912 10.4678C115.681 10.4376 116.44 10.6528 117.079 11.0821C117.226 11.2249 117.343 11.3964 117.421 11.5861C117.499 11.7757 117.537 11.9795 117.533 12.1845C117.533 12.3338 117.533 12.4142 117.619 12.4142C117.706 12.4142 117.706 12.3453 117.717 12.1845C117.729 12.0237 117.717 11.4266 117.752 11.0706C117.786 10.7147 117.803 10.5539 117.803 10.4965C117.803 10.4391 117.803 10.3874 117.706 10.3759C117.303 10.3242 116.97 10.2898 116.556 10.2151C116.038 10.1269 115.513 10.0828 114.987 10.0831C113.32 10.0831 112.331 10.5941 111.688 11.2314C110.92 12.0213 110.486 13.0759 110.475 14.1769H110.48ZM84.8562 18.196C84.8159 18.196 84.7815 18.2304 84.7815 18.2764C84.7815 18.3223 84.9022 18.3395 85.1091 18.351C85.8506 18.351 86.6438 18.351 86.8335 18.351C87.0231 18.351 87.0519 18.351 87.0519 18.2649C87.0519 18.1788 86.9944 18.2017 86.9312 18.2017C86.789 18.2009 86.6477 18.1797 86.5116 18.1386C86.2817 18.0754 85.9713 17.8974 85.5804 16.9386C84.9194 15.2965 83.218 10.8295 83.0571 10.4218C82.8961 10.0142 82.8846 10.0314 82.8214 10.0314C82.7582 10.0314 82.7122 10.0946 82.58 10.4563L80.0911 17.2027C79.8957 17.7768 79.683 18.1558 79.183 18.219C79.0968 18.2241 79.0105 18.2241 78.9243 18.219C78.8266 18.219 78.7749 18.219 78.7749 18.2821C78.7749 18.3453 78.8381 18.3682 78.9761 18.3682C79.4876 18.3682 80.0797 18.3682 80.2004 18.3682C80.3211 18.3682 80.7752 18.3682 81.0108 18.3682C81.1085 18.3682 81.2062 18.3682 81.2062 18.2821C81.2062 18.196 81.1718 18.219 81.0683 18.219H80.9706C80.7867 18.219 80.5797 18.1213 80.5797 17.9089C80.5895 17.6593 80.64 17.413 80.7292 17.1797L81.3787 15.2678C81.3858 15.2439 81.4001 15.2228 81.4196 15.2074C81.4392 15.192 81.463 15.183 81.4879 15.1816H83.7871C83.8087 15.1807 83.83 15.1869 83.8477 15.1994C83.8654 15.2119 83.8784 15.2299 83.8848 15.2505L84.8907 17.9089C84.9826 18.1041 84.9194 18.2017 84.8504 18.219L84.8562 18.196ZM83.7066 14.7969H81.6086C81.5741 14.7969 81.5511 14.7969 81.5741 14.7166L82.5283 11.7998C82.58 11.6391 82.6317 11.6391 82.6892 11.7998L83.7181 14.7166C83.7296 14.7855 83.7296 14.8199 83.6721 14.8199L83.7066 14.7969ZM91.3571 34.6974C91.2413 34.6967 91.1258 34.6852 91.0122 34.6629C90.7765 34.6113 90.7421 34.5079 90.7018 34.2495C90.6616 33.9912 90.6673 33.2907 90.6673 32.5902V31.2352C90.6673 30.0409 90.6673 29.8342 90.6673 29.5873C90.6673 29.3405 90.7076 29.1912 90.972 29.1567H91.1387C91.2076 29.1567 91.2364 29.1567 91.2364 29.0936C91.2364 29.0304 91.1904 29.0304 91.0984 29.0304C90.8455 29.0304 90.3225 29.0304 90.2822 29.0304C90.242 29.0304 89.7419 29.0304 89.4603 29.0304C89.3626 29.0304 89.3281 29.0304 89.3281 29.0936C89.3281 29.1567 89.3626 29.1452 89.4258 29.1567C89.4947 29.1532 89.5638 29.1532 89.6327 29.1567C89.8224 29.1969 89.8799 29.329 89.8971 29.5759C89.9144 29.8228 89.8971 30.0352 89.8971 31.2295V32.5845C89.9104 33.1342 89.895 33.6842 89.8511 34.2323C89.8511 34.4505 89.7994 34.6285 89.6442 34.6687C89.5716 34.6756 89.4984 34.6756 89.4258 34.6687C89.3453 34.6687 89.3108 34.6687 89.3108 34.7318C89.3108 34.795 89.3741 34.795 89.4545 34.795C89.7074 34.795 90.242 34.795 90.265 34.795C90.288 34.795 90.8398 34.795 91.2996 34.795C91.3916 34.795 91.4261 34.795 91.4261 34.7318C91.4261 34.6687 91.4318 34.6974 91.3571 34.6974ZM99.1685 34.6974C99.0548 34.6933 98.9416 34.6818 98.8294 34.6629C98.5707 34.6285 98.5075 34.462 98.496 33.8476C98.496 32.4122 98.4673 31.0457 98.4615 29.5988C98.4615 28.9673 98.4213 28.8926 98.3351 28.8926C98.2488 28.8926 98.0994 29.0304 97.8005 29.3806C97.1108 30.1615 95.1105 32.5443 94.0241 33.8304V29.9318C94.0241 29.2888 94.1046 29.1912 94.3173 29.1567H94.5242C94.6104 29.1567 94.6334 29.1165 94.6334 29.0821C94.6334 29.0476 94.5874 29.0304 94.484 29.0304C94.2598 29.0304 93.9494 29.0304 93.662 29.0304C93.5355 29.0304 92.9895 29.0304 92.7481 29.0304C92.6504 29.0304 92.5756 29.0304 92.5756 29.0936C92.5756 29.1567 92.5756 29.1452 92.6561 29.1567H92.9205C93.1849 29.1567 93.2711 29.2371 93.2826 30.0754C93.2826 31.5625 93.2826 33.3251 93.2826 34.5711C93.2826 34.8696 93.2826 34.927 93.3919 34.927C93.5011 34.927 93.5183 34.9271 93.6965 34.7261C93.9781 34.439 97.3177 30.4658 97.72 29.9606C97.72 31.2352 97.72 32.4811 97.6798 33.7041C97.6798 34.2782 97.6453 34.617 97.3982 34.6744C97.3349 34.6744 97.2487 34.6744 97.1855 34.7089C97.1223 34.7433 97.059 34.7376 97.059 34.772C97.059 34.8065 97.059 34.8237 97.1855 34.8237C97.4614 34.8237 97.7258 34.8237 97.927 34.8237H99.1053C99.1915 34.8237 99.2317 34.8237 99.2317 34.772C99.2317 34.7204 99.2662 34.6974 99.1685 34.6974ZM87.7704 31.7519C87.2415 31.5186 86.6623 31.4219 86.0862 31.4706H85.8966C85.8678 31.4706 85.8621 31.4706 85.8621 31.4361V31.2352C85.8621 30.0409 85.8621 29.8342 85.8621 29.5873C85.8621 29.3405 85.9253 29.2027 86.1322 29.1567C86.1991 29.1496 86.2665 29.1496 86.3334 29.1567C86.3794 29.1567 86.4196 29.1567 86.4196 29.0993C86.4196 29.0419 86.3851 29.0304 86.3047 29.0304C86.0518 29.0304 85.5057 29.0304 85.4827 29.0304C85.4597 29.0304 84.9539 29.0304 84.6837 29.0304C84.586 29.0304 84.5458 29.0304 84.5458 29.0936C84.5458 29.1567 84.586 29.1567 84.6493 29.1567C84.7181 29.1497 84.7874 29.1497 84.8562 29.1567C85.0286 29.1969 85.0976 29.329 85.1206 29.5759C85.1436 29.8228 85.1206 30.0352 85.1206 31.2295V32.5845C85.1367 33.138 85.1214 33.692 85.0746 34.2438C85.0746 34.4562 85.0114 34.6572 84.8562 34.6859C84.7874 34.6934 84.718 34.6934 84.6493 34.6859C84.586 34.6859 84.5458 34.6859 84.5458 34.7376C84.5458 34.7893 84.5918 34.8007 84.678 34.8007C84.9309 34.8007 85.4425 34.8007 85.4712 34.8007C85.7011 34.8007 86.3162 34.8467 86.6208 34.8467C86.8616 34.8703 87.1047 34.8453 87.3356 34.7732C87.5665 34.701 87.7806 34.5833 87.9651 34.4269C88.1495 34.2705 88.3006 34.0786 88.4094 33.8627C88.5181 33.6468 88.5823 33.4113 88.5981 33.1701C88.6175 32.8744 88.5493 32.5796 88.4021 32.3223C88.255 32.065 88.0352 31.8567 87.7704 31.7232V31.7519ZM86.7932 34.5826C86.557 34.5894 86.3219 34.5464 86.1035 34.4562C86.0314 34.4178 85.972 34.3595 85.9322 34.2882C85.8925 34.2169 85.8741 34.1357 85.8793 34.0543C85.8793 33.7041 85.8793 33.0266 85.8793 32.2859V31.7692C85.8793 31.76 85.8829 31.7513 85.8894 31.7448C85.8959 31.7383 85.9047 31.7347 85.9138 31.7347C86.4154 31.6763 86.922 31.7896 87.3508 32.0562C87.5438 32.2106 87.6968 32.4091 87.7969 32.6349C87.8969 32.8608 87.941 33.1074 87.9256 33.3539C87.9444 33.51 87.9286 33.6685 87.8794 33.8179C87.8301 33.9673 87.7486 34.1041 87.6406 34.2186C87.5326 34.3331 87.4007 34.4224 87.2542 34.4804C87.1078 34.5383 86.9504 34.5634 86.7932 34.5538V34.5826ZM75.9756 28.9558C75.9756 28.9558 75.9239 28.9558 75.8032 28.9902C75.5885 29.0246 75.3711 29.04 75.1537 29.0362H72.182C72.182 29.0362 71.9176 29.0362 71.6072 28.9902C71.4463 28.9902 71.2738 28.8926 71.2106 28.8926C71.1474 28.8926 71.1589 28.9271 71.1301 29.0362C71.0727 29.283 70.9405 29.8802 70.9462 29.9318C70.952 29.9835 70.9462 30.0122 70.9922 30.0122C71.0382 30.0122 71.0497 30.0122 71.0727 29.9433C71.1083 29.8448 71.1546 29.7505 71.2106 29.662C71.3371 29.4725 71.4635 29.3807 72.0441 29.3692H73.1936V32.596C73.1936 33.2735 73.1936 33.928 73.1592 34.2553C73.1247 34.5826 73.0959 34.6687 72.9235 34.6974H72.7223C72.6533 34.6974 72.6246 34.7376 72.6246 34.7605C72.6246 34.7835 72.6591 34.8237 72.7625 34.8237C72.9982 34.8237 73.5328 34.8237 73.5673 34.8237C73.6017 34.8237 74.142 34.8237 74.6019 34.8237C74.6881 34.8237 74.7168 34.8237 74.7168 34.7548C74.7168 34.6859 74.6824 34.6974 74.6076 34.6974C74.4899 34.6983 74.3723 34.6868 74.257 34.6629C74.0271 34.6113 74.0098 34.4849 73.9811 34.2668C73.9466 33.928 73.9409 33.2907 73.9409 32.5902V29.3634H74.826C75.74 29.3634 75.8607 29.4668 75.8952 29.8285C75.8952 29.9204 75.8952 29.9261 75.8952 29.9548C75.8952 29.9835 75.8952 30.0639 75.9584 30.0639C76.0216 30.0639 76.0216 30.0639 76.0216 29.9548C76.0216 29.8457 76.0216 29.283 76.0216 29.0304C76.0331 28.9558 76.0101 28.9558 75.9756 28.9558ZM70.2277 33.7213C70.1875 33.7213 70.1645 33.7615 70.1472 33.8476C70.0725 34.1864 70.0093 34.3644 69.7391 34.4218C69.5126 34.47 69.2808 34.4893 69.0494 34.4792C68.8254 34.4978 68.6001 34.4684 68.3884 34.3931C68.1987 34.3127 68.1527 34.1405 68.1355 33.8189C68.1355 33.6639 68.1355 32.8716 68.1355 32.5902V31.9299C68.1355 31.8955 68.1355 31.8668 68.1987 31.8668C68.2619 31.8668 69.0781 31.8668 69.285 31.9012C69.6299 31.9299 69.6817 32.0562 69.7161 32.1711C69.7259 32.2435 69.7259 32.3169 69.7161 32.3893C69.7161 32.4524 69.7161 32.5098 69.7736 32.5098C69.8311 32.5098 69.8254 32.5098 69.8369 32.4065C69.8483 32.3031 69.8369 32.1079 69.8713 31.8323C69.9058 31.5567 69.9346 31.4017 69.9346 31.3558C69.9346 31.3098 69.9346 31.2984 69.9001 31.2984C69.8656 31.2984 69.8369 31.2984 69.7966 31.373C69.7564 31.4476 69.5897 31.4993 69.3828 31.5108C69.1758 31.5223 68.2677 31.5108 68.1585 31.5108C68.0492 31.5108 68.1067 31.4763 68.1067 31.4247V29.3692C68.1067 29.3118 68.1067 29.2945 68.1527 29.2945H69.1816C69.6357 29.2945 69.7161 29.3864 69.7564 29.5701C69.7905 29.6625 69.8117 29.7591 69.8196 29.8572C69.8196 29.9204 69.8196 29.9606 69.8828 29.9606C69.9461 29.9606 69.9461 29.9031 69.9461 29.8228C69.9461 29.6505 69.9461 29.507 69.9461 29.3519C69.9461 29.1969 70.0208 29.0017 70.0208 28.9443C70.0208 28.8869 70.0208 28.8811 69.9863 28.8811C69.9518 28.8811 69.9403 28.8811 69.8828 28.8811C69.7687 28.9127 69.6507 28.9282 69.5322 28.9271H67.6929C67.1871 28.9271 66.9399 28.9271 66.7617 28.9271C66.6697 28.9271 66.6238 28.9271 66.6238 28.996C66.6238 29.0649 66.6812 29.0534 66.7445 29.0534C66.8171 29.0472 66.8902 29.0472 66.9629 29.0534C67.2215 29.1051 67.2848 29.2314 67.302 29.484C67.3193 29.7366 67.302 29.9491 67.302 31.1318V32.4869C67.302 33.1759 67.302 33.5491 67.302 33.8534C67.302 34.4275 67.1756 34.5309 67.0146 34.5711C66.9555 34.5788 66.8956 34.5788 66.8364 34.5711C66.7905 34.5711 66.7502 34.5711 66.7502 34.6342C66.7502 34.6974 66.7962 34.6974 66.8767 34.6974C67.0951 34.6974 67.2675 34.6974 67.4515 34.6974C67.7906 34.6974 68.2044 34.6974 68.5206 34.6974C68.8367 34.6974 69.0954 34.6974 69.6702 34.6974C69.9691 34.6974 70.038 34.6974 70.0725 34.4964C70.107 34.2955 70.1702 33.773 70.1702 33.7098C70.1702 33.6467 70.2909 33.6926 70.2392 33.6926L70.2277 33.7213ZM94.1046 27.9338C94.3909 28.1257 94.7316 28.2203 95.076 28.2036C95.3955 28.2088 95.7117 28.1381 95.9985 27.9974C96.2853 27.8566 96.5345 27.6498 96.7256 27.3941C96.7659 27.3252 96.7601 27.285 96.7256 27.285C96.6912 27.285 96.6854 27.285 96.6279 27.3424C96.4758 27.5232 96.2829 27.6653 96.0651 27.7571C95.8472 27.849 95.6107 27.8878 95.3749 27.8706C94.6277 27.8706 94.2598 27.5606 94.2253 27.2964C94.2226 27.2853 94.2157 27.2755 94.2061 27.2692C94.1966 27.2628 94.1849 27.2602 94.1736 27.262C94.0696 27.3081 93.9802 27.3815 93.9149 27.4744C93.8966 27.5042 93.8849 27.5374 93.8804 27.572C93.8944 27.6409 93.9226 27.706 93.9631 27.7634C94.0037 27.8207 94.0558 27.869 94.1161 27.9051L94.1046 27.9338ZM83.1203 34.6974C83.0151 34.7049 82.9094 34.7049 82.8042 34.6974C82.5685 34.6974 82.5225 34.4849 82.4938 34.2725C82.4593 33.9452 82.4593 33.3539 82.4593 32.6132V31.2582C82.4593 30.0639 82.4593 29.8572 82.4593 29.6103C82.4593 29.3634 82.5168 29.2141 82.7582 29.1797C82.8194 29.174 82.8809 29.174 82.9421 29.1797C83.0111 29.1797 83.0398 29.1395 83.0398 29.1165C83.0398 29.0936 82.9881 29.0534 82.8961 29.0534C82.626 29.0534 82.1144 29.0534 82.0799 29.0534C82.0454 29.0534 81.5051 29.0534 81.1315 29.0534C81.0511 29.0534 81.0051 29.0534 81.0051 29.1165C81.0051 29.1797 81.0511 29.1797 81.1143 29.1797C81.1889 29.1738 81.2638 29.1738 81.3385 29.1797C81.6373 29.2314 81.6718 29.3577 81.6891 29.6046C81.7063 29.8515 81.6891 30.0582 81.6891 31.2467V31.4132C81.6891 31.4591 81.6891 31.4591 81.6373 31.4591H78.384C78.384 31.4591 78.3265 31.4591 78.3265 31.4132V31.2467C78.3265 30.0582 78.3265 29.8572 78.3265 29.6103C78.3265 29.3634 78.4013 29.2027 78.6254 29.1682C78.6846 29.1617 78.7444 29.1617 78.8036 29.1682C78.8611 29.1682 78.8956 29.1682 78.8956 29.1165C78.8956 29.0649 78.8496 29.0534 78.7634 29.0534C78.5047 29.0534 77.9817 29.0534 77.9472 29.0534C77.8265 29.0534 77.3724 29.0534 77.0045 29.0534C76.9125 29.0534 76.8666 29.0534 76.8666 29.1165C76.8666 29.1797 76.9068 29.1682 76.97 29.1682H77.2114C77.4758 29.1682 77.5391 29.3692 77.5563 29.6046C77.5736 29.84 77.5563 30.0811 77.5563 31.2754V32.6132C77.5766 33.1724 77.5612 33.7324 77.5103 34.2897C77.5103 34.4849 77.4471 34.6572 77.2862 34.6974C77.2136 34.7058 77.1403 34.7058 77.0677 34.6974C76.9873 34.6974 76.97 34.7376 76.97 34.7605C76.97 34.7835 77.0218 34.8237 77.1137 34.8237C77.3494 34.8237 77.9012 34.8237 77.9299 34.8237C77.9587 34.8237 78.5047 34.8237 78.9703 34.8237C79.0508 34.8237 79.0853 34.8237 79.0853 34.7605C79.0853 34.6974 79.045 34.6974 78.9818 34.6974C78.8727 34.7046 78.7633 34.7046 78.6542 34.6974C78.4185 34.6974 78.3725 34.4849 78.3438 34.2897C78.2988 33.7417 78.2835 33.1916 78.2978 32.6419V31.8381C78.2978 31.7921 78.2978 31.7806 78.3438 31.7806H81.6603C81.6676 31.7806 81.6749 31.7821 81.6816 31.7851C81.6882 31.788 81.6942 31.7923 81.6991 31.7978C81.704 31.8032 81.7077 31.8096 81.7099 31.8165C81.7121 31.8235 81.7129 31.8308 81.7121 31.8381V32.6419C81.7121 33.3768 81.7121 33.9452 81.6718 34.2725C81.6718 34.4792 81.5971 34.6744 81.4419 34.7031C81.3732 34.7119 81.3037 34.7119 81.235 34.7031C81.1603 34.7031 81.1373 34.7031 81.1373 34.7605C81.1373 34.818 81.1833 34.8294 81.2695 34.8294C81.5166 34.8294 82.0397 34.8294 82.0799 34.8294C82.1202 34.8294 82.6547 34.8294 83.0973 34.8294C83.1893 34.8294 83.2353 34.8294 83.2353 34.7663C83.2353 34.7031 83.1893 34.6974 83.1203 34.6974ZM107.802 34.3988C107.772 34.403 107.742 34.3966 107.717 34.3809C107.692 34.3651 107.673 34.341 107.664 34.3127C106.997 32.7165 105.738 29.5357 105.572 29.1452C105.491 28.9673 105.457 28.9041 105.411 28.9041C105.365 28.9041 105.302 28.9673 105.192 29.2371L103.273 34.3012C103.221 34.3816 103.209 34.3988 103.146 34.3988C102.908 34.405 102.67 34.3935 102.433 34.3644C102.399 34.3644 102.376 34.3644 102.387 34.439C102.399 34.5137 102.422 34.8237 102.433 35.3232C102.433 35.4381 102.433 35.4668 102.497 35.4668C102.56 35.4668 102.56 35.4036 102.566 35.3404C102.566 34.9787 102.732 34.8467 103.14 34.8237C103.347 34.8237 103.571 34.8237 104.163 34.8237H106.871C107.204 34.8237 107.664 34.8237 107.9 34.8237C107.972 34.8188 108.044 34.8291 108.112 34.854C108.179 34.879 108.241 34.9179 108.293 34.9683C108.344 35.0188 108.384 35.0795 108.411 35.1466C108.437 35.2137 108.449 35.2857 108.446 35.3577C108.446 35.4266 108.446 35.4725 108.52 35.4725C108.595 35.4725 108.584 35.4381 108.584 35.3577C108.592 35.0442 108.621 34.7316 108.67 34.4218C108.67 34.3586 108.67 34.3529 108.624 34.3586C108.35 34.3763 108.076 34.3801 107.802 34.3701V34.3988ZM106.808 34.3988C106.5 34.4282 106.191 34.4378 105.882 34.4275H104.652C104.368 34.4365 104.084 34.4269 103.801 34.3988C103.801 34.3988 103.755 34.3988 103.755 34.3586C103.794 34.2124 103.846 34.0702 103.911 33.9338L105.238 30.1673C105.238 30.1673 105.238 30.1673 105.284 30.1673C105.859 31.6141 106.434 33.2046 106.853 34.3184C106.859 34.3644 106.842 34.3816 106.808 34.3873V34.3988ZM124.051 28.996C123.683 28.996 123.218 28.996 123.028 28.996C122.976 28.996 122.453 28.996 122.085 28.996C122.005 28.996 121.959 28.996 121.959 29.0649C121.959 29.1338 121.999 29.1108 122.017 29.1108H122.298C122.551 29.1682 122.62 29.3118 122.643 29.5472C122.666 29.7826 122.643 29.9548 122.643 31.2007V32.5558C122.656 33.1093 122.641 33.6631 122.597 34.2151C122.568 34.4275 122.522 34.6113 122.361 34.64C122.284 34.659 122.205 34.6706 122.126 34.6744C122.08 34.6744 122.062 34.6744 122.062 34.7204C122.062 34.7663 122.108 34.7893 122.189 34.7893C122.442 34.7893 122.976 34.7893 122.988 34.7893C122.999 34.7893 123.563 34.7893 124.011 34.7893C124.097 34.7893 124.138 34.7892 124.138 34.7204C124.138 34.6515 124.138 34.6744 124.08 34.6744C123.959 34.6696 123.838 34.6581 123.718 34.64C123.476 34.64 123.431 34.4275 123.402 34.2151C123.367 33.8878 123.367 33.2333 123.367 32.5385V29.4151C123.367 29.3519 123.367 29.2888 123.419 29.2716C123.519 29.2374 123.624 29.2218 123.729 29.2256C123.936 29.2077 124.144 29.2365 124.338 29.3101C124.533 29.3837 124.707 29.5 124.85 29.6505C124.985 29.7982 125.089 29.9712 125.156 30.1595C125.223 30.3478 125.252 30.5476 125.241 30.7472C125.245 30.9194 125.214 31.0906 125.149 31.2501C125.084 31.4097 124.986 31.554 124.863 31.6742C124.739 31.7944 124.592 31.8878 124.431 31.9486C124.269 32.0094 124.097 32.0363 123.925 32.0275C123.752 32.0275 123.701 32.0275 123.701 32.1022C123.701 32.1768 123.747 32.1539 123.781 32.1539C123.838 32.1592 123.896 32.1592 123.954 32.1539C124.197 32.1758 124.443 32.1481 124.675 32.0725C124.908 31.9968 125.122 31.8747 125.306 31.7136C125.49 31.5525 125.639 31.3558 125.745 31.1354C125.85 30.915 125.909 30.6754 125.919 30.4314C125.926 30.2439 125.894 30.0571 125.826 29.8824C125.758 29.7076 125.655 29.5486 125.523 29.4151C125.101 29.0795 124.564 28.9247 124.028 28.9845L124.051 28.996ZM131.368 31.7347C130.839 31.5014 130.26 31.4047 129.684 31.4534H129.495C129.466 31.4534 129.454 31.4534 129.454 31.4189V31.218C129.454 30.0237 129.454 29.817 129.454 29.5701C129.454 29.3232 129.541 29.174 129.753 29.128H129.949C129.977 29.128 130.012 29.128 130.012 29.0821C130.012 29.0362 129.96 29.0132 129.88 29.0132C129.627 29.0132 129.098 29.0132 129.069 29.0132H128.132C127.827 29.0196 127.522 28.9887 127.224 28.9213C127.161 28.9213 127.144 28.8696 127.08 28.8696C127.017 28.8696 127.006 28.9328 126.988 29.0247C126.971 29.1165 126.816 29.7768 126.81 29.8457C126.805 29.9146 126.81 29.9376 126.845 29.9376C126.879 29.9376 126.908 29.9376 126.937 29.8572C126.973 29.7711 127.017 29.6884 127.069 29.6103C127.195 29.4208 127.414 29.3405 127.914 29.3405H128.707C128.707 29.5816 128.707 30.018 128.707 31.2122V32.5672C128.728 33.1283 128.714 33.6901 128.667 34.2495C128.667 34.4677 128.598 34.6285 128.443 34.6572C128.374 34.6646 128.305 34.6646 128.236 34.6572C128.173 34.6572 128.132 34.6572 128.132 34.7204C128.132 34.7835 128.178 34.7835 128.259 34.7835C128.517 34.7835 129.029 34.7835 129.058 34.7835C129.282 34.7835 129.897 34.8294 130.207 34.8294C130.448 34.8531 130.691 34.8281 130.922 34.7559C131.153 34.6838 131.367 34.5661 131.552 34.4097C131.736 34.2533 131.887 34.0614 131.996 33.8455C132.105 33.6296 132.169 33.3941 132.185 33.1529C132.199 32.8588 132.128 32.5668 131.979 32.3128C131.83 32.0588 131.61 31.8538 131.345 31.7232L131.368 31.7347ZM130.391 34.5481C130.154 34.5635 129.917 34.5201 129.701 34.4218C129.629 34.3834 129.57 34.325 129.53 34.2538C129.49 34.1825 129.472 34.1013 129.477 34.0199C129.477 33.6696 129.477 33.0266 129.477 32.2974V31.7806C129.477 31.7806 129.477 31.7462 129.518 31.7462C130.017 31.6913 130.521 31.8045 130.949 32.0677C131.141 32.2191 131.293 32.4145 131.393 32.6375C131.494 32.8604 131.538 33.1042 131.524 33.3481C131.46 34.1577 131.001 34.5366 130.368 34.5366L130.391 34.5481ZM111.969 31.528C112.197 31.3673 112.383 31.1539 112.51 30.9058C112.637 30.6578 112.702 30.3827 112.699 30.1041C112.699 29.7137 112.429 28.9558 111.072 28.9558C110.716 28.9558 110.417 28.9558 110.205 28.9558C110.205 28.9558 109.63 28.9558 109.262 28.9558C109.181 28.9558 109.124 28.9558 109.124 29.0189C109.124 29.0821 109.158 29.0821 109.245 29.0821C109.315 29.0784 109.386 29.0784 109.457 29.0821C109.733 29.1338 109.796 29.2601 109.814 29.507C109.831 29.7539 109.814 29.9778 109.814 31.1606V32.5156C109.827 33.0691 109.812 33.623 109.768 34.1749C109.739 34.3873 109.687 34.5768 109.532 34.6055C109.479 34.6137 109.424 34.6137 109.371 34.6055C109.25 34.6055 109.245 34.6515 109.245 34.6802C109.245 34.7089 109.291 34.7318 109.371 34.7318C109.67 34.7318 109.906 34.7318 110.187 34.7318C110.222 34.7318 110.44 34.7318 110.693 34.7318C110.946 34.7318 111.107 34.7318 111.268 34.7318C112.647 34.7318 113.326 33.8878 113.326 33.0495C113.28 32.6838 113.124 32.3408 112.877 32.0667C112.63 31.7926 112.305 31.6006 111.946 31.5165L111.969 31.528ZM110.567 29.3634C110.567 29.3175 110.595 29.3003 110.676 29.283C110.789 29.2541 110.904 29.2386 111.021 29.2371C111.791 29.2371 112.067 29.9318 112.067 30.5577C112.077 30.8192 111.994 31.0758 111.831 31.2811C111.665 31.4706 111.527 31.4993 111.061 31.4993C110.912 31.5153 110.762 31.5153 110.613 31.4993C110.584 31.4993 110.567 31.4993 110.567 31.4074V29.3634ZM111.532 34.5309C111.304 34.5334 111.078 34.4925 110.866 34.4103C110.595 34.2955 110.601 34.1749 110.572 33.7787C110.572 33.7041 110.572 32.7108 110.572 32.1424V31.7864C110.572 31.7462 110.572 31.7347 110.618 31.7347C110.81 31.7187 111.002 31.7187 111.193 31.7347C111.413 31.7454 111.625 31.8148 111.808 31.9357C112.056 32.115 112.256 32.352 112.391 32.6262C112.527 32.9004 112.593 33.2034 112.584 33.5089C112.59 33.6495 112.567 33.7898 112.514 33.9204C112.462 34.0511 112.382 34.169 112.28 34.2663C112.178 34.3636 112.057 34.4381 111.924 34.4847C111.791 34.5313 111.65 34.549 111.509 34.5366L111.532 34.5309ZM117.671 28.8696C117.265 28.8543 116.859 28.9203 116.478 29.0637C116.098 29.2072 115.75 29.4252 115.455 29.705C115.16 29.9848 114.923 30.3206 114.76 30.6929C114.597 31.0651 114.51 31.4662 114.504 31.8725C114.492 32.2807 114.565 32.6869 114.719 33.0652C114.873 33.4436 115.104 33.7857 115.398 34.0698C115.692 34.354 116.041 34.5739 116.425 34.7155C116.808 34.8572 117.217 34.9175 117.625 34.8926C118.046 34.91 118.465 34.8411 118.858 34.6902C119.251 34.5393 119.608 34.3097 119.909 34.0154C120.21 33.7211 120.446 33.3685 120.605 32.9792C120.764 32.5899 120.841 32.1722 120.832 31.7519C120.809 29.9376 119.441 28.8754 117.648 28.8754L117.671 28.8696ZM117.855 34.6113C116.332 34.6113 115.343 33.4629 115.343 31.6658C115.343 29.8687 116.361 29.174 117.642 29.174C118.924 29.174 120.005 30.1902 120.005 32.0046C119.959 34.284 118.447 34.5883 117.832 34.5883L117.855 34.6113ZM56.8408 10.3759C56.9385 10.3759 57.0592 10.3759 57.1742 10.4103C57.4788 10.4735 57.611 10.6113 57.634 11.0247C57.657 11.4381 57.634 11.6505 57.634 13.3213V15.2448C57.634 16.2783 57.634 17.0132 57.5938 17.4668C57.5535 17.9204 57.4731 18.1501 57.2259 18.196H56.9845C56.8695 18.196 56.858 18.2534 56.858 18.2821C56.858 18.3108 56.9328 18.3453 57.0535 18.3453C57.3753 18.3453 57.9731 18.3453 58.0594 18.3453C58.1456 18.3453 58.9675 18.3453 59.4216 18.3453C59.5711 18.3453 59.617 18.3453 59.617 18.2821C59.617 18.219 59.5826 18.2075 59.4503 18.196L59.0078 18.1558C58.6859 18.0984 58.6112 17.863 58.5882 17.4955C58.5537 17.0419 58.5422 16.284 58.5422 15.2448V10.9156C58.5422 10.7434 58.5997 10.7204 58.7261 10.7089C58.8526 10.6974 59.1515 10.7089 60.7379 10.7089C62.3243 10.7089 62.9278 10.7089 63.0888 10.7089C63.0979 10.7096 63.1067 10.7121 63.1148 10.7163C63.1229 10.7204 63.1301 10.7262 63.136 10.7331C63.1418 10.74 63.1463 10.7481 63.149 10.7567C63.1518 10.7654 63.1528 10.7745 63.152 10.7836V15.1759C63.152 16.2151 63.152 17.1338 63.1118 17.5874C63.0715 18.041 62.9163 18.1615 62.7439 18.2075H62.5255C62.376 18.2075 62.3645 18.2534 62.3645 18.2821C62.3645 18.3108 62.3645 18.3567 62.537 18.3567C62.8704 18.3567 63.4911 18.3567 63.5831 18.3567C63.6751 18.3567 64.4625 18.3567 64.9684 18.3567C65.0661 18.3567 65.1121 18.3567 65.1121 18.2821C65.1121 18.2075 65.1121 18.2189 64.9684 18.2075C64.8279 18.2015 64.6878 18.1881 64.5488 18.1673C64.2326 18.1099 64.1349 17.9376 64.1062 17.53C64.0774 17.1223 64.0602 16.2611 64.0602 15.2333V13.3558C64.0602 11.6735 64.0602 11.3577 64.0602 11.0132C64.0602 10.5367 64.2039 10.4735 64.474 10.4391C64.5404 10.4239 64.6076 10.4124 64.6752 10.4046C64.7844 10.4046 64.8189 10.3587 64.8189 10.3185C64.8189 10.2783 64.8189 10.2553 64.658 10.2553C64.4166 10.2553 63.5946 10.284 63.5429 10.284H58.0938C57.9271 10.284 57.3121 10.2553 56.9443 10.2553C56.8235 10.2553 56.7603 10.2553 56.7603 10.3185C56.7603 10.3816 56.7431 10.3644 56.8408 10.3759ZM45.2012 18.4142C45.4944 18.4142 46.0117 18.4142 46.1094 18.4142C46.2071 18.4142 46.7474 18.4142 47.1498 18.4142C47.2533 18.4142 47.3107 18.4142 47.3107 18.3223C47.3107 18.2304 47.2647 18.2649 47.2015 18.2649C47.0701 18.2661 46.939 18.2526 46.8107 18.2247C46.7654 18.2191 46.7217 18.2044 46.6823 18.1816C46.6428 18.1588 46.6083 18.1282 46.581 18.0917C46.5536 18.0553 46.5339 18.0137 46.523 17.9695C46.5121 17.9252 46.5102 17.8792 46.5175 17.8343C46.5175 17.6505 46.5175 17.4955 46.5175 17.3233L46.9601 12.2362C47.0808 12.529 48.3224 15.1989 48.4201 15.3883C48.5178 15.5778 49.4087 17.3692 49.6904 17.8974C49.8915 18.2878 49.949 18.3969 50.0238 18.3969C50.0985 18.3969 50.156 18.2993 50.3801 17.8228L53.0644 12.1386L53.5817 17.7768C53.5817 17.9721 53.6162 18.1386 53.5415 18.1673C53.4668 18.196 53.4668 18.2017 53.4668 18.2419C53.4668 18.2821 53.5185 18.328 53.7657 18.351C54.168 18.3855 55.3981 18.4142 55.6395 18.4142C55.7659 18.4142 55.8004 18.4142 55.8004 18.328C55.8004 18.2419 55.7372 18.2649 55.6797 18.2649C55.4537 18.2676 55.2287 18.2346 55.013 18.1673C54.5474 18.018 54.4726 17.4094 54.4382 17.019L53.7254 10.3644C53.7254 10.1577 53.6679 10.0716 53.5932 10.0716C53.5185 10.0716 53.4783 10.1462 53.4323 10.2438L50.2537 17.0304L46.9429 10.2324C46.8854 10.1175 46.8451 10.0716 46.7819 10.0716C46.7187 10.0716 46.6727 10.1692 46.6612 10.2898L45.8795 17.3118C45.8278 17.7539 45.8048 18.1443 45.4484 18.2132C45.3414 18.2244 45.2335 18.2244 45.1265 18.2132C45.069 18.2132 45.0173 18.2132 45.0173 18.2764C45.0173 18.3395 45.092 18.3912 45.2012 18.3912V18.4142ZM75.6997 14.5386C75.4698 14.5386 75.4066 14.5386 75.4066 14.6362C75.4066 14.7338 75.4698 14.7108 75.5273 14.7108C75.6019 14.7165 75.6769 14.7165 75.7515 14.7108C76.0893 14.7351 76.4286 14.6901 76.7484 14.5786C77.0682 14.467 77.3618 14.2913 77.6111 14.0622C77.8604 13.833 78.0601 13.5554 78.198 13.2463C78.3358 12.9372 78.4089 12.6032 78.4128 12.2649C78.4216 12.0054 78.3783 11.7467 78.2855 11.5041C78.1927 11.2615 78.0523 11.04 77.8725 10.8525C77.7 10.6917 77.2114 10.2381 75.8607 10.2381C75.3664 10.2381 74.7111 10.2668 74.4984 10.2668C74.4122 10.2668 73.7627 10.2381 73.2741 10.2381C73.1592 10.2381 73.1017 10.2381 73.1017 10.3242C73.1017 10.4104 73.1477 10.3874 73.1879 10.3874C73.3113 10.3869 73.4345 10.3985 73.5558 10.4218C73.9121 10.4965 73.9983 10.6687 74.0213 11.0362C74.0443 11.4037 74.0213 11.685 74.0213 13.3673V15.2735C74.0213 16.307 74.0213 17.1625 73.9696 17.6161C73.9236 17.9319 73.8719 18.1902 73.6535 18.1902C73.5473 18.2117 73.4397 18.2252 73.3316 18.2304C73.2626 18.2304 73.2396 18.2649 73.2396 18.2936C73.2396 18.3223 73.2971 18.3797 73.4178 18.3797C73.7397 18.3797 74.4237 18.3797 74.4524 18.3797C74.4812 18.3797 75.1882 18.3797 75.786 18.3797C75.9067 18.3797 75.9584 18.3797 75.9584 18.2936C75.9584 18.2075 75.9584 18.2304 75.8722 18.2304C75.786 18.2304 75.533 18.2304 75.3836 18.1902C75.0617 18.1443 74.9927 17.9089 74.964 17.6161C74.9065 17.1625 74.9065 16.307 74.9065 15.2735V10.818C74.9065 10.7089 74.9065 10.6343 74.9927 10.6113C75.1433 10.5645 75.3007 10.5431 75.4583 10.5482C75.73 10.5246 76.0035 10.5606 76.2597 10.6539C76.5159 10.7471 76.7485 10.8952 76.9413 11.0879C77.3433 11.5143 77.562 12.0811 77.5506 12.6668C77.5603 12.9122 77.519 13.1569 77.4295 13.3856C77.3399 13.6143 77.2039 13.822 77.0301 13.9957C76.8562 14.1693 76.6483 14.3052 76.4193 14.3946C76.1904 14.4841 75.9454 14.5253 75.6997 14.5156V14.5386ZM67.7791 17.1969C67.7791 18.0065 67.6181 18.1558 67.3882 18.2132C67.3059 18.218 67.2234 18.218 67.1411 18.2132C67.0778 18.2132 67.0204 18.2477 67.0204 18.2764C67.0204 18.3051 67.0778 18.3625 67.1986 18.3625C67.4745 18.3625 67.7389 18.3625 67.9975 18.3625C68.4171 18.3625 68.9172 18.3625 69.3483 18.3625C69.7794 18.3625 70.13 18.3969 70.929 18.3969C71.3486 18.3969 71.4348 18.3969 71.5037 18.1156C71.5727 17.8343 71.6417 17.1568 71.6417 17.0706C71.6417 16.9845 71.6417 16.9041 71.5785 16.9041C71.5152 16.9041 71.5037 16.9501 71.4808 17.0706C71.3945 17.5357 71.2738 17.7596 70.906 17.8687C70.5862 17.9455 70.2575 17.9783 69.9288 17.9663C69.6265 17.9854 69.3232 17.9524 69.0321 17.8687C68.762 17.7596 68.6988 17.5242 68.6758 17.0764C68.6758 16.8524 68.6758 15.6008 68.6758 15.2333V14.3089C68.6749 14.2989 68.6762 14.2888 68.6797 14.2793C68.6831 14.2699 68.6886 14.2613 68.6957 14.2542C68.7028 14.2471 68.7114 14.2416 68.7209 14.2382C68.7304 14.2347 68.7405 14.2334 68.7505 14.2343C68.9344 14.2343 70.0093 14.2343 70.2967 14.2859C70.6875 14.3319 70.8197 14.4812 70.8715 14.6419C70.9035 14.7401 70.919 14.843 70.9175 14.9462C70.9175 15.0324 70.9175 15.1185 70.9922 15.1185C71.0669 15.1185 71.0554 15.0668 71.0669 14.9577C71.0784 14.8486 71.0669 14.5558 71.1129 14.2228C71.1589 13.8898 71.1991 13.6831 71.1991 13.6486C71.1991 13.6142 71.1991 13.5625 71.1416 13.5625C71.0842 13.5625 71.0669 13.6027 71.0152 13.6658C70.9634 13.729 70.7623 13.8324 70.4749 13.8496C70.1875 13.8668 68.8942 13.8496 68.7505 13.8496C68.6988 13.8496 68.6873 13.8151 68.6873 13.7405V10.7548C68.6873 10.6802 68.6873 10.6458 68.7505 10.6458C68.8137 10.6458 70.0495 10.6458 70.2335 10.6802C70.7105 10.7204 70.9347 10.8295 71.0152 11.0764C71.0502 11.1918 71.0677 11.3118 71.0669 11.4324C71.0669 11.5185 71.0669 11.5759 71.1531 11.5759C71.2393 11.5759 71.2278 11.5013 71.2393 11.3922C71.2393 11.1108 71.2738 10.9041 71.2853 10.7434C71.2853 10.4391 71.3715 10.3127 71.3715 10.2324C71.3715 10.152 71.3715 10.1348 71.3256 10.1348C71.284 10.1403 71.2445 10.1561 71.2106 10.1807C71.0476 10.2246 70.8793 10.2459 70.7105 10.2438C70.4634 10.2438 68.3079 10.2438 68.2332 10.2438C67.5492 10.2151 67.2618 10.2151 67.0089 10.2151C66.8939 10.2151 66.8364 10.2151 66.8364 10.3013C66.8364 10.3874 66.8997 10.3529 66.9801 10.3644C67.0843 10.3689 67.188 10.3804 67.2905 10.3989C67.6469 10.4735 67.7331 10.6458 67.7561 11.0132C67.7791 11.3807 67.7561 11.662 67.7561 13.3443V15.2505C67.8021 16.2209 67.7906 16.7721 67.7791 17.1969ZM91.4318 10.7089C92.4722 10.7089 92.7308 10.9788 92.7596 11.2831C92.7596 11.3233 92.7596 11.3577 92.7596 11.3979C92.7596 11.5529 92.7941 11.5816 92.8458 11.5816C92.8975 11.5816 92.9263 11.5414 92.9263 11.4438C92.9263 11.3462 92.955 10.5769 92.955 10.2553C92.955 10.1922 92.955 10.1233 92.9033 10.1233C92.8515 10.1233 92.7596 10.1577 92.5986 10.1807C92.3437 10.2187 92.0861 10.236 91.8284 10.2324H87.8049C87.6727 10.2324 87.2646 10.2324 86.9484 10.1807C86.7846 10.1563 86.6244 10.112 86.4713 10.0486C86.4311 10.0486 86.3851 10.1922 86.3621 10.2553C86.3391 10.3185 86.1265 11.2716 86.1265 11.4037C86.1265 11.5357 86.1265 11.5013 86.1782 11.5013C86.2299 11.5013 86.2587 11.5013 86.2874 11.3922C86.3374 11.2735 86.399 11.16 86.4713 11.0534C86.6438 10.795 86.9024 10.7204 87.575 10.7089H89.1786V15.3022C89.1786 16.3357 89.1786 17.1912 89.1211 17.6448C89.0809 17.9606 89.0234 18.219 88.8108 18.219C88.7028 18.2408 88.5932 18.2542 88.4831 18.2591C88.4199 18.2591 88.3969 18.2936 88.3969 18.3223C88.3969 18.351 88.4544 18.4084 88.5693 18.4084C88.897 18.4084 89.5752 18.4084 89.6327 18.4084C89.6902 18.4084 90.3684 18.4084 90.9605 18.4084C91.0812 18.4084 91.1329 18.4084 91.1329 18.3223C91.1329 18.2362 91.1329 18.2591 91.0467 18.2591C90.9605 18.2591 90.7133 18.2591 90.5639 18.219C90.2362 18.173 90.173 17.9376 90.1385 17.6448C90.0868 17.1912 90.0868 16.3357 90.0868 15.3022V10.7089H91.4318ZM106.428 14.5156C106.198 14.5156 106.135 14.5156 106.135 14.6132C106.135 14.7108 106.198 14.6879 106.256 14.6879C106.33 14.6936 106.405 14.6936 106.48 14.6879C106.818 14.7113 107.156 14.6657 107.476 14.5539C107.795 14.442 108.089 14.2662 108.338 14.0373C108.587 13.8083 108.787 13.531 108.925 13.2223C109.063 12.9136 109.137 12.58 109.141 12.2419C109.15 11.9824 109.107 11.7237 109.014 11.4812C108.921 11.2386 108.781 11.017 108.601 10.8295C108.428 10.6687 107.94 10.2151 106.589 10.2151C106.095 10.2151 105.439 10.2438 105.227 10.2438C105.141 10.2438 104.491 10.2151 104.003 10.2151C103.882 10.2151 103.83 10.2151 103.83 10.3013C103.83 10.3874 103.876 10.3644 103.916 10.3644C104.04 10.364 104.163 10.3755 104.284 10.3989C104.641 10.4735 104.727 10.6458 104.75 11.0132C104.773 11.3807 104.75 11.662 104.75 13.3443V15.2505C104.75 16.284 104.75 17.1395 104.692 17.5931C104.652 17.9089 104.6 18.1673 104.382 18.1673C104.274 18.1891 104.164 18.2026 104.054 18.2075C103.991 18.2075 103.968 18.2419 103.968 18.2706C103.968 18.2993 104.026 18.3567 104.14 18.3567C104.468 18.3567 105.152 18.3567 105.181 18.3567C105.21 18.3567 105.917 18.3567 106.514 18.3567C106.629 18.3567 106.687 18.328 106.687 18.2706C106.687 18.2706 106.687 18.2075 106.601 18.2075C106.514 18.2075 106.261 18.2075 106.112 18.1673C105.79 18.1213 105.721 17.8859 105.692 17.5931C105.635 17.1395 105.635 16.284 105.635 15.2505V10.818C105.635 10.7089 105.635 10.6343 105.721 10.6113C105.872 10.5645 106.029 10.5431 106.187 10.5482C106.458 10.5249 106.732 10.5612 106.988 10.6544C107.244 10.7476 107.477 10.8956 107.67 11.0879C108.061 11.5187 108.267 12.0856 108.244 12.6668C108.254 12.9102 108.213 13.1529 108.125 13.38C108.037 13.6071 107.903 13.8137 107.732 13.987C107.56 14.1603 107.355 14.2967 107.129 14.3876C106.903 14.4785 106.66 14.5221 106.417 14.5156H106.428ZM65.3707 34.6974C65.2635 34.7048 65.156 34.7048 65.0488 34.6974C64.8189 34.6974 64.7729 34.4849 64.7442 34.2725C64.7097 33.9452 64.7097 33.3539 64.7097 32.6132V31.2582C64.7097 30.0639 64.7097 29.8572 64.7097 29.6103C64.7097 29.3634 64.7672 29.2141 65.0086 29.1797C65.0698 29.174 65.1313 29.174 65.1925 29.1797C65.2615 29.1797 65.2902 29.1395 65.2902 29.1165C65.2902 29.0936 65.2385 29.0534 65.1465 29.0534C64.8764 29.0534 64.3648 29.0534 64.3303 29.0534C64.2958 29.0534 63.7555 29.0534 63.3819 29.0534C63.2957 29.0534 63.2555 29.0534 63.2555 29.1165C63.2555 29.1797 63.2957 29.1797 63.3647 29.1797C63.4393 29.1738 63.5142 29.1738 63.5889 29.1797C63.8877 29.2314 63.9222 29.3577 63.9395 29.6046C63.9567 29.8515 63.9395 30.0582 63.9395 31.2467V31.4132C63.9395 31.4591 63.9395 31.4591 63.8877 31.4591H60.6114C60.5827 31.4591 60.554 31.4591 60.554 31.4132V31.2467C60.554 30.0582 60.554 29.8572 60.554 29.6103C60.554 29.3634 60.6287 29.2027 60.8528 29.1682C60.9121 29.1617 60.9718 29.1617 61.031 29.1682C61.0885 29.1682 61.123 29.1682 61.123 29.1165C61.123 29.0649 61.077 29.0534 60.985 29.0534C60.7321 29.0534 60.2091 29.0534 60.1746 29.0534C60.1401 29.0534 59.5998 29.0534 59.2319 29.0534C59.14 29.0534 59.094 29.0534 59.094 29.1165C59.094 29.1797 59.1342 29.1682 59.1974 29.1682H59.4389C59.7033 29.1682 59.7665 29.3692 59.7837 29.6046C59.801 29.84 59.7837 30.0811 59.7837 31.2754V32.6132C59.8286 33.1536 59.8401 33.6962 59.8182 34.2381C59.8182 34.4333 59.755 34.6055 59.594 34.6457C59.5215 34.6542 59.4482 34.6542 59.3756 34.6457C59.2952 34.6457 59.2779 34.6859 59.2779 34.7089C59.2779 34.7318 59.3296 34.772 59.4216 34.772C59.6573 34.772 60.2091 34.772 60.2378 34.772C60.2666 34.772 60.8126 34.772 61.2782 34.772C61.3587 34.772 61.3931 34.772 61.3931 34.7089C61.3931 34.6457 61.3472 34.6457 61.2839 34.6457C61.1768 34.6527 61.0692 34.6527 60.9621 34.6457C60.7264 34.6457 60.6804 34.4333 60.6517 34.2381C60.6067 33.69 60.5913 33.1399 60.6057 32.5902V31.7864C60.6057 31.7405 60.6057 31.729 60.6517 31.729H63.9395C63.9468 31.7289 63.954 31.7304 63.9607 31.7334C63.9674 31.7363 63.9734 31.7407 63.9783 31.7461C63.9831 31.7515 63.9868 31.7579 63.9891 31.7648C63.9913 31.7718 63.992 31.7791 63.9912 31.7864V32.5902C63.9912 33.3251 63.9912 33.8936 63.951 34.2208C63.951 34.4275 63.8763 34.6227 63.7211 34.6515C63.6524 34.6602 63.5828 34.6602 63.5141 34.6515C63.4394 34.6515 63.4164 34.6515 63.4164 34.7089C63.4164 34.7663 63.4624 34.7778 63.5486 34.7778C63.7958 34.7778 64.3188 34.7778 64.3533 34.7778C64.3878 34.7778 64.9281 34.7778 65.3765 34.7778C65.4684 34.7778 65.5144 34.7778 65.5144 34.7146C65.5144 34.6515 65.4397 34.6974 65.3707 34.6974ZM93.7885 14.2974C93.7885 16.2438 95.0243 18.5462 97.9902 18.5462C98.5691 18.5561 99.1439 18.4477 99.6794 18.2276C100.215 18.0075 100.7 17.6804 101.104 17.2664C101.508 16.8523 101.823 16.3601 102.03 15.8199C102.237 15.2797 102.331 14.703 102.307 14.1252C102.307 11.6046 100.485 10.0716 98.0534 10.0716C97.4935 10.0616 96.9372 10.1638 96.4175 10.3722C95.8978 10.5806 95.4252 10.8909 95.0276 11.2849C94.63 11.6788 94.3155 12.1484 94.1027 12.6658C93.8898 13.1833 93.783 13.738 93.7885 14.2974ZM101.261 14.4295C101.261 17.5701 99.249 18.1328 98.2718 18.1328C96.329 18.1328 94.8231 16.5137 94.8231 13.9931C94.8231 11.6276 96.1738 10.4391 97.9844 10.4391C99.6858 10.4391 101.267 11.8343 101.267 14.4295H101.261ZM84.4078 23.5644L84.9309 23.0419L35.6769 23.3232L35.2113 22.8582L34.5273 23.5644L35.2343 24.2706L35.7057 23.7998L84.9309 24.0869L84.4078 23.5644ZM51.0239 34.6974C50.867 34.6914 50.7111 34.6703 50.5583 34.6342C50.2077 34.5538 50.1502 34.0601 50.1272 33.8304L49.5524 29.128C49.5524 28.9845 49.5122 28.9041 49.4605 28.9041C49.4087 28.9041 49.3685 28.9558 49.3225 29.0534L47.0233 33.7385L44.5977 29.0476C44.5345 28.9271 44.5115 28.9041 44.4655 28.9041C44.4195 28.9041 44.3793 28.973 44.362 29.128L43.7585 34.0945C43.7125 34.4562 43.6321 34.6687 43.4136 34.6687H43.2412C43.1607 34.6687 43.1262 34.7089 43.1262 34.7261C43.1262 34.7433 43.178 34.795 43.2584 34.795C43.4826 34.795 43.8677 34.795 43.9539 34.795C44.0402 34.795 44.4195 34.795 44.7069 34.795C44.8104 34.795 44.8621 34.795 44.8621 34.7261C44.8621 34.6572 44.8621 34.6802 44.7701 34.6687C44.6859 34.6741 44.6015 34.6741 44.5172 34.6687C44.4523 34.6588 44.3933 34.6251 44.3519 34.5741C44.3104 34.5232 44.2895 34.4586 44.2931 34.3931C44.2931 34.261 44.2931 34.1806 44.2931 34.0486L44.6322 30.5692C44.7012 30.7586 45.5921 32.5156 45.6438 32.6247C45.6956 32.7338 46.4198 34.1232 46.598 34.3873C46.7762 34.6515 46.8164 34.7778 46.8681 34.7778C46.9199 34.7778 46.9774 34.6974 47.1498 34.3471L49.0696 30.4543L49.4662 34.3242C49.4662 34.4562 49.4662 34.5596 49.4145 34.5826C49.3627 34.6055 49.3283 34.6342 49.3283 34.6629C49.3283 34.6916 49.403 34.7261 49.6042 34.7433C49.8053 34.7605 50.8687 34.795 51.0354 34.795C51.2021 34.795 51.1676 34.795 51.1676 34.7261C51.1676 34.6572 51.0584 34.6974 51.0239 34.6974ZM54.8578 28.9041C54.4512 28.8888 54.0457 28.9547 53.6651 29.0982C53.2844 29.2416 52.9363 29.4597 52.6413 29.7394C52.3462 30.0192 52.1101 30.3551 51.9468 30.7273C51.7836 31.0995 51.6965 31.5006 51.6907 31.907C51.6787 32.3152 51.752 32.7214 51.906 33.0997C52.0599 33.478 52.2911 33.8202 52.5847 34.1043C52.8784 34.3884 53.228 34.6083 53.6115 34.75C53.9949 34.8917 54.4037 34.952 54.8118 34.927C55.2323 34.9444 55.6518 34.8755 56.0446 34.7247C56.4374 34.5738 56.7951 34.3441 57.0957 34.0498C57.3962 33.7556 57.6332 33.4029 57.792 33.0136C57.9508 32.6243 58.0281 32.2067 58.0191 31.7864C58.0191 29.9376 56.6511 28.8754 54.8578 28.8754V28.9041ZM55.0417 34.6457C53.5185 34.6457 52.5298 33.4974 52.5298 31.7003C52.5298 29.9031 53.5472 29.2084 54.829 29.2084C56.1108 29.2084 57.1914 30.2247 57.1914 32.039C57.1684 34.284 55.6452 34.5883 55.0417 34.5883V34.6457ZM35.0619 10.3759C35.1481 10.3759 35.2688 10.3759 35.4068 10.4103C35.7574 10.4735 35.8724 10.5482 35.8839 11.7367C35.9183 13.8094 35.8839 16.2438 35.8839 18.0237C35.8839 18.4601 35.9183 18.5462 36.0276 18.5462C36.1368 18.5462 36.2 18.4888 36.4242 18.2419C36.8782 17.7481 41.4019 12.1501 41.9652 11.4438C41.9652 13.2926 41.9652 15.0955 41.9192 16.8697C41.9192 17.6792 41.8674 18.1328 41.5513 18.2017L41.2409 18.2419C41.0972 18.2419 41.08 18.2764 41.08 18.328C41.08 18.3797 41.08 18.3912 41.2409 18.3912C41.6318 18.3912 41.9767 18.3912 42.2123 18.3912C42.448 18.3912 43.3619 18.3912 43.7298 18.3912C43.8447 18.3912 43.8907 18.3912 43.8907 18.3166C43.8907 18.2419 43.8562 18.2534 43.7298 18.2419C43.6033 18.2304 43.3619 18.2419 43.3044 18.2017C42.9596 18.1443 42.8733 17.8515 42.8618 17.0534C42.8273 15.0323 42.8273 13.1089 42.8273 11.0879C42.8273 10.1462 42.7756 10.0601 42.6664 10.0601C42.5572 10.0601 42.3675 10.2324 41.9652 10.7204C40.9018 12.018 38.114 15.4745 36.792 17.1051V11.5013C36.792 10.5826 36.8897 10.462 37.1944 10.3989C37.2872 10.3797 37.3814 10.3682 37.476 10.3644C37.591 10.3644 37.614 10.3185 37.614 10.2783C37.614 10.2381 37.5622 10.2151 37.43 10.2151C37.1312 10.2151 36.6943 10.2438 36.3494 10.2438C36.177 10.2438 35.493 10.2151 35.1596 10.2151C35.0389 10.2151 34.9412 10.2151 34.9412 10.2898C34.9412 10.3644 34.9757 10.3644 35.0619 10.3759ZM140.197 22.8582L139.737 23.3175L89.7074 23.0419L90.2305 23.5644L89.7074 24.0869L139.714 23.7883L140.18 24.2591L140.887 23.5529L140.197 22.8582ZM85.6839 23.5644L87.3278 25.2065L88.9774 23.5644L87.3278 21.9223L85.6839 23.5644Z" fill="#231F20"/>
<path d="M28.5962 14.053C26.2588 11.1545 22.1074 10.9348 22.0513 10.9348H21.6399C20.9854 11.1452 20.4852 13.0853 20.0784 14.9085C19.7933 14.8618 19.4707 14.8197 19.1434 14.7916C19.1164 13.9355 19.0274 13.0824 18.877 12.2391C18.732 11.4537 17.783 10.9208 16.7919 10.6216C17.3187 10.3063 17.7563 9.86167 18.0631 9.32987C18.3699 8.79806 18.5358 8.19671 18.545 7.58282C18.585 6.85325 18.3497 6.13526 17.8857 5.57084C17.4217 5.00643 16.7628 4.63668 16.0392 4.53473V3.86621L15.6232 3.20236L15.885 2.93589L16.5067 3.35196H17.6287V1.63157H16.5067L15.8429 2.04764L15.5811 1.78584L15.9972 1.122V0H14.2861V1.122L14.7069 1.78584L14.4404 2.04764L13.7766 1.63157H12.6592V3.35196H13.7766L14.4404 2.93589L14.7069 3.20236L14.2861 3.86621V4.53941C13.5631 4.64237 12.9048 5.0124 12.441 5.57658C11.9772 6.14076 11.7415 6.85818 11.7803 7.58749C11.7885 8.20042 11.9535 8.80103 12.2596 9.33214C12.5656 9.86324 13.0026 10.3071 13.5288 10.6216C12.5424 10.9254 11.5933 11.4584 11.4484 12.2438C11.298 13.0871 11.209 13.9401 11.1819 14.7963C10.8313 14.8244 10.5134 14.8664 10.2469 14.9132C9.84023 13.0899 9.31195 11.1732 8.68083 10.9395H8.26943C8.21333 10.9395 4.06195 11.1592 1.72446 14.0577C0.237819 15.8949 -0.14553 18.3493 0.551041 21.346C1.24761 24.3426 3.6412 28.279 4.29103 29.3308C4.14217 29.6112 4.05475 29.9201 4.0346 30.2369C4.01444 30.5537 4.06202 30.8711 4.17415 31.1681C4.29529 31.8776 4.63529 32.5314 5.14654 33.0381C6.44619 34.2583 9.2839 35.2727 15.165 35.2727C21.4155 35.2727 24.2345 33.917 25.4126 32.6454C25.7861 32.2258 26.0411 31.7143 26.1512 31.1634C26.2673 30.8616 26.317 30.5384 26.2968 30.2157C26.2767 29.893 26.1871 29.5784 26.0344 29.2934C26.6888 28.2416 29.0871 24.2491 29.7743 21.3086C30.4616 18.368 30.0642 15.8949 28.5962 14.053ZM1.15879 18.0968C1.48604 17.4985 2.84178 15.4134 6.30127 14.3569C6.36672 14.8758 6.45087 15.4461 6.55839 16.0679C3.35136 17.1338 1.88341 18.6906 1.20554 19.878C1.13292 19.2872 1.11726 18.6907 1.15879 18.0968ZM16.5862 32.9913C16.6899 32.7737 16.7441 32.5358 16.7452 32.2948C16.7443 32.0156 16.6702 31.7415 16.5301 31.5C17.3716 31.4673 18.1617 31.4112 18.8676 31.3364C18.9355 31.8405 18.8457 32.3533 18.6105 32.8043C17.9092 32.8838 17.222 32.9493 16.5769 32.9913H16.5862ZM7.92348 30.7707L8.24606 30.8408C8.90056 30.9811 9.64855 31.112 10.4573 31.2195C10.3921 31.7033 10.4287 32.1953 10.5648 32.6641C9.78413 32.5566 9.01743 32.4303 8.31618 32.2948C8.03723 31.8369 7.90055 31.3064 7.92348 30.7707ZM21.0134 17.62C20.3791 21.3994 19.0372 25.0252 17.0584 28.307C18.1134 24.7171 18.7933 21.0275 19.0873 17.2974C19.7442 17.3305 20.3952 17.4388 21.0275 17.62H21.0134ZM11.6354 32.7997C11.407 32.3431 11.3238 31.8276 11.397 31.3224C12.1123 31.3972 12.879 31.4486 13.6971 31.4813C13.5554 31.7241 13.4797 31.9997 13.4774 32.2807C13.4789 32.5202 13.5332 32.7565 13.6363 32.9726C13.0052 32.9446 12.3273 32.8791 11.6354 32.7997ZM22.1962 21.1496C22.3879 20.6026 22.5608 20.065 22.7151 19.5414C24.2132 19.9582 25.5683 20.778 26.6328 21.9116C26.4763 22.4554 26.2874 22.9893 26.0671 23.5105C24.9787 22.4323 23.653 21.6238 22.1962 21.1496ZM26.8712 20.8177C25.7556 19.7953 24.4176 19.0463 22.9629 18.6298C23.1172 18.0454 23.2527 17.4751 23.3603 16.9328C24.6438 17.3178 25.8441 17.9393 26.8992 18.7654C27.0029 19.4462 26.995 20.1394 26.8759 20.8177H26.8712ZM23.6688 15.2077C24.8078 15.5343 25.7803 16.2812 26.3897 17.2974C25.4931 16.7684 24.5375 16.3463 23.5426 16.0399C23.594 15.736 23.6361 15.4695 23.6735 15.2124L23.6688 15.2077ZM17.035 21.5049C17.335 22.3935 17.335 23.3559 17.035 24.2444C16.4083 23.8015 15.9216 23.1883 15.6325 22.4773C15.2951 21.5793 15.2493 20.5978 15.5016 19.6723C16.2019 20.0961 16.7414 20.7408 17.035 21.5049ZM15.1043 32.9867C14.9672 32.9876 14.833 32.9478 14.7186 32.8723C14.6042 32.7969 14.5148 32.6891 14.4617 32.5628C14.4086 32.4365 14.3942 32.2972 14.4204 32.1627C14.4466 32.0281 14.5121 31.9044 14.6087 31.8072C14.7053 31.71 14.8285 31.6436 14.9629 31.6165C15.0972 31.5894 15.2366 31.6029 15.3633 31.6551C15.49 31.7073 15.5983 31.796 15.6745 31.9099C15.7508 32.0238 15.7915 32.1577 15.7915 32.2948C15.7915 32.4775 15.7192 32.6527 15.5905 32.7824C15.4617 32.912 15.2869 32.9854 15.1043 32.9867ZM17.5072 29.3682C19.3708 27.1817 20.8475 24.6932 21.8736 22.0098C22.3761 22.1687 22.8628 22.3737 23.3275 22.6222C22.1631 25.4977 20.4962 28.1429 18.4048 30.4341C17.8625 30.4855 17.2875 30.5229 16.6891 30.551C16.9742 30.163 17.2547 29.7656 17.5119 29.3682H17.5072ZM24.127 23.1084C24.6816 23.4911 25.1954 23.9297 25.6604 24.4174C24.7045 26.3253 23.5647 28.1354 22.257 29.8217C21.5417 29.9853 20.7049 30.1443 19.7559 30.2892C21.5806 28.1398 23.0557 25.7165 24.127 23.1084ZM23.4491 30.5042C23.5026 31.0438 23.3813 31.5863 23.1031 32.0517L22.3458 32.22C22.5033 31.7444 22.5544 31.2401 22.4954 30.7427C22.8413 30.6648 23.1592 30.5853 23.4491 30.5042ZM15.1744 23.7115C15.4782 24.3317 15.578 25.032 15.4596 25.7124C15.2833 26.4944 14.8605 27.1991 14.2534 27.7226C14.0093 27.1183 13.9334 26.4592 14.0337 25.8152C14.1901 25.014 14.5882 24.2798 15.1744 23.7115ZM13.4493 30.3266L13.6129 30.551C13.0099 30.5229 12.4255 30.4855 11.8785 30.4341C9.72361 28.1713 8.04486 25.499 6.94174 22.5755C7.3621 22.3657 7.7982 22.1891 8.24606 22.0472C9.41416 25.1248 11.1829 27.9392 13.4493 30.3266ZM6.13297 23.0336C7.14813 25.6801 8.61968 28.1279 10.4807 30.2658C9.8262 30.177 9.22313 30.0695 8.68083 29.9619C7.11004 28.1668 5.50185 24.8989 5.025 23.8845C5.36923 23.5696 5.73991 23.2849 6.13297 23.0336ZM19.8166 31.2242C20.4524 31.14 21.0368 31.0419 21.5744 30.9343C21.6098 31.4551 21.4929 31.9749 21.2378 32.4303C20.7376 32.5145 20.2187 32.594 19.6904 32.6688C19.8316 32.2011 19.8746 31.7093 19.8166 31.2242ZM16.6236 13.8707C17.6615 15.1329 17.769 16.9188 17.7503 17.7836C16.6356 17.4648 15.6453 16.8122 14.9126 15.9136C14.0538 14.7855 13.5846 13.4091 13.5755 11.9913C14.7839 12.2324 15.8656 12.8993 16.6236 13.8707ZM14.417 17.0497C14.712 17.8124 14.7416 18.6522 14.5012 19.4339C14.1893 20.3188 13.5945 21.0762 12.8088 21.5891C12.5949 20.8516 12.5949 20.0685 12.8088 19.331C13.0954 18.4222 13.6574 17.625 14.417 17.0497ZM14.417 21.4488C14.4608 21.9145 14.5727 22.3713 14.749 22.8046C14.1364 23.3571 13.657 24.0412 13.3465 24.8054C13.1922 24.1276 13.0379 23.403 12.879 22.6783C13.4468 22.3467 13.962 21.9323 14.4077 21.4488H14.417ZM13.2343 28.307C11.2532 25.0233 9.91275 21.3937 9.2839 17.6107C9.91389 17.4256 10.5636 17.3158 11.2193 17.2834C11.5078 21.0177 12.1831 24.7121 13.2343 28.307ZM1.58421 21.6031C1.58421 21.4722 1.83666 18.6672 6.75942 16.9936C6.87161 17.5312 7.00719 18.1015 7.16146 18.6859C3.9591 19.7284 2.54726 21.5937 1.95821 22.7438C1.81329 22.3558 1.68239 21.9724 1.57486 21.6031H1.58421ZM2.48648 23.9406C2.48648 23.9078 3.20643 20.986 7.41391 19.5928C7.56351 20.1118 7.73649 20.6447 7.92816 21.187C5.87986 21.8239 4.11865 23.1568 2.94931 24.955C2.78568 24.6184 2.62673 24.2772 2.48181 23.9359L2.48648 23.9406ZM4.35648 24.5857C5.18758 26.3426 6.1617 28.0281 7.26899 29.6253C6.55335 29.4468 5.85052 29.2203 5.16525 28.9475C4.9315 28.5782 4.2022 27.3814 3.4355 25.9181C3.68916 25.4419 3.99661 24.9965 4.3518 24.5904L4.35648 24.5857ZM5.03435 29.9199C5.67799 30.1645 6.33512 30.3721 7.00251 30.5416C6.94206 31.0487 6.99475 31.5628 7.15679 32.047C6.12829 31.8039 5.39432 31.5421 5.24005 31.313V31.2756C5.1136 31.0763 5.03 30.8528 4.99459 30.6194C4.95918 30.386 4.97272 30.1478 5.03435 29.9199ZM12.734 7.58749C12.6986 7.10703 12.8403 6.63021 13.1322 6.24697C13.4241 5.86374 13.8462 5.60058 14.3189 5.50713C16.2216 5.50713 16.4039 9.06946 14.7864 10.1821L14.7022 10.1494C13.9589 9.84551 12.734 9.07881 12.734 7.58749ZM12.3881 12.4167C12.4281 12.2888 12.5105 12.1783 12.6218 12.1035C12.6504 13.5734 13.1069 15.0031 13.9355 16.2175C13.2341 16.7354 12.6548 17.4009 12.2385 18.167C12.034 16.252 12.0843 14.3185 12.3881 12.4167ZM2.39766 14.6935C3.38103 13.5433 4.68207 12.709 6.13764 12.2952C6.13764 12.5897 6.17972 12.9731 6.22179 13.4359C4.48728 13.8998 2.89938 14.7975 1.60759 16.0445C1.80613 15.5593 2.07211 15.1044 2.39766 14.6935Z" fill="#231F20"/>
</g>
<defs>
<clipPath id="clip0_2346_5020">
<rect width="140.951" height="35.4743" fill="white"/>
</clipPath>
</defs>
</svg>
