<svg width="507" height="427" viewBox="0 0 507 427" fill="none" xmlns="http://www.w3.org/2000/svg">
<mask id="path-1-inside-1_1811_19604" fill="white">
<path fill-rule="evenodd" clip-rule="evenodd" d="M26.2365 0H481.764C485.555 11.4634 495.112 20.302 507 23.0815V403.918C495.112 406.698 485.555 415.537 481.764 427H26.2365C22.3388 415.217 12.3501 406.207 0 403.7V23.2999C12.3501 20.7929 22.3388 11.7831 26.2365 0Z"/>
</mask>
<path d="M481.764 0L482.713 -0.314048L482.486 -1H481.764V0ZM26.2365 0V-1H25.514L25.2871 -0.314049L26.2365 0ZM507 23.0815H508V22.2884L507.228 22.1078L507 23.0815ZM507 403.918L507.228 404.892L508 404.712V403.918H507ZM481.764 427V428H482.486L482.713 427.314L481.764 427ZM26.2365 427L25.2871 427.314L25.514 428H26.2365V427ZM0 403.7H-1V404.518L-0.198931 404.68L0 403.7ZM0 23.2999L-0.198932 22.3199L-1 22.4825V23.2999H0ZM481.764 -1H26.2365V1H481.764V-1ZM507.228 22.1078C495.682 19.4081 486.396 10.8215 482.713 -0.314048L480.814 0.314048C484.714 12.1053 494.543 21.1958 506.772 24.0553L507.228 22.1078ZM508 403.918V23.0815H506V403.918H508ZM482.713 427.314C486.396 416.179 495.682 407.592 507.228 404.892L506.772 402.945C494.543 405.804 484.714 414.895 480.814 426.686L482.713 427.314ZM26.2365 428H481.764V426H26.2365V428ZM-0.198931 404.68C11.7959 407.115 21.5008 415.868 25.2871 427.314L27.1859 426.686C23.1768 414.566 12.9043 405.299 0.198931 402.72L-0.198931 404.68ZM-1 23.2999V403.7H1V23.2999H-1ZM25.2871 -0.314049C21.5008 11.1322 11.7959 19.885 -0.198932 22.3199L0.198932 24.2799C12.9043 21.7008 23.1768 12.4339 27.1859 0.314049L25.2871 -0.314049Z" fill="#A87F45" mask="url(#path-1-inside-1_1811_19604)"/>
</svg>
