<svg width="262" height="72" viewBox="0 0 262 72" fill="none" xmlns="http://www.w3.org/2000/svg">
<path d="M56.2203 28.6855C51.59 22.769 43.3666 22.3205 43.2555 22.3205H42.4405C41.144 22.7499 40.1532 26.7101 39.3475 30.4318C38.7826 30.3364 38.1436 30.2505 37.4954 30.1932C37.4418 28.4456 37.2654 26.7043 36.9675 24.9829C36.6804 23.3797 34.8005 22.2918 32.8373 21.6811C33.8809 21.0376 34.7476 20.13 35.3554 19.0445C35.9631 17.9589 36.2917 16.7314 36.31 15.4783C36.3891 13.9891 35.923 12.5235 35.0039 11.3714C34.0848 10.2193 32.7795 9.46457 31.3463 9.25646V7.89185L30.5221 6.53678L31.0407 5.99284L32.2724 6.84215H34.4949V3.33042H32.2724L30.9574 4.17972L30.4388 3.64533L31.263 2.29026V0H27.8736V2.29026L28.7071 3.64533L28.1792 4.17972L26.8642 3.33042H24.6509V6.84215H26.8642L28.1792 5.99284L28.7071 6.53678L27.8736 7.89185V9.266C26.4413 9.47619 25.1373 10.2315 24.2186 11.3831C23.2999 12.5347 22.833 13.9992 22.9099 15.4879C22.9262 16.739 23.253 17.965 23.8593 19.0491C24.4655 20.1332 25.331 21.0393 26.3734 21.6811C24.4194 22.3014 22.5395 23.3893 22.2524 24.9924C21.9545 26.7138 21.7781 28.4551 21.7246 30.2028C21.03 30.26 20.4003 30.3459 19.8724 30.4414C19.0668 26.7197 18.0203 22.8072 16.7702 22.33H15.9552C15.8441 22.33 7.62068 22.7785 2.99038 28.695C0.045511 32.4453 -0.71386 37.4553 0.665969 43.5722C2.0458 49.6891 6.78723 57.7241 8.07445 59.8712C7.77958 60.4435 7.60641 61.074 7.56649 61.7206C7.52657 62.3673 7.62082 63.0153 7.84294 63.6215C8.0829 65.0697 8.7564 66.4044 9.76914 67.4386C12.3436 69.9292 17.9648 72 29.6146 72C41.996 72 47.5802 69.2326 49.9138 66.637C50.6538 65.7806 51.1589 64.7364 51.377 63.6119C51.607 62.9959 51.7054 62.3361 51.6654 61.6774C51.6255 61.0186 51.4481 60.3765 51.1455 59.7948C52.442 57.6477 57.1927 49.4982 58.554 43.4958C59.9153 37.4934 59.1281 32.4453 56.2203 28.6855ZM1.86985 36.94C2.51809 35.7185 5.20366 31.4624 12.0565 29.3058C12.1862 30.365 12.3528 31.5292 12.5658 32.7984C6.21307 34.9742 3.30524 38.1519 1.96245 40.5757C1.8186 39.3697 1.78759 38.1521 1.86985 36.94ZM32.4298 67.3431C32.6351 66.8989 32.7427 66.4133 32.7447 65.9213C32.743 65.3514 32.5961 64.792 32.3187 64.299C33.9856 64.2322 35.5506 64.1177 36.949 63.965C37.0835 64.994 36.9056 66.0408 36.4397 66.9614C35.0506 67.1237 33.6893 67.2573 32.4113 67.3431H32.4298ZM15.2699 62.8103L15.9089 62.9535C17.2054 63.2398 18.6871 63.507 20.2892 63.7264C20.1599 64.7139 20.2325 65.7183 20.5022 66.6752C18.9557 66.4557 17.4369 66.198 16.0478 65.9213C15.4952 64.9866 15.2245 63.9038 15.2699 62.8103ZM41.1996 35.9666C39.943 43.6813 37.285 51.0823 33.3651 57.7813C35.4549 50.4535 36.8018 42.9222 37.3842 35.3082C38.6855 35.3758 39.9749 35.5967 41.2274 35.9666H41.1996ZM22.6228 66.9519C22.1705 66.02 22.0057 64.9677 22.1506 63.9364C23.5674 64.0891 25.0862 64.194 26.7068 64.2608C26.4262 64.7564 26.2761 65.3189 26.2715 65.8927C26.2746 66.3815 26.3821 66.8637 26.5864 67.305C25.3362 67.2477 23.9934 67.1141 22.6228 66.9519ZM43.5425 43.1714C43.9222 42.0549 44.2649 40.9575 44.5705 39.8887C47.5381 40.7395 50.2223 42.4129 52.3308 44.7268C52.0209 45.8368 51.6467 46.9266 51.2103 47.9905C49.0543 45.7896 46.4283 44.1392 43.5425 43.1714ZM52.8031 42.4938C50.5933 40.4069 47.9429 38.878 45.0613 38.0278C45.3669 36.835 45.6354 35.6708 45.8484 34.5638C48.391 35.3497 50.7686 36.6184 52.8587 38.3046C53.064 39.6943 53.0484 41.1093 52.8124 42.4938H52.8031ZM46.4596 31.0425C48.7159 31.7092 50.6422 33.2338 51.8493 35.3082C50.0732 34.2282 48.1804 33.3667 46.2096 32.7412C46.3115 32.1209 46.3948 31.5769 46.4689 31.0521L46.4596 31.0425ZM33.3188 43.8966C33.9131 45.7104 33.9131 47.6749 33.3188 49.4887C32.0773 48.5845 31.1132 47.3328 30.5407 45.8815C29.8723 44.0485 29.7816 42.0451 30.2814 40.1559C31.6686 41.0209 32.7372 42.3369 33.3188 43.8966ZM29.4942 67.3336C29.2228 67.3355 28.9569 67.2543 28.7303 67.1002C28.5037 66.9462 28.3265 66.7263 28.2214 66.4684C28.1162 66.2105 28.0878 65.9262 28.1396 65.6516C28.1914 65.3771 28.3212 65.1245 28.5125 64.926C28.7038 64.7276 28.948 64.5921 29.2141 64.5368C29.4803 64.4816 29.7563 64.509 30.0073 64.6156C30.2583 64.7222 30.4729 64.9032 30.6239 65.1357C30.7749 65.3681 30.8555 65.6415 30.8555 65.9213C30.8555 66.2942 30.7124 66.652 30.4574 66.9166C30.2023 67.1812 29.8561 67.3311 29.4942 67.3336ZM34.2542 59.9475C37.9457 55.4844 40.8708 50.4047 42.9036 44.9272C43.8989 45.2515 44.8631 45.67 45.7836 46.1773C43.477 52.0468 40.1751 57.4463 36.0322 62.1233C34.958 62.2282 33.8189 62.3046 32.6336 62.3618C33.1984 61.5698 33.7541 60.7587 34.2634 59.9475H34.2542ZM47.3672 47.1698C48.4658 47.9509 49.4836 48.8463 50.4046 49.8418C48.5113 53.7363 46.2533 57.4309 43.6629 60.8732C42.2461 61.2072 40.5884 61.5316 38.7085 61.8274C42.3231 57.4399 45.2451 52.4935 47.3672 47.1698ZM46.0244 62.2664C46.1304 63.3678 45.8902 64.4751 45.3391 65.425L43.8389 65.7686C44.1509 64.798 44.2521 63.7685 44.1352 62.7531C44.8205 62.594 45.4502 62.4318 46.0244 62.2664ZM29.6331 48.4008C30.2349 49.6667 30.4326 51.0963 30.198 52.4851C29.8489 54.0814 29.0114 55.5199 27.8088 56.5885C27.3252 55.355 27.1748 54.0095 27.3735 52.695C27.6835 51.0594 28.472 49.5608 29.6331 48.4008ZM26.216 61.9038L26.5401 62.3618C25.3455 62.3046 24.1879 62.2282 23.1044 62.1233C18.8358 57.5044 15.5104 52.0495 13.3252 46.0819C14.1579 45.6537 15.0218 45.2932 15.9089 45.0036C18.2228 51.2857 21.7265 57.0306 26.216 61.9038ZM11.7231 47.0171C13.734 52.4191 16.649 57.4157 20.3355 61.7797C19.039 61.5984 17.8444 61.3789 16.7702 61.1594C13.6586 57.495 10.4729 50.8247 9.52837 48.7539C10.2102 48.1111 10.9445 47.5301 11.7231 47.0171ZM38.8289 63.736C40.0883 63.5642 41.2459 63.3638 42.3109 63.1443C42.381 64.2074 42.1494 65.2684 41.6441 66.198C40.6532 66.3698 39.6253 66.532 38.5789 66.6847C38.8586 65.7301 38.9437 64.7261 38.8289 63.736ZM32.5039 28.3133C34.5598 30.8899 34.7728 34.5352 34.7357 36.3006C32.5276 35.6498 30.5659 34.3177 29.1145 32.4835C27.4135 30.1808 26.484 27.3711 26.466 24.4771C28.8596 24.9692 31.0023 26.3305 32.5039 28.3133ZM28.1329 34.8024C28.7172 36.3594 28.7759 38.0737 28.2996 39.6692C27.6817 41.4754 26.5035 43.0215 24.9473 44.0684C24.5236 42.563 24.5236 40.9646 24.9473 39.4592C25.5149 37.6042 26.6282 35.9768 28.1329 34.8024ZM28.1329 43.7821C28.2197 44.7327 28.4412 45.6651 28.7904 46.5495C27.5771 47.6774 26.6273 49.0738 26.0122 50.6338C25.7066 49.2501 25.401 47.771 25.0862 46.2919C26.2109 45.6149 27.2315 44.769 28.1144 43.7821H28.1329ZM25.79 57.7813C21.8657 51.0785 19.2104 43.6697 17.9648 35.9475C19.2127 35.5699 20.4996 35.3456 21.7987 35.2795C22.3701 42.9022 23.7077 50.4432 25.79 57.7813ZM2.71256 44.097C2.71256 43.8298 3.21264 38.1042 12.964 34.6879C13.1863 35.7853 13.4549 36.9495 13.7605 38.1423C7.41695 40.2704 4.62025 44.0779 3.45341 46.4255C3.16633 45.6334 2.90704 44.8509 2.69404 44.097H2.71256ZM4.49986 48.8684C4.49986 48.8016 5.92599 42.8374 14.2605 39.9936C14.5569 41.0529 14.8995 42.1408 15.2792 43.2477C11.2218 44.5477 7.733 47.2685 5.41666 50.9392C5.09254 50.2521 4.77768 49.5555 4.4906 48.8589L4.49986 48.8684ZM8.2041 50.1853C9.85043 53.7714 11.78 57.212 13.9734 60.4724C12.5559 60.1078 11.1636 59.6455 9.80618 59.0887C9.34315 58.3348 7.8985 55.8918 6.37976 52.905C6.88223 51.933 7.49124 51.0237 8.19484 50.1948L8.2041 50.1853ZM9.54688 61.0736C10.8219 61.573 12.1236 61.9967 13.4456 62.3428C13.3259 63.3777 13.4302 64.4271 13.7512 65.4155C11.7139 64.9193 10.26 64.3849 9.95435 63.9173V63.841C9.70387 63.434 9.53828 62.9779 9.46813 62.5014C9.39798 62.025 9.4248 61.5387 9.54688 61.0736ZM24.7991 15.4879C24.7289 14.5071 25.0095 13.5338 25.5878 12.7516C26.1661 11.9693 27.0022 11.4321 27.9384 11.2414C31.7075 11.2414 32.0687 18.5129 28.8645 20.7841L28.6978 20.7173C27.2254 20.097 24.7991 18.532 24.7991 15.4879ZM24.1138 25.3455C24.193 25.0843 24.3564 24.8588 24.5768 24.7062C24.6333 27.7066 25.5377 30.6249 27.1791 33.1038C25.7896 34.1609 24.6421 35.5193 23.8175 37.0831C23.4125 33.1743 23.5121 29.2274 24.1138 25.3455ZM4.32391 29.9928C6.27186 27.6451 8.84905 25.9421 11.7324 25.0974C11.7324 25.6986 11.8157 26.4811 11.8991 27.4258C8.46321 28.3728 5.31775 30.2053 2.75887 32.7507C3.15216 31.7602 3.67902 30.8318 4.32391 29.9928Z" fill="#231F20"/>
<path d="M246.186 22.3078C246.341 22.3078 246.557 22.3078 246.814 22.3713C247.432 22.4877 247.638 22.6253 247.659 24.8162C247.72 28.6371 247.659 33.1249 247.659 36.406C247.659 37.2104 247.72 37.3691 247.916 37.3691C248.112 37.3691 248.225 37.2633 248.626 36.8082C249.45 35.8979 257.542 25.5783 258.551 24.2764C258.551 27.6846 258.551 31.008 258.479 34.2785C258.479 35.7709 258.376 36.6071 257.82 36.7341L257.254 36.8082C257.007 36.8082 256.966 36.8717 256.966 36.9669C256.966 37.0622 257.017 37.0834 257.254 37.0834C257.954 37.0834 258.572 37.0834 258.994 37.0834C259.416 37.0834 261.053 37.0834 261.712 37.0834C261.928 37.0834 262 37.0834 262 36.9458C262 36.8082 261.938 36.8293 261.712 36.8082C261.485 36.787 261.053 36.8082 260.96 36.7341C260.332 36.6282 260.178 36.0884 260.157 34.6172C260.106 30.8916 260.106 27.3459 260.106 23.6202C260.106 21.8844 260.003 21.7256 259.807 21.7256C259.612 21.7256 259.272 22.0432 258.551 22.9428C256.657 25.3349 251.653 31.7066 249.285 34.7125V24.3823C249.285 22.6888 249.46 22.4665 250.006 22.3501C250.172 22.3147 250.341 22.2935 250.51 22.2866C250.727 22.2866 250.757 22.2019 250.757 22.1278C250.757 22.0538 250.665 22.0114 250.428 22.0114C249.893 22.0114 249.11 22.0643 248.492 22.0643C248.184 22.0643 246.969 22.0114 246.361 22.0114C246.155 22.0114 245.98 22.0114 245.98 22.149C245.98 22.2866 246.032 22.2866 246.186 22.3078ZM251.334 19.8205C252.049 20.3105 252.895 20.5585 253.753 20.5296C254.563 20.5326 255.361 20.3327 256.079 19.9472C256.796 19.5618 257.412 19.0024 257.872 18.3175C257.995 18.1588 257.975 18.0212 257.872 18.0212C257.769 18.0212 257.779 18.0212 257.625 18.2011C257.263 18.6842 256.794 19.0703 256.256 19.3265C255.718 19.5826 255.128 19.7013 254.536 19.6723C252.672 19.6723 251.746 18.8044 251.602 18.127C251.602 18.0212 251.55 18 251.488 18C251.233 18.1377 251.014 18.3375 250.85 18.5821C250.796 18.6639 250.764 18.7588 250.757 18.8573C250.779 19.0502 250.841 19.236 250.939 19.4022C251.036 19.5684 251.168 19.711 251.324 19.8205H251.334ZM223.433 22.3078C223.665 22.3099 223.896 22.3347 224.123 22.3819C224.555 22.4877 224.751 22.8264 224.782 23.5038C224.813 24.1812 224.782 24.6998 224.782 27.801V31.315C224.782 33.2201 224.782 34.7972 224.689 35.6333C224.607 36.2155 224.494 36.6917 224.102 36.7552C223.934 36.7678 223.766 36.7678 223.598 36.7552C223.423 36.7552 223.392 36.8399 223.392 36.8928C223.392 36.9458 223.485 37.0304 223.701 37.0304C224.277 37.0304 225.42 37.0304 225.523 37.0304C225.626 37.0304 226.841 37.0304 227.901 37.0304C228.118 37.0304 228.19 37.0304 228.19 36.8928C228.19 36.7552 228.138 36.7552 227.963 36.7552C227.788 36.7552 227.459 36.7552 227.181 36.6812C226.604 36.5965 226.491 36.1625 226.429 35.6227C226.337 34.7866 226.337 33.2095 226.337 31.3044V29.2616C228.311 31.6867 230.433 33.981 232.689 36.1308C233.098 36.5054 233.582 36.7845 234.106 36.9489C234.63 37.1134 235.183 37.1592 235.726 37.0834H237.167C237.373 37.0834 237.456 37.0834 237.456 36.9458C237.456 36.8082 237.342 36.8082 237.188 36.8082C237 36.8248 236.81 36.8248 236.622 36.8082C235.695 36.6282 235.016 36.1837 233.43 34.6913C232.514 33.8128 228.993 30.1295 227.768 28.7536C228.272 28.182 230.475 25.9276 232.184 24.2341C232.754 23.5583 233.455 23.0137 234.244 22.6359C234.574 22.5078 234.921 22.4294 235.273 22.403C235.448 22.403 235.479 22.3395 235.479 22.2654C235.479 22.1914 235.427 22.1278 235.16 22.1278C234.892 22.1278 233.698 22.1808 233.101 22.1808C232.504 22.1808 232.504 22.1278 231.937 22.1278C231.762 22.1278 231.649 22.1278 231.649 22.2443C231.649 22.3607 231.649 22.3607 231.824 22.4242C231.868 22.4542 231.905 22.4932 231.933 22.5388C231.962 22.5843 231.981 22.6354 231.989 22.6888C231.989 22.9217 231.917 23.1228 230.753 24.3611C229.59 25.5995 226.934 28.4572 226.337 29.0605V27.801C226.337 24.6998 226.337 24.1388 226.337 23.5038C226.337 22.8687 226.532 22.4454 227.057 22.3501H227.479C227.654 22.3501 227.696 22.2866 227.696 22.2125C227.696 22.1384 227.603 22.0749 227.387 22.0749C226.81 22.0749 225.585 22.1278 225.492 22.1278C225.4 22.1278 224.092 22.0749 223.433 22.0749C223.217 22.0749 223.124 22.0749 223.124 22.2337C223.124 22.3925 223.268 22.3078 223.423 22.3078H223.433ZM238.506 22.3078C238.707 22.3105 238.907 22.3354 239.103 22.3819C239.535 22.4877 239.731 22.8264 239.762 23.5038C239.793 24.1812 239.762 24.6998 239.762 27.801V31.315C239.762 33.2201 239.762 34.7972 239.669 35.6333C239.587 36.2155 239.474 36.6917 239.082 36.7552C238.914 36.7683 238.746 36.7683 238.578 36.7552C238.403 36.7552 238.372 36.8188 238.372 36.8717C238.372 36.9246 238.465 37.0304 238.681 37.0304C239.257 37.0304 240.483 37.0304 240.575 37.0304C240.668 37.0304 241.914 37.0304 242.974 37.0304C243.19 37.0304 243.273 37.0304 243.273 36.8717C243.273 36.7129 243.211 36.7552 243.036 36.7552C242.861 36.7552 242.511 36.7552 242.243 36.6812C241.667 36.5965 241.543 36.1625 241.492 35.6227C241.389 34.7866 241.389 33.2095 241.389 31.3044V27.801C241.389 24.6998 241.389 24.1388 241.389 23.5038C241.389 22.8687 241.584 22.4454 242.109 22.3713C242.268 22.3343 242.43 22.3131 242.593 22.3078C242.665 22.3078 242.748 22.3078 242.748 22.1914C242.748 22.0749 242.645 22.0326 242.439 22.0326C241.852 22.0326 240.637 22.0855 240.534 22.0855C240.431 22.0855 239.216 22.0326 238.578 22.0326C238.362 22.0326 238.269 22.0326 238.269 22.1914C238.269 22.3501 238.413 22.3078 238.496 22.3078H238.506ZM207.424 29.3145C207.378 30.4137 207.563 31.5102 207.966 32.5293C208.37 33.5484 208.982 34.4663 209.761 35.2205C211.548 36.7517 213.844 37.5105 216.165 37.3374C217.341 37.3741 218.515 37.2206 219.644 36.8823C219.995 36.7235 220.036 36.6812 220.149 36.3001C220.345 35.46 220.489 34.6081 220.581 33.7493C220.581 33.5906 220.581 33.453 220.448 33.453C220.314 33.453 220.283 33.5271 220.252 33.7493C220.149 34.3593 219.902 34.9337 219.531 35.4216C219.065 35.8131 218.526 36.1032 217.947 36.2742C217.368 36.4452 216.762 36.4936 216.165 36.4166C215.237 36.4166 214.319 36.2274 213.464 35.8597C212.608 35.4921 211.832 34.9534 211.181 34.2749C210.53 33.5965 210.016 32.7918 209.67 31.9076C209.323 31.0233 209.151 30.0772 209.164 29.124C209.078 28.1796 209.19 27.2271 209.491 26.3308C209.793 25.4344 210.278 24.6148 210.914 23.9272C211.583 23.2498 212.788 22.4771 215.362 22.4771C216.739 22.4216 218.099 22.8182 219.243 23.6096C219.507 23.8728 219.716 24.189 219.855 24.5386C219.995 24.8883 220.064 25.2638 220.056 25.6418C220.056 25.917 220.056 26.0652 220.211 26.0652C220.365 26.0652 220.365 25.9382 220.386 25.6418C220.406 25.3455 220.386 24.2447 220.448 23.5885C220.509 22.9322 220.54 22.6359 220.54 22.53C220.54 22.4242 220.54 22.3289 220.365 22.3078C219.644 22.2125 219.047 22.149 218.306 22.0114C217.378 21.8488 216.437 21.7674 215.495 21.768C212.51 21.768 210.739 22.71 209.586 23.8848C208.211 25.341 207.433 27.2851 207.413 29.3145H207.424ZM161.526 36.7235C161.454 36.7235 161.393 36.787 161.393 36.8717C161.393 36.9563 161.609 36.9881 161.979 37.0093C163.307 37.0093 164.728 37.0093 165.068 37.0093C165.408 37.0093 165.459 37.0093 165.459 36.8505C165.459 36.6917 165.356 36.7341 165.243 36.7341C164.988 36.7327 164.735 36.6934 164.491 36.6177C164.08 36.5012 163.524 36.1731 162.824 34.4055C161.64 31.3785 158.592 23.1439 158.304 22.3925C158.016 21.641 157.995 21.6727 157.882 21.6727C157.768 21.6727 157.686 21.7892 157.449 22.456L152.991 34.8924C152.641 35.9508 152.26 36.6494 151.365 36.7658C151.21 36.7754 151.056 36.7754 150.901 36.7658C150.726 36.7658 150.634 36.7658 150.634 36.8823C150.634 36.9987 150.747 37.041 150.994 37.041C151.91 37.041 152.971 37.041 153.187 37.041C153.403 37.041 154.217 37.041 154.639 37.041C154.814 37.041 154.989 37.041 154.989 36.8823C154.989 36.7235 154.927 36.7658 154.742 36.7658H154.567C154.237 36.7658 153.867 36.5859 153.867 36.1943C153.884 35.7342 153.974 35.2802 154.134 34.8501L155.298 31.3255C155.31 31.2816 155.336 31.2427 155.371 31.2143C155.406 31.1858 155.449 31.1693 155.493 31.1668H159.611C159.65 31.165 159.688 31.1766 159.72 31.1995C159.752 31.2225 159.775 31.2557 159.786 31.2938L161.588 36.1943C161.753 36.5541 161.64 36.7341 161.516 36.7658L161.526 36.7235ZM159.467 30.4576H155.709C155.648 30.4576 155.606 30.4576 155.648 30.3095L157.357 24.9327C157.449 24.6363 157.542 24.6363 157.645 24.9327L159.488 30.3095C159.508 30.4365 159.508 30.5 159.405 30.5L159.467 30.4576ZM173.171 67.1426C172.963 67.1414 172.756 67.1201 172.553 67.0791C172.131 66.9838 172.069 66.7933 171.997 66.317C171.925 65.8407 171.935 64.5494 171.935 63.2581V60.7603C171.935 58.5588 171.935 58.1777 171.935 57.7226C171.935 57.2675 172.007 56.9923 172.481 56.9288H172.779C172.903 56.9288 172.954 56.9288 172.954 56.8123C172.954 56.6959 172.872 56.6959 172.707 56.6959C172.254 56.6959 171.317 56.6959 171.245 56.6959C171.173 56.6959 170.278 56.6959 169.773 56.6959C169.598 56.6959 169.536 56.6959 169.536 56.8123C169.536 56.9288 169.598 56.9076 169.711 56.9288C169.835 56.9223 169.958 56.9223 170.082 56.9288C170.422 57.0029 170.525 57.2463 170.556 57.7014C170.586 58.1566 170.556 58.5482 170.556 60.7497V63.2476C170.579 64.2609 170.552 65.2748 170.473 66.2852C170.473 66.6874 170.38 67.0155 170.103 67.0896C169.972 67.1024 169.841 67.1024 169.711 67.0896C169.567 67.0896 169.505 67.0896 169.505 67.2061C169.505 67.3225 169.619 67.3225 169.763 67.3225C170.216 67.3225 171.173 67.3225 171.214 67.3225C171.256 67.3225 172.244 67.3225 173.068 67.3225C173.232 67.3225 173.294 67.3225 173.294 67.2061C173.294 67.0896 173.304 67.1426 173.171 67.1426ZM187.162 67.1426C186.959 67.1351 186.756 67.1139 186.555 67.0791C186.091 67.0155 185.978 66.7086 185.958 65.5761C185.958 62.93 185.906 60.411 185.896 57.7438C185.896 56.5795 185.824 56.4419 185.669 56.4419C185.515 56.4419 185.247 56.6959 184.712 57.3416C183.476 58.781 179.894 63.1735 177.948 65.5443V58.3576C177.948 57.1722 178.092 56.9923 178.473 56.9288H178.843C178.998 56.9288 179.039 56.8547 179.039 56.7912C179.039 56.7277 178.957 56.6959 178.771 56.6959C178.37 56.6959 177.814 56.6959 177.299 56.6959C177.073 56.6959 176.094 56.6959 175.662 56.6959C175.487 56.6959 175.353 56.6959 175.353 56.8123C175.353 56.9288 175.353 56.9076 175.497 56.9288H175.971C176.445 56.9288 176.599 57.077 176.62 58.6222C176.62 61.3636 176.62 64.6129 176.62 66.9097C176.62 67.4601 176.62 67.5659 176.815 67.5659C177.011 67.5659 177.042 67.5659 177.361 67.1955C177.865 66.6663 183.847 59.342 184.568 58.4106C184.568 60.7603 184.568 63.057 184.496 65.3115C184.496 66.3699 184.434 66.9944 183.991 67.1002C183.878 67.1002 183.723 67.1002 183.61 67.1637C183.497 67.2272 183.384 67.2166 183.384 67.2802C183.384 67.3437 183.384 67.3754 183.61 67.3754C184.104 67.3754 184.578 67.3754 184.938 67.3754H187.049C187.203 67.3754 187.275 67.3754 187.275 67.2802C187.275 67.1849 187.337 67.1426 187.162 67.1426ZM166.746 61.7128C165.799 61.2828 164.762 61.1044 163.73 61.1942H163.39C163.338 61.1942 163.328 61.1942 163.328 61.1307V60.7603C163.328 58.5588 163.328 58.1777 163.328 57.7226C163.328 57.2675 163.441 57.0135 163.812 56.9288C163.932 56.9156 164.053 56.9156 164.172 56.9288C164.255 56.9288 164.327 56.9288 164.327 56.8229C164.327 56.7171 164.265 56.6959 164.121 56.6959C163.668 56.6959 162.69 56.6959 162.649 56.6959C162.607 56.6959 161.701 56.6959 161.217 56.6959C161.042 56.6959 160.97 56.6959 160.97 56.8123C160.97 56.9288 161.042 56.9288 161.156 56.9288C161.279 56.9159 161.403 56.9159 161.526 56.9288C161.835 57.0029 161.959 57.2463 162 57.7014C162.041 58.1566 162 58.5482 162 60.7497V63.2476C162.029 64.268 162.001 65.2892 161.918 66.3064C161.918 66.698 161.804 67.0685 161.526 67.1214C161.403 67.1351 161.279 67.1351 161.156 67.1214C161.042 67.1214 160.97 67.1214 160.97 67.2167C160.97 67.3119 161.053 67.3331 161.207 67.3331C161.66 67.3331 162.576 67.3331 162.628 67.3331C163.04 67.3331 164.141 67.4177 164.687 67.4177C165.118 67.4613 165.554 67.4152 165.967 67.2822C166.381 67.1493 166.764 66.9322 167.095 66.6439C167.425 66.3556 167.696 66.0019 167.891 65.6039C168.085 65.2059 168.2 64.7717 168.229 64.3271C168.263 63.7821 168.141 63.2385 167.878 62.7643C167.614 62.29 167.221 61.9059 166.746 61.6599V61.7128ZM164.996 66.9309C164.573 66.9436 164.152 66.8642 163.76 66.698C163.631 66.6272 163.525 66.5197 163.454 66.3883C163.383 66.2569 163.35 66.1072 163.359 65.9571C163.359 65.3115 163.359 64.0625 163.359 62.6972V61.7446C163.359 61.7278 163.365 61.7116 163.377 61.6997C163.389 61.6878 163.404 61.6811 163.421 61.6811C164.319 61.5734 165.227 61.7823 165.995 62.2738C166.34 62.5583 166.614 62.9242 166.794 63.3405C166.973 63.7569 167.052 64.2115 167.024 64.6659C167.058 64.9538 167.03 65.2458 166.941 65.5213C166.853 65.7967 166.707 66.0489 166.514 66.2599C166.32 66.471 166.084 66.6357 165.822 66.7425C165.559 66.8493 165.278 66.8955 164.996 66.8779V66.9309ZM145.62 56.5583C145.62 56.5583 145.527 56.5583 145.311 56.6218C144.926 56.6852 144.537 56.7136 144.148 56.7065H138.825C138.825 56.7065 138.351 56.7065 137.795 56.6218C137.507 56.6218 137.198 56.4419 137.085 56.4419C136.972 56.4419 136.992 56.5054 136.941 56.7065C136.838 57.1616 136.601 58.2624 136.611 58.3576C136.622 58.4529 136.611 58.5058 136.694 58.5058C136.776 58.5058 136.797 58.5058 136.838 58.3788C136.902 58.1973 136.984 58.0234 137.085 57.8602C137.311 57.5109 137.538 57.3416 138.578 57.3204H140.637V63.2687C140.637 64.5177 140.637 65.7243 140.575 66.3276C140.513 66.9309 140.462 67.0896 140.153 67.1426H139.793C139.669 67.1426 139.618 67.2166 139.618 67.259C139.618 67.3013 139.679 67.3754 139.865 67.3754C140.287 67.3754 141.244 67.3754 141.306 67.3754C141.368 67.3754 142.336 67.3754 143.159 67.3754C143.314 67.3754 143.365 67.3754 143.365 67.2484C143.365 67.1214 143.303 67.1426 143.169 67.1426C142.959 67.1443 142.748 67.123 142.541 67.0791C142.13 66.9838 142.099 66.7509 142.047 66.3487C141.985 65.7243 141.975 64.5494 141.975 63.2581V57.3098H143.561C145.198 57.3098 145.414 57.5003 145.476 58.1671C145.476 58.3365 145.476 58.3471 145.476 58.4C145.476 58.4529 145.476 58.6011 145.589 58.6011C145.702 58.6011 145.702 58.6011 145.702 58.4C145.702 58.1989 145.702 57.1616 145.702 56.6959C145.723 56.5583 145.682 56.5583 145.62 56.5583ZM135.324 65.3432C135.252 65.3432 135.211 65.4173 135.18 65.5761C135.046 66.2006 134.933 66.5287 134.449 66.6345C134.043 66.7233 133.628 66.7589 133.214 66.7404C132.813 66.7746 132.409 66.7204 132.03 66.5816C131.69 66.4334 131.608 66.1159 131.577 65.5232C131.577 65.2374 131.577 63.7768 131.577 63.2581V62.041C131.577 61.9775 131.577 61.9245 131.69 61.9245C131.803 61.9245 133.265 61.9245 133.636 61.988C134.254 62.041 134.346 62.2738 134.408 62.4855C134.426 62.619 134.426 62.7542 134.408 62.8877C134.408 63.0041 134.408 63.11 134.511 63.11C134.614 63.11 134.604 63.11 134.624 62.9195C134.645 62.7289 134.624 62.3691 134.686 61.861C134.748 61.353 134.799 61.0672 134.799 60.9825C134.799 60.8979 134.799 60.8767 134.737 60.8767C134.676 60.8767 134.624 60.8767 134.552 61.0143C134.48 61.1519 134.181 61.2471 133.811 61.2683C133.44 61.2895 131.814 61.2683 131.618 61.2683C131.422 61.2683 131.525 61.2048 131.525 61.1096V57.3204C131.525 57.2146 131.525 57.1828 131.608 57.1828H133.451C134.264 57.1828 134.408 57.3521 134.48 57.6908C134.541 57.8611 134.579 58.0392 134.593 58.2201C134.593 58.3365 134.593 58.4106 134.707 58.4106C134.82 58.4106 134.82 58.3047 134.82 58.1566C134.82 57.839 134.82 57.5744 134.82 57.2886C134.82 57.0029 134.954 56.643 134.954 56.5372C134.954 56.4313 134.954 56.4207 134.892 56.4207C134.83 56.4207 134.81 56.4207 134.707 56.4207C134.502 56.4789 134.291 56.5074 134.079 56.5054H130.784C129.878 56.5054 129.435 56.5054 129.116 56.5054C128.951 56.5054 128.869 56.5054 128.869 56.6324C128.869 56.7594 128.972 56.7383 129.085 56.7383C129.215 56.7269 129.346 56.7269 129.476 56.7383C129.94 56.8335 130.053 57.0664 130.084 57.5321C130.115 57.9978 130.084 58.3894 130.084 60.5698V63.0676C130.084 64.3377 130.084 65.0257 130.084 65.5867C130.084 66.6451 129.857 66.8356 129.569 66.9097C129.463 66.9239 129.356 66.9239 129.25 66.9097C129.168 66.9097 129.096 66.9097 129.096 67.0261C129.096 67.1426 129.178 67.1426 129.322 67.1426C129.713 67.1426 130.022 67.1426 130.352 67.1426C130.959 67.1426 131.7 67.1426 132.267 67.1426C132.833 67.1426 133.296 67.1426 134.326 67.1426C134.861 67.1426 134.985 67.1426 135.046 66.7721C135.108 66.4017 135.221 65.4385 135.221 65.3221C135.221 65.2056 135.438 65.2903 135.345 65.2903L135.324 65.3432ZM178.092 54.6743C178.605 55.0282 179.215 55.2026 179.832 55.1718C180.404 55.1814 180.97 55.0511 181.484 54.7916C181.998 54.5322 182.444 54.151 182.787 53.6794C182.859 53.5524 182.848 53.4783 182.787 53.4783C182.725 53.4783 182.715 53.4783 182.612 53.5842C182.339 53.9174 181.993 54.1795 181.603 54.3487C181.213 54.518 180.789 54.5897 180.367 54.5579C179.029 54.5579 178.37 53.9864 178.308 53.4995C178.303 53.4789 178.291 53.461 178.274 53.4492C178.257 53.4374 178.236 53.4327 178.215 53.436C178.029 53.5209 177.869 53.6563 177.752 53.8276C177.719 53.8824 177.698 53.9437 177.69 54.0075C177.715 54.1344 177.766 54.2545 177.838 54.3602C177.911 54.4659 178.004 54.5549 178.112 54.6214L178.092 54.6743ZM158.417 67.1426C158.229 67.1565 158.039 67.1565 157.851 67.1426C157.429 67.1426 157.346 66.7509 157.295 66.3593C157.233 65.756 157.233 64.6658 157.233 63.3005V60.8026C157.233 58.6011 157.233 58.2201 157.233 57.7649C157.233 57.3098 157.336 57.0346 157.768 56.9711C157.878 56.9607 157.988 56.9607 158.098 56.9711C158.221 56.9711 158.273 56.897 158.273 56.8547C158.273 56.8124 158.18 56.7383 158.016 56.7383C157.532 56.7383 156.615 56.7383 156.554 56.7383C156.492 56.7383 155.524 56.7383 154.855 56.7383C154.711 56.7383 154.628 56.7383 154.628 56.8547C154.628 56.9711 154.711 56.9711 154.824 56.9711C154.958 56.9602 155.092 56.9602 155.226 56.9711C155.761 57.0664 155.823 57.2992 155.854 57.7543C155.884 58.2095 155.854 58.5905 155.854 60.7814V61.0884C155.854 61.173 155.854 61.1731 155.761 61.1731H149.934C149.934 61.1731 149.831 61.173 149.831 61.0884V60.7814C149.831 58.5905 149.831 58.2201 149.831 57.7649C149.831 57.3098 149.965 57.0135 150.366 56.9499C150.472 56.9379 150.579 56.9379 150.685 56.9499C150.788 56.9499 150.85 56.9499 150.85 56.8547C150.85 56.7594 150.768 56.7383 150.613 56.7383C150.15 56.7383 149.213 56.7383 149.151 56.7383C148.935 56.7383 148.122 56.7383 147.463 56.7383C147.298 56.7383 147.216 56.7383 147.216 56.8547C147.216 56.9711 147.288 56.9499 147.401 56.9499H147.833C148.307 56.9499 148.42 57.3204 148.451 57.7543C148.482 58.1883 148.451 58.6328 148.451 60.8344V63.3005C148.487 64.3314 148.46 65.3637 148.369 66.3911C148.369 66.7509 148.255 67.0685 147.967 67.1426C147.837 67.1581 147.706 67.1581 147.576 67.1426C147.432 67.1426 147.401 67.2166 147.401 67.259C147.401 67.3013 147.494 67.3754 147.658 67.3754C148.08 67.3754 149.069 67.3754 149.12 67.3754C149.172 67.3754 150.15 67.3754 150.984 67.3754C151.128 67.3754 151.19 67.3754 151.19 67.259C151.19 67.1426 151.118 67.1426 151.004 67.1426C150.809 67.1559 150.613 67.1559 150.417 67.1426C149.995 67.1426 149.913 66.7509 149.862 66.3911C149.781 65.3808 149.753 64.3667 149.779 63.3534V61.8716C149.779 61.7869 149.779 61.7658 149.862 61.7658H155.802C155.815 61.7657 155.828 61.7685 155.84 61.7739C155.852 61.7793 155.863 61.7873 155.871 61.7973C155.88 61.8073 155.887 61.8191 155.891 61.8319C155.895 61.8447 155.896 61.8582 155.895 61.8716V63.3534C155.895 64.7082 155.895 65.756 155.823 66.3593C155.823 66.7404 155.689 67.1002 155.411 67.1531C155.288 67.1693 155.163 67.1693 155.04 67.1531C154.906 67.1531 154.865 67.1531 154.865 67.259C154.865 67.3648 154.948 67.386 155.102 67.386C155.545 67.386 156.482 67.386 156.554 67.386C156.626 67.386 157.583 67.386 158.376 67.386C158.541 67.386 158.623 67.386 158.623 67.2696C158.623 67.1531 158.541 67.1426 158.417 67.1426ZM202.626 66.5922C202.573 66.5998 202.52 66.5881 202.474 66.5591C202.429 66.53 202.395 66.4855 202.379 66.4334C201.185 63.491 198.93 57.6273 198.631 56.9076C198.487 56.5795 198.425 56.4631 198.343 56.4631C198.261 56.4631 198.147 56.5795 197.952 57.077L194.513 66.4122C194.42 66.5604 194.4 66.5922 194.287 66.5922C193.86 66.6036 193.433 66.5824 193.01 66.5287C192.948 66.5287 192.907 66.5287 192.928 66.6663C192.948 66.8039 192.989 67.3754 193.01 68.2962C193.01 68.5079 193.01 68.5608 193.123 68.5608C193.237 68.5608 193.237 68.4444 193.247 68.328C193.247 67.6612 193.545 67.4177 194.276 67.3754C194.647 67.3754 195.049 67.3754 196.109 67.3754H200.958C201.555 67.3754 202.379 67.3754 202.801 67.3754C202.93 67.3663 203.059 67.3853 203.181 67.4313C203.302 67.4773 203.412 67.5491 203.505 67.642C203.597 67.735 203.669 67.847 203.717 67.9707C203.764 68.0944 203.785 68.227 203.779 68.3597C203.779 68.4867 203.779 68.5714 203.913 68.5714C204.047 68.5714 204.026 68.5079 204.026 68.3597C204.041 67.7818 204.093 67.2055 204.181 66.6345C204.181 66.5181 204.181 66.5075 204.098 66.5181C203.608 66.5507 203.117 66.5578 202.626 66.5393V66.5922ZM200.845 66.5922C200.294 66.6463 199.74 66.664 199.187 66.6451H196.984C196.476 66.6616 195.967 66.644 195.46 66.5922C195.46 66.5922 195.378 66.5922 195.378 66.5181C195.446 66.2486 195.54 65.9864 195.656 65.7349L198.034 58.7916C198.034 58.7916 198.034 58.7916 198.117 58.7916C199.146 61.4588 200.176 64.3907 200.927 66.444C200.938 66.5287 200.907 66.5604 200.845 66.571V66.5922ZM231.731 56.6324C231.072 56.6324 230.239 56.6324 229.899 56.6324C229.806 56.6324 228.869 56.6324 228.21 56.6324C228.066 56.6324 227.984 56.6324 227.984 56.7594C227.984 56.8864 228.056 56.8441 228.087 56.8441H228.591C229.044 56.9499 229.168 57.2146 229.209 57.6485C229.25 58.0825 229.209 58.4 229.209 60.6968V63.1946C229.233 64.215 229.205 65.236 229.127 66.2535C229.075 66.6451 228.993 66.9838 228.705 67.0367C228.566 67.0719 228.425 67.0931 228.282 67.1002C228.2 67.1002 228.169 67.1002 228.169 67.1849C228.169 67.2696 228.252 67.3119 228.396 67.3119C228.849 67.3119 229.806 67.3119 229.827 67.3119C229.847 67.3119 230.856 67.3119 231.659 67.3119C231.814 67.3119 231.886 67.3119 231.886 67.1849C231.886 67.0579 231.886 67.1002 231.783 67.1002C231.566 67.0914 231.349 67.0702 231.134 67.0367C230.702 67.0367 230.619 66.6451 230.568 66.2535C230.506 65.6502 230.506 64.4436 230.506 63.1629V57.4051C230.506 57.2886 230.506 57.1722 230.599 57.1405C230.778 57.0775 230.966 57.0488 231.155 57.0558C231.525 57.0227 231.898 57.0759 232.246 57.2115C232.593 57.3471 232.907 57.5616 233.162 57.839C233.404 58.1113 233.59 58.4303 233.71 58.7774C233.831 59.1245 233.882 59.4927 233.863 59.8606C233.87 60.1781 233.814 60.4937 233.697 60.7878C233.58 61.0819 233.406 61.348 233.185 61.5696C232.963 61.7911 232.7 61.9633 232.411 62.0754C232.122 62.1875 231.813 62.237 231.505 62.2209C231.196 62.2209 231.103 62.2209 231.103 62.3585C231.103 62.4961 231.186 62.4537 231.248 62.4537C231.35 62.4636 231.454 62.4636 231.556 62.4537C231.993 62.4943 232.432 62.4432 232.849 62.3037C233.265 62.1642 233.65 61.9392 233.979 61.6422C234.308 61.3453 234.576 60.9826 234.764 60.5763C234.953 60.17 235.06 59.7284 235.077 59.2785C235.089 58.9329 235.032 58.5886 234.91 58.2664C234.788 57.9443 234.603 57.6512 234.367 57.4051C233.612 56.7865 232.65 56.501 231.69 56.6113L231.731 56.6324ZM244.838 61.6811C243.89 61.251 242.853 61.0727 241.821 61.1625H241.481C241.43 61.1625 241.409 61.1625 241.409 61.099V60.7285C241.409 58.527 241.409 58.146 241.409 57.6908C241.409 57.2357 241.564 56.9605 241.945 56.8759H242.295C242.346 56.8759 242.408 56.8759 242.408 56.7912C242.408 56.7065 242.315 56.6642 242.171 56.6642C241.718 56.6642 240.771 56.6642 240.719 56.6642H239.041C238.494 56.676 237.948 56.6191 237.415 56.4948C237.301 56.4948 237.27 56.3996 237.157 56.3996C237.044 56.3996 237.023 56.516 236.992 56.6853C236.962 56.8547 236.684 58.0719 236.673 58.1989C236.663 58.3259 236.673 58.3682 236.735 58.3682C236.797 58.3682 236.848 58.3682 236.9 58.2201C236.965 58.0613 237.044 57.9089 237.137 57.7649C237.363 57.4157 237.754 57.2675 238.65 57.2675H240.071C240.071 57.712 240.071 58.5164 240.071 60.7179V63.2158C240.107 64.2501 240.083 65.2857 239.999 66.317C239.999 66.7192 239.875 67.0155 239.597 67.0685C239.474 67.0822 239.35 67.0822 239.227 67.0685C239.113 67.0685 239.041 67.0685 239.041 67.1849C239.041 67.3013 239.124 67.3013 239.268 67.3013C239.731 67.3013 240.647 67.3013 240.699 67.3013C241.1 67.3013 242.202 67.386 242.758 67.386C243.189 67.4295 243.625 67.3834 244.038 67.2505C244.452 67.1175 244.835 66.9005 245.166 66.6122C245.496 66.3238 245.767 65.9702 245.962 65.5722C246.156 65.1742 246.271 64.74 246.3 64.2954C246.326 63.7533 246.198 63.215 245.931 62.7467C245.664 62.2785 245.27 61.9007 244.796 61.6599L244.838 61.6811ZM243.087 66.8674C242.663 66.8958 242.239 66.8158 241.852 66.6345C241.723 66.5637 241.616 66.4562 241.545 66.3248C241.474 66.1934 241.441 66.0437 241.45 65.8936C241.45 65.248 241.45 64.0625 241.45 62.7183V61.7658C241.45 61.7658 241.45 61.7023 241.522 61.7023C242.417 61.6011 243.319 61.8097 244.086 62.295C244.43 62.574 244.703 62.9343 244.882 63.3453C245.062 63.7562 245.142 64.2057 245.116 64.6553C245.002 66.1476 244.179 66.8462 243.046 66.8462L243.087 66.8674ZM210.09 61.3001C210.498 61.0039 210.831 60.6103 211.058 60.1531C211.286 59.696 211.403 59.1888 211.398 58.6752C211.398 57.9554 210.914 56.5583 208.484 56.5583C207.846 56.5583 207.31 56.5583 206.93 56.5583C206.93 56.5583 205.9 56.5583 205.241 56.5583C205.097 56.5583 204.994 56.5583 204.994 56.6748C204.994 56.7912 205.056 56.7912 205.21 56.7912C205.337 56.7843 205.464 56.7843 205.591 56.7912C206.085 56.8864 206.199 57.1193 206.229 57.5744C206.26 58.0295 206.229 58.4423 206.229 60.6227V63.1205C206.254 64.1409 206.226 65.1619 206.147 66.1794C206.096 66.571 206.003 66.9203 205.725 66.9732C205.629 66.9883 205.532 66.9883 205.437 66.9732C205.22 66.9732 205.21 67.0579 205.21 67.1108C205.21 67.1637 205.293 67.2061 205.437 67.2061C205.972 67.2061 206.394 67.2061 206.899 67.2061C206.96 67.2061 207.352 67.2061 207.805 67.2061C208.258 67.2061 208.546 67.2061 208.834 67.2061C211.305 67.2061 212.52 65.6502 212.52 64.1049C212.438 63.4307 212.158 62.7983 211.716 62.293C211.274 61.7878 210.693 61.4338 210.049 61.2789L210.09 61.3001ZM207.578 57.3098C207.578 57.2251 207.63 57.1934 207.774 57.1616C207.976 57.1082 208.183 57.0798 208.391 57.077C209.771 57.077 210.265 58.3577 210.265 59.5113C210.284 59.9934 210.134 60.4664 209.843 60.8449C209.545 61.1942 209.297 61.2471 208.464 61.2471C208.197 61.2766 207.927 61.2766 207.661 61.2471C207.609 61.2471 207.578 61.2471 207.578 61.0778V57.3098ZM209.308 66.8356C208.9 66.8402 208.494 66.7648 208.114 66.6133C207.63 66.4017 207.64 66.1794 207.588 65.4491C207.588 65.3115 207.588 63.4804 207.588 62.4326V61.7764C207.588 61.7023 207.588 61.6811 207.671 61.6811C208.013 61.6516 208.358 61.6516 208.7 61.6811C209.093 61.7008 209.474 61.8287 209.802 62.0515C210.246 62.3821 210.604 62.8191 210.847 63.3245C211.089 63.8299 211.207 64.3884 211.192 64.9516C211.203 65.2108 211.16 65.4695 211.066 65.7103C210.973 65.9511 210.83 66.1685 210.647 66.3479C210.465 66.5273 210.247 66.6646 210.009 66.7505C209.771 66.8365 209.518 66.8691 209.267 66.8462L209.308 66.8356ZM220.303 56.3996C219.575 56.3713 218.849 56.4929 218.167 56.7574C217.485 57.0218 216.862 57.4237 216.333 57.9395C215.805 58.4552 215.382 59.0743 215.089 59.7605C214.797 60.4467 214.641 61.1861 214.631 61.9351C214.609 62.6876 214.741 63.4364 215.016 64.1338C215.292 64.8312 215.706 65.4619 216.232 65.9857C216.758 66.5095 217.384 66.9149 218.071 67.176C218.758 67.4372 219.49 67.5483 220.221 67.5024C220.974 67.5344 221.726 67.4074 222.429 67.1293C223.133 66.8512 223.774 66.4278 224.312 65.8854C224.85 65.3429 225.275 64.6928 225.559 63.9752C225.844 63.2575 225.982 62.4876 225.966 61.7128C225.925 58.3682 223.474 56.4102 220.262 56.4102L220.303 56.3996ZM220.633 66.9838C217.905 66.9838 216.134 64.8669 216.134 61.5541C216.134 58.2412 217.956 56.9605 220.252 56.9605C222.548 56.9605 224.483 58.8339 224.483 62.1786C224.401 66.3805 221.693 66.9415 220.592 66.9415L220.633 66.9838ZM111.346 22.3078C111.521 22.3078 111.737 22.3078 111.943 22.3713C112.489 22.4877 112.726 22.7417 112.767 23.5038C112.808 24.2659 112.767 24.6575 112.767 27.7375V31.2832C112.767 33.1884 112.767 34.5431 112.695 35.3793C112.623 36.2154 112.479 36.6388 112.036 36.7235H111.603C111.398 36.7235 111.377 36.8293 111.377 36.8823C111.377 36.9352 111.511 36.9987 111.727 36.9987C112.304 36.9987 113.374 36.9987 113.529 36.9987C113.683 36.9987 115.155 36.9987 115.969 36.9987C116.236 36.9987 116.319 36.9987 116.319 36.8823C116.319 36.7658 116.257 36.7447 116.02 36.7235L115.227 36.6494C114.651 36.5436 114.517 36.1096 114.476 35.4322C114.414 34.5961 114.394 33.1989 114.394 31.2832V23.3027C114.394 22.9852 114.496 22.9428 114.723 22.9217C114.949 22.9005 115.485 22.9217 118.326 22.9217C121.168 22.9217 122.249 22.9217 122.537 22.9217C122.554 22.923 122.569 22.9276 122.584 22.9353C122.598 22.9429 122.611 22.9534 122.622 22.9662C122.632 22.979 122.64 22.9938 122.645 23.0098C122.65 23.0258 122.652 23.0426 122.651 23.0593V31.1562C122.651 33.0719 122.651 34.7654 122.578 35.6016C122.506 36.4377 122.228 36.66 121.92 36.7447H121.528C121.261 36.7447 121.24 36.8293 121.24 36.8823C121.24 36.9352 121.24 37.0199 121.549 37.0199C122.146 37.0199 123.258 37.0199 123.423 37.0199C123.587 37.0199 124.998 37.0199 125.904 37.0199C126.079 37.0199 126.161 37.0199 126.161 36.8823C126.161 36.7447 126.161 36.7658 125.904 36.7447C125.652 36.7337 125.401 36.709 125.152 36.6706C124.586 36.5647 124.411 36.2472 124.36 35.4957C124.308 34.7442 124.277 33.1566 124.277 31.262V27.801C124.277 24.6998 124.277 24.1177 124.277 23.4826C124.277 22.6041 124.535 22.4877 125.018 22.4242C125.137 22.3962 125.258 22.375 125.379 22.3607C125.574 22.3607 125.636 22.276 125.636 22.2019C125.636 22.1278 125.636 22.0855 125.348 22.0855C124.916 22.0855 123.443 22.1384 123.351 22.1384H113.59C113.292 22.1384 112.19 22.0855 111.531 22.0855C111.315 22.0855 111.202 22.0855 111.202 22.2019C111.202 22.3184 111.171 22.2866 111.346 22.3078ZM90.4977 37.1257C91.0227 37.1257 91.9493 37.1257 92.1243 37.1257C92.2994 37.1257 93.2672 37.1257 93.9878 37.1257C94.1732 37.1257 94.2761 37.1257 94.2761 36.9564C94.2761 36.787 94.1937 36.8505 94.0805 36.8505C93.8452 36.8528 93.6103 36.8279 93.3804 36.7764C93.2993 36.7661 93.2211 36.7391 93.1504 36.697C93.0797 36.6549 93.018 36.5985 92.969 36.5313C92.92 36.4642 92.8846 36.3875 92.8651 36.3059C92.8456 36.2244 92.8423 36.1396 92.8553 36.0567C92.8553 35.718 92.8553 35.4322 92.8553 35.1147L93.6481 25.7371C93.8643 26.2769 96.0881 31.1985 96.2631 31.5478C96.4382 31.8971 98.034 35.1994 98.5384 36.1731C98.8988 36.8928 99.0017 37.0939 99.1356 37.0939C99.2694 37.0939 99.3724 36.914 99.7739 36.0355L104.582 25.5571L105.509 35.9508C105.509 36.3107 105.57 36.6177 105.436 36.6706C105.303 36.7235 105.303 36.7341 105.303 36.8082C105.303 36.8823 105.395 36.9669 105.838 37.0093C106.559 37.0728 108.762 37.1257 109.194 37.1257C109.421 37.1257 109.483 37.1257 109.483 36.9669C109.483 36.8082 109.369 36.8505 109.266 36.8505C108.862 36.8554 108.459 36.7947 108.072 36.6706C107.238 36.3954 107.104 35.2735 107.043 34.5537L105.766 22.2866C105.766 21.9056 105.663 21.7468 105.529 21.7468C105.395 21.7468 105.323 21.8844 105.241 22.0643L99.5474 34.5749L93.6172 22.0432C93.5142 21.8315 93.4422 21.7468 93.3289 21.7468C93.2157 21.7468 93.1333 21.9267 93.1127 22.149L91.7125 35.0935C91.6199 35.9085 91.5787 36.6282 90.9404 36.7552C90.7487 36.7759 90.5555 36.7759 90.3638 36.7552C90.2609 36.7552 90.1682 36.7552 90.1682 36.8717C90.1682 36.9881 90.302 37.0834 90.4977 37.0834V37.1257ZM145.126 29.9813C144.714 29.9813 144.601 29.9813 144.601 30.1613C144.601 30.3412 144.714 30.2989 144.817 30.2989C144.95 30.3094 145.085 30.3094 145.218 30.2989C145.823 30.3437 146.431 30.2607 147.004 30.0551C147.577 29.8494 148.103 29.5255 148.549 29.1031C148.996 28.6808 149.353 28.169 149.6 27.5992C149.847 27.0294 149.978 26.4137 149.985 25.79C150.001 25.3116 149.923 24.8347 149.757 24.3876C149.591 23.9404 149.339 23.532 149.017 23.1863C148.708 22.8899 147.833 22.0538 145.414 22.0538C144.528 22.0538 143.355 22.1067 142.974 22.1067C142.819 22.1067 141.656 22.0538 140.781 22.0538C140.575 22.0538 140.472 22.0538 140.472 22.2125C140.472 22.3713 140.554 22.329 140.626 22.329C140.848 22.3281 141.068 22.3494 141.285 22.3925C141.924 22.53 142.078 22.8476 142.119 23.525C142.161 24.2024 142.119 24.721 142.119 27.8222V31.3361C142.119 33.2413 142.119 34.8183 142.027 35.6545C141.944 36.2366 141.852 36.7129 141.46 36.7129C141.27 36.7525 141.078 36.7773 140.884 36.787C140.76 36.787 140.719 36.8505 140.719 36.9034C140.719 36.9563 140.822 37.0622 141.038 37.0622C141.615 37.0622 142.84 37.0622 142.891 37.0622C142.943 37.0622 144.209 37.0622 145.28 37.0622C145.496 37.0622 145.589 37.0622 145.589 36.9034C145.589 36.7447 145.589 36.787 145.434 36.787C145.28 36.787 144.827 36.787 144.559 36.7129C143.983 36.6282 143.859 36.1943 143.808 35.6545C143.705 34.8183 143.705 33.2413 143.705 31.3361V23.1228C143.705 22.9217 143.705 22.7841 143.859 22.7417C144.129 22.6554 144.411 22.616 144.693 22.6253C145.18 22.5818 145.67 22.6483 146.129 22.8202C146.587 22.9921 147.004 23.2651 147.349 23.6202C148.07 24.4063 148.461 25.4513 148.441 26.5309C148.458 26.9832 148.384 27.4344 148.224 27.856C148.063 28.2776 147.82 28.6604 147.508 28.9806C147.197 29.3007 146.825 29.5511 146.415 29.716C146.004 29.881 145.566 29.9569 145.126 29.939V29.9813ZM130.938 34.8818C130.938 36.3742 130.65 36.6494 130.238 36.7552C130.091 36.7641 129.943 36.7641 129.796 36.7552C129.682 36.7552 129.579 36.8188 129.579 36.8717C129.579 36.9246 129.682 37.0304 129.899 37.0304C130.393 37.0304 130.866 37.0304 131.33 37.0304C132.081 37.0304 132.977 37.0304 133.749 37.0304C134.521 37.0304 135.149 37.0939 136.58 37.0939C137.332 37.0939 137.486 37.0939 137.61 36.5753C137.733 36.0567 137.857 34.8078 137.857 34.649C137.857 34.4902 137.857 34.342 137.744 34.342C137.63 34.342 137.61 34.4267 137.569 34.649C137.414 35.5063 137.198 35.9191 136.539 36.1202C135.966 36.2617 135.378 36.3223 134.789 36.3001C134.247 36.3354 133.704 36.2745 133.183 36.1202C132.699 35.9191 132.586 35.4851 132.545 34.6596C132.545 34.2468 132.545 31.9394 132.545 31.262V29.558C132.543 29.5395 132.545 29.5209 132.551 29.5035C132.558 29.486 132.567 29.4702 132.58 29.4571C132.593 29.444 132.608 29.4339 132.625 29.4276C132.642 29.4212 132.66 29.4188 132.678 29.4204C133.008 29.4204 134.933 29.4204 135.448 29.5156C136.148 29.6003 136.385 29.8755 136.477 30.1719C136.535 30.3529 136.563 30.5424 136.56 30.7328C136.56 30.8916 136.56 31.0504 136.694 31.0504C136.827 31.0504 136.807 30.9551 136.827 30.754C136.848 30.5529 136.827 30.0131 136.91 29.3992C136.992 28.7853 137.064 28.4043 137.064 28.3408C137.064 28.2773 137.064 28.182 136.961 28.182C136.858 28.182 136.827 28.2561 136.735 28.3725C136.642 28.489 136.282 28.6795 135.767 28.7112C135.252 28.743 132.936 28.7112 132.678 28.7112C132.586 28.7112 132.565 28.6477 132.565 28.5101V23.0063C132.565 22.8687 132.565 22.8052 132.678 22.8052C132.792 22.8052 135.005 22.8052 135.335 22.8687C136.189 22.9428 136.591 23.1439 136.735 23.5991C136.798 23.8118 136.829 24.033 136.827 24.2553C136.827 24.414 136.827 24.5199 136.982 24.5199C137.136 24.5199 137.116 24.3823 137.136 24.1812C137.136 23.6626 137.198 23.2815 137.219 22.9852C137.219 22.4242 137.373 22.1914 137.373 22.0432C137.373 21.895 137.373 21.8632 137.291 21.8632C137.216 21.8735 137.146 21.9026 137.085 21.9479C136.793 22.0289 136.491 22.0681 136.189 22.0643C135.746 22.0643 131.886 22.0643 131.752 22.0643C130.527 22.0114 130.012 22.0114 129.559 22.0114C129.353 22.0114 129.25 22.0114 129.25 22.1702C129.25 22.329 129.363 22.2654 129.507 22.2866C129.694 22.2948 129.88 22.316 130.063 22.3501C130.702 22.4877 130.856 22.8052 130.897 23.4826C130.938 24.16 130.897 24.6786 130.897 27.7798V31.2938C130.98 33.0825 130.959 34.0986 130.938 34.8818ZM173.304 22.9217C175.168 22.9217 175.631 23.4191 175.683 23.9801C175.683 24.0542 175.683 24.1177 175.683 24.1918C175.683 24.4775 175.744 24.5305 175.837 24.5305C175.93 24.5305 175.981 24.4564 175.981 24.2764C175.981 24.0965 176.033 22.6782 176.033 22.0855C176.033 21.9691 176.033 21.8421 175.94 21.8421C175.847 21.8421 175.683 21.9056 175.394 21.9479C174.938 22.0181 174.476 22.0499 174.015 22.0432H166.808C166.571 22.0432 165.84 22.0432 165.274 21.9479C164.98 21.903 164.693 21.8213 164.419 21.7045C164.347 21.7045 164.265 21.9691 164.224 22.0855C164.183 22.2019 163.802 23.9589 163.802 24.2024C163.802 24.4458 163.802 24.3823 163.894 24.3823C163.987 24.3823 164.038 24.3823 164.09 24.1812C164.179 23.9623 164.29 23.7532 164.419 23.5567C164.728 23.0804 165.192 22.9428 166.396 22.9217H169.269V31.389C169.269 33.2942 169.269 34.8713 169.166 35.7074C169.094 36.2895 168.991 36.7658 168.61 36.7658C168.416 36.8061 168.22 36.8309 168.023 36.8399C167.91 36.8399 167.868 36.9034 167.868 36.9564C167.868 37.0093 167.971 37.1151 168.177 37.1151C168.764 37.1151 169.979 37.1151 170.082 37.1151C170.185 37.1151 171.4 37.1151 172.46 37.1151C172.676 37.1151 172.769 37.1151 172.769 36.9564C172.769 36.7976 172.769 36.8399 172.615 36.8399C172.46 36.8399 172.017 36.8399 171.75 36.7658C171.163 36.6812 171.05 36.2472 170.988 35.7074C170.895 34.8713 170.895 33.2942 170.895 31.389V22.9217H173.304ZM200.165 29.939C199.754 29.939 199.64 29.939 199.64 30.1189C199.64 30.2989 199.754 30.2565 199.857 30.2565C199.99 30.2671 200.124 30.2671 200.258 30.2565C200.863 30.2998 201.47 30.2157 202.042 30.0095C202.614 29.8033 203.14 29.4793 203.586 29.0572C204.032 28.6352 204.39 28.124 204.637 27.5549C204.885 26.9859 205.017 26.3709 205.025 25.7477C205.041 25.2692 204.963 24.7924 204.797 24.3452C204.631 23.8981 204.379 23.4896 204.057 23.1439C203.748 22.8476 202.873 22.0114 200.454 22.0114C199.568 22.0114 198.395 22.0643 198.014 22.0643C197.859 22.0643 196.696 22.0114 195.821 22.0114C195.604 22.0114 195.512 22.0114 195.512 22.1702C195.512 22.329 195.594 22.2866 195.666 22.2866C195.887 22.2858 196.108 22.307 196.325 22.3501C196.963 22.4877 197.118 22.8052 197.159 23.4826C197.2 24.16 197.159 24.6786 197.159 27.7798V31.2938C197.159 33.1989 197.159 34.776 197.056 35.6121C196.984 36.1943 196.891 36.6706 196.5 36.6706C196.307 36.7109 196.111 36.7356 195.913 36.7447C195.8 36.7447 195.759 36.8082 195.759 36.8611C195.759 36.914 195.862 37.0199 196.068 37.0199C196.655 37.0199 197.88 37.0199 197.931 37.0199C197.983 37.0199 199.249 37.0199 200.32 37.0199C200.526 37.0199 200.629 36.9669 200.629 36.8611C200.629 36.8611 200.629 36.7447 200.474 36.7447C200.32 36.7447 199.867 36.7447 199.599 36.6706C199.023 36.5859 198.899 36.1519 198.848 35.6121C198.745 34.776 198.745 33.1989 198.745 31.2938V23.1228C198.745 22.9217 198.745 22.7841 198.899 22.7417C199.169 22.6554 199.451 22.616 199.733 22.6253C200.219 22.5825 200.709 22.6494 201.168 22.8212C201.627 22.9931 202.044 23.2657 202.389 23.6202C203.09 24.4145 203.459 25.4595 203.419 26.5309C203.436 26.9796 203.363 27.4271 203.205 27.8457C203.047 28.2643 202.807 28.6451 202.5 28.9646C202.194 29.2841 201.826 29.5354 201.421 29.703C201.016 29.8706 200.581 29.9509 200.145 29.939H200.165ZM126.625 67.1426C126.433 67.1562 126.24 67.1562 126.048 67.1426C125.636 67.1426 125.554 66.7509 125.502 66.3593C125.441 65.756 125.441 64.6658 125.441 63.3005V60.8026C125.441 58.6011 125.441 58.2201 125.441 57.7649C125.441 57.3098 125.544 57.0346 125.976 56.9711C126.086 56.9607 126.196 56.9607 126.305 56.9711C126.429 56.9711 126.48 56.897 126.48 56.8547C126.48 56.8124 126.388 56.7383 126.223 56.7383C125.739 56.7383 124.823 56.7383 124.761 56.7383C124.699 56.7383 123.732 56.7383 123.062 56.7383C122.908 56.7383 122.836 56.7383 122.836 56.8547C122.836 56.9711 122.908 56.9711 123.031 56.9711C123.165 56.9602 123.299 56.9602 123.433 56.9711C123.968 57.0664 124.03 57.2992 124.061 57.7543C124.092 58.2095 124.061 58.5905 124.061 60.7814V61.0884C124.061 61.173 124.061 61.1731 123.968 61.1731H118.1C118.048 61.1731 117.997 61.173 117.997 61.0884V60.7814C117.997 58.5905 117.997 58.2201 117.997 57.7649C117.997 57.3098 118.131 57.0135 118.532 56.9499C118.638 56.9379 118.745 56.9379 118.851 56.9499C118.954 56.9499 119.016 56.9499 119.016 56.8547C119.016 56.7594 118.934 56.7383 118.769 56.7383C118.316 56.7383 117.379 56.7383 117.317 56.7383C117.256 56.7383 116.288 56.7383 115.629 56.7383C115.464 56.7383 115.382 56.7383 115.382 56.8547C115.382 56.9711 115.454 56.9499 115.567 56.9499H116C116.473 56.9499 116.586 57.3204 116.617 57.7543C116.648 58.1883 116.617 58.6328 116.617 60.8344V63.3005C116.698 64.2967 116.718 65.297 116.679 66.2958C116.679 66.6557 116.566 66.9732 116.278 67.0473C116.148 67.0629 116.016 67.0629 115.886 67.0473C115.742 67.0473 115.711 67.1214 115.711 67.1637C115.711 67.2061 115.804 67.2802 115.969 67.2802C116.391 67.2802 117.379 67.2802 117.431 67.2802C117.482 67.2802 118.46 67.2802 119.294 67.2802C119.438 67.2802 119.5 67.2802 119.5 67.1637C119.5 67.0473 119.418 67.0473 119.304 67.0473C119.113 67.0602 118.92 67.0602 118.728 67.0473C118.306 67.0473 118.223 66.6557 118.172 66.2958C118.091 65.2855 118.064 64.2715 118.09 63.2581V61.7764C118.09 61.6917 118.09 61.6705 118.172 61.6705H124.061C124.074 61.6704 124.087 61.6732 124.099 61.6786C124.111 61.6841 124.122 61.692 124.13 61.702C124.139 61.712 124.146 61.7238 124.15 61.7366C124.154 61.7494 124.155 61.763 124.154 61.7764V63.2581C124.154 64.6129 124.154 65.6608 124.082 66.2641C124.082 66.6451 123.948 67.005 123.67 67.0579C123.547 67.074 123.422 67.074 123.299 67.0579C123.165 67.0579 123.124 67.0579 123.124 67.1637C123.124 67.2696 123.206 67.2907 123.361 67.2907C123.804 67.2907 124.741 67.2907 124.802 67.2907C124.864 67.2907 125.832 67.2907 126.635 67.2907C126.8 67.2907 126.882 67.2907 126.882 67.1743C126.882 67.0579 126.748 67.1426 126.625 67.1426ZM177.526 29.5368C177.526 33.1249 179.739 37.3691 185.052 37.3691C186.089 37.3874 187.118 37.1875 188.077 36.7818C189.036 36.3761 189.904 35.7731 190.629 35.0098C191.353 34.2466 191.917 33.3392 192.288 32.3434C192.659 31.3476 192.827 30.2845 192.784 29.2193C192.784 24.5728 189.52 21.7468 185.165 21.7468C184.162 21.7284 183.166 21.9168 182.235 22.301C181.304 22.6851 180.457 23.2572 179.745 23.9834C179.033 24.7096 178.47 25.5752 178.088 26.5291C177.707 27.4829 177.516 28.5056 177.526 29.5368ZM190.91 29.7802C190.91 35.5698 187.306 36.6071 185.556 36.6071C182.076 36.6071 179.379 33.6223 179.379 28.9758C179.379 24.6151 181.798 22.4242 185.041 22.4242C188.089 22.4242 190.92 24.9962 190.92 29.7802H190.91ZM160.723 46.6197L161.66 45.6566L73.438 46.1752L72.6041 45.3179L71.3789 46.6197L72.6453 47.9216L73.4895 47.0537L161.66 47.5829L160.723 46.6197ZM100.927 67.1426C100.646 67.1316 100.367 67.0926 100.093 67.0261C99.465 66.8779 99.3621 65.9677 99.3209 65.5443L98.2914 56.8759C98.2914 56.6113 98.2193 56.4631 98.1266 56.4631C98.034 56.4631 97.9619 56.5583 97.8795 56.7383L93.7613 65.375L89.4166 56.7277C89.3034 56.5054 89.2622 56.4631 89.1798 56.4631C89.0975 56.4631 89.0254 56.5901 88.9945 56.8759L87.9135 66.0312C87.8311 66.698 87.687 67.0896 87.2958 67.0896H86.9869C86.8428 67.0896 86.781 67.1637 86.781 67.1955C86.781 67.2272 86.8736 67.3225 87.0178 67.3225C87.4193 67.3225 88.1091 67.3225 88.2635 67.3225C88.418 67.3225 89.0975 67.3225 89.6122 67.3225C89.7976 67.3225 89.8902 67.3225 89.8902 67.1955C89.8902 67.0685 89.8902 67.1108 89.7255 67.0896C89.5747 67.0996 89.4233 67.0996 89.2725 67.0896C89.1561 67.0714 89.0505 67.0093 88.9763 66.9153C88.9021 66.8214 88.8645 66.7024 88.871 66.5816C88.871 66.3382 88.871 66.19 88.871 65.9465L89.4784 59.5325C89.602 59.8818 91.1978 63.1205 91.2904 63.3216C91.3831 63.5228 92.6803 66.0841 92.9995 66.571C93.3186 67.0579 93.3907 67.2907 93.4834 67.2907C93.576 67.2907 93.679 67.1426 93.9878 66.4969L97.4265 59.3208L98.1369 66.4546C98.1369 66.698 98.1369 66.8885 98.0443 66.9309C97.9516 66.9732 97.8898 67.0261 97.8898 67.0791C97.8898 67.132 98.0237 67.1955 98.384 67.2272C98.7444 67.259 100.649 67.3225 100.948 67.3225C101.246 67.3225 101.184 67.3225 101.184 67.1955C101.184 67.0685 100.989 67.1426 100.927 67.1426ZM107.794 56.4631C107.066 56.4348 106.34 56.5564 105.658 56.8209C104.976 57.0853 104.353 57.4872 103.824 58.003C103.295 58.5187 102.873 59.1379 102.58 59.824C102.288 60.5102 102.132 61.2496 102.121 61.9986C102.1 62.7511 102.231 63.4999 102.507 64.1973C102.783 64.8947 103.197 65.5254 103.723 66.0492C104.249 66.573 104.875 66.9784 105.562 67.2395C106.249 67.5007 106.981 67.6118 107.712 67.5659C108.465 67.5979 109.216 67.4709 109.92 67.1928C110.624 66.9147 111.264 66.4913 111.803 65.9489C112.341 65.4064 112.765 64.7563 113.05 64.0387C113.334 63.321 113.473 62.5511 113.457 61.7764C113.457 58.3682 111.006 56.4102 107.794 56.4102V56.4631ZM108.124 67.0473C105.395 67.0473 103.624 64.9305 103.624 61.6176C103.624 58.3047 105.447 57.024 107.743 57.024C110.039 57.024 111.974 58.8974 111.974 62.2421C111.933 66.3805 109.205 66.9415 108.124 66.9415V67.0473ZM72.3364 22.3078C72.4908 22.3078 72.707 22.3078 72.9541 22.3713C73.5821 22.4877 73.7881 22.6253 73.8086 24.8162C73.8704 28.6371 73.8086 33.1249 73.8086 36.406C73.8086 37.2104 73.8704 37.3691 74.066 37.3691C74.2616 37.3691 74.3749 37.2633 74.7764 36.8082C75.5898 35.8979 83.6923 25.5783 84.7013 24.2764C84.7013 27.6846 84.7013 31.008 84.6189 34.2785C84.6189 35.7709 84.5263 36.6071 83.96 36.7341L83.4041 36.8082C83.1467 36.8082 83.1158 36.8717 83.1158 36.9669C83.1158 37.0622 83.1158 37.0834 83.4041 37.0834C84.1042 37.0834 84.7219 37.0834 85.144 37.0834C85.5661 37.0834 87.2031 37.0834 87.862 37.0834C88.0679 37.0834 88.1503 37.0834 88.1503 36.9458C88.1503 36.8082 88.0885 36.8293 87.862 36.8082C87.6355 36.787 87.2031 36.8082 87.1001 36.7341C86.4824 36.6282 86.328 36.0884 86.3074 34.6172C86.2456 30.8916 86.2456 27.3459 86.2456 23.6202C86.2456 21.8844 86.153 21.7256 85.9573 21.7256C85.7617 21.7256 85.422 22.0432 84.7013 22.9428C82.7966 25.3349 77.8033 31.7066 75.4353 34.7125V24.3823C75.4353 22.6888 75.6104 22.4665 76.156 22.3501C76.3222 22.3147 76.4909 22.2935 76.6605 22.2866C76.8664 22.2866 76.9076 22.2019 76.9076 22.1278C76.9076 22.0538 76.8149 22.0114 76.5781 22.0114C76.0428 22.0114 75.2603 22.0643 74.6426 22.0643C74.3337 22.0643 73.1086 22.0114 72.5114 22.0114C72.2952 22.0114 72.1202 22.0114 72.1202 22.149C72.1202 22.2866 72.182 22.2866 72.3364 22.3078ZM260.651 45.3179L259.828 46.1646L170.216 45.6566L171.153 46.6197L170.216 47.5829L259.787 47.0325L260.621 47.9004L261.887 46.5986L260.651 45.3179ZM163.009 46.6197L165.953 49.6468L168.908 46.6197L165.953 43.5927L163.009 46.6197Z" fill="#231F20"/>
</svg>
