<svg width="5" height="19" viewBox="0 0 5 19" fill="none" xmlns="http://www.w3.org/2000/svg">
<path d="M2.53731 4.81146C1.8408 4.81146 1.24378 4.58903 0.746268 4.14418C0.248756 3.67591 0 3.09057 0 2.38817C0 1.70918 0.248756 1.14726 0.746268 0.702402C1.24378 0.234134 1.8408 0 2.53731 0C3.23383 0 3.81841 0.222428 4.29104 0.667283C4.76368 1.11214 5 1.68577 5 2.38817C5 3.09057 4.75124 3.67591 4.25373 4.14418C3.78109 4.58903 3.20896 4.81146 2.53731 4.81146ZM2.53731 19C1.8408 19 1.24378 18.7776 0.746268 18.3327C0.248756 17.8644 0 17.2791 0 16.5767C0 15.8977 0.248756 15.3358 0.746268 14.8909C1.24378 14.4227 1.8408 14.1885 2.53731 14.1885C3.23383 14.1885 3.81841 14.411 4.29104 14.8558C4.76368 15.3007 5 15.8743 5 16.5767C5 17.2791 4.75124 17.8644 4.25373 18.3327C3.78109 18.7776 3.20896 19 2.53731 19Z" fill="black"/>
</svg>
