<svg width="149" height="106" viewBox="0 0 149 106" fill="none" xmlns="http://www.w3.org/2000/svg">
<path d="M33.0414 0.240234C14.8213 0.240234 0 15.0615 0 33.2819C0 50.8588 13.7937 65.2752 31.1249 66.2712C31.425 69.511 31.1999 78.3302 22.749 90.5983C22.1102 91.5237 22.2261 92.7718 23.0196 93.5652C26.4778 97.0234 28.615 99.2014 30.1108 100.725C32.0685 102.716 32.9621 103.626 34.2693 104.813C34.7126 105.215 35.2718 105.417 35.8336 105.417C36.379 105.417 36.9224 105.226 37.3613 104.847C52.0871 92.0329 68.4455 65.5572 66.0787 33.1136C64.6918 14.0658 50.7981 0.240234 33.0414 0.240234ZM35.8562 99.9084C35.222 99.2833 34.4989 98.5467 33.4326 97.462C32.1367 96.1413 30.3587 94.3314 27.6623 91.6259C37.9184 75.8223 35.9812 64.5661 35.1333 62.9518C34.7307 62.1856 33.9054 61.6694 33.0414 61.6694C17.3904 61.6694 4.65625 48.9353 4.65625 33.2819C4.65625 17.6306 17.3904 4.89648 33.0414 4.89648C48.2881 4.89648 60.2288 16.9054 61.436 33.45C64.0961 69.9408 42.4087 93.6334 35.8562 99.9084Z" fill="#A87F45"/>
<path d="M148.392 33.1136V33.1113C147 14.0658 133.105 0.240234 115.353 0.240234C97.1322 0.240234 82.3086 15.0615 82.3086 33.2819C82.3086 50.8588 96.1046 65.2752 113.438 66.2712C113.738 69.5087 113.511 78.3232 105.058 90.5983C104.419 91.5237 104.535 92.7718 105.328 93.5652C108.773 97.0097 110.905 99.1832 112.401 100.704C114.368 102.709 115.266 103.623 116.58 104.815C117.023 105.215 117.585 105.417 118.144 105.417C118.69 105.417 119.234 105.226 119.672 104.844C134.398 92.0305 150.756 65.5551 148.392 33.1136ZM118.167 99.9084C117.528 99.2787 116.799 98.5376 115.723 97.4418C114.427 96.1229 112.656 94.3179 109.971 91.6259C120.227 75.82 118.292 64.5661 117.446 62.9518C117.044 62.1879 116.217 61.6694 115.353 61.6694C99.699 61.6694 86.9648 48.9353 86.9648 33.2819C86.9648 17.6306 99.699 4.89648 115.353 4.89648C130.597 4.89648 142.54 16.9054 143.749 33.4523V33.45C146.407 69.9361 124.72 93.6334 118.167 99.9084Z" fill="#A87F45"/>
</svg>
