<svg width="80" height="80" viewBox="0 0 80 80" fill="none" xmlns="http://www.w3.org/2000/svg">
<path d="M65.7312 10.4849C37.9367 14.8187 37.5953 1.16352 17.5423 4.53837C-5.03 8.33696 -3.49438 45.2563 9.07062 60.4398C31.0964 87.0554 75.9287 79.8909 70.4534 37.2199C69.7198 31.5026 73.879 28.4234 77.8029 25.012C82.7312 20.7273 79.6445 8.31556 65.7312 10.4849Z" fill="url(#paint0_linear_1932_23373)"/>
<path opacity="0.1" d="M75.0811 68.9416L64.3613 50.3744C63.9545 49.6699 63.1113 49.3756 62.3705 49.6342L59.2116 44.1628C66.1684 39.0059 68.302 29.338 63.8681 21.6583C59.0975 13.3953 48.5316 10.5641 40.2686 15.3348C40.1656 15.3942 40.0642 15.4553 39.9631 15.5164C37.1316 12.2834 32.9758 10.2383 28.3508 10.2383C22.5316 10.2383 17.455 13.4756 14.8255 18.2434H7.70391C6.92422 18.2434 6.29297 18.8763 6.29297 19.6559V63.1591C6.29297 63.9388 6.92422 64.57 7.70391 64.57H22.1447C22.1003 64.8306 22.0759 65.098 22.0759 65.3713C22.0759 67.9927 24.2011 70.1177 26.8223 70.1177C29.4438 70.1177 31.5688 67.9927 31.5688 65.3713C31.5688 65.098 31.5444 64.8306 31.5 64.57H52.0539C52.8336 64.57 53.4664 63.9388 53.4664 63.1591V46.9633C54.2417 46.7506 55.0089 46.4808 55.7628 46.1538L58.9217 51.6252C58.3274 52.1375 58.1605 53.0149 58.5674 53.7194L69.2872 72.2866C69.7475 73.0838 70.7667 73.3569 71.5641 72.8967L74.4713 71.2183C75.2683 70.7581 75.5414 69.7388 75.0811 68.9416Z" fill="#231F20"/>
<path d="M53.4664 15.9066V59.4098C53.4664 60.1895 52.8336 60.8207 52.0539 60.8207H7.70391C6.92422 60.8207 6.29297 60.1895 6.29297 59.4098V15.9066C6.29297 15.127 6.92422 14.4941 7.70391 14.4941H52.0539C52.8336 14.4941 53.4664 15.127 53.4664 15.9066Z" fill="#D1B68E"/>
<path d="M48.9141 28.3359V55.2234C48.9141 55.6562 48.5641 56.0047 48.1328 56.0047H11.625C11.1922 56.0047 10.8438 55.6562 10.8438 55.2234V28.3359C10.8438 27.9047 11.1922 27.5547 11.625 27.5547H48.1328C48.5641 27.5547 48.9141 27.9047 48.9141 28.3359Z" fill="white"/>
<path d="M53.4666 22.254V15.9059C53.4666 15.1262 52.8345 14.4941 52.0548 14.4941H7.70469C6.925 14.4941 6.29297 15.1262 6.29297 15.9059V22.254H53.4666Z" fill="white"/>
<path d="M28.353 6.48828C19.842 6.48828 12.918 13.4123 12.918 21.9233C12.918 24.5447 15.043 26.6697 17.6644 26.6697C20.2858 26.6697 22.4108 24.5447 22.4108 21.9233C22.4108 18.6469 25.0764 15.9813 28.3528 15.9813C31.6294 15.9813 34.295 18.6469 34.295 21.9233C34.295 25.0486 32.6477 27.0503 29.7361 30.3192C26.2311 34.2545 21.8688 39.1522 21.8688 47.7656C21.8688 50.3871 23.9938 52.5121 26.6152 52.5121C29.2366 52.5121 31.3616 50.3871 31.3616 47.7656C31.3616 42.7669 33.7723 40.0602 36.8248 36.6331C39.927 33.1502 43.7878 28.8155 43.7878 21.9233C43.7881 13.4123 36.8639 6.48828 28.353 6.48828Z" fill="white"/>
<path d="M26.8245 66.3678C29.4459 66.3678 31.5709 64.2428 31.5709 61.6214C31.5709 59 29.4459 56.875 26.8245 56.875C24.2032 56.875 22.0781 59 22.0781 61.6214C22.0781 64.2428 24.2032 66.3678 26.8245 66.3678Z" fill="white"/>
<path d="M55.4258 41.8184L58.8745 39.8272L63.038 47.0384L59.5893 49.0296L55.4258 41.8184Z" fill="white"/>
<path d="M48.9089 43.8217C58.4502 43.8217 66.185 36.0869 66.185 26.5456C66.185 17.0043 58.4502 9.26953 48.9089 9.26953C39.3676 9.26953 31.6328 17.0043 31.6328 26.5456C31.6328 36.0869 39.3676 43.8217 48.9089 43.8217Z" fill="#D1B68E"/>
<path d="M56.0742 38.8328V14.2578C58.1477 15.4625 59.943 17.2094 61.2273 19.4344C65.1445 26.2203 62.8367 34.8906 56.0742 38.8328Z" fill="white"/>
<path d="M74.475 67.4669L71.5678 69.1453C70.7707 69.6057 69.7513 69.3325 69.291 68.5353L58.5713 49.968C58.111 49.1708 58.3841 48.1514 59.1813 47.6911L62.0885 46.0127C62.8857 45.5524 63.905 45.8255 64.3653 46.6227L75.0852 65.1899C75.5453 65.9872 75.2722 67.0066 74.475 67.4669Z" fill="#D1B68E"/>
<path d="M64.5234 60.2793L70.3173 56.9341L71.767 59.4451L65.9732 62.7903L64.5234 60.2793Z" fill="white"/>
<path d="M67.1211 64.7789L69.2902 68.5358C69.7505 69.333 70.7698 69.6061 71.567 69.1458L74.4742 67.4673C75.2714 67.007 75.5445 65.9877 75.0842 65.1905L72.9151 61.4336L67.1211 64.7789Z" fill="white"/>
<path d="M14.1328 47.8008C14.5643 47.8008 14.9141 47.451 14.9141 47.0195C14.9141 46.5881 14.5643 46.2383 14.1328 46.2383C13.7013 46.2383 13.3516 46.5881 13.3516 47.0195C13.3516 47.451 13.7013 47.8008 14.1328 47.8008Z" fill="#231F20"/>
<path d="M14.1328 50.8672C14.5643 50.8672 14.9141 50.5174 14.9141 50.0859C14.9141 49.6545 14.5643 49.3047 14.1328 49.3047C13.7013 49.3047 13.3516 49.6545 13.3516 50.0859C13.3516 50.5174 13.7013 50.8672 14.1328 50.8672Z" fill="#231F20"/>
<path d="M14.1328 53.9336C14.5643 53.9336 14.9141 53.5838 14.9141 53.1523C14.9141 52.7209 14.5643 52.3711 14.1328 52.3711C13.7013 52.3711 13.3516 52.7209 13.3516 53.1523C13.3516 53.5838 13.7013 53.9336 14.1328 53.9336Z" fill="#231F20"/>
<path d="M36.9336 50.8672H43.2747C43.7061 50.8672 44.0559 50.5173 44.0559 50.0859C44.0559 49.6545 43.7061 49.3047 43.2747 49.3047H36.9336C36.5022 49.3047 36.1523 49.6545 36.1523 50.0859C36.1523 50.5173 36.502 50.8672 36.9336 50.8672Z" fill="#231F20"/>
<path d="M36.9336 54.0508H43.2747C43.7061 54.0508 44.0559 53.7009 44.0559 53.2695C44.0559 52.8381 43.7061 52.4883 43.2747 52.4883H36.9336C36.5022 52.4883 36.1523 52.8381 36.1523 53.2695C36.1523 53.7009 36.502 54.0508 36.9336 54.0508Z" fill="#231F20"/>
<path d="M46.0859 50.8672C46.5174 50.8672 46.8672 50.5174 46.8672 50.0859C46.8672 49.6545 46.5174 49.3047 46.0859 49.3047C45.6545 49.3047 45.3047 49.6545 45.3047 50.0859C45.3047 50.5174 45.6545 50.8672 46.0859 50.8672Z" fill="#231F20"/>
<path d="M46.0859 54.0508C46.5174 54.0508 46.8672 53.701 46.8672 53.2695C46.8672 52.8381 46.5174 52.4883 46.0859 52.4883C45.6545 52.4883 45.3047 52.8381 45.3047 53.2695C45.3047 53.701 45.6545 54.0508 46.0859 54.0508Z" fill="#231F20"/>
<path d="M56.0727 16.3965V38.8324C56.0555 38.8434 56.0367 38.8528 56.0195 38.8637C50.1133 42.2746 42.7789 40.9668 38.3789 36.1106C41.5711 32.5012 45.2023 27.9871 45.2023 21.0699C45.2023 19.4481 44.968 17.8793 44.5289 16.3965H56.0727Z" fill="#D1B68E"/>
<path d="M49.6852 26.2063V40.7516C45.4727 40.9797 41.2836 39.3188 38.3789 36.1109C40.8602 33.3063 43.6055 29.9547 44.707 25.3516H48.8305C49.3039 25.3516 49.6852 25.7344 49.6852 26.2063Z" fill="white"/>
<path d="M56.0711 14.2573V16.3964H44.5273C44.2258 15.3714 43.8258 14.3885 43.3398 13.4557C47.5586 11.6557 52.2789 12.0495 56.0711 14.2573Z" fill="white"/>
<path d="M45.1996 21.0711C45.1996 27.9883 41.5684 32.5023 38.3762 36.1117C37.7059 35.3742 37.1043 34.5555 36.5871 33.6586C32.6606 26.8555 34.9903 18.157 41.7934 14.2289C42.2996 13.9367 42.8153 13.6805 43.3387 13.457C44.5278 15.7367 45.1996 18.3273 45.1996 21.0711Z" fill="white"/>
<g opacity="0.1">
<g opacity="0.1">
<path opacity="0.1" d="M39.7825 69.2656H36.8789C36.4475 69.2656 36.0977 68.9158 36.0977 68.4844C36.0977 68.053 36.4475 67.7031 36.8789 67.7031H39.7825C40.2139 67.7031 40.5637 68.053 40.5637 68.4844C40.5637 68.9158 40.2141 69.2656 39.7825 69.2656Z" fill="#231F20"/>
</g>
<g opacity="0.1">
<path opacity="0.1" d="M46.0325 72.4492H36.8789C36.4475 72.4492 36.0977 72.0994 36.0977 71.668C36.0977 71.2366 36.4475 70.8867 36.8789 70.8867H46.0325C46.4639 70.8867 46.8137 71.2366 46.8137 71.668C46.8137 72.0994 46.4641 72.4492 46.0325 72.4492Z" fill="#231F20"/>
</g>
<g opacity="0.1">
<path opacity="0.1" d="M46.0325 75.6348H36.8789C36.4475 75.6348 36.0977 75.2849 36.0977 74.8535C36.0977 74.4221 36.4475 74.0723 36.8789 74.0723H46.0325C46.4639 74.0723 46.8137 74.4221 46.8137 74.8535C46.8137 75.2849 46.4641 75.6348 46.0325 75.6348Z" fill="#231F20"/>
</g>
</g>
<path d="M61.9021 19.0438C59.8982 15.5729 56.6626 13.0901 52.7912 12.0529C48.9197 11.0156 44.8765 11.5479 41.4055 13.552C34.2405 17.6887 31.7768 26.8834 35.9135 34.0485C38.6897 38.8568 43.7432 41.5477 48.933 41.5477C51.4766 41.5477 54.0535 40.901 56.4102 39.5404C63.5751 35.4037 66.0388 26.209 61.9021 19.0438ZM42.1868 14.9051C42.4457 14.7556 42.7083 14.6152 42.974 14.484C43.9213 16.536 44.4208 18.797 44.4208 21.0699C44.4208 27.1723 41.5233 31.2902 38.3879 34.9137C37.9801 34.4002 37.604 33.8517 37.2665 33.2671C33.5607 26.8484 35.7679 18.611 42.1868 14.9051ZM39.4396 36.0852C42.6897 32.3459 45.9835 27.7749 45.9835 21.0699C45.9835 18.5887 45.4419 16.1198 44.4143 13.8754C45.8554 13.3609 47.364 13.0982 48.8862 13.0982C50.0537 13.0982 51.2291 13.2518 52.3869 13.5621C53.4096 13.8362 54.3812 14.2256 55.2912 14.7143V38.371C49.9907 41.2346 43.5507 40.1634 39.4396 36.0852ZM56.8537 37.387V15.6999C58.3404 16.7884 59.6001 18.1815 60.549 19.8251C64.008 25.8165 62.3141 33.3907 56.8537 37.387Z" fill="#231F20"/>
<path d="M75.7577 64.8002L65.0378 46.2329C64.5597 45.4046 63.6672 44.9641 62.7716 45.0161L60.2306 40.6146C63.207 38.2293 65.3428 34.9729 66.3486 31.2191C67.597 26.5602 66.9564 21.694 64.5447 17.5169C59.6119 8.97285 48.7031 5.98504 40.1152 10.7744C37.6236 8.14645 34.3256 6.41723 30.7583 5.88473C30.3302 5.82067 29.9339 6.11551 29.8702 6.54207C29.8066 6.96879 30.1008 7.36629 30.5275 7.4302C33.6413 7.89489 36.5272 9.3716 38.7502 11.6139C36.5094 13.1332 34.6675 15.1074 33.3241 17.4061C32.0613 16.0221 30.2495 15.1997 28.3506 15.1997C24.6433 15.1997 21.6272 18.216 21.6272 21.9232C21.6272 24.1097 19.8481 25.8888 17.6616 25.8888C15.4758 25.8888 13.6975 24.1097 13.6975 21.9232C13.6975 14.6854 19.095 8.4502 26.2527 7.41989C26.6795 7.35832 26.9761 6.96223 26.9145 6.5352C26.8528 6.10832 26.4588 5.81176 26.0298 5.87332C22.2102 6.42332 18.698 8.33754 16.1403 11.2636C15.4723 12.0277 14.8852 12.8489 14.377 13.7122H7.70391C6.49516 13.7122 5.51172 14.6963 5.51172 15.906V59.4091C5.51172 60.6179 6.49516 61.6013 7.70391 61.6013C7.70391 61.6013 18.3533 61.5986 21.2947 61.6013C21.2947 64.6493 23.7744 67.1485 26.8225 67.1485C29.8705 67.1485 32.3502 64.6474 32.3502 61.5994C36.1125 61.5963 52.0539 61.6013 52.0539 61.6013C53.2636 61.6013 54.2477 60.6179 54.2477 59.4091V47.7013C54.2477 47.2697 53.898 46.92 53.4664 46.92C53.0349 46.92 52.6852 47.2697 52.6852 47.7013V59.4091C52.6852 59.7565 52.402 60.0388 52.0539 60.0388H32.1183C31.4361 57.7594 29.3208 56.093 26.8225 56.093C24.3241 56.093 22.2088 57.7594 21.5266 60.0388H7.70391C7.35656 60.0388 7.07422 59.7563 7.07422 59.4091V15.906C7.07422 15.5579 7.35672 15.2747 7.70391 15.2747H13.5686C12.6333 17.3497 12.1352 19.6125 12.1352 21.9233C12.1352 24.9716 14.6144 27.4515 17.6617 27.4515C20.71 27.4515 23.1898 24.9716 23.1898 21.9233C23.1898 19.0775 25.505 16.7624 28.3508 16.7624C30.032 16.7624 31.5677 17.5596 32.537 18.9124C32.0991 19.8568 31.7395 20.846 31.4644 21.8722C30.9389 23.833 30.7495 25.8305 30.8845 27.798C30.3495 28.4471 29.7369 29.14 29.1467 29.8025C25.5552 33.8363 21.085 38.8566 21.085 47.7655C21.085 50.8138 23.5648 53.2936 26.6131 53.2936C29.6614 53.2936 32.1413 50.8138 32.1413 47.7655C32.1413 43.8569 33.6917 41.4761 35.8055 38.9811C38.0733 41.3793 40.9642 43.1121 44.2327 43.9879C45.7884 44.4047 47.3672 44.611 48.9358 44.611C51.1517 44.6108 53.3467 44.1971 55.4277 43.3863L57.9683 47.7875C57.8255 48.0044 57.715 48.2438 57.6459 48.5019C57.4766 49.1336 57.5634 49.7933 57.8903 50.3597L68.6102 68.9269C69.063 69.7115 69.8875 70.1504 70.7342 70.1504C71.1492 70.1504 71.5697 70.0449 71.9542 69.8229L74.8613 68.1444C75.4275 67.8176 75.8327 67.2896 76.0019 66.658C76.1714 66.0261 76.0847 65.3663 75.7577 64.8002ZM26.8225 57.6554C29.0089 57.6554 30.7877 59.4343 30.7877 61.6207C30.7877 63.8071 29.0089 65.5858 26.8225 65.5858C24.6361 65.5858 22.8572 63.8071 22.8572 61.6207C22.8572 59.4343 24.6361 57.6554 26.8225 57.6554ZM30.5789 47.7652C30.5789 49.9518 28.7998 51.7308 26.6133 51.7308C24.4267 51.7308 22.6477 49.9518 22.6477 47.7652C22.6477 39.4511 26.8983 34.6772 30.317 30.8379C30.5934 30.5274 30.8753 30.2096 31.1533 29.8913C31.5269 31.8652 32.2342 33.7832 33.2683 35.5743C33.7188 36.3544 34.2209 37.093 34.7702 37.7868C32.4386 40.5136 30.5789 43.2515 30.5789 47.7652ZM44.6375 42.4783C40.3817 41.338 36.8245 38.6085 34.6216 34.7929C30.0739 26.9161 32.7824 16.8082 40.6591 12.2605C43.2503 10.7644 46.082 10.0538 48.8788 10.0538C54.5836 10.0538 60.1399 13.0127 63.1916 18.2982C65.3945 22.1138 65.9799 26.559 64.8394 30.8146C63.6991 35.0704 60.9695 38.6275 57.1539 40.8305C53.3383 43.0333 48.8927 43.6185 44.6375 42.4783ZM56.8674 42.7541C57.2278 42.5765 57.5839 42.3863 57.9352 42.1836C58.2864 41.9808 58.6286 41.7666 58.9627 41.5433L61.2878 45.5713L59.192 46.7813L56.8674 42.7541ZM74.493 66.2533C74.4317 66.4819 74.2853 66.6729 74.0803 66.791L71.1733 68.4694C70.7502 68.7135 70.2078 68.568 69.9638 68.1454L59.2438 49.5782C58.9997 49.1554 59.145 48.6126 59.568 48.3685L62.475 46.6901C62.6142 46.6097 62.7661 46.5716 62.9163 46.5716C63.2225 46.5716 63.5206 46.7305 63.6845 47.0141L74.4042 65.5816C74.5227 65.7865 74.5542 66.0249 74.493 66.2533Z" fill="#231F20"/>
<path d="M36.8789 65.5156H39.7823C40.2139 65.5156 40.5636 65.1659 40.5636 64.7344C40.5636 64.3028 40.2139 63.9531 39.7823 63.9531H36.8789C36.4473 63.9531 36.0977 64.3028 36.0977 64.7344C36.0977 65.1659 36.4473 65.5156 36.8789 65.5156Z" fill="#231F20"/>
<path d="M46.0323 67.1367H36.8789C36.4473 67.1367 36.0977 67.4864 36.0977 67.918C36.0977 68.3495 36.4473 68.6992 36.8789 68.6992H46.0323C46.4639 68.6992 46.8136 68.3495 46.8136 67.918C46.8136 67.4864 46.4638 67.1367 46.0323 67.1367Z" fill="#231F20"/>
<path d="M46.0323 70.3223H36.8789C36.4473 70.3223 36.0977 70.672 36.0977 71.1035C36.0977 71.5351 36.4473 71.8848 36.8789 71.8848H46.0323C46.4639 71.8848 46.8136 71.5351 46.8136 71.1035C46.8136 70.672 46.4638 70.3223 46.0323 70.3223Z" fill="#231F20"/>
<path d="M10.8452 71.9226C10.4136 71.9226 10.0639 71.5729 10.0639 71.1413C10.0639 70.5957 9.61984 70.1516 9.07422 70.1516C8.64266 70.1516 8.29297 69.802 8.29297 69.3704C8.29297 68.9388 8.64266 68.5891 9.07422 68.5891C9.61984 68.5891 10.0639 68.1452 10.0639 67.5996C10.0639 67.168 10.4136 66.8184 10.8452 66.8184C11.2767 66.8184 11.6264 67.168 11.6264 67.5996C11.6264 68.1452 12.0703 68.5891 12.6159 68.5891C13.0475 68.5891 13.3972 68.9388 13.3972 69.3704C13.3972 69.802 13.0475 70.1516 12.6159 70.1516C12.0703 70.1516 11.6264 70.5957 11.6264 71.1413C11.6264 71.5729 11.2767 71.9226 10.8452 71.9226Z" fill="#D1B68E"/>
<path d="M59.2317 9.03961C58.8002 9.03961 58.4505 8.68992 58.4505 8.25836C58.4505 7.71273 58.0066 7.26883 57.4609 7.26883C57.0294 7.26883 56.6797 6.91914 56.6797 6.48758C56.6797 6.05602 57.0294 5.70633 57.4609 5.70633C58.0066 5.70633 58.4505 5.26242 58.4505 4.7168C58.4505 4.28523 58.8002 3.93555 59.2317 3.93555C59.6633 3.93555 60.013 4.28523 60.013 4.7168C60.013 5.26242 60.457 5.70633 61.0027 5.70633C61.4342 5.70633 61.7839 6.05602 61.7839 6.48758C61.7839 6.91914 61.4342 7.26883 61.0027 7.26883C60.457 7.26883 60.013 7.71273 60.013 8.25836C60.013 8.68992 59.6633 9.03961 59.2317 9.03961Z" fill="#D1B68E"/>
<path d="M57.4622 70.1509C57.0306 70.1509 56.6809 69.8012 56.6809 69.3697C56.6809 68.8241 56.237 68.3802 55.6914 68.3802C55.2598 68.3802 54.9102 68.0305 54.9102 67.5989C54.9102 67.1673 55.2598 66.8177 55.6914 66.8177C56.237 66.8177 56.6809 66.3737 56.6809 65.8281C56.6809 65.3966 57.0306 65.0469 57.4622 65.0469C57.8937 65.0469 58.2434 65.3966 58.2434 65.8281C58.2434 66.3737 58.6873 66.8177 59.233 66.8177C59.6645 66.8177 60.0142 67.1673 60.0142 67.5989C60.0142 68.0305 59.6645 68.3802 59.233 68.3802C58.6873 68.3802 58.2434 68.8241 58.2434 69.3697C58.2434 69.8012 57.8937 70.1509 57.4622 70.1509Z" fill="#D1B68E"/>
<path d="M19.6914 74.6035C19.4915 74.6035 19.2914 74.5272 19.139 74.3746L18.2851 73.5208L17.4312 74.3746C17.1264 74.6797 16.6314 74.6797 16.3265 74.3746C16.0214 74.0696 16.0214 73.5749 16.3265 73.2699L17.7328 71.8636C18.0376 71.5585 18.5326 71.5585 18.8375 71.8636L20.2437 73.2699C20.5489 73.5749 20.5489 74.0696 20.2437 74.3746C20.0912 74.5272 19.8912 74.6035 19.6914 74.6035Z" fill="#D1B68E"/>
<path d="M71.7656 36.8613C71.5657 36.8613 71.3656 36.785 71.2132 36.6324L70.3593 35.7786L69.5054 36.6324C69.2006 36.9375 68.7056 36.9375 68.4007 36.6324C68.0956 36.3274 68.0956 35.8327 68.4007 35.5277L69.807 34.1214C70.1118 33.8163 70.6068 33.8163 70.9117 34.1214L72.3179 35.5277C72.6231 35.8327 72.6231 36.3274 72.3179 36.6324C72.1656 36.785 71.9654 36.8613 71.7656 36.8613Z" fill="#D1B68E"/>
<defs>
<linearGradient id="paint0_linear_1932_23373" x1="2.70059" y1="22.2714" x2="87.5141" y2="46.7019" gradientUnits="userSpaceOnUse">
<stop stop-color="#F7F1E2"/>
<stop offset="1" stop-color="#E1CDAF"/>
</linearGradient>
</defs>
</svg>
