<svg width="96" height="96" viewBox="0 0 96 96" fill="none" xmlns="http://www.w3.org/2000/svg">
<g clip-path="url(#clip0_4662_27638)">
<path d="M95.9613 26.1493C95.3138 18.3577 85.429 12.4986 78.241 14.2687C64.813 17.5755 59.5686 39.2608 44.4271 39.2747C32.6815 39.2856 17.6189 31.8321 10.1706 36.8559C-15.3329 54.0581 12.11 102.627 37.8226 63.7723C50.5218 44.5824 83.6459 102.071 89.5908 68.0595C90.2781 64.127 87.8847 60.0855 85.0103 57.3139C69.0408 41.9147 97.1824 40.8459 95.9613 26.1493Z" fill="url(#paint0_linear_4662_27638)"/>
<path opacity="0.1" d="M79.5632 29.0592H71.5116V15.7769C71.5116 13.0724 69.3201 10.8809 66.6156 10.8809H31.3765C28.672 10.8809 26.4805 13.0724 26.4805 15.7769V85.6598C26.4805 88.3643 28.672 90.5558 31.3765 90.5558H66.6156C69.3201 90.5558 71.5116 88.3643 71.5116 85.6598V57.2914H79.5632C80.6447 57.2914 81.5216 56.4147 81.5216 55.333V31.0176C81.5216 29.9361 80.6449 29.0592 79.5632 29.0592Z" fill="#231F20"/>
<path d="M71.5116 11.2769V81.1598C71.5116 83.8643 69.3201 86.0558 66.6156 86.0558H31.3765C28.672 86.0558 26.4805 83.8643 26.4805 81.1598V11.2769C26.4805 8.57236 28.672 6.38086 31.3765 6.38086H66.6156C69.3203 6.38086 71.5116 8.57236 71.5116 11.2769Z" fill="#D1B68E"/>
<path d="M67.596 11.2762V81.1591C67.596 81.6997 67.1573 82.1383 66.6169 82.1383H31.3776C30.837 82.1383 30.3984 81.6995 30.3984 81.1591V11.2762C30.3984 10.7356 30.8372 10.2971 31.3776 10.2971H37.1353C37.9108 10.2971 38.6139 10.7553 38.9273 11.4661L39.4168 12.5765C39.7301 13.2854 40.4333 13.7437 41.2088 13.7437H56.7857C57.5633 13.7437 58.2643 13.2854 58.5776 12.5765L59.0693 11.4641C59.3826 10.7551 60.0836 10.2969 60.8591 10.2969H66.6167C67.1573 10.2971 67.596 10.7356 67.596 11.2762Z" fill="white"/>
<path d="M56.7967 35.651V40.8858C56.7967 41.4264 56.3579 41.8649 55.8176 41.8649H35.2994C34.7589 41.8649 34.3203 41.4262 34.3203 40.8858V35.651C34.3203 35.1104 34.7591 34.6719 35.2994 34.6719H55.8176C56.3579 34.6719 56.7967 35.1104 56.7967 35.651Z" fill="#D1B68E"/>
<path d="M67.5956 19.2132V11.276C67.5956 10.7354 67.1569 10.2969 66.6165 10.2969H60.8589C60.0834 10.2969 59.3824 10.7551 59.0691 11.4641L58.5774 12.5765C58.2641 13.2854 57.5631 13.7437 56.7855 13.7437H41.2086C40.4331 13.7437 39.7299 13.2854 39.4166 12.5765L38.9271 11.4661C38.6138 10.7551 37.9106 10.2971 37.1351 10.2971H31.3776C30.837 10.2971 30.3984 10.7358 30.3984 11.2762V19.2134H67.5956V19.2132Z" fill="white"/>
<path d="M30.3984 73.1133V81.1602C30.3984 81.701 30.8368 82.1393 31.3776 82.1393H66.6169C67.1576 82.1393 67.596 81.701 67.596 81.1602V73.1133H30.3984Z" fill="white"/>
<path d="M51.9014 31.7505H35.2994C34.7587 31.7505 34.3203 31.3122 34.3203 30.7714V25.5377C34.3203 24.997 34.7587 24.5586 35.2994 24.5586H51.9014C52.4422 24.5586 52.8806 24.997 52.8806 25.5377V30.7714C52.8808 31.3122 52.4424 31.7505 51.9014 31.7505Z" fill="#D1B68E"/>
<path d="M61.9203 79.1875H36.0732C35.2109 79.1875 34.5117 78.4885 34.5117 77.626C34.5117 76.7636 35.2107 76.0645 36.0732 76.0645H61.9205C62.7828 76.0645 63.482 76.7635 63.482 77.626C63.4818 78.4883 62.7828 79.1875 61.9203 79.1875Z" fill="#D1B68E"/>
<path d="M45.1147 24.5586H79.5648C80.6463 24.5586 81.5232 25.4353 81.5232 26.517V50.8324C81.5232 51.9139 80.6465 52.7909 79.5648 52.7909H58.094L54.3234 56.5615C53.5586 57.3263 52.3186 57.3263 51.5538 56.5615L47.7832 52.7909H45.1147C44.0332 52.7909 43.1562 51.9141 43.1562 50.8324V26.517C43.1562 25.4355 44.0332 24.5586 45.1147 24.5586Z" fill="white"/>
<path d="M33.9219 15.8594H35.5312C36.0489 15.8594 36.4687 15.4396 36.4687 14.9219C36.4687 14.4042 36.0489 13.9844 35.5312 13.9844H33.9219C33.4042 13.9844 32.9844 14.4042 32.9844 14.9219C32.9844 15.4396 33.4042 15.8594 33.9219 15.8594Z" fill="#231F20"/>
<path d="M79.563 23.6217H72.4498L72.4502 11.2769C72.4502 8.0603 69.8333 5.44336 66.6167 5.44336H31.3763C28.1597 5.44336 25.543 8.0603 25.543 11.2769V81.1596C25.543 84.3762 28.1597 86.9931 31.3763 86.9931H66.6165C69.8331 86.9931 72.45 84.3762 72.45 81.1596L72.4487 58.2557C72.4487 57.738 72.0289 57.3182 71.5112 57.3182C70.9933 57.3182 70.5737 57.738 70.5737 58.2557L70.575 81.1594C70.575 83.3421 68.7992 85.1179 66.6165 85.1179H31.3763C29.1936 85.1179 27.418 83.3421 27.418 81.1594V11.2769C27.418 9.09417 29.1938 7.31836 31.3763 7.31836H66.6165C68.7994 7.31836 70.575 9.09417 70.575 11.2769L70.5746 23.6217H68.532V11.2763C68.532 10.2197 67.6723 9.36005 66.6156 9.36005H60.8575C59.7143 9.36005 58.6752 10.0364 58.209 11.0854L57.7181 12.1988C57.555 12.568 57.1888 12.8065 56.785 12.8065H41.2075C40.8027 12.8065 40.4355 12.568 40.273 12.2001L39.7836 11.0879C39.3212 10.0384 38.2808 9.36023 37.1331 9.36023H31.377C30.3193 9.36023 29.4589 10.2197 29.4589 11.2765V81.1596C29.4589 82.2162 30.3195 83.0759 31.377 83.0759H66.6158C67.6725 83.0759 68.5322 82.2162 68.5322 81.1596V53.7287H79.5632C81.16 53.7287 82.459 52.4295 82.459 50.8328V26.5174C82.459 24.9207 81.1598 23.6217 79.563 23.6217ZM31.377 11.2352H37.1331C37.5379 11.2352 37.9048 11.4741 38.0676 11.8435L38.5573 12.9569C39.0205 14.0046 40.0607 14.6817 41.2075 14.6817H56.785C57.9308 14.6817 58.9701 14.0046 59.4334 12.9563L59.9235 11.8448C60.088 11.4747 60.4545 11.2354 60.8573 11.2354H66.6154C66.6377 11.2354 66.6568 11.2544 66.6568 11.2767V18.2766H31.3339V11.2763C31.3339 11.2536 31.3532 11.2352 31.377 11.2352ZM66.6158 81.2007H31.377C31.3532 81.2007 31.3339 81.1821 31.3339 81.1594V74.0502H66.657V81.1594C66.657 81.1817 66.6381 81.2007 66.6158 81.2007ZM80.584 50.833C80.584 51.3959 80.1261 51.8539 79.5632 51.8539H58.0922C57.8436 51.8539 57.6051 51.9527 57.4294 52.1284L53.659 55.899C53.2609 56.2971 52.6131 56.2971 52.215 55.899L48.4446 52.1284C48.2687 51.9525 48.0304 51.8539 47.7818 51.8539H45.1133C44.5502 51.8539 44.0923 51.396 44.0923 50.833V26.5174C44.0923 25.9545 44.5502 25.4967 45.1133 25.4967H49.1072C49.6251 25.4967 50.0447 25.0769 50.0447 24.5592C50.0447 24.0415 49.6251 23.6217 49.1072 23.6217H45.1133C43.5163 23.6217 42.2173 24.9207 42.2173 26.5174V50.833C42.2173 52.4297 43.5165 53.7289 45.1133 53.7289H47.3935L50.8896 57.225C51.4541 57.7896 52.1957 58.072 52.9373 58.072C53.6788 58.072 54.4204 57.7896 54.985 57.225L58.4811 53.7289H66.6576V72.1754H31.3339V20.1516H66.657V23.6219H54.7303C54.2125 23.6219 53.7928 24.0417 53.7928 24.5594C53.7928 25.077 54.2125 25.4969 54.7303 25.4969H79.563C80.1259 25.4969 80.5838 25.9547 80.5838 26.5176V50.833H80.584Z" fill="#231F20"/>
<path d="M75.1484 37.0254H60.0391C59.5214 37.0254 59.1016 37.4452 59.1016 37.9629C59.1016 38.4806 59.5214 38.9004 60.0391 38.9004H75.1484C75.6661 38.9004 76.0859 38.4806 76.0859 37.9629C76.0859 37.4452 75.6661 37.0254 75.1484 37.0254Z" fill="#231F20"/>
<path d="M75.1484 40.8477H52.5391C52.0214 40.8477 51.6016 41.2675 51.6016 41.7852C51.6016 42.3028 52.0214 42.7227 52.5391 42.7227H75.1484C75.6661 42.7227 76.0859 42.3028 76.0859 41.7852C76.0859 41.2675 75.6661 40.8477 75.1484 40.8477Z" fill="#231F20"/>
<path d="M75.1484 44.668H52.5391C52.0214 44.668 51.6016 45.0878 51.6016 45.6055C51.6016 46.1232 52.0214 46.543 52.5391 46.543H75.1484C75.6661 46.543 76.0859 46.1232 76.0859 45.6055C76.0859 45.0878 75.6661 44.668 75.1484 44.668Z" fill="#231F20"/>
<path d="M71.8555 31.9062C72.3732 31.9062 72.793 31.4865 72.793 30.9688C72.793 30.451 72.3732 30.0312 71.8555 30.0312C71.3377 30.0312 70.918 30.451 70.918 30.9688C70.918 31.4865 71.3377 31.9062 71.8555 31.9062Z" fill="#231F20"/>
<path d="M75.1797 31.9062C75.6975 31.9062 76.1172 31.4865 76.1172 30.9688C76.1172 30.451 75.6975 30.0312 75.1797 30.0312C74.6619 30.0312 74.2422 30.451 74.2422 30.9688C74.2422 31.4865 74.6619 31.9062 75.1797 31.9062Z" fill="#231F20"/>
<path d="M68.5312 31.9062C69.049 31.9062 69.4688 31.4865 69.4688 30.9688C69.4688 30.451 69.049 30.0312 68.5312 30.0312C68.0135 30.0312 67.5938 30.451 67.5938 30.9688C67.5938 31.4865 68.0135 31.9062 68.5312 31.9062Z" fill="#231F20"/>
<path d="M20.3361 33.2811C19.8182 33.2811 19.3986 32.8613 19.3986 32.3436C19.3986 31.6889 18.8657 31.1562 18.2109 31.1562C17.6931 31.1562 17.2734 30.7364 17.2734 30.2187C17.2734 29.701 17.6931 29.2812 18.2109 29.2812C18.8657 29.2812 19.3986 28.7485 19.3986 28.0938C19.3986 27.5761 19.8182 27.1562 20.3361 27.1562C20.8539 27.1562 21.2736 27.5761 21.2736 28.0938C21.2736 28.7485 21.8062 29.2812 22.461 29.2812C22.9789 29.2812 23.3985 29.701 23.3985 30.2187C23.3985 30.7364 22.9789 31.1562 22.461 31.1562C21.8062 31.1562 21.2736 31.6889 21.2736 32.3436C21.2736 32.8613 20.8539 33.2811 20.3361 33.2811Z" fill="#D1B68E"/>
<path d="M19.3986 74.2479C18.8807 74.2479 18.4611 73.8281 18.4611 73.3104C18.4611 72.6557 17.9282 72.123 17.2734 72.123C16.7556 72.123 16.3359 71.7032 16.3359 71.1855C16.3359 70.6678 16.7556 70.248 17.2734 70.248C17.9282 70.248 18.4611 69.7153 18.4611 69.0605C18.4611 68.5429 18.8807 68.123 19.3986 68.123C19.9164 68.123 20.3361 68.5429 20.3361 69.0605C20.3361 69.7153 20.8687 70.248 21.5235 70.248C22.0414 70.248 22.461 70.6678 22.461 71.1855C22.461 71.7032 22.0414 72.123 21.5235 72.123C20.8687 72.123 20.3361 72.6557 20.3361 73.3104C20.3361 73.8281 19.9164 74.2479 19.3986 74.2479Z" fill="#D1B68E"/>
<path d="M79.121 66.5585C78.6032 66.5585 78.1835 66.1387 78.1835 65.621C78.1835 64.9662 77.6508 64.4335 76.9961 64.4335C76.4782 64.4335 76.0586 64.0137 76.0586 63.496C76.0586 62.9783 76.4782 62.5585 76.9961 62.5585C77.6508 62.5585 78.1835 62.0258 78.1835 61.3711C78.1835 60.8534 78.6032 60.4336 79.121 60.4336C79.6389 60.4336 80.0585 60.8534 80.0585 61.3711C80.0585 62.0258 80.5914 62.5585 81.2462 62.5585C81.764 62.5585 82.1837 62.9783 82.1837 63.496C82.1837 64.0137 81.764 64.4335 81.2462 64.4335C80.5914 64.4335 80.0585 64.9662 80.0585 65.621C80.0585 66.1387 79.6389 66.5585 79.121 66.5585Z" fill="#D1B68E"/>
<path d="M17.5234 41.2732C17.2836 41.2732 17.0434 41.1817 16.8606 40.9987C16.4944 40.6326 16.4944 40.0389 16.8606 39.6729L18.7356 37.7979C19.1014 37.4319 19.6954 37.4319 20.0612 37.7979C20.4274 38.1641 20.4274 38.7578 20.0612 39.1238L18.1862 40.9987C18.0034 41.1816 17.7634 41.2732 17.5234 41.2732Z" fill="#D1B68E"/>
<path d="M85.0429 54.0701C84.8031 54.0701 84.5629 53.9786 84.3801 53.7956C84.0139 53.4294 84.0139 52.8358 84.3801 52.4698L86.2551 50.5948C86.6209 50.2288 87.2149 50.2288 87.5807 50.5948C87.9469 50.961 87.9469 51.5546 87.5807 51.9206L85.7057 53.7956C85.5227 53.9786 85.2827 54.0701 85.0429 54.0701Z" fill="#D1B68E"/>
</g>
<defs>
<linearGradient id="paint0_linear_4662_27638" x1="48.0001" y1="95.2706" x2="48.0001" y2="18.7253" gradientUnits="userSpaceOnUse">
<stop stop-color="#F8F4E8"/>
<stop offset="1" stop-color="#E4D1B1"/>
</linearGradient>
<clipPath id="clip0_4662_27638">
<rect width="96" height="96" fill="white"/>
</clipPath>
</defs>
</svg>
