<svg width="96" height="96" viewBox="0 0 96 96" fill="none" xmlns="http://www.w3.org/2000/svg">
<g clip-path="url(#clip0_5026_17157)">
<path d="M92.7246 8.12544C57.8824 -7.05437 -12.0536 29.2792 1.78915 69.8499C6.3529 83.2254 33.7718 76.2464 47.0843 64.7508C61.2685 52.5026 65.7805 74.0075 69.5398 79.4726C74.9327 87.3123 83.9923 93.4402 89.7881 82.2149C98.163 65.9945 62.9923 63.4606 84.6756 45.2746C88.5925 41.9894 87.4526 37.109 80.506 37.3145C69.8293 37.6304 62.2481 45.1483 53.9155 41.6069C51.2327 40.4668 49.7605 37.1626 50.3207 34.3021C52.5741 22.7953 67.0397 21.9166 76.7899 21.9166C87.3606 21.9168 102.807 12.5182 92.7246 8.12544Z" fill="url(#paint0_linear_5026_17157)"/>
<path opacity="0.1" d="M47.5847 14.811V14.8105C27.838 14.8105 11.8281 30.8204 11.8281 50.5671C11.8281 70.3138 27.838 86.3237 47.5847 86.3237V86.3232C67.3322 86.3232 83.3408 70.3147 83.3408 50.5671C83.3408 30.8196 67.3322 14.811 47.5847 14.811Z" fill="#231F20"/>
<path d="M47.5847 10.8306V10.8301C27.838 10.8301 11.8281 26.84 11.8281 46.5867C11.8281 66.3334 27.838 82.3432 47.5847 82.3432V82.3427C67.3322 82.3427 83.3408 66.3342 83.3408 46.5867C83.3408 26.8391 67.3322 10.8306 47.5847 10.8306Z" fill="#D1B68E"/>
<path d="M49.9613 83.0904C49.5281 83.0904 49.1633 82.754 49.1346 82.3155C49.1046 81.8583 49.4508 81.4634 49.9078 81.4335C58.7401 80.8535 66.9542 76.9712 73.0367 70.5019C79.1463 64.0034 82.5111 55.5098 82.5111 46.5856C82.5111 40.1677 80.7553 33.8932 77.4335 28.4407C77.195 28.0496 77.3191 27.5392 77.7102 27.301C78.1013 27.0625 78.6117 27.1866 78.8499 27.5777C82.3303 33.2902 84.1698 39.863 84.1698 46.5856C84.1698 55.9336 80.6452 64.8308 74.2451 71.638C67.874 78.4144 59.2694 82.4809 50.0168 83.0886C49.998 83.0898 49.9796 83.0904 49.9613 83.0904Z" fill="#231F20"/>
<path d="M45.0889 83.0837C45.0698 83.0837 45.0504 83.083 45.0308 83.0817C35.8052 82.4447 27.2303 78.3657 20.8856 71.5962C14.5107 64.7944 11 55.9121 11 46.586C11 26.4125 27.4123 10 47.5858 10C47.5956 10 47.6052 10.0002 47.6148 10.0005C58.6665 10.009 69.0062 14.9378 75.9875 23.5259C76.2765 23.8815 76.2225 24.4037 75.8671 24.6927C75.5113 24.9816 74.9893 24.9277 74.7003 24.5723C68.0295 16.3658 58.1467 11.6591 47.586 11.6591C47.5765 11.6591 47.567 11.6589 47.5576 11.6586C28.3117 11.6738 12.6589 27.3364 12.6589 46.586C12.6589 55.4895 16.0104 63.9688 22.0962 70.462C28.1534 76.9249 36.339 80.8188 45.1454 81.4269C45.6024 81.4585 45.9473 81.8546 45.9158 82.3115C45.8852 82.749 45.521 83.0837 45.0889 83.0837Z" fill="#231F20"/>
<path d="M47.5865 14.2827V14.2822C29.7457 14.2822 15.2812 28.7468 15.2812 46.5875C15.2812 64.4281 29.7457 78.8929 47.5865 78.8929V78.8924C65.4279 78.8924 79.8914 64.4289 79.8914 46.5875C79.8914 28.746 65.4279 14.2827 47.5865 14.2827Z" fill="white"/>
<path d="M47.5859 14.2822C65.4274 14.2822 79.8908 28.7457 79.8908 46.5871C79.8908 64.4286 65.4274 78.8919 47.5859 78.8919V14.2822Z" fill="#D1B68E"/>
<path d="M47.5859 73.6807V73.6804C62.549 73.6804 74.6789 61.5505 74.6789 46.5874C74.6789 31.6244 62.549 19.4945 47.5859 19.4945V19.4941V73.6807Z" fill="white"/>
<path d="M34.6722 26.3337C35.8503 26.3337 36.8054 25.3786 36.8054 24.2005C36.8054 23.0224 35.8503 22.0674 34.6722 22.0674C33.4941 22.0674 32.5391 23.0224 32.5391 24.2005C32.5391 25.3786 33.4941 26.3337 34.6722 26.3337Z" fill="#231F20"/>
<path d="M60.5238 71.1071C61.7019 71.1071 62.6569 70.1521 62.6569 68.974C62.6569 67.7959 61.7019 66.8408 60.5238 66.8408C59.3457 66.8408 58.3906 67.7959 58.3906 68.974C58.3906 70.1521 59.3457 71.1071 60.5238 71.1071Z" fill="#231F20"/>
<path d="M25.2074 35.7956C26.3855 35.7956 27.3405 34.8406 27.3405 33.6624C27.3405 32.4843 26.3855 31.5293 25.2074 31.5293C24.0293 31.5293 23.0742 32.4843 23.0742 33.6624C23.0742 34.8406 24.0293 35.7956 25.2074 35.7956Z" fill="#231F20"/>
<path d="M69.9808 61.6452C71.1589 61.6452 72.114 60.6902 72.114 59.5121C72.114 58.3339 71.1589 57.3789 69.9808 57.3789C68.8027 57.3789 67.8477 58.3339 67.8477 59.5121C67.8477 60.6902 68.8027 61.6452 69.9808 61.6452Z" fill="#231F20"/>
<path d="M21.7464 48.7194C22.9245 48.7194 23.8796 47.7644 23.8796 46.5863C23.8796 45.4082 22.9245 44.4531 21.7464 44.4531C20.5683 44.4531 19.6133 45.4082 19.6133 46.5863C19.6133 47.7644 20.5683 48.7194 21.7464 48.7194Z" fill="#231F20"/>
<path d="M73.4456 48.7194C74.6237 48.7194 75.5788 47.7644 75.5788 46.5863C75.5788 45.4082 74.6237 44.4531 73.4456 44.4531C72.2675 44.4531 71.3125 45.4082 71.3125 46.5863C71.3125 47.7644 72.2675 48.7194 73.4456 48.7194Z" fill="#231F20"/>
<path d="M25.2074 61.6452C26.3855 61.6452 27.3405 60.6902 27.3405 59.5121C27.3405 58.3339 26.3855 57.3789 25.2074 57.3789C24.0293 57.3789 23.0742 58.3339 23.0742 59.5121C23.0742 60.6902 24.0293 61.6452 25.2074 61.6452Z" fill="#231F20"/>
<path d="M69.9808 35.7956C71.1589 35.7956 72.114 34.8405 72.114 33.6624C72.114 32.4843 71.1589 31.5293 69.9808 31.5293C68.8027 31.5293 67.8477 32.4843 67.8477 33.6624C67.8477 34.8405 68.8027 35.7956 69.9808 35.7956Z" fill="#231F20"/>
<path d="M34.6722 71.1071C35.8503 71.1071 36.8054 70.1521 36.8054 68.974C36.8054 67.7959 35.8503 66.8408 34.6722 66.8408C33.4941 66.8408 32.5391 67.7959 32.5391 68.974C32.5391 70.1521 33.4941 71.1071 34.6722 71.1071Z" fill="#231F20"/>
<path d="M60.5238 26.3337C61.7019 26.3337 62.6569 25.3786 62.6569 24.2005C62.6569 23.0224 61.7019 22.0674 60.5238 22.0674C59.3457 22.0674 58.3906 23.0224 58.3906 24.2005C58.3906 25.3786 59.3457 26.3337 60.5238 26.3337Z" fill="#231F20"/>
<path d="M47.5902 74.57C48.7683 74.57 49.7233 73.615 49.7233 72.4369C49.7233 71.2587 48.7683 70.3037 47.5902 70.3037C46.4121 70.3037 45.457 71.2587 45.457 72.4369C45.457 73.615 46.4121 74.57 47.5902 74.57Z" fill="#231F20"/>
<path d="M47.5902 22.8708C48.7683 22.8708 49.7233 21.9157 49.7233 20.7376C49.7233 19.5595 48.7683 18.6045 47.5902 18.6045C46.4121 18.6045 45.457 19.5595 45.457 20.7376C45.457 21.9157 46.4121 22.8708 47.5902 22.8708Z" fill="#231F20"/>
<path d="M47.5936 45.907L22.4236 45.8906C21.9656 45.8903 21.5941 46.2614 21.5938 46.7195C21.5934 47.1775 21.9645 47.549 22.4226 47.5494L47.5926 47.5658L47.5936 45.907Z" fill="#231F20"/>
<path d="M40.5574 66.6074L48.9673 47.2605L46.2093 46.0615L37.7994 65.4086C37.6168 65.8288 37.8094 66.3173 38.2294 66.4999L39.4661 67.0375C39.8863 67.22 40.3748 67.0274 40.5574 66.6074Z" fill="#231F20"/>
<path d="M47.5877 79.7217C29.3173 79.7217 14.4531 64.8575 14.4531 46.5869C14.4531 28.3163 29.3173 13.4521 47.5877 13.4521C47.5975 13.4521 47.6071 13.4523 47.6168 13.4526C65.8732 13.4691 80.722 28.3266 80.722 46.5869C80.722 64.8472 65.8732 79.7048 47.6168 79.7212C47.6071 79.7215 47.5975 79.7217 47.5877 79.7217ZM47.5594 15.1109C30.2167 15.1265 16.1119 29.2406 16.1119 46.5869C16.1119 63.9333 30.2167 78.0474 47.5595 78.063C47.5688 78.0626 47.5783 78.0625 47.5877 78.0625C64.9433 78.0625 79.0633 63.9426 79.0633 46.5869C79.0633 29.2313 64.9433 15.1114 47.5877 15.1114C47.5783 15.1114 47.5688 15.1112 47.5594 15.1109Z" fill="#231F20"/>
<path d="M84.1705 69.4445C83.9584 69.4445 83.7459 69.3636 83.5842 69.2015L82.6777 68.2952L81.7712 69.2015C81.4475 69.5255 80.9221 69.5255 80.5984 69.2015C80.2745 68.8777 80.2745 68.3526 80.5984 68.0288L82.0913 66.5359C82.4149 66.212 82.9404 66.212 83.264 66.5359L84.7569 68.0288C85.0809 68.3526 85.0809 68.8777 84.7569 69.2015C84.595 69.3636 84.3827 69.4445 84.1705 69.4445Z" fill="#D1B68E"/>
<path d="M25.2369 13.4006C25.0248 13.4006 24.8123 13.3197 24.6506 13.1576L23.7441 12.2513L22.8376 13.1576C22.514 13.4815 21.9885 13.4815 21.6648 13.1576C21.3409 12.8338 21.3409 12.3086 21.6648 11.9849L23.1577 10.492C23.4813 10.168 24.0068 10.168 24.3304 10.492L25.8233 11.9849C26.1473 12.3086 26.1473 12.8338 25.8233 13.1576C25.6614 13.3197 25.4491 13.4006 25.2369 13.4006Z" fill="#D1B68E"/>
<path d="M77.6041 18.049C77.392 18.049 77.1795 17.9681 77.0178 17.806L76.1113 16.8997L75.2048 17.806C74.8811 18.13 74.3556 18.13 74.032 17.806C73.7081 17.4822 73.7081 16.9571 74.032 16.6333L75.5249 15.1404C75.8485 14.8165 76.374 14.8165 76.6976 15.1404L78.1905 16.6333C78.5144 16.9571 78.5144 17.4822 78.1905 17.806C78.0288 17.9679 77.8164 18.049 77.6041 18.049Z" fill="#D1B68E"/>
<path d="M13.0482 17.3122C12.9081 17.3122 12.7663 17.2767 12.636 17.2019L12.6196 17.1925C12.2224 16.9644 12.0853 16.4573 12.3134 16.0602C12.5417 15.6629 13.0484 15.5256 13.4457 15.754L13.4621 15.7635C13.8594 15.9915 13.9964 16.4986 13.7683 16.8957C13.6149 17.1628 13.3355 17.3122 13.0482 17.3122Z" fill="#D1B68E"/>
<path d="M17.1812 19.6961C17.0392 19.6961 16.895 19.6595 16.7635 19.5827L16.7471 19.573C16.3516 19.342 16.2183 18.8341 16.4493 18.4385C16.6804 18.043 17.1883 17.9097 17.5839 18.1407L17.6003 18.1503C17.9958 18.3814 18.1291 18.8893 17.8981 19.2849C17.744 19.549 17.4663 19.6961 17.1812 19.6961Z" fill="#D1B68E"/>
<path d="M13.0482 17.3122C12.9081 17.3122 12.7663 17.2767 12.636 17.2019L12.6196 17.1925C12.2224 16.9644 12.0853 16.4573 12.3134 16.0602C12.5417 15.6629 13.0484 15.5256 13.4457 15.754L13.4621 15.7635C13.8594 15.9915 13.9964 16.4986 13.7683 16.8957C13.6149 17.1628 13.3355 17.3122 13.0482 17.3122Z" fill="#D1B68E"/>
<path d="M17.1812 19.6961C17.0392 19.6961 16.895 19.6595 16.7635 19.5827L16.7471 19.573C16.3516 19.342 16.2183 18.8341 16.4493 18.4385C16.6804 18.043 17.1883 17.9097 17.5839 18.1407L17.6003 18.1503C17.9958 18.3814 18.1291 18.8893 17.8981 19.2849C17.744 19.549 17.4663 19.6961 17.1812 19.6961Z" fill="#D1B68E"/>
<path d="M17.1663 17.312C16.879 17.312 16.5997 17.1625 16.4462 16.8955C16.2182 16.4982 16.3552 15.9913 16.7524 15.7632L16.7689 15.7537C17.1665 15.5258 17.673 15.6628 17.9011 16.0599C18.1292 16.4572 17.9922 16.9641 17.5949 17.1922L17.5785 17.2017C17.4483 17.2763 17.3063 17.312 17.1663 17.312Z" fill="#D1B68E"/>
<path d="M13.0334 19.6959C12.7481 19.6959 12.4706 19.5486 12.3165 19.2847C12.0854 18.8891 12.2188 18.3812 12.6142 18.1502L12.6307 18.1405C13.0264 17.9098 13.5342 18.043 13.7653 18.4383C13.9963 18.8339 13.863 19.3418 13.4675 19.5729L13.4511 19.5825C13.3194 19.6595 13.1754 19.6959 13.0334 19.6959Z" fill="#D1B68E"/>
<path d="M17.1663 17.312C16.879 17.312 16.5997 17.1625 16.4462 16.8955C16.2182 16.4982 16.3552 15.9913 16.7524 15.7632L16.7689 15.7537C17.1665 15.5258 17.673 15.6628 17.9011 16.0599C18.1292 16.4572 17.9922 16.9641 17.5949 17.1922L17.5785 17.2017C17.4483 17.2763 17.3063 17.312 17.1663 17.312Z" fill="#D1B68E"/>
<path d="M13.0334 19.6959C12.7481 19.6959 12.4706 19.5486 12.3165 19.2847C12.0854 18.8891 12.2188 18.3812 12.6142 18.1502L12.6307 18.1405C13.0264 17.9098 13.5342 18.043 13.7653 18.4383C13.9963 18.8339 13.863 19.3418 13.4675 19.5729L13.4511 19.5825C13.3194 19.6595 13.1754 19.6959 13.0334 19.6959Z" fill="#D1B68E"/>
<path d="M15.1067 16.1249C14.6486 16.1249 14.2773 15.7537 14.2773 15.2955V15.2766C14.2773 14.8185 14.6486 14.4473 15.1067 14.4473C15.5649 14.4473 15.9361 14.8185 15.9361 15.2766V15.2955C15.9361 15.7537 15.5649 16.1249 15.1067 16.1249Z" fill="#D1B68E"/>
<path d="M15.1067 20.8954C14.6486 20.8954 14.2773 20.5242 14.2773 20.0661V20.0471C14.2773 19.589 14.6486 19.2178 15.1067 19.2178C15.5649 19.2178 15.9361 19.589 15.9361 20.0471V20.0661C15.9361 20.5242 15.5649 20.8954 15.1067 20.8954Z" fill="#D1B68E"/>
<path d="M16.3139 77.3357C16.1737 77.3357 16.0319 77.3002 15.9017 77.2254L15.8852 77.2159C15.488 76.9878 15.351 76.4807 15.579 76.0836C15.8073 75.6864 16.314 75.549 16.7113 75.7774L16.7277 75.7869C17.125 76.015 17.262 76.522 17.0339 76.9191C16.8805 77.186 16.6012 77.3357 16.3139 77.3357Z" fill="#D1B68E"/>
<path d="M20.4468 79.7195C20.3048 79.7195 20.1606 79.6828 20.0291 79.606L20.0127 79.5964C19.6172 79.3653 19.4839 78.8574 19.7149 78.4618C19.946 78.0664 20.4541 77.9332 20.8495 78.1641L20.8659 78.1737C21.2614 78.4048 21.3948 78.9127 21.1637 79.3083C21.0096 79.5722 20.7319 79.7195 20.4468 79.7195Z" fill="#D1B68E"/>
<path d="M16.3139 77.3357C16.1737 77.3357 16.0319 77.3002 15.9017 77.2254L15.8852 77.2159C15.488 76.9878 15.351 76.4807 15.579 76.0836C15.8073 75.6864 16.314 75.549 16.7113 75.7774L16.7277 75.7869C17.125 76.015 17.262 76.522 17.0339 76.9191C16.8805 77.186 16.6012 77.3357 16.3139 77.3357Z" fill="#D1B68E"/>
<path d="M20.4468 79.7195C20.3048 79.7195 20.1606 79.6828 20.0291 79.606L20.0127 79.5964C19.6172 79.3653 19.4839 78.8574 19.7149 78.4618C19.946 78.0664 20.4541 77.9332 20.8495 78.1641L20.8659 78.1737C21.2614 78.4048 21.3948 78.9127 21.1637 79.3083C21.0096 79.5722 20.7319 79.7195 20.4468 79.7195Z" fill="#D1B68E"/>
<path d="M20.4319 77.3355C20.1446 77.3355 19.8653 77.186 19.7119 76.919C19.4838 76.5217 19.6208 76.0148 20.0181 75.7867L20.0345 75.7773C20.4321 75.5492 20.9387 75.6864 21.1667 76.0835C21.3948 76.4807 21.2578 76.9876 20.8605 77.2157L20.8441 77.2252C20.7141 77.2998 20.5719 77.3355 20.4319 77.3355Z" fill="#D1B68E"/>
<path d="M16.299 79.7194C16.0137 79.7194 15.7362 79.5721 15.5821 79.3082C15.3511 78.9126 15.4844 78.4047 15.8799 78.1736L15.8963 78.164C16.2922 77.9332 16.7998 78.0664 17.0309 78.4617C17.2619 78.8573 17.1286 79.3652 16.7331 79.5963L16.7167 79.6059C16.5852 79.6827 16.4412 79.7194 16.299 79.7194Z" fill="#D1B68E"/>
<path d="M20.4319 77.3355C20.1446 77.3355 19.8653 77.186 19.7119 76.919C19.4838 76.5217 19.6208 76.0148 20.0181 75.7867L20.0345 75.7773C20.4321 75.5492 20.9387 75.6864 21.1667 76.0835C21.3948 76.4807 21.2578 76.9876 20.8605 77.2157L20.8441 77.2252C20.7141 77.2998 20.5719 77.3355 20.4319 77.3355Z" fill="#D1B68E"/>
<path d="M16.299 79.7194C16.0137 79.7194 15.7362 79.5721 15.5821 79.3082C15.3511 78.9126 15.4844 78.4047 15.8799 78.1736L15.8963 78.164C16.2922 77.9332 16.7998 78.0664 17.0309 78.4617C17.2619 78.8573 17.1286 79.3652 16.7331 79.5963L16.7167 79.6059C16.5852 79.6827 16.4412 79.7194 16.299 79.7194Z" fill="#D1B68E"/>
<path d="M18.3723 76.1484C17.9142 76.1484 17.543 75.7771 17.543 75.319V75.3001C17.543 74.8419 17.9142 74.4707 18.3723 74.4707C18.8305 74.4707 19.2017 74.8419 19.2017 75.3001V75.319C19.2017 75.777 18.8305 76.1484 18.3723 76.1484Z" fill="#D1B68E"/>
<path d="M18.3723 80.9189C17.9142 80.9189 17.543 80.5476 17.543 80.0895V80.0706C17.543 79.6124 17.9142 79.2412 18.3723 79.2412C18.8305 79.2412 19.2017 79.6124 19.2017 80.0706V80.0895C19.2017 80.5476 18.8305 80.9189 18.3723 80.9189Z" fill="#D1B68E"/>
<path d="M63.9792 43.9382L63.4647 41.642C63.3649 41.1963 62.9334 40.9185 62.5008 41.0214L49.1767 44.1923C48.4428 43.578 47.4533 43.304 46.461 43.5402C44.7527 43.9467 43.6875 45.7036 44.0821 47.464C44.4766 49.2243 46.1813 50.322 47.8895 49.9154C48.8819 49.6792 49.6545 48.986 50.0527 48.1026L63.3771 44.9317C63.8095 44.8285 64.079 44.3838 63.9792 43.9382Z" fill="#D1B68E"/>
<path d="M46.8607 45C45.8331 45 45 45.8331 45 46.8608C45 47.8884 45.8332 48.7215 46.8607 48.7215C47.8884 48.7215 48.7215 47.8884 48.7215 46.8608C48.7215 45.8332 47.8884 45 46.8607 45Z" fill="white"/>
</g>
<defs>
<linearGradient id="paint0_linear_5026_17157" x1="48.0001" y1="109.208" x2="48.0001" y2="10.7429" gradientUnits="userSpaceOnUse">
<stop stop-color="#F8F4E8"/>
<stop offset="1" stop-color="#E4D1B1"/>
</linearGradient>
<clipPath id="clip0_5026_17157">
<rect width="96" height="96" fill="white"/>
</clipPath>
</defs>
</svg>
