<svg width="24" height="24" viewBox="0 0 24 24" fill="none" xmlns="http://www.w3.org/2000/svg">
<path d="M21.9994 17.2252V20.0854C22.0005 20.3509 21.9432 20.6138 21.831 20.8571C21.7188 21.1004 21.5542 21.3188 21.3478 21.4983C21.1415 21.6778 20.8978 21.8144 20.6325 21.8995C20.3672 21.9846 20.0861 22.0162 19.8072 21.9923C16.7128 21.6735 13.7404 20.671 11.1289 19.0653C8.69921 17.6014 6.63926 15.6484 5.09534 13.3447C3.39586 10.8574 2.33824 8.02557 2.00816 5.07855C1.98303 4.8149 2.01608 4.54917 2.1052 4.2983C2.19432 4.04742 2.33757 3.81688 2.52581 3.62136C2.71405 3.42585 2.94317 3.26963 3.19858 3.16267C3.45398 3.05571 3.73008 3.00034 4.0093 3.00009H7.02608C7.5141 2.99554 7.98722 3.15939 8.35725 3.4611C8.72727 3.76282 8.96896 4.18181 9.03727 4.63998C9.1646 5.55533 9.40074 6.45408 9.74118 7.31909C9.87648 7.66035 9.90576 8.03122 9.82556 8.38777C9.74536 8.74431 9.55903 9.07159 9.28867 9.33082L8.01156 10.5417C9.44308 12.9286 11.5276 14.9049 14.0451 16.2622L15.3222 15.0513C15.5956 14.795 15.9408 14.6184 16.3169 14.5423C16.6929 14.4663 17.0841 14.494 17.444 14.6223C18.3564 14.9451 19.3043 15.169 20.2698 15.2897C20.7582 15.355 21.2044 15.5883 21.5233 15.9452C21.8422 16.302 22.0116 16.7576 21.9994 17.2252Z" stroke="currentColor" stroke-width="1.33333" stroke-linecap="round" stroke-linejoin="round"/>
</svg>
