<svg width="96" height="96" viewBox="0 0 96 96" fill="none" xmlns="http://www.w3.org/2000/svg">
<g clip-path="url(#clip0_5026_17305)">
<path d="M1.05045 30.7302C-5.95998 6.54007 24.0001 -0.59805 35.2141 22.9516C44.4036 42.2494 62.0438 43.5136 72.0876 27.3556C92.8797 -6.09349 108.443 66.0938 82.1378 80.3875C61.8005 91.4386 51.3061 58.8385 34.4943 68.6948C30.8508 70.831 30.5041 76.0684 27.8386 79.3428C21.8326 86.7205 5.96877 85.3384 3.41689 76.0165C-0.932735 60.1272 11.1873 65.7074 1.05045 30.7302Z" fill="url(#paint0_linear_5026_17305)"/>
<path opacity="0.1" d="M88.4255 43.7935L84.4314 43.0893L73.0963 11.9463C72.7423 10.9737 71.6673 10.471 70.6931 10.8256L15.3512 30.9685C14.3767 31.3231 13.8765 32.3992 14.2305 33.3717L16.9953 40.9685H12.1445C10.0734 40.9685 8.39453 42.6473 8.39453 44.7185V86.9738C8.39453 89.045 10.0734 90.7238 12.1445 90.7238H62.2685C64.3397 90.7238 66.0185 89.045 66.0185 86.9738V77.8334L81.9288 80.6388C82.95 80.8188 83.9212 80.1372 84.1008 79.1178L89.9465 45.9655C90.1263 44.9463 89.4467 43.9735 88.4255 43.7935Z" fill="#231F20"/>
<path d="M28.2534 30.5879L22.4077 63.7401C22.2279 64.7594 22.9076 65.7321 23.9287 65.9123L81.9277 76.1391C82.9489 76.3191 83.9201 75.6376 84.0999 74.6181L89.9456 41.4659C90.1254 40.4466 89.4457 39.4739 88.4246 39.2937L30.4256 29.0669C29.4043 28.8871 28.4331 29.5686 28.2534 30.5879Z" fill="white"/>
<path d="M31.4575 34.0102L26.5886 61.6231C26.4988 62.1328 26.8376 62.6189 27.3491 62.7091L79.8105 71.9594C80.3201 72.0492 80.8067 71.7086 80.8965 71.1989L85.7653 43.5862C85.8555 43.0747 85.5145 42.59 85.0048 42.5002L32.5435 33.2499C32.0321 33.1597 31.5476 33.4987 31.4575 34.0102Z" fill="#D1B68E"/>
<path d="M34.0757 37.6978L44.0074 39.449C44.5172 39.5388 45.0036 39.1983 45.0934 38.6885C45.1832 38.1787 44.8427 37.6923 44.3329 37.6025L34.4012 35.8513C33.8914 35.7615 33.405 36.102 33.3152 36.6118C33.2252 37.1216 33.5657 37.6078 34.0757 37.6978Z" fill="#231F20"/>
<path d="M35.5014 41.4585L43.4068 42.8524C43.9166 42.9422 44.403 42.6017 44.4928 42.0919C44.5826 41.5821 44.2421 41.0957 43.7323 41.0059L35.8269 39.612C35.3171 39.5222 34.8307 39.8627 34.7409 40.3725C34.6511 40.8823 34.9916 41.3687 35.5014 41.4585Z" fill="#231F20"/>
<path d="M78.5063 41.3535C77.7839 45.451 80.5197 49.3603 84.619 50.0831L85.7648 43.5853C85.8548 43.0755 85.5143 42.5891 85.0043 42.4993L78.5063 41.3535Z" fill="white"/>
<path d="M33.8471 63.8537C34.5696 59.7562 31.8338 55.8468 27.7345 55.124L26.5886 61.6218C26.4986 62.1316 26.8391 62.618 27.3491 62.7078L33.8471 63.8537Z" fill="white"/>
<path d="M66.2569 54.3861C67.2987 48.4885 63.6435 42.9127 58.0927 41.9322C52.542 40.9517 47.1977 44.9377 46.1559 50.8352C45.1141 56.7328 48.7693 62.3086 54.32 63.2891C59.8708 64.2696 65.2151 60.2836 66.2569 54.3861Z" fill="white"/>
<path d="M54.5956 61.5799C59.1183 62.3773 63.5077 58.9991 64.3805 54.0495C65.2533 49.0995 62.2838 44.4238 57.7613 43.6264C53.2387 42.8289 48.8493 46.2071 47.9765 51.1569C47.1037 56.1067 50.0729 60.7824 54.5956 61.5799Z" fill="#D1B68E"/>
<path d="M57.4074 52.2665L57.1431 52.2198L57.4562 50.4442L59.1053 50.735C59.5869 50.8199 60.0463 50.4982 60.1313 50.0167C60.2162 49.535 59.8944 49.0756 59.4129 48.9907L57.7639 48.6998L57.8411 48.2613C57.9261 47.7796 57.6043 47.3202 57.1228 47.2353C56.6413 47.1503 56.1818 47.4721 56.0968 47.9536L56.0196 48.392L55.7552 48.3453C54.3038 48.0893 52.9148 49.0619 52.659 50.5133C52.4031 51.9648 53.3756 53.3538 54.8271 53.6095L55.0914 53.6562L54.7783 55.4318L53.1294 55.141C52.6478 55.0561 52.1884 55.3778 52.1034 55.8593C52.0185 56.3408 52.3403 56.8004 52.8218 56.8853L54.4706 57.1762L54.3934 57.6145C54.3084 58.0962 54.6302 58.5556 55.1117 58.6405C55.5932 58.7255 56.0528 58.4037 56.1377 57.9222L56.2149 57.4838L56.4793 57.5305C57.9306 57.7865 59.3196 56.8139 59.5755 55.3625C59.8313 53.9112 58.8587 52.5224 57.4074 52.2665ZM55.1342 51.8656C54.6446 51.7793 54.3165 51.3108 54.4029 50.8212C54.4892 50.3317 54.9578 50.0035 55.4473 50.09L55.7117 50.1367L55.3986 51.9123L55.1342 51.8656ZM56.7868 55.7864L56.5224 55.7397L56.8356 53.9641L57.0999 54.0108C57.5895 54.097 57.9174 54.5656 57.8312 55.0552C57.7449 55.5447 57.2762 55.8728 56.7868 55.7864Z" fill="white"/>
<path d="M74.1787 60.1962C76.6181 60.1962 78.5956 58.2187 78.5956 55.7792C78.5956 53.3398 76.6181 51.3623 74.1787 51.3623C71.7393 51.3623 69.7617 53.3398 69.7617 55.7792C69.7617 58.2187 71.7393 60.1962 74.1787 60.1962Z" fill="white"/>
<path d="M74.1779 58.8089C75.851 58.8089 77.2073 57.4526 77.2073 55.7794C77.2073 54.1063 75.851 52.75 74.1779 52.75C72.5048 52.75 71.1484 54.1063 71.1484 55.7794C71.1484 57.4526 72.5048 58.8089 74.1779 58.8089Z" fill="#D1B68E"/>
<path d="M38.1708 53.8466C40.6102 53.8466 42.5878 51.869 42.5878 49.4296C42.5878 46.9902 40.6102 45.0127 38.1708 45.0127C35.7314 45.0127 33.7539 46.9902 33.7539 49.4296C33.7539 51.869 35.7314 53.8466 38.1708 53.8466Z" fill="white"/>
<path d="M38.1701 52.4593C39.8432 52.4593 41.1995 51.1029 41.1995 49.4298C41.1995 47.7567 39.8432 46.4004 38.1701 46.4004C36.4969 46.4004 35.1406 47.7567 35.1406 49.4298C35.1406 51.1029 36.4969 52.4593 38.1701 52.4593Z" fill="#D1B68E"/>
<path d="M38.1484 50.5391C38.6662 50.5391 39.0859 50.1193 39.0859 49.6016C39.0859 49.0838 38.6662 48.6641 38.1484 48.6641C37.6307 48.6641 37.2109 49.0838 37.2109 49.6016C37.2109 50.1193 37.6307 50.5391 38.1484 50.5391Z" fill="#231F20"/>
<path d="M35.1562 50.0117C35.674 50.0117 36.0938 49.592 36.0938 49.0742C36.0938 48.5565 35.674 48.1367 35.1562 48.1367C34.6385 48.1367 34.2188 48.5565 34.2188 49.0742C34.2188 49.592 34.6385 50.0117 35.1562 50.0117Z" fill="#231F20"/>
<path d="M32.1641 49.4844C32.6818 49.4844 33.1016 49.0646 33.1016 48.5469C33.1016 48.0291 32.6818 47.6094 32.1641 47.6094C31.6463 47.6094 31.2266 48.0291 31.2266 48.5469C31.2266 49.0646 31.6463 49.4844 32.1641 49.4844Z" fill="#231F20"/>
<path d="M80.1328 57.9424C80.6506 57.9424 81.0703 57.5226 81.0703 57.0049C81.0703 56.4871 80.6506 56.0674 80.1328 56.0674C79.615 56.0674 79.1953 56.4871 79.1953 57.0049C79.1953 57.5226 79.615 57.9424 80.1328 57.9424Z" fill="#231F20"/>
<path d="M77.1406 57.415C77.6584 57.415 78.0781 56.9953 78.0781 56.4775C78.0781 55.9598 77.6584 55.54 77.1406 55.54C76.6229 55.54 76.2031 55.9598 76.2031 56.4775C76.2031 56.9953 76.6229 57.415 77.1406 57.415Z" fill="#231F20"/>
<path d="M74.1484 56.8877C74.6662 56.8877 75.0859 56.468 75.0859 55.9502C75.0859 55.4324 74.6662 55.0127 74.1484 55.0127C73.6307 55.0127 73.2109 55.4324 73.2109 55.9502C73.2109 56.468 73.6307 56.8877 74.1484 56.8877Z" fill="#231F20"/>
<path d="M73.0967 7.44619L84.6103 39.0797C84.9643 40.0522 84.464 41.1283 83.4896 41.4829L28.1479 61.626C27.1734 61.9806 26.0987 61.4779 25.7447 60.5053L14.2308 28.8716C13.8768 27.8991 14.3771 26.823 15.3515 26.4684L70.6935 6.32569C71.6679 5.97094 72.7429 6.47363 73.0967 7.44619Z" fill="white"/>
<path d="M68.5985 15.4593L59.1217 18.9086C58.6352 19.0856 58.0972 18.8347 57.92 18.3483C57.743 17.8617 57.9939 17.3238 58.4803 17.1466L67.9571 13.6974C68.4437 13.5204 68.9816 13.7712 69.1588 14.2576C69.336 14.7442 69.0851 15.2823 68.5985 15.4593Z" fill="#231F20"/>
<path d="M67.8445 19.4105L60.3014 22.156C59.8148 22.333 59.2769 22.0822 59.0997 21.5958C58.9227 21.1092 59.1736 20.5713 59.66 20.3941L67.2031 17.6485C67.6897 17.4715 68.2276 17.7224 68.4048 18.2088C68.582 18.6952 68.3311 19.2335 67.8445 19.4105Z" fill="#231F20"/>
<path d="M25.4774 26.7754C26.9004 30.6851 24.8851 35.0102 20.9737 36.4339L18.7169 30.2338C18.5399 29.7473 18.7906 29.2093 19.2772 29.0321L25.4774 26.7754Z" fill="white"/>
<path d="M73.3665 41.179C71.9436 37.2693 73.9589 32.9442 77.8705 31.5205L80.1272 37.7208C80.3042 38.2073 80.0535 38.7453 79.567 38.9224L73.3665 41.179Z" fill="white"/>
<path d="M32.2412 44.6464C34.6806 44.6464 36.6581 42.6688 36.6581 40.2294C36.6581 37.79 34.6806 35.8125 32.2412 35.8125C29.8017 35.8125 27.8242 37.79 27.8242 40.2294C27.8242 42.6688 29.8017 44.6464 32.2412 44.6464Z" fill="white"/>
<path d="M32.2404 43.2591C33.9135 43.2591 35.2698 41.9027 35.2698 40.2296C35.2698 38.5565 33.9135 37.2002 32.2404 37.2002C30.5673 37.2002 29.2109 38.5565 29.2109 40.2296C29.2109 41.9027 30.5673 43.2591 32.2404 43.2591Z" fill="#D1B68E"/>
<path d="M66.6005 32.1405C69.0399 32.1405 71.0175 30.163 71.0175 27.7236C71.0175 25.2842 69.0399 23.3066 66.6005 23.3066C64.1611 23.3066 62.1836 25.2842 62.1836 27.7236C62.1836 30.163 64.1611 32.1405 66.6005 32.1405Z" fill="white"/>
<path d="M32.6084 51.6133L31.7598 49.2816C31.4241 48.3595 31.9013 47.3361 32.8235 47.0005L33.5789 46.7256C34.501 46.39 35.5244 46.8672 35.86 47.7893L36.7086 50.121C37.0443 51.0432 36.5671 52.0665 35.645 52.4022L34.8895 52.677C33.9674 53.0127 32.944 52.5355 32.6084 51.6133ZM33.3393 48.4174C33.1985 48.4686 33.1255 48.625 33.1767 48.7658L34.0253 51.0975C34.0765 51.2383 34.2329 51.3113 34.3737 51.2599L35.1291 50.985C35.27 50.9338 35.3429 50.7775 35.2915 50.6367L34.4429 48.3049C34.3917 48.1641 34.2353 48.0912 34.0945 48.1423L33.3393 48.4174Z" fill="white"/>
<path d="M31.5761 53.8824C31.1848 54.0249 30.7522 53.8231 30.6097 53.4318L29.3173 49.8807L29.2543 49.9036C28.8629 50.0461 28.4304 49.8444 28.2879 49.453C28.1454 49.0617 28.3473 48.6292 28.7384 48.4867L29.5098 48.2058C29.9011 48.0635 30.3337 48.2651 30.4762 48.6564L32.0266 52.916C32.1691 53.3073 31.9672 53.7399 31.5761 53.8824Z" fill="white"/>
<path d="M66.6562 28.8271C67.174 28.8271 67.5938 28.4074 67.5938 27.8896C67.5938 27.3719 67.174 26.9521 66.6562 26.9521C66.1385 26.9521 65.7188 27.3719 65.7188 27.8896C65.7188 28.4074 66.1385 28.8271 66.6562 28.8271Z" fill="#231F20"/>
<path d="M69.5117 27.7881C70.0295 27.7881 70.4492 27.3684 70.4492 26.8506C70.4492 26.3328 70.0295 25.9131 69.5117 25.9131C68.994 25.9131 68.5742 26.3328 68.5742 26.8506C68.5742 27.3684 68.994 27.7881 69.5117 27.7881Z" fill="#231F20"/>
<path d="M72.3672 26.749C72.885 26.749 73.3047 26.3293 73.3047 25.8115C73.3047 25.2938 72.885 24.874 72.3672 24.874C71.8494 24.874 71.4297 25.2938 71.4297 25.8115C71.4297 26.3293 71.8494 26.749 72.3672 26.749Z" fill="#231F20"/>
<path d="M26.5977 43.4082C27.1154 43.4082 27.5352 42.9885 27.5352 42.4707C27.5352 41.9529 27.1154 41.5332 26.5977 41.5332C26.0799 41.5332 25.6602 41.9529 25.6602 42.4707C25.6602 42.9885 26.0799 43.4082 26.5977 43.4082Z" fill="#231F20"/>
<path d="M29.4531 42.3691C29.9709 42.3691 30.3906 41.9494 30.3906 41.4316C30.3906 40.9139 29.9709 40.4941 29.4531 40.4941C28.9354 40.4941 28.5156 40.9139 28.5156 41.4316C28.5156 41.9494 28.9354 42.3691 29.4531 42.3691Z" fill="#231F20"/>
<path d="M32.3086 41.3301C32.8264 41.3301 33.2461 40.9103 33.2461 40.3926C33.2461 39.8748 32.8264 39.4551 32.3086 39.4551C31.7908 39.4551 31.3711 39.8748 31.3711 40.3926C31.3711 40.9103 31.7908 41.3301 32.3086 41.3301Z" fill="#231F20"/>
<path d="M62.2685 86.2241H12.1445C10.0734 86.2241 8.39453 84.5452 8.39453 82.4741V40.2188C8.39453 38.1476 10.0734 36.4688 12.1445 36.4688H62.2685C64.3397 36.4688 66.0185 38.1476 66.0185 40.2188V82.4741C66.0185 84.5452 64.3397 86.2241 62.2685 86.2241Z" fill="#D1B68E"/>
<path d="M60.3939 43.9688V78.7238C60.3939 79.7606 59.5539 80.5988 58.5189 80.5988H15.8945C14.8595 80.5988 14.0195 79.7606 14.0195 78.7238V43.9688C14.0195 42.9338 14.8595 42.0938 15.8945 42.0938H58.5189C59.5539 42.0938 60.3939 42.9338 60.3939 43.9688Z" fill="white"/>
<path d="M66.0185 68.5991H51.5195C50.484 68.5991 49.6445 67.7597 49.6445 66.7241V55.9688C49.6445 54.9332 50.484 54.0938 51.5195 54.0938H66.0185C67.0541 54.0938 67.8935 54.9332 67.8935 55.9688V66.7241C67.8935 67.7597 67.0541 68.5991 66.0185 68.5991Z" fill="#D1B68E"/>
<path d="M88.59 38.3706L85.1283 37.7593L73.9788 7.12593C73.4482 5.66887 71.8316 4.91474 70.374 5.44518L15.0307 25.5887C14.3248 25.8456 13.7612 26.3619 13.4437 27.0429C13.1263 27.7237 13.0929 28.4874 13.3498 29.1934L15.6564 35.5307H12.1445C9.55984 35.5307 7.45703 37.6335 7.45703 40.2182V69.4082C7.45703 69.9261 7.87666 70.3457 8.39453 70.3457C8.91241 70.3457 9.33203 69.9261 9.33203 69.4082V40.2182C9.33203 38.6674 10.5937 37.4057 12.1445 37.4057H62.2689C63.8197 37.4057 65.0814 38.6674 65.0814 40.2182V53.1564H51.5201C49.9693 53.1564 48.7076 54.4181 48.7076 55.9689V66.7241C48.7076 68.2749 49.9693 69.5366 51.5201 69.5366H65.0814V82.4751C65.0814 84.0259 63.8197 85.2876 62.2689 85.2876H12.1445C10.5937 85.2876 9.33203 84.0259 9.33203 82.4751V74.4182C9.33203 73.9003 8.91241 73.4807 8.39453 73.4807C7.87666 73.4807 7.45703 73.9003 7.45703 74.4182V82.4751C7.45703 85.0597 9.55984 87.1626 12.1445 87.1626H62.2689C64.8536 87.1626 66.9564 85.0597 66.9564 82.4751V74.4516L81.767 77.0625C81.9324 77.0916 82.098 77.106 82.2622 77.106C82.8348 77.106 83.3925 76.9311 83.871 76.5954C84.4858 76.1642 84.8957 75.5194 85.0245 74.7812L90.8709 41.6293C91.1403 40.1019 90.117 38.64 88.59 38.3706ZM50.5826 66.7241V55.9689C50.5826 55.452 51.0032 55.0314 51.5201 55.0314H66.0193C66.5362 55.0314 66.9568 55.452 66.9568 55.9689V66.7241C66.9568 67.2411 66.5362 67.6616 66.0193 67.6616H51.5201C51.0032 67.6616 50.5826 67.2411 50.5826 66.7241ZM89.0246 41.3042L83.1778 74.4574C83.1348 74.7032 82.9987 74.9173 82.7943 75.0606C82.5892 75.2047 82.3395 75.2599 82.0929 75.2162L66.9564 72.5479V69.3727C68.0473 68.9856 68.8318 67.9461 68.8318 66.7241V55.9689C68.8318 54.747 68.0473 53.7075 66.9564 53.3203V40.2182C66.9564 37.6335 64.8536 35.5307 62.2689 35.5307H17.6503C17.6488 35.5262 17.6484 35.5215 17.6467 35.517L15.1115 28.5521C14.9349 28.0663 15.186 27.5274 15.6718 27.3506L71.0154 7.20712C71.5008 7.03106 72.0405 7.28174 72.2171 7.76737L83.7305 39.4009C83.9072 39.8867 83.6559 40.4257 83.1703 40.6026L70.7087 45.138C70.2221 45.315 69.9712 45.8529 70.1484 46.3395C70.287 46.7201 70.6464 46.9566 71.0293 46.9566C71.1358 46.9566 71.2442 46.9384 71.3499 46.8997L83.8117 42.3643C84.9397 41.9535 85.643 40.8915 85.6588 39.7569L88.2643 40.2169C88.7733 40.3069 89.1142 40.7946 89.0246 41.3042Z" fill="#231F20"/>
<path d="M56.6226 63.4805C57.8013 63.4805 58.7569 62.525 58.7569 61.3462C58.7569 60.1675 57.8013 59.2119 56.6226 59.2119C55.4438 59.2119 54.4883 60.1675 54.4883 61.3462C54.4883 62.525 55.4438 63.4805 56.6226 63.4805Z" fill="white"/>
<path d="M17.5742 42.999H15.9336C15.4159 42.999 14.9961 42.5792 14.9961 42.0615C14.9961 41.5438 15.4159 41.124 15.9336 41.124H17.5742C18.0919 41.124 18.5117 41.5438 18.5117 42.0615C18.5117 42.5794 18.0921 42.999 17.5742 42.999Z" fill="#231F20"/>
<path d="M23.418 42.999H21.7773C21.2597 42.999 20.8398 42.5792 20.8398 42.0615C20.8398 41.5438 21.2597 41.124 21.7773 41.124H23.418C23.9357 41.124 24.3555 41.5438 24.3555 42.0615C24.3555 42.5794 23.9358 42.999 23.418 42.999Z" fill="#231F20"/>
<path d="M29.2617 42.999H27.6211C27.1034 42.999 26.6836 42.5792 26.6836 42.0615C26.6836 41.5438 27.1034 41.124 27.6211 41.124H29.2617C29.7794 41.124 30.1992 41.5438 30.1992 42.0615C30.1992 42.5794 29.7794 42.999 29.2617 42.999Z" fill="#231F20"/>
<path d="M35.1055 42.999H33.4648C32.9472 42.999 32.5273 42.5792 32.5273 42.0615C32.5273 41.5438 32.9472 41.124 33.4648 41.124H35.1055C35.6232 41.124 36.043 41.5438 36.043 42.0615C36.043 42.5794 35.6232 42.999 35.1055 42.999Z" fill="#231F20"/>
<path d="M40.9492 42.999H39.3086C38.7909 42.999 38.3711 42.5792 38.3711 42.0615C38.3711 41.5438 38.7909 41.124 39.3086 41.124H40.9492C41.4669 41.124 41.8867 41.5438 41.8867 42.0615C41.8867 42.5794 41.4671 42.999 40.9492 42.999Z" fill="#231F20"/>
<path d="M46.793 42.999H45.1523C44.6347 42.999 44.2148 42.5792 44.2148 42.0615C44.2148 41.5438 44.6347 41.124 45.1523 41.124H46.793C47.3107 41.124 47.7305 41.5438 47.7305 42.0615C47.7305 42.5794 47.3108 42.999 46.793 42.999Z" fill="#231F20"/>
<path d="M52.6367 42.999H50.9961C50.4784 42.999 50.0586 42.5792 50.0586 42.0615C50.0586 41.5438 50.4784 41.124 50.9961 41.124H52.6367C53.1544 41.124 53.5742 41.5438 53.5742 42.0615C53.5742 42.5794 53.1544 42.999 52.6367 42.999Z" fill="#231F20"/>
<path d="M58.4805 42.999H56.8398C56.3222 42.999 55.9023 42.5792 55.9023 42.0615C55.9023 41.5438 56.3222 41.124 56.8398 41.124H58.4805C58.9982 41.124 59.418 41.5438 59.418 42.0615C59.418 42.5794 58.9982 42.999 58.4805 42.999Z" fill="#231F20"/>
<path d="M17.5742 81.5049H15.9336C15.4159 81.5049 14.9961 81.0851 14.9961 80.5674C14.9961 80.0497 15.4159 79.6299 15.9336 79.6299H17.5742C18.0919 79.6299 18.5117 80.0497 18.5117 80.5674C18.5117 81.0851 18.0921 81.5049 17.5742 81.5049Z" fill="#231F20"/>
<path d="M23.418 81.5049H21.7773C21.2597 81.5049 20.8398 81.0851 20.8398 80.5674C20.8398 80.0497 21.2597 79.6299 21.7773 79.6299H23.418C23.9357 79.6299 24.3555 80.0497 24.3555 80.5674C24.3555 81.0851 23.9358 81.5049 23.418 81.5049Z" fill="#231F20"/>
<path d="M29.2617 81.5049H27.6211C27.1034 81.5049 26.6836 81.0851 26.6836 80.5674C26.6836 80.0497 27.1034 79.6299 27.6211 79.6299H29.2617C29.7794 79.6299 30.1992 80.0497 30.1992 80.5674C30.1992 81.0851 29.7794 81.5049 29.2617 81.5049Z" fill="#231F20"/>
<path d="M35.1055 81.5049H33.4648C32.9472 81.5049 32.5273 81.0851 32.5273 80.5674C32.5273 80.0497 32.9472 79.6299 33.4648 79.6299H35.1055C35.6232 79.6299 36.043 80.0497 36.043 80.5674C36.043 81.0851 35.6232 81.5049 35.1055 81.5049Z" fill="#231F20"/>
<path d="M40.9492 81.5049H39.3086C38.7909 81.5049 38.3711 81.0851 38.3711 80.5674C38.3711 80.0497 38.7909 79.6299 39.3086 79.6299H40.9492C41.4669 79.6299 41.8867 80.0497 41.8867 80.5674C41.8867 81.0851 41.4671 81.5049 40.9492 81.5049Z" fill="#231F20"/>
<path d="M46.793 81.5049H45.1523C44.6347 81.5049 44.2148 81.0851 44.2148 80.5674C44.2148 80.0497 44.6347 79.6299 45.1523 79.6299H46.793C47.3107 79.6299 47.7305 80.0497 47.7305 80.5674C47.7305 81.0851 47.3108 81.5049 46.793 81.5049Z" fill="#231F20"/>
<path d="M52.6367 81.5049H50.9961C50.4784 81.5049 50.0586 81.0851 50.0586 80.5674C50.0586 80.0497 50.4784 79.6299 50.9961 79.6299H52.6367C53.1544 79.6299 53.5742 80.0497 53.5742 80.5674C53.5742 81.0851 53.1544 81.5049 52.6367 81.5049Z" fill="#231F20"/>
<path d="M58.4805 81.5049H56.8398C56.3222 81.5049 55.9023 81.0851 55.9023 80.5674C55.9023 80.0497 56.3222 79.6299 56.8398 79.6299H58.4805C58.9982 79.6299 59.418 80.0497 59.418 80.5674C59.418 81.0851 58.9982 81.5049 58.4805 81.5049Z" fill="#231F20"/>
<path d="M13.082 47.5244V45.8838C13.082 45.3661 13.5018 44.9463 14.0195 44.9463C14.5372 44.9463 14.957 45.3661 14.957 45.8838V47.5244C14.957 48.0421 14.5372 48.4619 14.0195 48.4619C13.5018 48.4619 13.082 48.0421 13.082 47.5244Z" fill="#231F20"/>
<path d="M13.082 53.3682V51.7275C13.082 51.2099 13.5018 50.79 14.0195 50.79C14.5372 50.79 14.957 51.2099 14.957 51.7275V53.3682C14.957 53.8859 14.5372 54.3057 14.0195 54.3057C13.5018 54.3057 13.082 53.886 13.082 53.3682Z" fill="#231F20"/>
<path d="M13.082 59.2119V57.5713C13.082 57.0536 13.5018 56.6338 14.0195 56.6338C14.5372 56.6338 14.957 57.0536 14.957 57.5713V59.2119C14.957 59.7296 14.5372 60.1494 14.0195 60.1494C13.5018 60.1494 13.082 59.7298 13.082 59.2119Z" fill="#231F20"/>
<path d="M13.082 65.0566V63.416C13.082 62.8983 13.5018 62.4785 14.0195 62.4785C14.5372 62.4785 14.957 62.8983 14.957 63.416V65.0566C14.957 65.5743 14.5372 65.9941 14.0195 65.9941C13.5018 65.9941 13.082 65.5743 13.082 65.0566Z" fill="#231F20"/>
<path d="M13.082 70.9004V69.2598C13.082 68.7421 13.5018 68.3223 14.0195 68.3223C14.5372 68.3223 14.957 68.7421 14.957 69.2598V70.9004C14.957 71.4181 14.5372 71.8379 14.0195 71.8379C13.5018 71.8379 13.082 71.4181 13.082 70.9004Z" fill="#231F20"/>
<path d="M13.082 76.7441V75.1035C13.082 74.5858 13.5018 74.166 14.0195 74.166C14.5372 74.166 14.957 74.5858 14.957 75.1035V76.7441C14.957 77.2618 14.5372 77.6816 14.0195 77.6816C13.5018 77.6816 13.082 77.262 13.082 76.7441Z" fill="#231F20"/>
<path d="M26.2656 12.6953C26.0258 12.6953 25.7856 12.6038 25.6028 12.4206L24.5781 11.3961L23.5534 12.4206C23.1876 12.7868 22.5936 12.7868 22.2278 12.4206C21.8616 12.0546 21.8616 11.461 22.2278 11.095L23.9153 9.40745C24.2811 9.04127 24.8751 9.04127 25.2409 9.40745L26.9284 11.095C27.2946 11.461 27.2946 12.0546 26.9284 12.4206C26.7456 12.6038 26.5054 12.6953 26.2656 12.6953Z" fill="#D1B68E"/>
<path d="M74.9921 85.8476C74.7523 85.8476 74.5121 85.7561 74.3293 85.5729L73.3046 84.5484L72.28 85.5729C71.9141 85.9391 71.3201 85.9391 70.9543 85.5729C70.5881 85.2069 70.5881 84.6133 70.9543 84.2473L72.6418 82.5598C73.0076 82.1936 73.6016 82.1936 73.9675 82.5598L75.655 84.2473C76.0211 84.6133 76.0211 85.2069 75.655 85.5729C75.472 85.7561 75.232 85.8476 74.9921 85.8476Z" fill="#D1B68E"/>
<path d="M89.1601 28.3584C88.9203 28.3584 88.6801 28.2669 88.4973 28.0837L87.4726 27.0592L86.4479 28.0837C86.0821 28.4499 85.4881 28.4499 85.1223 28.0837C84.7561 27.7177 84.7561 27.124 85.1223 26.758L86.8098 25.0705C87.1756 24.7044 87.7696 24.7044 88.1354 25.0705L89.8229 26.758C90.1891 27.124 90.1891 27.7177 89.8229 28.0837C89.6399 28.2667 89.3999 28.3584 89.1601 28.3584Z" fill="#D1B68E"/>
<path d="M32.6093 14.8515C32.3695 14.8515 32.1293 14.76 31.9465 14.5768C31.5803 14.2108 31.5803 13.6172 31.9465 13.2512L33.8215 11.3762C34.1873 11.01 34.7813 11.01 35.1471 11.3762C35.5133 11.7422 35.5133 12.3358 35.1471 12.7018L33.2721 14.5768C33.0891 14.76 32.8491 14.8515 32.6093 14.8515Z" fill="#D1B68E"/>
<path d="M6.55855 34.1455C6.31873 34.1455 6.07855 34.054 5.89573 33.8708C5.52955 33.5048 5.52955 32.9111 5.89573 32.5451L7.77073 30.6701C8.13655 30.304 8.73055 30.304 9.09636 30.6701C9.46255 31.0361 9.46255 31.6298 9.09636 31.9958L7.22136 33.8708C7.03855 34.054 6.79855 34.1455 6.55855 34.1455Z" fill="#D1B68E"/>
</g>
<defs>
<linearGradient id="paint0_linear_5026_17305" x1="48.0001" y1="102.875" x2="48.0001" y2="14.048" gradientUnits="userSpaceOnUse">
<stop stop-color="#F8F4E8"/>
<stop offset="1" stop-color="#E4D1B1"/>
</linearGradient>
<clipPath id="clip0_5026_17305">
<rect width="96" height="96" fill="white"/>
</clipPath>
</defs>
</svg>
