<svg width="16" height="16" viewBox="0 0 16 16" xmlns="http://www.w3.org/2000/svg">
<path d="M11.8739 7.84961C11.3204 7.84961 10.2136 8.93634 7.99988 8.93634C5.78617 8.93634 4.67932 7.84961 4.1259 7.84961C3.51491 7.84961 3.01904 8.33646 3.01904 8.93634C3.01904 9.4797 3.33339 9.74106 3.57247 9.87853C4.22828 10.2551 6.3396 11.1098 6.3396 11.1098L3.98754 14.0646C3.98754 14.0646 3.57247 14.5727 3.57247 14.9133C3.57247 15.5132 4.06834 16.0001 4.67932 16.0001C5.24437 16.0001 5.50061 15.6436 5.50061 15.6436C5.50061 15.6436 7.99601 12.7361 7.99988 12.7399C8.00375 12.7361 10.4992 15.6436 10.4992 15.6436C10.4992 15.6436 10.7554 16.0001 11.3204 16.0001C11.9314 16.0001 12.4273 15.5132 12.4273 14.9133C12.4273 14.5727 12.0122 14.0646 12.0122 14.0646L9.66016 11.1098C9.66016 11.1098 11.7715 10.2551 12.4273 9.87853C12.6664 9.74106 12.9807 9.4797 12.9807 8.93634C12.9807 8.33646 12.4848 7.84961 11.8739 7.84961Z"/>
<path d="M8.00121 0.130371C5.82808 0.130371 4.06641 1.89204 4.06641 4.06518C4.06641 6.23832 5.82808 7.99999 8.00121 7.99999C10.1738 7.99999 11.936 6.23832 11.936 4.06518C11.936 1.89204 10.1738 0.130371 8.00121 0.130371ZM8.00121 6.03258C6.91464 6.03258 6.03381 5.15231 6.03381 4.06518C6.03381 2.97861 6.91464 2.09777 8.00121 2.09777C9.08722 2.09777 9.96862 2.97861 9.96862 4.06518C9.96862 5.15231 9.08722 6.03258 8.00121 6.03258Z"/>
</svg>
