<svg width="96" height="96" viewBox="0 0 96 96" fill="none" xmlns="http://www.w3.org/2000/svg">
<path d="M78.7206 38.4016C78.9184 36.9469 79.0149 35.4603 79.0035 33.9488C78.8737 17.0691 65.0805 3.2952 48.2008 3.18813C30.9855 3.0792 16.9956 17.0018 16.9956 34.192C16.9956 35.6198 17.0923 37.0249 17.2794 38.4014C18.0375 43.9789 15.4256 49.4907 10.6772 52.5132C3.99994 56.7634 0 62.1769 0 68.0719C0 81.7362 21.4903 92.8133 48 92.8133C74.5097 92.8133 96 81.7362 96 68.0719C96 62.1769 92.0001 56.7634 85.3226 52.5132C80.5742 49.4907 77.9625 43.9789 78.7206 38.4016Z" fill="url(#paint0_linear_4662_27321)"/>
<path opacity="0.1" d="M85.2589 37.5938H19.9752C18.9396 37.5938 18.1002 38.4332 18.1002 39.4688V54.0641H12.1797C11.1441 54.0641 10.3047 54.9036 10.3047 55.9391V82.3622C10.3047 83.3978 11.1441 84.2372 12.1797 84.2372H53.6796C54.7152 84.2372 55.5546 83.3978 55.5546 82.3622V75.3979H85.2589C86.2945 75.3979 87.1339 74.5584 87.1339 73.5229V39.4688C87.1339 38.4334 86.2945 37.5938 85.2589 37.5938Z" fill="#231F20"/>
<path d="M81.5078 79.5203C81.268 79.5203 81.0278 79.4288 80.845 79.2458C80.4788 78.8797 80.4788 78.286 80.845 77.92L82.7199 76.045C83.0858 75.679 83.6798 75.679 84.0456 76.045C84.4118 76.4112 84.4118 77.0048 84.0456 77.3708L82.1706 79.2458C81.9878 79.4288 81.7476 79.5203 81.5078 79.5203Z" fill="#D1B68E"/>
<path d="M75.5859 13.0916C75.3461 13.0916 75.1059 13.0001 74.9231 12.8171C74.5569 12.4509 74.5569 11.8573 74.9231 11.4913L76.7981 9.6163C77.1639 9.2503 77.7579 9.2503 78.1237 9.6163C78.4899 9.98248 78.4899 10.5761 78.1237 10.9421L76.2487 12.8171C76.0659 13.0001 75.8257 13.0916 75.5859 13.0916Z" fill="#D1B68E"/>
<path d="M56.4101 17.0291C56.1703 17.0291 55.9301 16.9376 55.7473 16.7546C55.3811 16.3884 55.3811 15.7948 55.7473 15.4288L57.6223 13.5538C57.9881 13.1878 58.5821 13.1878 58.9479 13.5538C59.3141 13.92 59.3141 14.5136 58.9479 14.8796L57.0729 16.7546C56.8899 16.9374 56.6499 17.0291 56.4101 17.0291Z" fill="#D1B68E"/>
<path d="M65.2382 86.659C64.9984 86.659 64.7582 86.5675 64.5754 86.3845L63.3632 85.1725L62.151 86.3845C61.7852 86.7505 61.1912 86.7505 60.8254 86.3845C60.4592 86.0183 60.4592 85.4247 60.8254 85.0587L62.7004 83.1837C63.0662 82.8177 63.6602 82.8177 64.026 83.1837L65.901 85.0587C66.2672 85.4249 66.2672 86.0185 65.901 86.3845C65.718 86.5675 65.478 86.659 65.2382 86.659Z" fill="#D1B68E"/>
<path d="M12.6171 44.4783C12.3771 44.4783 12.1373 44.3868 11.9541 44.2038L10.7421 42.9918L9.53014 44.2038C9.16395 44.5698 8.57052 44.5698 8.20433 44.2038C7.83814 43.8376 7.83814 43.244 8.20433 42.878L10.0793 41.003C10.4455 40.637 11.039 40.637 11.4051 41.003L13.2801 42.878C13.6463 43.2442 13.6463 43.8378 13.2801 44.2038C13.097 44.3868 12.8571 44.4783 12.6171 44.4783Z" fill="#D1B68E"/>
<path d="M85.2603 71.4615H19.9766C18.941 71.4615 18.1016 70.6221 18.1016 69.5865V35.5322C18.1016 34.4967 18.941 33.6572 19.9766 33.6572H85.2603C86.2959 33.6572 87.1353 34.4967 87.1353 35.5322V69.5863C87.1353 70.6219 86.2959 71.4615 85.2603 71.4615Z" fill="white"/>
<path d="M85.2603 58.6881H19.9766C18.941 58.6881 18.1016 57.8487 18.1016 56.8131V22.7588C18.1016 21.7232 18.941 20.8838 19.9766 20.8838H85.2603C86.2959 20.8838 87.1353 21.7232 87.1353 22.7588V56.8129C87.1353 57.8485 86.2959 58.6881 85.2603 58.6881Z" fill="white"/>
<path d="M79.1941 27.6902L79.6612 25.7957C79.8069 25.2047 79.3597 24.6338 78.7509 24.6338H26.4858C25.8772 24.6338 25.4298 25.2047 25.5755 25.7957L26.0427 27.6902C26.2115 28.3748 25.5926 28.9937 24.908 28.825L23.0135 28.3579C22.4225 28.2122 21.8516 28.6594 21.8516 29.2682V50.3038C21.8516 50.9125 22.4225 51.3598 23.0135 51.2142L24.908 50.7469C25.5926 50.5782 26.2115 51.1971 26.0427 51.8817L25.5755 53.7762C25.4298 54.3672 25.877 54.9381 26.4858 54.9381H78.7511C79.3597 54.9381 79.8071 54.3672 79.6614 53.7762L79.1943 51.8817C79.0256 51.1971 79.6445 50.5782 80.3291 50.7469L82.2236 51.2142C82.8146 51.3598 83.3855 50.9127 83.3855 50.3038V29.2682C83.3855 28.6596 82.8146 28.2122 82.2236 28.3579L80.3291 28.825C79.6443 28.9935 79.0254 28.3748 79.1941 27.6902Z" fill="white"/>
<path d="M26.5781 27.876H24.9375C24.4198 27.876 24 27.4562 24 26.9385C24 26.4208 24.4198 26.001 24.9375 26.001H26.5781C27.0958 26.001 27.5156 26.4208 27.5156 26.9385C27.5156 27.4562 27.0958 27.876 26.5781 27.876Z" fill="#231F20"/>
<path d="M32.4219 27.876H30.7812C30.2636 27.876 29.8438 27.4562 29.8438 26.9385C29.8438 26.4208 30.2636 26.001 30.7812 26.001H32.4219C32.9396 26.001 33.3594 26.4208 33.3594 26.9385C33.3594 27.4562 32.9397 27.876 32.4219 27.876Z" fill="#231F20"/>
<path d="M38.2656 27.876H36.625C36.1073 27.876 35.6875 27.4562 35.6875 26.9385C35.6875 26.4208 36.1073 26.001 36.625 26.001H38.2656C38.7833 26.001 39.2031 26.4208 39.2031 26.9385C39.2031 27.4562 38.7835 27.876 38.2656 27.876Z" fill="#231F20"/>
<path d="M44.1094 27.876H42.4688C41.9511 27.876 41.5312 27.4562 41.5312 26.9385C41.5312 26.4208 41.9511 26.001 42.4688 26.001H44.1094C44.6271 26.001 45.0469 26.4208 45.0469 26.9385C45.0469 27.4562 44.6271 27.876 44.1094 27.876Z" fill="#231F20"/>
<path d="M49.9531 27.876H48.3125C47.7948 27.876 47.375 27.4562 47.375 26.9385C47.375 26.4208 47.7948 26.001 48.3125 26.001H49.9531C50.4708 26.001 50.8906 26.4208 50.8906 26.9385C50.8906 27.4562 50.4708 27.876 49.9531 27.876Z" fill="#231F20"/>
<path d="M55.7969 27.876H54.1562C53.6386 27.876 53.2188 27.4562 53.2188 26.9385C53.2188 26.4208 53.6386 26.001 54.1562 26.001H55.7969C56.3146 26.001 56.7344 26.4208 56.7344 26.9385C56.7344 27.4562 56.3147 27.876 55.7969 27.876Z" fill="#231F20"/>
<path d="M61.6406 27.876H60C59.4823 27.876 59.0625 27.4562 59.0625 26.9385C59.0625 26.4208 59.4823 26.001 60 26.001H61.6406C62.1583 26.001 62.5781 26.4208 62.5781 26.9385C62.5781 27.4562 62.1583 27.876 61.6406 27.876Z" fill="#231F20"/>
<path d="M61.6406 53.876H60C59.4823 53.876 59.0625 53.4562 59.0625 52.9385C59.0625 52.4208 59.4823 52.001 60 52.001H61.6406C62.1583 52.001 62.5781 52.4208 62.5781 52.9385C62.5781 53.4562 62.1583 53.876 61.6406 53.876Z" fill="#231F20"/>
<path d="M74.5781 27.876H72.9375C72.4198 27.876 72 27.4562 72 26.9385C72 26.4208 72.4198 26.001 72.9375 26.001H74.5781C75.0958 26.001 75.5156 26.4208 75.5156 26.9385C75.5156 27.4562 75.0958 27.876 74.5781 27.876Z" fill="#231F20"/>
<path d="M74.5781 53.876H72.9375C72.4198 53.876 72 53.4562 72 52.9385C72 52.4208 72.4198 52.001 72.9375 52.001H74.5781C75.0958 52.001 75.5156 52.4208 75.5156 52.9385C75.5156 53.4562 75.0958 53.876 74.5781 53.876Z" fill="#231F20"/>
<path d="M67.4844 27.876H65.8438C65.3261 27.876 64.9062 27.4562 64.9062 26.9385C64.9062 26.4208 65.3261 26.001 65.8438 26.001H67.4844C68.0021 26.001 68.4219 26.4208 68.4219 26.9385C68.4219 27.4562 68.0021 27.876 67.4844 27.876Z" fill="#231F20"/>
<path d="M67.4844 53.876H65.8438C65.3261 53.876 64.9062 53.4562 64.9062 52.9385C64.9062 52.4208 65.3261 52.001 65.8438 52.001H67.4844C68.0021 52.001 68.4219 52.4208 68.4219 52.9385C68.4219 53.4562 68.0021 53.876 67.4844 53.876Z" fill="#231F20"/>
<path d="M80.4219 27.876H78.7812C78.2636 27.876 77.8438 27.4562 77.8438 26.9385C77.8438 26.4208 78.2636 26.001 78.7812 26.001H80.4219C80.9396 26.001 81.3594 26.4208 81.3594 26.9385C81.3594 27.4562 80.9396 27.876 80.4219 27.876Z" fill="#231F20"/>
<path d="M80.4219 53.876H78.7812C78.2636 53.876 77.8438 53.4562 77.8438 52.9385C77.8438 52.4208 78.2636 52.001 78.7812 52.001H80.4219C80.9396 52.001 81.3594 52.4208 81.3594 52.9385C81.3594 53.4562 80.9396 53.876 80.4219 53.876Z" fill="#231F20"/>
<path d="M53.6796 80.3002H12.1797C11.1441 80.3002 10.3047 79.4608 10.3047 78.4252V52.002C10.3047 50.9664 11.1441 50.127 12.1797 50.127H53.6796C54.7152 50.127 55.5546 50.9664 55.5546 52.002V78.425C55.5546 79.4606 54.7152 80.3002 53.6796 80.3002Z" fill="white"/>
<path d="M10.3047 55.0332H55.5546V61.1583H10.3047V55.0332Z" fill="#D1B68E"/>
<path d="M85.2589 19.9463H19.9752C18.4244 19.9463 17.1627 21.208 17.1627 22.7588V43.7522C17.1627 44.2699 17.5825 44.6897 18.1002 44.6897C18.6179 44.6897 19.0377 44.2699 19.0377 43.7522V22.7588C19.0377 22.2419 19.4582 21.8213 19.9752 21.8213H85.2589C85.7759 21.8213 86.1964 22.2419 86.1964 22.7588V56.8129C86.1964 57.3298 85.7759 57.7504 85.2589 57.7504H61.9296C61.4117 57.7504 60.9921 58.1702 60.9921 58.6879C60.9921 59.2056 61.4117 59.6254 61.9296 59.6254H85.2589C85.588 59.6254 85.9026 59.5656 86.1964 59.4613V61.1929C86.1964 61.7098 85.7759 62.1304 85.2589 62.1304H56.4921V52.0024C56.4921 50.4516 55.2304 49.1899 53.6796 49.1899H12.1797C10.6289 49.1899 9.36719 50.4516 9.36719 52.0024V78.4255C9.36719 79.9763 10.6289 81.238 12.1797 81.238H53.6796C55.2304 81.238 56.4921 79.9763 56.4921 78.4255V72.3987H85.2589C86.8097 72.3987 88.0714 71.137 88.0714 69.5862V22.7588C88.0714 21.2078 86.8097 19.9463 85.2589 19.9463ZM85.2589 64.0052C85.588 64.0052 85.9026 63.9454 86.1964 63.8412V65.3893C86.1964 65.9063 85.7759 66.3268 85.2589 66.3268H56.4921V64.0052H85.2589ZM54.6171 78.4255C54.6171 78.9424 54.1966 79.363 53.6796 79.363H12.1797C11.6628 79.363 11.2422 78.9424 11.2422 78.4255V52.0022C11.2422 51.4853 11.6628 51.0647 12.1797 51.0647H53.6796C54.1966 51.0647 54.6171 51.4853 54.6171 52.0022V78.4255ZM85.2589 70.5237H56.4921V68.202H85.2589C85.588 68.202 85.9026 68.1422 86.1964 68.038V69.5862C86.1964 70.1029 85.7759 70.5237 85.2589 70.5237Z" fill="#231F20"/>
<path d="M23.8672 75.8379H15.8984C15.3806 75.8379 14.9609 75.4181 14.9609 74.9004C14.9609 74.3827 15.3806 73.9629 15.8984 73.9629H23.8672C24.3851 73.9629 24.8047 74.3827 24.8047 74.9004C24.8047 75.4181 24.3851 75.8379 23.8672 75.8379Z" fill="#231F20"/>
<path d="M18.0723 66.1514H15.8984C15.3806 66.1514 14.9609 65.7316 14.9609 65.2139C14.9609 64.6962 15.3806 64.2764 15.8984 64.2764H18.0723C18.5902 64.2764 19.0098 64.6962 19.0098 65.2139C19.0098 65.7316 18.5902 66.1514 18.0723 66.1514Z" fill="#231F20"/>
<path d="M35.6797 75.8379H27.7109C27.1931 75.8379 26.7734 75.4181 26.7734 74.9004C26.7734 74.3827 27.1931 73.9629 27.7109 73.9629H35.6797C36.1976 73.9629 36.6172 74.3827 36.6172 74.9004C36.6172 75.4181 36.1976 75.8379 35.6797 75.8379Z" fill="#231F20"/>
<path d="M30.6172 72.0449H15.8984C15.3806 72.0449 14.9609 71.6251 14.9609 71.1074C14.9609 70.5897 15.3806 70.1699 15.8984 70.1699H30.6172C31.1351 70.1699 31.5547 70.5897 31.5547 71.1074C31.5547 71.6251 31.1351 72.0449 30.6172 72.0449Z" fill="#231F20"/>
<path d="M50.0078 68.0262C49.768 68.0262 49.5278 67.9347 49.345 67.7517C48.9788 67.3855 48.9788 66.7919 49.345 66.4259L51.22 64.5509C51.5858 64.1849 52.1798 64.1849 52.5456 64.5509C52.9118 64.9171 52.9118 65.5107 52.5456 65.8767L50.6706 67.7517C50.4878 67.9345 50.2478 68.0262 50.0078 68.0262Z" fill="#231F20"/>
<path d="M45.5197 68.0262C45.2797 68.0262 45.0399 67.9347 44.8567 67.7517C44.4905 67.3855 44.4905 66.7919 44.8567 66.4259L46.7317 64.5509C47.0979 64.1849 47.6913 64.1849 48.0575 64.5509C48.4235 64.9171 48.4235 65.5107 48.0575 65.8767L46.1825 67.7517C45.9995 67.9345 45.7597 68.0262 45.5197 68.0262Z" fill="#231F20"/>
<path d="M41.0314 68.0262C40.7914 68.0262 40.5516 67.9347 40.3684 67.7517C40.0022 67.3855 40.0022 66.7919 40.3684 66.4259L42.2434 64.5509C42.6096 64.1849 43.203 64.1849 43.5692 64.5509C43.9354 64.9171 43.9354 65.5107 43.5692 65.8767L41.6942 67.7517C41.5112 67.9345 41.2714 68.0262 41.0314 68.0262Z" fill="#231F20"/>
<path d="M36.5431 68.0262C36.3031 68.0262 36.0633 67.9347 35.8801 67.7517C35.5139 67.3855 35.5139 66.7919 35.8801 66.4259L37.7551 64.5509C38.1213 64.1849 38.7147 64.1849 39.0809 64.5509C39.4471 64.9171 39.4471 65.5107 39.0809 65.8767L37.2059 67.7517C37.0229 67.9345 36.7831 68.0262 36.5431 68.0262Z" fill="#231F20"/>
<path d="M26.5743 62.7042H15.8984C15.3808 62.7042 14.9609 62.2844 14.9609 61.7667V60.5498C14.9609 60.0321 15.3808 59.6123 15.8984 59.6123H26.5743C27.092 59.6123 27.5118 60.0321 27.5118 60.5498V61.7667C27.5118 62.2846 27.0922 62.7042 26.5743 62.7042Z" fill="#231F20"/>
<path d="M85.5341 47H66.4659C65.4189 47 65 46.369 65 46.0611V34.9389C65 34.631 65.4189 34 66.4659 34H85.5341C86.5811 34 87 34.631 87 34.9389V46.0611C87 46.369 86.5811 47 85.5341 47Z" fill="#D1B68E" stroke="#231F20" stroke-width="2"/>
<path d="M71.1343 42.3878C72.3131 42.3878 73.2686 41.4322 73.2686 40.2535C73.2686 39.0747 72.3131 38.1191 71.1343 38.1191C69.9556 38.1191 69 39.0747 69 40.2535C69 41.4322 69.9556 42.3878 71.1343 42.3878Z" fill="white"/>
<defs>
<linearGradient id="paint0_linear_4662_27321" x1="48.0001" y1="115.124" x2="48.0001" y2="9.75915" gradientUnits="userSpaceOnUse">
<stop stop-color="#F8F4E8"/>
<stop offset="1" stop-color="#E4D1B1"/>
</linearGradient>
</defs>
</svg>
