<svg width="16" height="10" viewBox="0 0 16 10" xmlns="http://www.w3.org/2000/svg">
<path d="M15.9151 8.61188C15.8958 8.5709 15.8777 8.53691 15.8609 8.50967C15.5833 8.01895 15.0528 7.41662 14.2698 6.70251L14.2533 6.68616L14.245 6.67814L14.2366 6.66992H14.2282C13.8728 6.33739 13.6478 6.11381 13.5535 5.99934C13.3811 5.78129 13.3424 5.56057 13.4367 5.33693C13.5033 5.16796 13.7534 4.81112 14.1864 4.26593C14.4142 3.97699 14.5946 3.74542 14.7279 3.57095C15.6887 2.31715 16.1053 1.51595 15.9775 1.16704L15.9279 1.08551C15.8945 1.03642 15.8084 0.991517 15.6698 0.950563C15.5308 0.909696 15.3531 0.902937 15.1364 0.930173L12.7373 0.946439C12.6985 0.932922 12.643 0.934182 12.5707 0.950563C12.4984 0.966945 12.4623 0.975164 12.4623 0.975164L12.4206 0.995641L12.3874 1.02024C12.3596 1.03651 12.3291 1.06512 12.2957 1.10601C12.2626 1.14677 12.2348 1.19459 12.2126 1.24909C11.9514 1.90867 11.6545 2.52191 11.3212 3.08879C11.1157 3.42681 10.9269 3.71976 10.7546 3.9678C10.5825 4.21575 10.4381 4.39844 10.3215 4.51554C10.2048 4.63276 10.0995 4.72667 10.0049 4.7976C9.91044 4.86857 9.83834 4.89856 9.78842 4.88759C9.73838 4.87662 9.69125 4.86574 9.64664 4.85485C9.56894 4.80577 9.50644 4.73901 9.45932 4.65452C9.41199 4.57004 9.38013 4.46371 9.36347 4.3356C9.3469 4.20742 9.33709 4.09716 9.33429 4.00445C9.33169 3.91187 9.33289 3.7809 9.33852 3.61193C9.3443 3.44288 9.3469 3.32849 9.3469 3.26853C9.3469 3.06135 9.35101 2.83651 9.35927 2.59394C9.36767 2.35137 9.37447 2.15917 9.38016 2.01759C9.38582 1.87585 9.38844 1.7259 9.38844 1.56781C9.38844 1.40973 9.37864 1.28575 9.35927 1.19577C9.34013 1.1059 9.31074 1.01867 9.27202 0.934096C9.23307 0.849612 9.17606 0.784258 9.10125 0.737864C9.02629 0.691526 8.93309 0.654754 8.82219 0.627433C8.52781 0.56205 8.15296 0.526682 7.69747 0.521183C6.66454 0.5103 6.00083 0.575768 5.70648 0.717501C5.58985 0.777385 5.48432 0.859206 5.38996 0.962706C5.28996 1.08267 5.27602 1.14814 5.3482 1.15891C5.68147 1.20791 5.91741 1.32513 6.05626 1.51045L6.1063 1.60865C6.14523 1.67951 6.18409 1.80494 6.22299 1.98479C6.26182 2.16465 6.28689 2.3636 6.29792 2.58154C6.32563 2.97953 6.32563 3.32022 6.29792 3.60363C6.27011 3.88715 6.24385 4.10787 6.21878 4.26595C6.19372 4.42404 6.15626 4.55214 6.1063 4.65023C6.05626 4.74835 6.02297 4.80832 6.00628 4.83008C5.98962 4.85185 5.97573 4.86556 5.9647 4.87095C5.89252 4.8981 5.81744 4.91193 5.73974 4.91193C5.66192 4.91193 5.56756 4.87373 5.45651 4.79738C5.34549 4.72102 5.23027 4.61615 5.11084 4.48258C4.99141 4.34898 4.85673 4.16228 4.70673 3.92246C4.55684 3.68264 4.40132 3.3992 4.24026 3.07215L4.107 2.83496C4.0237 2.68238 3.9099 2.4602 3.7655 2.16863C3.62101 1.87694 3.4933 1.59479 3.38228 1.32224C3.3379 1.20777 3.27123 1.12062 3.18238 1.06065L3.14069 1.03605C3.11297 1.01428 3.06847 0.991173 3.00743 0.966544C2.9463 0.941943 2.88252 0.924301 2.81582 0.913447L0.533256 0.929714C0.300008 0.929714 0.141747 0.981579 0.0584143 1.08517L0.0250639 1.13417C0.00840325 1.16146 0 1.20505 0 1.26505C0 1.32501 0.0166606 1.39862 0.050011 1.48576C0.383223 2.25443 0.745584 2.99574 1.13709 3.70982C1.5286 4.4239 1.86882 4.99911 2.15753 5.43493C2.44631 5.87107 2.74066 6.28269 3.04058 6.6696C3.3405 7.05666 3.53902 7.3047 3.63616 7.41367C3.73341 7.52284 3.80979 7.60446 3.86532 7.65896L4.07362 7.85516C4.20691 7.98601 4.40263 8.14272 4.66089 8.32529C4.9192 8.50798 5.20517 8.68783 5.51895 8.86513C5.83279 9.04215 6.19789 9.1866 6.61447 9.29832C7.03098 9.41016 7.43638 9.45504 7.83072 9.43338H8.78875C8.98305 9.41692 9.13025 9.35695 9.2303 9.25345L9.26345 9.21247C9.28574 9.17993 9.3066 9.12938 9.32586 9.06137C9.34535 8.99324 9.35504 8.91817 9.35504 8.83652C9.34935 8.60217 9.36752 8.39096 9.40907 8.20292C9.45059 8.01494 9.49792 7.8732 9.55085 7.77775C9.60375 7.68238 9.66345 7.60191 9.72989 7.53667C9.79647 7.47129 9.84391 7.43168 9.87175 7.41805C9.89941 7.40433 9.9215 7.39502 9.93816 7.38944C10.0714 7.34585 10.2283 7.38806 10.409 7.51628C10.5895 7.64438 10.7588 7.80255 10.9172 7.99054C11.0755 8.17869 11.2657 8.38979 11.4878 8.62414C11.71 8.85858 11.9043 9.03284 12.0709 9.14748L12.2374 9.2456C12.3487 9.31107 12.4931 9.37104 12.6708 9.42554C12.8482 9.48001 13.0037 9.49364 13.1372 9.4664L15.2697 9.43376C15.4807 9.43376 15.6448 9.39948 15.7612 9.33146C15.8779 9.26333 15.9472 9.18826 15.9695 9.10662C15.9918 9.02488 15.993 8.93215 15.9737 8.82848C15.954 8.72506 15.9345 8.65275 15.9151 8.61188Z"/>
</svg>
