<svg width="24" height="24" viewBox="0 0 24 24" xmlns="http://www.w3.org/2000/svg">
<path d="M16.9605 16.1435C15.8106 16.1435 14.7746 16.64 14.0555 17.43L7.58806 13.4244C7.76073 12.9823 7.85649 12.5022 7.85649 12C7.85649 11.4975 7.76073 11.0174 7.58806 10.5756L14.0555 6.56981C14.7746 7.35973 15.8106 7.85649 16.9605 7.85649C19.1266 7.85649 20.8888 6.09429 20.8888 3.92815C20.8888 1.76202 19.1266 0 16.9605 0C14.7943 0 13.0321 1.7622 13.0321 3.92834C13.0321 4.43059 13.1281 4.9107 13.3006 5.35271L6.8333 9.35832C6.11425 8.5684 5.07824 8.07164 3.92834 8.07164C1.7622 8.07164 0 9.83403 0 12C0 14.1661 1.7622 15.9283 3.92834 15.9283C5.07824 15.9283 6.11425 15.4317 6.8333 14.6416L13.3006 18.6472C13.1281 19.0893 13.0321 19.5694 13.0321 20.0718C13.0321 22.2377 14.7943 24 16.9605 24C19.1266 24 20.8888 22.2377 20.8888 20.0718C20.8888 17.9057 19.1266 16.1435 16.9605 16.1435ZM14.4646 3.92834C14.4646 2.55212 15.5843 1.43243 16.9605 1.43243C18.3367 1.43243 19.4564 2.55212 19.4564 3.92834C19.4564 5.30455 18.3367 6.42424 16.9605 6.42424C15.5843 6.42424 14.4646 5.30455 14.4646 3.92834ZM3.92834 14.4959C2.55194 14.4959 1.43225 13.3762 1.43225 12C1.43225 10.6238 2.55194 9.50407 3.92834 9.50407C5.30455 9.50407 6.42406 10.6238 6.42406 12C6.42406 13.3762 5.30455 14.4959 3.92834 14.4959ZM14.4646 20.0716C14.4646 18.6954 15.5843 17.5757 16.9605 17.5757C18.3367 17.5757 19.4564 18.6954 19.4564 20.0716C19.4564 21.4478 18.3367 22.5675 16.9605 22.5675C15.5843 22.5675 14.4646 21.4478 14.4646 20.0716Z"/>
</svg>
