<svg width="16" height="13" viewBox="0 0 16 13" xmlns="http://www.w3.org/2000/svg">
<path d="M15.5984 1.82052C15.0332 2.06144 14.4309 2.22113 13.8029 2.29867C14.4489 1.9239 14.942 1.33498 15.1738 0.625133C14.5715 0.974056 13.9065 1.22052 13.1978 1.35806C12.6259 0.766364 11.8108 0.399902 10.9216 0.399902C9.19639 0.399902 7.80749 1.76052 7.80749 3.42852C7.80749 3.66852 7.82839 3.89929 7.87969 4.11898C5.28904 3.99621 2.99669 2.78975 1.45674 0.951902C1.18789 1.40513 1.03019 1.9239 1.03019 2.48236C1.03019 3.53098 1.58594 4.46052 2.41434 4.99867C1.91369 4.98944 1.42254 4.84821 1.00644 4.62575C1.00644 4.63498 1.00644 4.64698 1.00644 4.65898C1.00644 6.13036 2.08659 7.35252 3.50304 7.63405C3.24939 7.70144 2.97294 7.73375 2.68604 7.73375C2.48654 7.73375 2.28514 7.72267 2.09609 7.68205C2.49984 8.88113 3.64554 9.76267 5.00784 9.79128C3.94764 10.5971 2.60149 11.0827 1.14419 11.0827C0.888638 11.0827 0.643537 11.0716 0.398438 11.0411C1.77879 11.9061 3.41469 12.3999 5.17884 12.3999C10.913 12.3999 14.048 7.78452 14.048 3.7839C14.048 3.65006 14.0433 3.52082 14.0366 3.39252C14.6551 2.96606 15.1747 2.43344 15.5984 1.82052Z"/>
</svg>
