<svg width="28" height="28" viewBox="0 0 28 28" fill="none" xmlns="http://www.w3.org/2000/svg">
<path d="M10.5011 25.6663C11.1455 25.6663 11.6678 25.144 11.6678 24.4997C11.6678 23.8553 11.1455 23.333 10.5011 23.333C9.85681 23.333 9.33447 23.8553 9.33447 24.4997C9.33447 25.144 9.85681 25.6663 10.5011 25.6663Z" stroke="currentColor" stroke-width="1.33333" stroke-linecap="round" stroke-linejoin="round"/>
<path d="M23.3322 25.6663C23.9765 25.6663 24.4989 25.144 24.4989 24.4997C24.4989 23.8553 23.9765 23.333 23.3322 23.333C22.6879 23.333 22.1655 23.8553 22.1655 24.4997C22.1655 25.144 22.6879 25.6663 23.3322 25.6663Z" stroke="currentColor" stroke-width="1.33333" stroke-linecap="round" stroke-linejoin="round"/>
<path d="M1.16553 1.16699H5.83219L8.95886 16.7887C9.06555 17.3258 9.35775 17.8083 9.78433 18.1517C10.2109 18.4951 10.7447 18.6775 11.2922 18.667H22.6322C23.1797 18.6775 23.7135 18.4951 24.1401 18.1517C24.5666 17.8083 24.8588 17.3258 24.9655 16.7887L26.8322 7.00033H6.99886" stroke="currentColor" stroke-width="1.33333" stroke-linecap="round" stroke-linejoin="round"/>
</svg>
