<svg width="64" height="64" viewBox="0 0 64 64" fill="none" xmlns="http://www.w3.org/2000/svg">
<path d="M14.1923 10.4121C6.3662 10.4121 0 16.7783 0 24.6045C0 32.1543 5.9248 38.3466 13.3691 38.7744C13.498 40.166 13.4013 43.9541 9.7714 49.2236C9.497 49.6211 9.5468 50.1572 9.8876 50.498C11.373 51.9834 12.291 52.9189 12.9335 53.5732C13.7744 54.4287 14.1582 54.8193 14.7197 55.3291C14.9101 55.5019 15.1503 55.5888 15.3916 55.5888C15.6259 55.5888 15.8593 55.5068 16.0478 55.3437C22.373 49.8398 29.3994 38.4677 28.3828 24.5322C27.7871 16.3506 21.8193 10.4121 14.1923 10.4121ZM15.4013 53.2226C15.1289 52.9541 14.8183 52.6377 14.3603 52.1718C13.8037 51.6045 13.04 50.8271 11.8818 49.665C16.2871 42.8769 15.455 38.042 15.0908 37.3486C14.9179 37.0195 14.5634 36.7978 14.1923 36.7978C7.4697 36.7978 2 31.3281 2 24.6045C2 17.8818 7.4697 12.4121 14.1923 12.4121C20.7412 12.4121 25.8701 17.5703 26.3886 24.6767C27.5312 40.3506 18.2158 50.5273 15.4013 53.2226Z" fill="#A87F45"/>
<path d="M63.9004 24.5322V24.5312C63.3027 16.3506 57.334 10.4121 49.709 10.4121C41.8828 10.4121 35.5156 16.7783 35.5156 24.6045C35.5156 32.1543 41.4414 38.3466 48.8867 38.7744C49.0156 40.165 48.9179 43.9511 45.2871 49.2236C45.0127 49.6211 45.0625 50.1572 45.4033 50.498C46.8828 51.9775 47.7988 52.9111 48.4414 53.5644C49.2861 54.4257 49.6719 54.8183 50.2363 55.33C50.4267 55.5019 50.6679 55.5888 50.9082 55.5888C51.1426 55.5888 51.376 55.5068 51.5644 55.3427C57.8896 49.8388 64.916 38.4668 63.9004 24.5322ZM50.9179 53.2226C50.6435 52.9521 50.3301 52.6338 49.8681 52.1631C49.3115 51.5966 48.5508 50.8213 47.3974 49.665C51.8027 42.8759 50.9717 38.042 50.6084 37.3486C50.4355 37.0205 50.0801 36.7978 49.709 36.7978C42.9853 36.7978 37.5156 31.3281 37.5156 24.6045C37.5156 17.8818 42.9853 12.4121 49.709 12.4121C56.2568 12.4121 61.3867 17.5703 61.9062 24.6777V24.6767C63.0478 40.3486 53.7324 50.5273 50.9179 53.2226Z" fill="#A87F45"/>
</svg>
