<svg width="96" height="96" viewBox="0 0 96 96" fill="none" xmlns="http://www.w3.org/2000/svg">
<g clip-path="url(#clip0_4662_27379)">
<path d="M94.1013 26.6282C89.9093 15.9617 76.9964 9.56511 66.0595 13.7981C53.5754 18.63 57.7146 38.4868 46.3752 42.5021C40.2498 44.6711 31.1948 36.5689 25.006 35.3265C13.6021 33.0371 3.27833 41.0837 0.7362 52.2266C-1.8573 63.5947 2.30239 78.7785 14.7925 81.864C29.6706 85.5394 37.4206 72.1648 49.9017 68.3244C62.7098 64.3834 76.951 73.691 87.5543 62.3664C95.3881 54 98.2522 37.1904 94.1013 26.6282Z" fill="url(#paint0_linear_4662_27379)"/>
<path opacity="0.1" d="M85.4231 42.3555C83.7738 42.3555 82.2575 42.9212 81.0541 43.867C80.9443 43.1706 80.3431 42.6375 79.6158 42.6375C77.7999 42.6375 76.1443 43.3221 74.8912 44.4464V17.3164C74.8912 16.2808 74.0518 15.4414 73.0162 15.4414H22.986C21.9504 15.4414 21.111 16.2808 21.111 17.3164V44.4464C19.8579 43.3221 18.2023 42.6375 16.3863 42.6375C15.659 42.6375 15.0579 43.1706 14.948 43.867C13.7447 42.9212 12.2283 42.3555 10.5791 42.3555C9.77397 42.3555 9.12109 43.0082 9.12109 43.8135V50.0038C9.12109 50.8169 9.28647 51.6212 9.60691 52.3684L15.4682 66.0274C16.1568 67.6324 17.3463 68.9715 18.8589 69.8449L27.7948 75.004C29.5008 75.9889 30.552 77.8094 30.552 79.7794V84.3064C30.552 85.342 31.3914 86.1814 32.427 86.1814H43.3166C44.3521 86.1814 45.1916 85.342 45.1916 84.3064V68.7383C45.1916 67.6011 44.9381 66.487 44.4613 65.4717H51.5405C51.0635 66.487 50.81 67.6011 50.81 68.7383V84.3064C50.81 85.342 51.6495 86.1814 52.685 86.1814H63.5746C64.6102 86.1814 65.4496 85.342 65.4496 84.3064V79.7794C65.4496 77.8094 66.5006 75.9889 68.2068 75.004L77.1427 69.8449C78.6553 68.9717 79.8448 67.6324 80.5335 66.0274L86.3947 52.3684C86.7153 51.6214 86.8805 50.8169 86.8805 50.0038V43.8135C86.8809 43.0084 86.2282 42.3555 85.4231 42.3555Z" fill="#231F20"/>
<path d="M73.5881 62.0523L80.5862 47.9619C80.9068 47.2149 81.0722 46.4103 81.0722 45.5973V39.4072C81.0722 38.6019 80.4195 37.9492 79.6142 37.9492C75.705 37.9492 72.5361 41.1182 72.5361 45.0273C72.5361 46.5393 72.1461 48.0257 71.4038 49.3428L64.125 62.0523H73.5881Z" fill="#D1B68E"/>
<path d="M22.4138 62.0523L15.4155 47.9619C15.0949 47.2149 14.9297 46.4103 14.9297 45.5973V39.4072C14.9297 38.6019 15.5824 37.9492 16.3877 37.9492C20.2969 37.9492 23.4658 41.1182 23.4658 45.0273C23.4658 46.5393 23.8558 48.0257 24.5981 49.3428L31.8771 62.0523H22.4138Z" fill="#D1B68E"/>
<path d="M73.0146 60.7842H22.9844C21.9488 60.7842 21.1094 59.9447 21.1094 58.9092V12.6289C21.1094 11.5933 21.9488 10.7539 22.9844 10.7539H73.0146C74.0502 10.7539 74.8896 11.5933 74.8896 12.6289V58.9092C74.8896 59.9447 74.0502 60.7842 73.0146 60.7842Z" fill="white"/>
<path d="M27.4635 39.0757V43.0702C27.4635 43.5879 27.8833 44.0077 28.401 44.0077C28.9187 44.0077 29.3385 43.5879 29.3385 43.0702V39.0759C29.4381 39.1104 29.5416 39.131 29.6458 39.131C29.8858 39.131 30.1256 39.0395 30.3088 38.8565C30.675 38.4903 30.675 37.8967 30.3088 37.5307L29.064 36.2859C28.7119 35.9255 28.0903 35.9255 27.7382 36.2859L26.4934 37.5307C26.1272 37.8969 26.1272 38.4905 26.4934 38.8565C26.7559 39.1188 27.1346 39.1899 27.4635 39.0757Z" fill="#231F20"/>
<path d="M33.1354 39.0757V43.0702C33.1354 43.5879 33.5552 44.0077 34.0729 44.0077C34.5906 44.0077 35.0104 43.5879 35.0104 43.0702V39.0759C35.1099 39.1104 35.2135 39.131 35.3177 39.131C35.5577 39.131 35.7975 39.0395 35.9807 38.8565C36.3469 38.4903 36.3469 37.8967 35.9807 37.5307L34.7359 36.2859C34.3838 35.9255 33.7622 35.9255 33.4101 36.2859L32.1653 37.5307C31.7991 37.8969 31.7991 38.4905 32.1653 38.8565C32.428 39.1188 32.8067 39.1899 33.1354 39.0757Z" fill="#231F20"/>
<path d="M35.3165 44.8789H27.3398C26.8222 44.8789 26.4023 45.2987 26.4023 45.8164C26.4023 46.3341 26.8222 46.7539 27.3398 46.7539H35.3165C35.8342 46.7539 36.254 46.3341 36.254 45.8164C36.254 45.2987 35.8342 44.8789 35.3165 44.8789Z" fill="#231F20"/>
<path d="M50.7611 24.6964H45.2344C44.7167 24.6964 44.2969 24.2766 44.2969 23.7589V10.7539H51.6986V23.7589C51.6986 24.2766 51.279 24.6964 50.7611 24.6964Z" fill="#D1B68E"/>
<path d="M42.5078 29.8906H53.4921C54.0098 29.8906 54.4296 29.4708 54.4296 28.9531C54.4296 28.4354 54.0098 28.0156 53.4921 28.0156H42.5078C41.9901 28.0156 41.5703 28.4354 41.5703 28.9531C41.5703 29.4708 41.9901 29.8906 42.5078 29.8906Z" fill="#231F20"/>
<path d="M45.3203 33.7012H50.6796C51.1973 33.7012 51.6171 33.2814 51.6171 32.7637C51.6171 32.246 51.1973 31.8262 50.6796 31.8262H45.3203C44.8026 31.8262 44.3828 32.246 44.3828 32.7637C44.3828 33.2815 44.8026 33.7012 45.3203 33.7012Z" fill="#231F20"/>
<path d="M45.3203 36.9492H50.6796C51.1973 36.9492 51.6171 36.5294 51.6171 36.0117C51.6171 35.494 51.1973 35.0742 50.6796 35.0742H45.3203C44.8026 35.0742 44.3828 35.494 44.3828 36.0117C44.3828 36.5294 44.8026 36.9492 45.3203 36.9492Z" fill="#231F20"/>
<path d="M41.0876 57.4625H26.625C26.1071 57.4625 25.6875 57.0427 25.6875 56.525V50.4961C25.6875 49.9784 26.1071 49.5586 26.625 49.5586H41.0876C41.6053 49.5586 42.0251 49.9784 42.0251 50.4961V56.525C42.0251 57.0428 41.6055 57.4625 41.0876 57.4625Z" fill="#D1B68E"/>
<path d="M52.548 59.1819L60.6934 49.2375C61.4063 48.3673 61.9639 47.3808 62.3423 46.3215C63.2423 43.8017 65.8783 42.3468 68.49 42.9288C70.1668 43.3025 71.1514 45.0455 70.606 46.6745L69.3008 50.5727C69.0713 51.2582 68.7066 51.8908 68.2285 52.4332L61.33 60.2582L70.159 58.8967C71.2153 58.716 72.1341 58.0689 72.6604 57.1352L77.2107 49.0616C77.953 47.7444 78.343 46.2581 78.343 44.7461C78.343 40.8369 81.5119 37.668 85.4211 37.668C86.2262 37.668 86.8791 38.3207 86.8791 39.126V45.3161C86.8791 46.1291 86.7137 46.9335 86.3933 47.6807L80.532 61.3397C79.8433 62.9447 78.6538 64.2838 77.1413 65.1572L68.2054 70.3162C66.4993 71.3012 65.4482 73.1216 65.4482 75.0917V81.4937H50.8086V64.0505C50.8086 62.2757 51.4232 60.5552 52.548 59.1819Z" fill="white"/>
<path d="M43.4521 59.1819L35.3068 49.2375C34.5939 48.3673 34.0363 47.3808 33.6579 46.3215C32.7579 43.8017 30.1218 42.3468 27.5102 42.9288C25.8333 43.3025 24.8488 45.0455 25.3942 46.6745L26.6994 50.5727C26.9289 51.2582 27.2936 51.8908 27.7717 52.4332L34.6702 60.2582L25.8412 58.8967C24.7848 58.716 23.8659 58.0689 23.3398 57.1352L18.7895 49.0616C18.0472 47.7444 17.6572 46.2581 17.6572 44.7461C17.6572 40.8369 14.4883 37.668 10.5791 37.668C9.77397 37.668 9.12109 38.3207 9.12109 39.126V45.3161C9.12109 46.1291 9.28647 46.9335 9.60691 47.6807L15.4682 61.3397C16.1568 62.9447 17.3463 64.2838 18.8589 65.1572L27.7948 70.3162C29.5008 71.3012 30.552 73.1216 30.552 75.0917V81.4937H45.1916V64.0505C45.1916 62.2757 44.577 60.5552 43.4521 59.1819Z" fill="white"/>
<path d="M85.4227 36.7307C83.9574 36.7307 82.5838 37.1278 81.4007 37.8173C80.9544 37.32 80.3087 37.0125 79.6155 37.0125C78.2884 37.0125 76.9862 37.3459 75.8283 37.9658V12.6289C75.8283 11.0781 74.5667 9.81641 73.0158 9.81641H66.3305C65.8129 9.81641 65.393 10.2362 65.393 10.7539C65.393 11.2716 65.8129 11.6914 66.3305 11.6914H73.0158C73.5328 11.6914 73.9533 12.112 73.9533 12.6289V52.8282C73.9533 52.8591 73.9595 52.8884 73.9625 52.9185L71.8455 56.6751C71.456 57.366 70.7844 57.8391 70.0177 57.9705L63.7458 58.9377L68.9334 53.0534C69.4972 52.4136 69.9206 51.6792 70.1912 50.8705L71.4963 46.9724C71.8406 45.9445 71.732 44.8135 71.199 43.8698C70.6657 42.9261 69.7533 42.2496 68.6953 42.0139C65.6283 41.3305 62.5177 43.0467 61.461 46.0064C61.1177 46.9671 60.6159 47.8544 59.9696 48.6435L51.8242 58.5882C51.5008 58.983 51.2154 59.4049 50.9688 59.8469H45.0328C44.7862 59.4047 44.5008 58.983 44.1774 58.5882L36.032 48.6435C35.3857 47.8545 34.884 46.9673 34.5407 46.0064C33.4837 43.0469 30.3737 41.3307 27.306 42.0139C26.2481 42.2496 25.3355 42.9261 24.8025 43.8698C24.2692 44.8135 24.1608 45.9443 24.5051 46.9724L25.8103 50.8705C26.081 51.6792 26.5042 52.4136 27.0682 53.0534L32.2558 58.9375L25.9993 57.9728C25.2174 57.8389 24.5458 57.3659 24.1563 56.6749L22.0483 52.9347V47.3545C22.0483 46.8368 21.6285 46.417 21.1108 46.417C20.5931 46.417 20.1733 46.8368 20.1733 47.3545V49.6079L19.6061 48.6015C18.9444 47.4274 18.5945 46.0941 18.5945 44.7462C18.5945 42.4746 17.6432 40.4224 16.1201 38.9625C16.199 38.9153 16.29 38.8875 16.3863 38.8875C17.759 38.8875 19.0972 39.3518 20.1735 40.1959V41.8697C20.1735 42.3874 20.5933 42.8072 21.111 42.8072C21.6287 42.8072 22.0485 42.3874 22.0485 41.8697V12.6289C22.0485 12.112 22.469 11.6914 22.986 11.6914H60.8462C61.3638 11.6914 61.7837 11.2716 61.7837 10.7539C61.7837 10.2362 61.3638 9.81641 60.8462 9.81641H22.9858C21.435 9.81641 20.1733 11.0781 20.1733 12.6289V37.9658C19.0157 37.3459 17.7133 37.0125 16.3862 37.0125C15.689 37.0125 15.0448 37.3191 14.5998 37.8165C13.4169 37.1275 12.0438 36.7307 10.5791 36.7307C9.25834 36.7307 8.18359 37.8053 8.18359 39.1262V45.3163C8.18359 46.2621 8.37259 47.182 8.74553 48.0507L14.6068 61.7097C15.3701 63.4887 16.7139 65.0014 18.3903 65.9693L27.3262 71.1284C28.7377 71.9432 29.6147 73.462 29.6147 75.0919V81.4939C29.6147 82.0116 30.0345 82.4314 30.5522 82.4314C31.0698 82.4314 31.4897 82.0116 31.4897 81.4939V75.0919C31.4897 72.7943 30.2537 70.6534 28.2637 69.5046L19.3278 64.3455C17.9994 63.5787 16.9346 62.38 16.3297 60.9704L10.4685 47.3114C10.1964 46.6776 10.0586 46.0064 10.0586 45.3163V39.1262C10.0586 38.8392 10.292 38.6057 10.5791 38.6057C13.965 38.6057 16.7197 41.3603 16.7197 44.7464C16.7197 46.416 17.153 48.0675 17.9728 49.5222L22.523 57.5957C23.1909 58.7805 24.3425 59.5917 25.6983 59.8234L34.5273 61.1849C34.9173 61.2454 35.3032 61.0545 35.4926 60.7082C35.682 60.3621 35.6343 59.9342 35.3733 59.6382L28.475 51.8132C28.0775 51.3623 27.7794 50.8448 27.5885 50.275L26.2833 46.3769C26.105 45.844 26.1588 45.2811 26.4354 44.7919C26.7118 44.3027 27.1659 43.9662 27.7143 43.8439C29.8599 43.3652 32.0358 44.5664 32.7753 46.6367C33.191 47.8007 33.7989 48.8755 34.5819 49.8315L42.7273 59.7762C43.7122 60.9786 44.2547 62.4966 44.2547 64.0508V81.4939C44.2547 82.0116 44.6745 82.4314 45.1922 82.4314C45.7098 82.4314 46.1297 82.0116 46.1297 81.4939V64.0508C46.1297 63.2594 46.0179 62.4758 45.8058 61.7217H50.1969C49.9848 62.4758 49.8731 63.2594 49.8731 64.0508V81.4939C49.8731 82.0116 50.2929 82.4314 50.8106 82.4314C51.3283 82.4314 51.7481 82.0116 51.7481 81.4939V64.0508C51.7481 62.4966 52.2905 60.9784 53.2755 59.7762L61.4208 49.8315C62.2038 48.8757 62.8115 47.8007 63.2274 46.6367C63.9667 44.5664 66.1427 43.366 68.2884 43.8439C68.8367 43.966 69.291 44.3027 69.5673 44.7919C69.8437 45.2811 69.8977 45.844 69.7194 46.3769L68.4142 50.275C68.2234 50.8448 67.9252 51.3623 67.5277 51.8132L60.6292 59.6382C60.3682 59.9342 60.3206 60.3619 60.51 60.7082C60.6993 61.0545 61.0856 61.2456 61.4752 61.1849L70.3196 59.821C71.66 59.5915 72.8119 58.7805 73.4795 57.5957L78.0298 49.522C78.8495 48.0673 79.2829 46.4159 79.2829 44.7462C79.2829 41.3603 82.0374 38.6055 85.4233 38.6055C85.7104 38.6055 85.9438 38.839 85.9438 39.126V45.3162C85.9438 46.0062 85.806 46.6772 85.5339 47.3112L79.6727 60.9702C79.0678 62.3798 78.003 63.5785 76.6745 64.3454L67.7387 69.5044C65.7489 70.6532 64.5127 72.7941 64.5127 75.0917V81.4937C64.5127 82.0114 64.9325 82.4312 65.4502 82.4312C65.9679 82.4312 66.3877 82.0114 66.3877 81.4937V75.0917C66.3877 73.4618 67.2647 71.943 68.6762 71.1282L77.612 65.9691C79.2885 65.0012 80.6323 63.4885 81.3956 61.7095L87.2569 48.0505C87.6296 47.1818 87.8188 46.2619 87.8188 45.3162V39.126C87.8182 37.8053 86.7437 36.7307 85.4227 36.7307ZM77.4073 44.7464C77.4073 46.0943 77.0574 47.4274 76.3957 48.6015L75.8285 49.6079V40.1959C76.9046 39.3518 78.243 38.8875 79.6157 38.8875C79.7115 38.8875 79.8024 38.9157 79.8815 38.9629C78.3585 40.4228 77.4073 42.475 77.4073 44.7464Z" fill="#231F20"/>
<path d="M76.6719 76.1348C75.9455 76.1348 75.2628 75.852 74.7493 75.3383C74.2359 74.8249 73.9531 74.1422 73.9531 73.416C73.9531 72.6898 74.2359 72.0071 74.7493 71.4936C75.2628 70.98 75.9455 70.6973 76.6719 70.6973C77.3981 70.6973 78.0807 70.98 78.5943 71.4936V71.4934V71.4936C79.1079 72.0069 79.3906 72.6896 79.3906 73.416C79.3906 74.1424 79.1077 74.8251 78.5941 75.3385C78.0807 75.852 77.3981 76.1348 76.6719 76.1348ZM76.6719 72.5723C76.4465 72.5723 76.2346 72.66 76.0752 72.8194C75.9159 72.9788 75.8281 73.1906 75.8281 73.416C75.8281 73.6414 75.9159 73.8533 76.0751 74.0126C76.2346 74.1722 76.4463 74.2598 76.6719 74.2598C76.8972 74.2598 77.1089 74.172 77.2685 74.0126C77.4279 73.8533 77.5156 73.6414 77.5156 73.416C77.5156 73.1906 77.4279 72.9788 77.2685 72.8194V72.8192C77.1089 72.66 76.8971 72.5723 76.6719 72.5723Z" fill="#D1B68E"/>
<path d="M14.9258 24.0065C14.1996 24.0065 13.5169 23.7238 13.0033 23.21C12.49 22.6966 12.207 22.014 12.207 21.2878C12.207 20.5616 12.4898 19.8789 13.0033 19.3653C14.0633 18.3052 15.7883 18.3054 16.8482 19.3653C17.3618 19.8789 17.6445 20.5616 17.6445 21.2878C17.6445 22.014 17.3618 22.6968 16.8482 23.2102C16.3347 23.7236 15.652 24.0065 14.9258 24.0065ZM14.9258 20.4444C14.7096 20.4444 14.4936 20.5265 14.3292 20.6911C14.1698 20.8505 14.082 21.0624 14.082 21.2878C14.082 21.5131 14.1698 21.725 14.3292 21.8844C14.4887 22.044 14.7004 22.1315 14.9258 22.1315C15.1512 22.1315 15.363 22.0438 15.5224 21.8844C15.6818 21.725 15.7695 21.5131 15.7695 21.2878C15.7695 21.0624 15.6818 20.8505 15.5224 20.6911C15.358 20.5267 15.142 20.4444 14.9258 20.4444Z" fill="#D1B68E"/>
<path d="M81.9908 32.6099C81.2645 32.6099 80.5818 32.3271 80.0684 31.8136C79.0085 30.7536 79.0085 29.0288 80.0684 27.9687C81.1283 26.909 82.8533 26.9088 83.9133 27.9687C84.9732 29.0288 84.9732 30.7536 83.9133 31.8136C83.3997 32.3271 82.717 32.6099 81.9908 32.6099ZM81.9906 29.0478C81.7746 29.0478 81.5585 29.1299 81.394 29.2945C81.065 29.6234 81.065 30.1587 81.394 30.4878C81.5534 30.6471 81.7653 30.7349 81.9906 30.7349C82.216 30.7349 82.4279 30.6471 82.5873 30.4878C82.9163 30.1587 82.9163 29.6234 82.5873 29.2945C82.423 29.1299 82.2068 29.0478 81.9906 29.0478Z" fill="#D1B68E"/>
<path d="M16.707 70.617C16.467 70.617 16.2272 70.5255 16.044 70.3425L14.9257 69.2243L13.8075 70.3425C13.4413 70.7085 12.8479 70.7085 12.4817 70.3425C12.1155 69.9763 12.1155 69.3827 12.4817 69.0167L14.2629 67.2354C14.6291 66.8694 15.2225 66.8694 15.5887 67.2354L17.37 69.0167C17.7362 69.3829 17.7362 69.9765 17.37 70.3425C17.1868 70.5255 16.947 70.617 16.707 70.617Z" fill="#D1B68E"/>
<path d="M15.4609 29.8436C15.2209 29.8436 14.9811 29.7521 14.7979 29.5691L13.6796 28.4508L12.5614 29.5691C12.1952 29.9351 11.6018 29.9351 11.2356 29.5691C10.8694 29.2029 10.8694 28.6093 11.2356 28.2433L13.0168 26.462C13.383 26.096 13.9765 26.096 14.3426 26.462L16.1239 28.2433C16.4901 28.6094 16.4901 29.2031 16.1239 29.5691C15.9407 29.7521 15.7009 29.8436 15.4609 29.8436Z" fill="#D1B68E"/>
</g>
<defs>
<linearGradient id="paint0_linear_4662_27379" x1="48.0001" y1="99.9265" x2="48.0001" y2="17.6125" gradientUnits="userSpaceOnUse">
<stop stop-color="#F8F4E8"/>
<stop offset="1" stop-color="#E4D1B1"/>
</linearGradient>
<clipPath id="clip0_4662_27379">
<rect width="96" height="96" fill="white"/>
</clipPath>
</defs>
</svg>
