<svg width="24" height="24" viewBox="0 0 24 24" fill="none" xmlns="http://www.w3.org/2000/svg">
<path d="M23.5954 12.1033L19.928 4.7146C19.8312 4.53575 19.6459 4.42251 19.4426 4.41797L19.1999 4.47191C13.5468 4.47191 10.2131 4.47191 4.80008 4.47191L4.55738 4.41797C4.35407 4.42251 4.16878 4.53575 4.072 4.7146L0.404632 12.1033C0.164366 12.155 -0.00534259 12.37 0.000128556 12.6157C0.000128556 14.8809 2.04954 16.7415 4.55738 16.7415C7.06523 16.7415 9.14159 14.8809 9.14159 12.6157C9.13715 12.3734 8.97172 12.1639 8.73708 12.1033L5.47427 5.55055H11.4607L11.3288 19.8425C9 19.8425 10.2634 19.8425 8.11688 19.8425H6.93037C6.61386 19.868 6.36255 20.1193 6.33711 20.4358C6.3261 20.5727 6.47232 20.8715 6.85714 20.9695C9.14929 20.9695 14.4982 20.9539 16.9963 20.9539C17.5398 20.9539 17.6505 20.5655 17.6628 20.4358C17.6373 20.1193 17.386 19.868 17.0695 19.8425H15.883C14.4808 19.8425 14.4808 19.8425 12.5392 19.8425V5.55055L18.5256 5.5506L15.2628 12.1033C15.0282 12.1639 14.8627 12.3734 14.8583 12.6157C14.8583 14.8809 16.9077 16.7415 19.4425 16.7415C21.9773 16.7415 23.9997 14.8809 23.9997 12.6157C24.0054 12.37 23.8356 12.155 23.5954 12.1033ZM4.55738 15.6089C2.85854 15.6089 1.42934 14.4494 1.13271 13.101H8.00906C7.71243 14.4494 6.28322 15.6089 4.55738 15.6089ZM7.52367 12.0224H1.61809L4.55738 6.11686L7.52367 12.0224ZM19.4426 6.11686L22.3819 12.0224H16.4764L19.4426 6.11686ZM19.4426 15.6089C17.7168 15.6089 16.2876 14.4494 15.991 13.101H22.8673C22.5707 14.4494 21.1415 15.6089 19.4426 15.6089Z" fill="#231F20"/>
</svg>
