<svg width="96" height="96" viewBox="0 0 96 96" fill="none" xmlns="http://www.w3.org/2000/svg">
<g clip-path="url(#clip0_5026_17429)">
<path d="M25.7163 67.1402C25.9304 68.5925 26.2507 70.0475 26.6816 71.4963C31.4958 87.6754 48.5727 97.075 64.8176 92.4883C81.3855 87.8102 90.9567 70.5489 86.1809 54.0355C85.7842 52.6639 85.3009 51.3409 84.7387 50.0707C82.4609 44.9233 83.4387 38.9029 87.1605 34.6802C92.394 28.7421 94.7325 22.4305 93.0947 16.7675C89.2985 3.64122 65.5767 -1.02934 40.1107 6.33565C14.6446 13.7006 -2.92221 30.3122 0.874029 43.4385C2.51179 49.1014 7.85825 53.1905 15.4536 55.4183C20.8548 57.0026 24.895 61.5718 25.7163 67.1402Z" fill="url(#paint0_linear_5026_17429)"/>
<path opacity="0.1" d="M66.8339 48.7159V28.455C66.8339 18.2375 58.4916 9.93148 48.2609 9.99055C38.0721 10.0492 29.9044 18.4693 29.9044 28.6582V39.332C29.9044 39.8233 30.3027 40.2214 30.7938 40.2214H36.8839C37.3752 40.2214 37.7733 39.8231 37.7733 39.332V37.8967C37.7733 37.0678 37.2008 36.3489 36.3929 36.1633L35.8255 36.0328C35.0177 35.8472 34.4451 35.1281 34.4451 34.2994V33.6688C34.4451 32.8399 35.0176 32.121 35.8255 31.9354L36.3929 31.805C37.2006 31.6194 37.7733 30.9004 37.7733 30.0716V28.4552C37.7733 22.5596 42.6147 17.7729 48.5322 17.8624C54.3466 17.9503 58.9647 22.8024 58.9647 28.6175V48.7016H30.2766C27.3295 48.7016 24.9406 51.0907 24.9406 54.0377V56.4491H24.3906C23.8729 56.4491 23.4531 56.8689 23.4531 57.3866V60.7037C23.4531 61.2214 23.8729 61.6412 24.3906 61.6412H24.9406V65.9134H24.3906C23.8729 65.9134 23.4531 66.3332 23.4531 66.8509V70.1679C23.4531 70.6856 23.8729 71.1054 24.3906 71.1054H24.9406V75.3776H24.3906C23.8729 75.3776 23.4531 75.7974 23.4531 76.3151V79.6322C23.4531 80.1499 23.8729 80.5697 24.3906 80.5697H24.9406V87.0482C24.9406 89.9953 27.3297 92.3842 30.2766 92.3842H66.4617C69.4088 92.3842 71.7978 89.9951 71.7978 87.0482V54.0377C71.7978 51.2158 69.607 48.9071 66.8339 48.7159Z" fill="#231F20"/>
<path d="M48.2627 5.49055C38.0739 5.54923 29.9062 13.9693 29.9062 24.158V34.8319C29.9062 35.3231 30.3045 35.7212 30.7956 35.7212H36.8857C37.377 35.7212 37.7751 35.3229 37.7751 34.8319V33.3965C37.7751 32.5676 37.2026 31.8487 36.3947 31.6631L35.8273 31.5328C35.0196 31.3472 34.4469 30.6281 34.4469 29.7994V29.1688C34.4469 28.3399 35.0194 27.621 35.8273 27.4354L36.3947 27.305C37.2024 27.1194 37.7751 26.4004 37.7751 25.5716V23.9552C37.7751 18.0596 42.6165 13.2729 48.534 13.3624C54.3484 13.4503 58.9665 18.3024 58.9665 24.1175V45.9397C58.9665 48.0709 60.6208 49.8879 62.7504 49.9676C64.9888 50.0514 66.8355 48.2559 66.8355 46.0359V23.9548C66.8357 13.7375 58.4934 5.43148 48.2627 5.49055Z" fill="#D1B68E"/>
<path d="M66.4625 87.8848H30.2775C27.3303 87.8848 24.9414 85.4956 24.9414 82.5487V49.5382C24.9414 46.5911 27.3305 44.2021 30.2775 44.2021H66.4625C69.4096 44.2021 71.7986 46.5913 71.7986 49.5382V82.5487C71.7986 85.4956 69.4096 87.8848 66.4625 87.8848Z" fill="white"/>
<path d="M46.9052 44.2012V87.8849H30.2777C27.3302 87.8849 24.9414 85.4962 24.9414 82.5487V49.5374C24.9414 46.5899 27.3302 44.2012 30.2777 44.2012H46.9052Z" fill="#D1B68E"/>
<path d="M40.1033 82.5196C38.5857 82.5196 37.3555 81.2894 37.3555 79.7717V77.1023C37.3555 75.5847 38.5857 74.3545 40.1033 74.3545C41.6209 74.3545 42.8511 75.5847 42.8511 77.1023V79.7717C42.8513 81.2892 41.6209 82.5196 40.1033 82.5196Z" fill="white"/>
<path d="M33.1099 57.1413H24.3906C23.8729 57.1413 23.4531 56.7215 23.4531 56.2038V52.8867C23.4531 52.369 23.8729 51.9492 24.3906 51.9492H33.1099C33.6276 51.9492 34.0474 52.369 34.0474 52.8867V56.2038C34.0474 56.7215 33.6276 57.1413 33.1099 57.1413Z" fill="white"/>
<path d="M33.1099 66.6052H24.3906C23.8729 66.6052 23.4531 66.1853 23.4531 65.6677V62.3506C23.4531 61.8329 23.8729 61.4131 24.3906 61.4131H33.1099C33.6276 61.4131 34.0474 61.8329 34.0474 62.3506V65.6677C34.0474 66.1853 33.6276 66.6052 33.1099 66.6052Z" fill="white"/>
<path d="M33.1099 76.07H24.3906C23.8729 76.07 23.4531 75.6502 23.4531 75.1325V71.8154C23.4531 71.2977 23.8729 70.8779 24.3906 70.8779H33.1099C33.6276 70.8779 34.0474 71.2977 34.0474 71.8154V75.1325C34.0474 75.6502 33.6276 76.07 33.1099 76.07Z" fill="white"/>
<path d="M67.7714 43.4023V23.9553C67.7714 18.7595 65.7368 13.8753 62.0423 10.202C58.3486 6.52927 53.4501 4.51739 48.2553 4.5532C37.6197 4.61452 28.9669 13.4094 28.9669 24.1584V34.8324C28.9669 35.8396 29.7863 36.6592 30.7936 36.6592H36.8839C37.8912 36.6592 38.7108 35.8396 38.7108 34.8324V33.3971C38.7108 32.1238 37.8439 31.0351 36.6029 30.75L36.0357 30.6196C35.6513 30.5313 35.383 30.1942 35.383 29.7999V29.1693C35.383 28.7748 35.6515 28.4379 36.0357 28.3496L36.6029 28.2193C37.8439 27.9341 38.7108 26.8455 38.7108 25.5721V23.9557C38.7108 21.3534 39.7351 18.9116 41.5947 17.0797C43.4543 15.248 45.9121 14.2666 48.5181 14.3002C53.7614 14.3795 58.0272 18.7837 58.0272 24.1181V35.2533C58.0272 35.7712 58.4468 36.1908 58.9647 36.1908C59.4826 36.1908 59.9022 35.7712 59.9022 35.2533V24.1181C59.9022 17.7654 54.808 12.5201 48.5464 12.4256C45.4388 12.3815 42.4992 13.557 40.279 15.7438C38.0586 17.931 36.8359 20.8473 36.8359 23.9557V25.5721C36.8359 25.9666 36.5674 26.3036 36.1831 26.3919L35.6159 26.5222C34.375 26.8074 33.5082 27.896 33.5082 29.1693V29.7999C33.5082 31.0732 34.375 32.1618 35.6159 32.447L36.1831 32.5773C36.5676 32.6656 36.8359 33.0028 36.8359 33.3971V34.7842H30.8419V24.1584C30.8419 14.4373 38.6584 6.4837 48.2663 6.4282C52.9549 6.40139 57.3831 8.21339 60.7206 11.5318C64.0583 14.8503 65.8964 19.2624 65.8964 23.9553V43.2637H59.9022V40.7645C59.9022 40.2466 59.4826 39.827 58.9647 39.827C58.4468 39.827 58.0272 40.2466 58.0272 40.7645V43.2637H30.2761C26.8167 43.2637 24.0023 46.0781 24.0023 49.5375V51.0526C23.1542 51.2321 22.5156 51.986 22.5156 52.8866V56.2036C22.5156 57.1042 23.1542 57.8581 24.0023 58.0376V60.5165C23.1542 60.696 22.5156 61.4499 22.5156 62.3505V65.6675C22.5156 66.5681 23.1542 67.322 24.0023 67.5015V69.9806C23.1542 70.16 22.5156 70.9139 22.5156 71.8145V75.1316C22.5156 76.0321 23.1542 76.7861 24.0023 76.9655V82.5478C24.0023 86.0071 26.8167 88.8215 30.2761 88.8215H42.0961C42.6139 88.8215 43.0336 88.4019 43.0336 87.884C43.0336 87.3661 42.6139 86.9465 42.0961 86.9465H30.2761C27.8506 86.9465 25.8773 84.9733 25.8773 82.5478V77.0064H33.1099C34.1438 77.0064 34.9849 76.1653 34.9849 75.1314V71.8143C34.9849 70.7805 34.1438 69.9393 33.1099 69.9393H25.8773V67.5421H33.1099C34.1438 67.5421 34.9849 66.701 34.9849 65.6671V62.3501C34.9849 61.3162 34.1438 60.4751 33.1099 60.4751H25.8773V58.0781H33.1099C34.1438 58.0781 34.9849 57.237 34.9849 56.2031V52.886C34.9849 51.8521 34.1438 51.011 33.1099 51.011H25.8773V49.5375C25.8773 47.112 27.8506 45.1387 30.2761 45.1387H66.4617C68.8872 45.1387 70.8604 47.112 70.8604 49.5375V82.5487C70.8604 84.9742 68.8872 86.9475 66.4617 86.9475H47.6086C47.0907 86.9475 46.6711 87.3671 46.6711 87.885C46.6711 88.4028 47.0907 88.8225 47.6086 88.8225H66.4617C69.9211 88.8225 72.7354 86.0081 72.7354 82.5487V49.5375C72.7354 46.5273 70.6041 44.0064 67.7714 43.4023ZM33.1111 75.1323H24.3906V71.8153H33.1099L33.1111 75.1323ZM33.1112 65.6679H24.3906V62.3508H24.9361C24.9374 62.3508 24.9385 62.3512 24.9396 62.3512C24.9408 62.3512 24.9421 62.3508 24.9432 62.3508H33.1097L33.1112 65.6679ZM33.1111 56.2038H24.9471C24.9447 56.2038 24.9422 56.2031 24.9398 56.2031C24.9374 56.2031 24.9349 56.2038 24.9325 56.2038H24.3906V52.8868H33.1099L33.1111 56.2038Z" fill="#231F20"/>
<path d="M60.4508 82.8796C64.0285 82.8796 66.9289 81.0586 66.9289 78.8124C66.9289 76.5661 64.0285 74.7451 60.4508 74.7451C56.873 74.7451 53.9727 76.5661 53.9727 78.8124C53.9727 81.0586 56.873 82.8796 60.4508 82.8796Z" fill="#D1B68E"/>
<path d="M19.3008 47.2852C19.2145 47.2852 19.1281 47.2734 19.0445 47.2496C16.5863 46.5506 16.402 43.0239 16.3955 42.8741C16.3765 42.4483 16.6475 42.0631 17.0547 41.937L19.0235 41.3272C19.2044 41.2711 19.3973 41.2711 19.5783 41.3272L21.547 41.937C21.9543 42.0631 22.225 42.4483 22.2063 42.8741C22.1997 43.0239 22.0154 46.5506 19.5573 47.2496C19.4735 47.2732 19.387 47.2852 19.3008 47.2852ZM18.3618 43.4949C18.4925 44.1547 18.773 44.9911 19.3008 45.3292C19.8282 44.9913 20.1089 44.1551 20.2396 43.4949L19.3008 43.2041L18.3618 43.4949Z" fill="#D1B68E"/>
<path d="M23.0781 38.4131C22.9919 38.4131 22.9056 38.4013 22.8218 38.3775C20.3637 37.6787 20.1794 34.1518 20.1728 34.002C20.1539 33.5762 20.4248 33.1911 20.8321 33.0649L22.8008 32.4551C22.9817 32.3991 23.1747 32.3991 23.3556 32.4551L25.3244 33.0649C25.7316 33.1911 26.0024 33.5762 25.9836 34.002C25.9771 34.1518 25.7926 37.6787 23.3346 38.3775C23.2506 38.4013 23.1644 38.4131 23.0781 38.4131ZM22.1391 34.6228C22.2698 35.2826 22.5503 36.1193 23.0781 36.4571C23.6054 36.1194 23.8862 35.2832 24.0169 34.6228L23.0781 34.332L22.1391 34.6228Z" fill="#D1B68E"/>
<path d="M75.832 44.6944C75.7458 44.6944 75.6593 44.6826 75.5757 44.6588C73.1178 43.9598 72.9333 40.4331 72.9267 40.2833C72.9078 39.8574 73.1787 39.4723 73.586 39.3461L75.5547 38.7364C75.7357 38.6803 75.9286 38.6803 76.1095 38.7364L78.0783 39.3461C78.4855 39.4723 78.7563 39.8574 78.7375 40.2833C78.731 40.4331 78.5466 43.9598 76.0885 44.6588C76.0047 44.6826 75.9183 44.6944 75.832 44.6944ZM74.8932 40.9041C75.0237 41.5639 75.3042 42.4003 75.832 42.7384C76.3595 42.4005 76.6401 41.5643 76.7708 40.9041L75.832 40.6133L74.8932 40.9041Z" fill="#D1B68E"/>
<path d="M80.6132 82.3515C80.3734 82.3515 80.1332 82.26 79.9504 82.0768L78.9257 81.0523L77.901 82.0768C77.5352 82.443 76.9412 82.443 76.5754 82.0768C76.2092 81.7108 76.2092 81.1172 76.5754 80.7512L78.2629 79.0637C78.6287 78.6975 79.2227 78.6975 79.5885 79.0637L81.276 80.7512C81.6422 81.1172 81.6422 81.7108 81.276 82.0768C81.0932 82.26 80.853 82.3515 80.6132 82.3515Z" fill="#D1B68E"/>
<path d="M33.5039 8.11519C33.264 8.11519 33.0239 8.02369 32.841 7.8405L31.8164 6.816L30.7917 7.8405C30.4259 8.20669 29.8319 8.20669 29.466 7.8405C29.0999 7.4745 29.0999 6.88088 29.466 6.51488L31.1535 4.82737C31.5194 4.46119 32.1134 4.46119 32.4792 4.82737L34.1667 6.51488C34.5329 6.88088 34.5329 7.4745 34.1667 7.8405C33.9837 8.02369 33.7437 8.11519 33.5039 8.11519Z" fill="#D1B68E"/>
</g>
<defs>
<linearGradient id="paint0_linear_5026_17429" x1="33.9121" y1="-15.0971" x2="63.1849" y2="86.1202" gradientUnits="userSpaceOnUse">
<stop stop-color="#F8F4E8"/>
<stop offset="1" stop-color="#E4D1B1"/>
</linearGradient>
<clipPath id="clip0_5026_17429">
<rect width="96" height="96" fill="white"/>
</clipPath>
</defs>
</svg>
