<svg width="32" height="32" viewBox="0 0 32 32" fill="none" xmlns="http://www.w3.org/2000/svg">
<path d="M12.0013 29.3337C12.7377 29.3337 13.3346 28.7367 13.3346 28.0003C13.3346 27.2639 12.7377 26.667 12.0013 26.667C11.2649 26.667 10.668 27.2639 10.668 28.0003C10.668 28.7367 11.2649 29.3337 12.0013 29.3337Z" stroke="white" stroke-width="1.33333" stroke-linecap="round" stroke-linejoin="round"/>
<path d="M26.6654 29.3337C27.4017 29.3337 27.9987 28.7367 27.9987 28.0003C27.9987 27.2639 27.4017 26.667 26.6654 26.667C25.929 26.667 25.332 27.2639 25.332 28.0003C25.332 28.7367 25.929 29.3337 26.6654 29.3337Z" stroke="white" stroke-width="1.33333" stroke-linecap="round" stroke-linejoin="round"/>
<path d="M1.33203 1.33301H6.66536L10.2387 19.1863C10.3606 19.8002 10.6946 20.3516 11.1821 20.7441C11.6696 21.1365 12.2796 21.345 12.9054 21.333H25.8654C26.4911 21.345 27.1011 21.1365 27.5886 20.7441C28.0762 20.3516 28.4101 19.8002 28.532 19.1863L30.6654 7.99967H7.9987" stroke="white" stroke-width="1.33333" stroke-linecap="round" stroke-linejoin="round"/>
</svg>
