<svg width="80" height="80" viewBox="0 0 80 80" fill="none" xmlns="http://www.w3.org/2000/svg">
<g clip-path="url(#clip0_1934_24144)">
<path d="M44.7787 0.760449C30.0363 5.09576 32.9932 15.3831 31.3443 26.7822C29.2863 41.009 20.392 33.7142 10.1731 41.3975C-7.49163 54.6789 5.34009 83.9969 27.2774 79.5444C38.9262 77.1801 41.3065 68.592 46.0576 59.4156C52.2034 47.5448 62.3948 50.7812 71.5367 43.0317C90.0765 27.3158 65.6924 -5.38971 44.7787 0.760449Z" fill="url(#paint0_linear_1934_24144)"/>
<path opacity="0.1" d="M35.5402 66.2106C35.2207 65.9205 34.7265 65.9445 34.4366 66.2644L25.8901 75.6867C25.6002 76.0064 25.6243 76.5005 25.9438 76.7901C26.2624 77.0795 26.7568 77.0567 27.0474 76.7364L35.594 67.3141C35.8838 66.9944 35.8599 66.5003 35.5402 66.2106Z" fill="#231F20"/>
<path opacity="0.1" d="M26.6765 53.0113C26.357 52.7212 25.8627 52.7454 25.5729 53.0651L11.0776 69.0456C10.7877 69.3652 10.8118 69.8593 11.1313 70.149C11.281 70.2848 11.4688 70.3516 11.656 70.3516C11.8687 70.3516 12.0807 70.2652 12.2349 70.0952L26.7302 54.1148C27.0201 53.7952 26.996 53.301 26.6765 53.0113Z" fill="#231F20"/>
<path opacity="0.1" d="M24.1646 59.9011L22.4916 61.7456C22.2018 62.0653 22.2259 62.5594 22.5454 62.8491C22.6951 62.9848 22.8829 63.0517 23.0701 63.0517C23.2827 63.0517 23.4948 62.9653 23.649 62.7953L25.3219 60.9508C25.6118 60.6311 25.5877 60.137 25.2682 59.8473C24.9485 59.557 24.4544 59.5814 24.1646 59.9011Z" fill="#231F20"/>
<path opacity="0.1" d="M12.9998 48.4031C13.2124 48.4031 13.4244 48.3167 13.5787 48.1467L15.2516 46.3023C15.5415 45.9827 15.5174 45.4887 15.1979 45.1988C14.8784 44.9087 14.3841 44.9329 14.0943 45.2526L12.4213 47.0968C12.1315 47.4163 12.1555 47.9104 12.4751 48.2002C12.6248 48.3362 12.8126 48.4031 12.9998 48.4031Z" fill="#231F20"/>
<path opacity="0.1" d="M68.5414 20.8742L39.1458 28.1176V23.247C39.1458 17.8536 34.8555 13.358 29.4623 13.288C23.9827 13.2169 19.5184 17.6375 19.5184 23.1008C19.5184 26.8062 21.5728 30.0311 24.6041 31.7011L15.5634 33.9289C14.9031 34.0915 14.7516 34.9617 15.318 35.3381L23.9494 41.0742L16.1636 49.6578C15.8738 49.9775 15.8978 50.4715 16.2173 50.7612C16.367 50.897 16.5548 50.9639 16.742 50.9639C16.9547 50.9639 17.1667 50.8775 17.3209 50.7075L25.2655 41.9487L29.332 44.6512L29.3572 44.6364L29.332 44.7554L31.7174 61.3333C31.8117 61.9895 32.6292 62.2372 33.072 61.7439L39.248 54.8637L44.9375 61.4693L33.1453 74.47C32.8555 74.7897 32.8795 75.2837 33.1991 75.5734C33.5177 75.8628 34.012 75.84 34.3027 75.5197L45.965 62.6623L48.4511 65.5489C48.8236 65.9812 49.5189 65.8814 49.7545 65.3617L69.4397 21.9553C69.7092 21.3614 69.1749 20.7181 68.5414 20.8742Z" fill="#231F20"/>
<path d="M70.1092 15.332L30.3266 34.9131L29.3359 39.5991L31.9592 57.8314L70.1092 15.332Z" fill="white"/>
<path d="M35.5053 45.3555L31.9609 57.832L39.2536 49.7081L35.5053 45.3555Z" fill="white"/>
<path d="M70.1102 15.332L49.2539 61.3197L35.5039 45.3556L70.1102 15.332Z" fill="white"/>
<path d="M46.4211 48.9629C46.0961 49.2457 45.6023 49.2129 45.318 48.8879L39.332 42.0332L40.5117 41.0098L46.4945 47.8598C46.7787 48.1848 46.7459 48.6785 46.4211 48.9629Z" fill="#231F20"/>
<path d="M48.8555 46.359C48.5305 46.6434 48.0367 46.609 47.7523 46.284L42.0117 39.7105L43.1914 38.6855L48.9289 45.2559C49.2131 45.5809 49.1803 46.0745 48.8555 46.359Z" fill="#231F20"/>
<path d="M51.2859 43.7535C50.9609 44.0379 50.4672 44.0051 50.1828 43.6801L44.6875 37.3863L45.8672 36.3613L51.3609 42.652C51.6438 42.977 51.6109 43.4707 51.2859 43.7535Z" fill="#231F20"/>
<path d="M53.7203 41.15C53.3953 41.4328 52.9016 41.4 52.6172 41.075L47.3672 35.0625L48.5469 34.0391L53.7953 40.0469C54.0783 40.3719 54.0453 40.8656 53.7203 41.15Z" fill="#231F20"/>
<path d="M56.1508 38.5461C55.8258 38.8305 55.332 38.7961 55.0492 38.4711L50.043 32.7398L51.2227 31.7148L56.2258 37.443C56.5087 37.768 56.4758 38.2616 56.1508 38.5461Z" fill="#231F20"/>
<path d="M57.5937 30.5828C57.2687 30.8672 56.775 30.8328 56.4906 30.5078L54.8203 28.5953L56 27.5703L57.6687 29.4812C57.9517 29.8062 57.9187 30.2984 57.5937 30.5828Z" fill="#231F20"/>
<path d="M29.3345 39.4948L70.1078 15.332L13.8398 29.1977L29.3345 39.4948Z" fill="white"/>
<path d="M37.9166 27.758H29.3333C23.9133 27.758 19.5195 23.3643 19.5195 17.9445C19.5195 12.5245 23.9133 8.13086 29.3333 8.13086C34.7533 8.13086 39.1469 12.5246 39.1469 17.9445V26.5279C39.1469 27.2071 38.5959 27.758 37.9166 27.758Z" fill="#D1B68E"/>
<path d="M33.825 19.402C34.6301 19.402 35.2828 18.7493 35.2828 17.9441C35.2828 17.139 34.6301 16.4863 33.825 16.4863C33.0199 16.4863 32.3672 17.139 32.3672 17.9441C32.3672 18.7493 33.0199 19.402 33.825 19.402Z" fill="#231F20"/>
<path d="M29.3328 19.402C30.1379 19.402 30.7906 18.7493 30.7906 17.9441C30.7906 17.139 30.1379 16.4863 29.3328 16.4863C28.5277 16.4863 27.875 17.139 27.875 17.9441C27.875 18.7493 28.5277 19.402 29.3328 19.402Z" fill="#231F20"/>
<path d="M24.8445 19.402C25.6497 19.402 26.3023 18.7493 26.3023 17.9441C26.3023 17.139 25.6497 16.4863 24.8445 16.4863C24.0394 16.4863 23.3867 17.139 23.3867 17.9441C23.3867 18.7493 24.0394 19.402 24.8445 19.402Z" fill="#231F20"/>
<path d="M47.3672 13.9824C46.9358 13.9824 46.5859 13.6327 46.5859 13.2012C46.5859 12.6841 46.1655 12.2637 45.6484 12.2637C45.217 12.2637 44.8672 11.914 44.8672 11.4824C44.8672 11.0509 45.217 10.7012 45.6484 10.7012C46.1655 10.7012 46.5859 10.2807 46.5859 9.76367C46.5859 9.33211 46.9358 8.98242 47.3672 8.98242C47.7986 8.98242 48.1484 9.33211 48.1484 9.76367C48.1484 10.2807 48.5689 10.7012 49.0859 10.7012C49.5173 10.7012 49.8672 11.0509 49.8672 11.4824C49.8672 11.914 49.5173 12.2637 49.0859 12.2637C48.5689 12.2637 48.1484 12.6841 48.1484 13.2012C48.1484 13.6326 47.7987 13.9824 47.3672 13.9824Z" fill="#D1B68E"/>
<path d="M63.0039 58.0723C62.5725 58.0723 62.2227 57.7226 62.2227 57.291C62.2227 56.774 61.802 56.3535 61.2852 56.3535C60.8537 56.3535 60.5039 56.0038 60.5039 55.5723C60.5039 55.1407 60.8537 54.791 61.2852 54.791C61.8022 54.791 62.2227 54.3705 62.2227 53.8535C62.2227 53.422 62.5725 53.0723 63.0039 53.0723C63.4353 53.0723 63.7852 53.422 63.7852 53.8535C63.7852 54.3705 64.2056 54.791 64.7227 54.791C65.1541 54.791 65.5039 55.1407 65.5039 55.5723C65.5039 56.0038 65.1541 56.3535 64.7227 56.3535C64.2058 56.3535 63.7852 56.774 63.7852 57.291C63.7852 57.7226 63.4353 58.0723 63.0039 58.0723Z" fill="#D1B68E"/>
<path d="M58.582 63.8203C58.1506 63.8203 57.8008 63.4706 57.8008 63.0391C57.8008 62.522 57.3803 62.1016 56.8633 62.1016C56.4319 62.1016 56.082 61.7519 56.082 61.3203C56.082 60.8888 56.4319 60.5391 56.8633 60.5391C57.3803 60.5391 57.8008 60.1186 57.8008 59.6016C57.8008 59.17 58.1506 58.8203 58.582 58.8203C59.0134 58.8203 59.3633 59.17 59.3633 59.6016C59.3633 60.1186 59.7838 60.5391 60.3008 60.5391C60.7322 60.5391 61.082 60.8888 61.082 61.3203C61.082 61.7519 60.7322 62.1016 60.3008 62.1016C59.7838 62.1016 59.3633 62.522 59.3633 63.0391C59.3633 63.4706 59.0134 63.8203 58.582 63.8203Z" fill="#D1B68E"/>
<path d="M11.6578 54.7962C11.4506 54.7962 11.2519 54.714 11.1053 54.5673L9.33813 52.7999C9.19156 52.6534 9.10938 52.4548 9.10938 52.2476C9.10938 52.0404 9.19172 51.8417 9.33813 51.6952L11.1053 49.928C11.4105 49.6229 11.9052 49.623 12.2102 49.9279L13.9775 51.6951C14.1241 51.8417 14.2064 52.0404 14.2064 52.2476C14.2064 52.4548 14.1241 52.6535 13.9777 52.7999L12.2102 54.5674C12.0636 54.714 11.865 54.7962 11.6578 54.7962ZM10.9955 52.2478L11.6578 52.9101L12.3202 52.2478L11.6578 51.5856L10.9955 52.2478Z" fill="#D1B68E"/>
<path d="M38.1109 8.55992C37.9109 8.55992 37.7111 8.48367 37.5584 8.33101L35.7913 6.56383C35.6447 6.41726 35.5625 6.21867 35.5625 6.01148C35.5625 5.8043 35.6448 5.60555 35.7913 5.45914L37.5584 3.6918C37.705 3.54523 37.9037 3.46289 38.1109 3.46289C38.3181 3.46289 38.5169 3.54508 38.6634 3.6918L40.4308 5.45914C40.5773 5.6057 40.6595 5.8043 40.6595 6.01148C40.6595 6.21867 40.5772 6.41742 40.4306 6.56398L38.6634 8.33117C38.5108 8.48367 38.3108 8.55992 38.1109 8.55992ZM37.4486 6.01164L38.1109 6.67383L38.7733 6.01164L38.1109 5.3493L37.4486 6.01164Z" fill="#D1B68E"/>
<path d="M70.8865 15.2891C70.8705 14.8135 70.3801 14.4529 69.921 14.574L39.9296 21.9646V17.9448C39.9296 12.1026 35.1766 7.34961 29.3346 7.34961C23.4925 7.34961 18.7396 12.1026 18.7396 17.9448C18.7396 21.2829 20.293 24.2635 22.7132 26.207L13.6529 28.4396C13.3519 28.5138 13.1233 28.7587 13.0702 29.064C13.0171 29.3693 13.1493 29.6773 13.4074 29.8487L24.2168 37.0323L16.166 45.9079C15.8761 46.2276 15.9002 46.7216 16.2197 47.0113C16.3693 47.1471 16.5572 47.214 16.7444 47.214C16.9571 47.214 17.1691 47.1276 17.3233 46.9576L25.5329 37.9069L28.5943 39.9415L31.1844 57.943C31.2638 58.5873 32.1268 58.8419 32.545 58.3469L39.1624 50.8021L45.0327 57.6176L33.1477 70.7202C32.8579 71.0399 32.8819 71.534 33.2015 71.8237C33.3511 71.9594 33.539 72.0263 33.7261 72.0263C33.9388 72.0263 34.1508 71.9399 34.305 71.7699L46.06 58.8104L48.6602 61.8293C49.0104 62.2598 49.7497 62.1521 49.9636 61.6423L52.8835 55.204C53.0618 54.8109 52.8875 54.3479 52.4946 54.1698C52.1015 53.9915 51.6386 54.1657 51.4604 54.5585L49.0457 59.8829L36.6016 45.4351L67.9197 18.2643L53.6291 49.776C53.4508 50.1691 53.625 50.6321 54.018 50.8102C54.4108 50.9882 54.874 50.8141 55.0522 50.4215L70.819 15.6549C70.8666 15.5393 70.8935 15.4149 70.8865 15.2891ZM24.5111 27.3732C25.9591 28.117 27.5979 28.5396 29.3346 28.5396H30.8594C31.2908 28.5396 31.6407 28.1899 31.6407 27.7584C31.6407 27.3268 31.2908 26.9771 30.8594 26.9771H29.3346C24.3541 26.9771 20.3021 22.9252 20.3021 17.9448C20.3021 12.9641 24.3541 8.91211 29.3346 8.91211C34.315 8.91211 38.3671 12.9641 38.3671 17.9448V26.528C38.3671 26.7757 38.1657 26.9771 37.918 26.9771H36.119C35.6875 26.9771 35.3377 27.3268 35.3377 27.7584C35.3377 28.1899 35.6875 28.5396 36.119 28.5396H37.918C39.0272 28.5396 39.9296 27.6373 39.9296 26.528V23.5737L65.1605 17.3562L29.3583 38.5732L15.7527 29.5315L24.5111 27.3732ZM38.1329 49.6068L33.6569 54.7101L35.8572 46.9648L38.1329 49.6068ZM34.9988 44.7579C34.8797 44.863 34.793 44.9993 34.7479 45.1516L32.2086 54.0899L30.1683 39.9095L63.0432 20.4273L34.9988 44.7579Z" fill="#231F20"/>
<path d="M35.5402 62.4606C35.2205 62.1704 34.7265 62.1946 34.4366 62.5143L25.8901 71.9367C25.6002 72.2564 25.6243 72.7504 25.9438 73.0401C26.2624 73.3295 26.7568 73.3067 27.0474 72.9864L35.594 63.564C35.884 63.2445 35.8599 62.7504 35.5402 62.4606Z" fill="#231F20"/>
<path d="M26.6765 49.2613C26.3568 48.9712 25.8627 48.9954 25.5729 49.3151L11.0776 65.2957C10.7877 65.6154 10.8118 66.1095 11.1313 66.3992C11.2809 66.5349 11.4688 66.6018 11.656 66.6018C11.8687 66.6018 12.0807 66.5154 12.2349 66.3454L26.7301 50.3649C27.0201 50.0453 26.996 49.5512 26.6765 49.2613Z" fill="#231F20"/>
<path d="M24.1646 56.151L22.4916 57.9954C22.2018 58.3149 22.2259 58.809 22.5454 59.0988C22.6949 59.2346 22.8829 59.3015 23.0701 59.3015C23.2827 59.3015 23.4948 59.2151 23.649 59.0451L25.3219 57.2007C25.6118 56.8812 25.5877 56.3871 25.2682 56.0973C24.9485 55.8071 24.4544 55.8313 24.1646 56.151Z" fill="#231F20"/>
<path d="M13.5788 44.3968L15.2518 42.5523C15.5416 42.2326 15.5176 41.7385 15.198 41.4488C14.8784 41.1587 14.3843 41.1829 14.0944 41.5026L12.4213 43.347C12.1315 43.6667 12.1555 44.1607 12.4751 44.4504C12.6248 44.5862 12.8126 44.6531 12.9998 44.6531C13.2126 44.6531 13.4246 44.5668 13.5788 44.3968Z" fill="#231F20"/>
</g>
<defs>
<linearGradient id="paint0_linear_1934_24144" x1="39.9986" y1="99.9149" x2="39.9986" y2="5.86586" gradientUnits="userSpaceOnUse">
<stop stop-color="#F8F4E8"/>
<stop offset="1" stop-color="#E4D1B1"/>
</linearGradient>
<clipPath id="clip0_1934_24144">
<rect width="80" height="80" fill="white"/>
</clipPath>
</defs>
</svg>
