<svg width="17" height="16" viewBox="0 0 17 16" fill="none" xmlns="http://www.w3.org/2000/svg">
<g clip-path="url(#clip0_1260_22634)">
<path d="M16.1422 3.82101C15.5775 4.06193 14.9758 4.22162 14.3485 4.29916C14.9939 3.92439 15.4864 3.33547 15.718 2.62562C15.1163 2.97454 14.452 3.22101 13.744 3.35854C13.1727 2.76685 12.3585 2.40039 11.4702 2.40039C9.7468 2.40039 8.35934 3.76101 8.35934 5.42901C8.35934 5.66901 8.38022 5.89977 8.43147 6.11947C5.84351 5.9967 3.55355 4.79024 2.01521 2.95239C1.74664 3.40562 1.5891 3.92439 1.5891 4.48285C1.5891 5.53147 2.14427 6.46101 2.97181 6.99916C2.47168 6.98993 1.98104 6.8487 1.56537 6.62624C1.56537 6.63547 1.56537 6.64747 1.56537 6.65947C1.56537 8.13085 2.6444 9.353 4.05937 9.63454C3.80599 9.70193 3.52983 9.73424 3.24323 9.73424C3.04393 9.73424 2.84274 9.72316 2.65389 9.68254C3.05722 10.8816 4.20173 11.7632 5.56261 11.7918C4.50351 12.5976 3.15876 13.0832 1.70298 13.0832C1.4477 13.0832 1.20285 13.0721 0.958008 13.0416C2.33692 13.9065 3.97112 14.4004 5.73343 14.4004C11.4617 14.4004 14.5934 9.785 14.5934 5.78439C14.5934 5.65054 14.5886 5.52131 14.582 5.39301C15.1998 4.96654 15.7189 4.43393 16.1422 3.82101Z" fill="#A87F45"/>
</g>
<defs>
<clipPath id="clip0_1260_22634">
<rect width="15.9833" height="16" fill="white" transform="translate(0.55957)"/>
</clipPath>
</defs>
</svg>
