<svg width="17" height="16" viewBox="0 0 17 16" fill="none" xmlns="http://www.w3.org/2000/svg">
<path d="M16.4581 11.6114C16.4388 11.5704 16.4207 11.5364 16.404 11.5092C16.1267 11.0185 15.5967 10.4161 14.8145 9.70202L14.798 9.68567L14.7897 9.67765L14.7813 9.66943H14.7729C14.4179 9.33691 14.1931 9.11332 14.099 8.99885C13.9267 8.7808 13.8881 8.56008 13.9823 8.33644C14.0488 8.16747 14.2986 7.81063 14.7312 7.26544C14.9588 6.9765 15.139 6.74493 15.2721 6.57046C16.232 5.31666 16.6481 4.51546 16.5204 4.16656L16.4708 4.08502C16.4375 4.03593 16.3515 3.99103 16.213 3.95008C16.0742 3.90921 15.8967 3.90245 15.6803 3.92968L13.2836 3.94595C13.2448 3.93243 13.1894 3.93369 13.1171 3.95008C13.045 3.96646 13.0089 3.97468 13.0089 3.97468L12.9672 3.99515L12.9341 4.01975C12.9063 4.03602 12.8758 4.06463 12.8425 4.10553C12.8094 4.14628 12.7816 4.19411 12.7595 4.24861C12.4986 4.90818 12.2019 5.52143 11.8689 6.0883C11.6637 6.42632 11.4751 6.71927 11.303 6.96731C11.131 7.21526 10.9868 7.39795 10.8703 7.51505C10.7538 7.63227 10.6485 7.72618 10.554 7.79712C10.4597 7.86808 10.3877 7.89807 10.3378 7.8871C10.2878 7.87613 10.2407 7.86525 10.1962 7.85436C10.1185 7.80528 10.0561 7.73852 10.009 7.65404C9.96176 7.56955 9.92993 7.46322 9.91329 7.33512C9.89673 7.20693 9.88694 7.09667 9.88414 7.00397C9.88155 6.91138 9.88274 6.78041 9.88837 6.61144C9.89414 6.44239 9.89673 6.32801 9.89673 6.26804C9.89673 6.06086 9.90084 5.83602 9.90909 5.59345C9.91749 5.35088 9.92428 5.15869 9.92996 5.0171C9.93561 4.87536 9.93824 4.72541 9.93824 4.56733C9.93824 4.40924 9.92844 4.28526 9.90909 4.19528C9.88997 4.10541 9.86062 4.01818 9.82194 3.93361C9.78303 3.84912 9.72607 3.78377 9.65134 3.73738C9.57646 3.69104 9.48336 3.65427 9.37257 3.62694C9.0785 3.56156 8.70404 3.52619 8.24902 3.52069C7.21717 3.50981 6.55415 3.57528 6.26011 3.71701C6.1436 3.7769 6.03818 3.85872 5.94391 3.96222C5.84402 4.08219 5.83009 4.14765 5.9022 4.15842C6.23513 4.20742 6.47081 4.32464 6.60953 4.50996L6.65952 4.60816C6.6984 4.67902 6.73722 4.80445 6.77608 4.98431C6.81487 5.16416 6.83991 5.36311 6.85093 5.58105C6.87862 5.97904 6.87862 6.31973 6.85093 6.60314C6.82315 6.88666 6.79692 7.10738 6.77188 7.26547C6.74684 7.42355 6.70942 7.55165 6.65952 7.64974C6.60953 7.74786 6.57627 7.80783 6.5596 7.82959C6.54295 7.85136 6.52908 7.86508 6.51806 7.87046C6.44595 7.89761 6.37095 7.91144 6.29333 7.91144C6.2156 7.91144 6.12133 7.87324 6.0104 7.79689C5.89949 7.72054 5.78439 7.61566 5.66509 7.48209C5.54579 7.34849 5.41124 7.16179 5.26139 6.92197C5.11166 6.68215 4.95631 6.39872 4.79541 6.07166L4.66229 5.83448C4.57908 5.68189 4.4654 5.45971 4.32115 5.16814C4.17681 4.87645 4.04923 4.5943 3.93833 4.32175C3.89399 4.20728 3.82739 4.12013 3.73864 4.06016L3.69699 4.03556C3.6693 4.0138 3.62485 3.99068 3.56387 3.96606C3.5028 3.94145 3.43909 3.92381 3.37246 3.91296L1.09227 3.92923C0.859266 3.92923 0.701169 3.98109 0.617924 4.08468L0.584608 4.13368C0.567965 4.16097 0.55957 4.20456 0.55957 4.26456C0.55957 4.32453 0.576214 4.39813 0.609529 4.48528C0.942394 5.25394 1.30438 5.99525 1.69548 6.70933C2.08658 7.42341 2.42644 7.99862 2.71486 8.43444C3.00333 8.87058 3.29737 9.28221 3.59698 9.66912C3.89659 10.0562 4.09491 10.3042 4.19194 10.4132C4.28909 10.5223 4.3654 10.604 4.42087 10.6585L4.62895 10.8547C4.7621 10.9855 4.95762 11.1422 5.2156 11.3248C5.47365 11.5075 5.75932 11.6873 6.07277 11.8646C6.38629 12.0417 6.75101 12.1861 7.16715 12.2978C7.58323 12.4097 7.98821 12.4545 8.38214 12.4329H9.33917C9.53326 12.4164 9.68031 12.3565 9.78026 12.253L9.81337 12.212C9.83564 12.1794 9.85648 12.1289 9.87572 12.0609C9.89519 11.9927 9.90486 11.9177 9.90486 11.836C9.89918 11.6017 9.91734 11.3905 9.95885 11.2024C10.0003 11.0144 10.0476 10.8727 10.1005 10.7773C10.1533 10.6819 10.213 10.6014 10.2793 10.5362C10.3458 10.4708 10.3932 10.4312 10.421 10.4176C10.4487 10.4038 10.4707 10.3945 10.4874 10.3889C10.6205 10.3454 10.7772 10.3876 10.9577 10.5158C11.138 10.6439 11.3072 10.8021 11.4654 10.99C11.6235 11.1782 11.8135 11.3893 12.0354 11.6237C12.2574 11.8581 12.4515 12.0324 12.6179 12.147L12.7843 12.2451C12.8954 12.3106 13.0396 12.3706 13.2172 12.425C13.3944 12.4795 13.5497 12.4932 13.6831 12.4659L15.8134 12.4333C16.0241 12.4333 16.1881 12.399 16.3044 12.331C16.4209 12.2628 16.4901 12.1878 16.5124 12.1061C16.5347 12.0244 16.5359 11.9317 16.5167 11.828C16.4969 11.7246 16.4775 11.6523 16.4581 11.6114Z" fill="#A87F45"/>
</svg>
