<svg width="17" height="16" viewBox="0 0 17 16" fill="none" xmlns="http://www.w3.org/2000/svg">
<path d="M12.4208 7.84961C11.8679 7.84961 10.7622 8.93634 8.55084 8.93634C6.33944 8.93634 5.23374 7.84961 4.6809 7.84961C4.07055 7.84961 3.5752 8.33646 3.5752 8.93634C3.5752 9.4797 3.88921 9.74106 4.12805 9.87853C4.78317 10.2551 6.89229 11.1098 6.89229 11.1098L4.54268 14.0646C4.54268 14.0646 4.12805 14.5727 4.12805 14.9133C4.12805 15.5132 4.6234 16.0001 5.23374 16.0001C5.7982 16.0001 6.05417 15.6436 6.05417 15.6436C6.05417 15.6436 8.54697 12.7361 8.55084 12.7399C8.55471 12.7361 11.0475 15.6436 11.0475 15.6436C11.0475 15.6436 11.3035 16.0001 11.8679 16.0001C12.4783 16.0001 12.9736 15.5132 12.9736 14.9133C12.9736 14.5727 12.559 14.0646 12.559 14.0646L10.2094 11.1098C10.2094 11.1098 12.3185 10.2551 12.9736 9.87853C13.2125 9.74106 13.5265 9.4797 13.5265 8.93634C13.5265 8.33646 13.0311 7.84961 12.4208 7.84961Z" fill="#A87F45"/>
<path d="M8.55278 0.130859C6.38191 0.130859 4.62207 1.89253 4.62207 4.06567C4.62207 6.2388 6.38191 8.00047 8.55278 8.00047C10.7231 8.00047 12.4835 6.2388 12.4835 4.06567C12.4835 1.89253 10.7231 0.130859 8.55278 0.130859ZM8.55278 6.03307C7.46734 6.03307 6.58743 5.1528 6.58743 4.06567C6.58743 2.9791 7.46734 2.09826 8.55278 2.09826C9.63766 2.09826 10.5181 2.9791 10.5181 4.06567C10.5181 5.1528 9.63766 6.03307 8.55278 6.03307Z" fill="#A87F45"/>
</svg>
